<svg width="1351" height="1028" viewBox="0 0 1351 1028" fill="none" xmlns="http://www.w3.org/2000/svg">
<rect x="1.4925" y="137.492" width="956.015" height="332.015" rx="16.4175" fill="#FFE2E1" stroke="#D59795" stroke-width="2.985"/>
<path d="M1056.42 304.914C1057.2 304.133 1057.2 302.867 1056.42 302.086L1043.69 289.358C1042.91 288.577 1041.64 288.577 1040.86 289.358C1040.08 290.139 1040.08 291.405 1040.86 292.186L1052.17 303.5L1040.86 314.814C1040.08 315.595 1040.08 316.861 1040.86 317.642C1041.64 318.423 1042.91 318.423 1043.69 317.642L1056.42 304.914ZM958.998 305.5H1055V301.5H958.998V305.5Z" fill="#D59795"/>
<path d="M1056.42 784.414C1057.2 783.633 1057.2 782.367 1056.42 781.586L1043.69 768.858C1042.91 768.077 1041.64 768.077 1040.86 768.858C1040.08 769.639 1040.08 770.905 1040.86 771.686L1052.18 783L1040.86 794.314C1040.08 795.095 1040.08 796.361 1040.86 797.142C1041.64 797.923 1042.91 797.923 1043.69 797.142L1056.42 784.414ZM959 785H1055.01V781H959V785Z" fill="#D5B555"/>
<path d="M285.414 305.414C286.195 304.633 286.195 303.367 285.414 302.586L272.686 289.858C271.905 289.077 270.639 289.077 269.858 289.858C269.077 290.639 269.077 291.905 269.858 292.686L281.172 304L269.858 315.314C269.077 316.095 269.077 317.361 269.858 318.142C270.639 318.923 271.905 318.923 272.686 318.142L285.414 305.414ZM192 306H284V302H192V306Z" fill="#B0ADAD"/>
<path d="M492.414 304.414C493.195 303.633 493.195 302.367 492.414 301.586L479.686 288.858C478.905 288.077 477.639 288.077 476.858 288.858C476.077 289.639 476.077 290.905 476.858 291.686L488.172 303L476.858 314.314C476.077 315.095 476.077 316.361 476.858 317.142C477.639 317.923 478.905 317.923 479.686 317.142L492.414 304.414ZM399 305H491V301H399V305Z" fill="#B0ADAD"/>
<rect x="957.508" y="901.508" width="956.015" height="227.015" rx="16.4175" transform="rotate(-180 957.508 901.508)" fill="#FFF2CC" stroke="#D5B555" stroke-width="2.985"/>
<rect x="25.5" y="161.5" width="166" height="284" rx="10.5" fill="#F2F3F2" stroke="#B0ADAD" stroke-width="3"/>
<rect x="495.5" y="161.5" width="438" height="284" rx="10.5" fill="#F2F3F2" stroke="#B0ADAD" stroke-width="3"/>
<rect x="481.5" y="698.5" width="452" height="179" rx="10.5" fill="#F2F3F2" stroke="#B0ADAD" stroke-width="3"/>
<rect x="25.5" y="698.5" width="310" height="179" rx="10.5" fill="#F2F3F2" stroke="#B0ADAD" stroke-width="3"/>
<rect x="481.5" y="515.5" width="324" height="114" rx="10.5" fill="#CBE1FF" stroke="#3276CF" stroke-width="3"/>
<rect x="288.5" y="161.5" width="109" height="284" rx="10.5" fill="#F2F3F2" stroke="#B0ADAD" stroke-width="3"/>
<path d="M76.3691 318.48C74.9291 318.48 73.6357 318.227 72.4891 317.72C71.3424 317.213 70.3691 316.493 69.5691 315.56C68.7957 314.627 68.1957 313.493 67.7691 312.16C67.3691 310.827 67.1691 309.333 67.1691 307.68C67.1691 306.027 67.3691 304.533 67.7691 303.2C68.1957 301.867 68.7957 300.733 69.5691 299.8C70.3691 298.867 71.3424 298.147 72.4891 297.64C73.6357 297.133 74.9291 296.88 76.3691 296.88C78.4224 296.88 80.0624 297.333 81.2891 298.24C82.5424 299.12 83.4757 300.28 84.0891 301.72L81.4091 303.08C81.0357 302.013 80.4224 301.187 79.5691 300.6C78.7157 300.013 77.6491 299.72 76.3691 299.72C75.4091 299.72 74.5691 299.88 73.8491 300.2C73.1291 300.493 72.5291 300.92 72.0491 301.48C71.5691 302.013 71.2091 302.667 70.9691 303.44C70.7291 304.187 70.6091 305.013 70.6091 305.92V309.44C70.6091 311.253 71.0891 312.747 72.0491 313.92C73.0357 315.067 74.4757 315.64 76.3691 315.64C78.9557 315.64 80.8224 314.44 81.9691 312.04L84.2891 313.6C83.6224 315.093 82.6224 316.28 81.2891 317.16C79.9824 318.04 78.3424 318.48 76.3691 318.48ZM96.3719 318.48C94.9852 318.48 93.7185 318.227 92.5719 317.72C91.4252 317.213 90.4385 316.493 89.6119 315.56C88.8119 314.6 88.1852 313.467 87.7319 312.16C87.2785 310.827 87.0519 309.333 87.0519 307.68C87.0519 306.053 87.2785 304.573 87.7319 303.24C88.1852 301.907 88.8119 300.773 89.6119 299.84C90.4385 298.88 91.4252 298.147 92.5719 297.64C93.7185 297.133 94.9852 296.88 96.3719 296.88C97.7585 296.88 99.0119 297.133 100.132 297.64C101.279 298.147 102.265 298.88 103.092 299.84C103.919 300.773 104.559 301.907 105.012 303.24C105.465 304.573 105.692 306.053 105.692 307.68C105.692 309.333 105.465 310.827 105.012 312.16C104.559 313.467 103.919 314.6 103.092 315.56C102.265 316.493 101.279 317.213 100.132 317.72C99.0119 318.227 97.7585 318.48 96.3719 318.48ZM96.3719 315.64C98.1052 315.64 99.5185 315.107 100.612 314.04C101.705 312.973 102.252 311.347 102.252 309.16V306.2C102.252 304.013 101.705 302.387 100.612 301.32C99.5185 300.253 98.1052 299.72 96.3719 299.72C94.6385 299.72 93.2252 300.253 92.1319 301.32C91.0385 302.387 90.4919 304.013 90.4919 306.2V309.16C90.4919 311.347 91.0385 312.973 92.1319 314.04C93.2252 315.107 94.6385 315.64 96.3719 315.64ZM124.155 314.64H123.995C122.741 317.2 120.728 318.48 117.955 318.48C116.675 318.48 115.515 318.227 114.475 317.72C113.435 317.213 112.541 316.493 111.795 315.56C111.075 314.627 110.515 313.493 110.115 312.16C109.741 310.827 109.555 309.333 109.555 307.68C109.555 306.027 109.741 304.533 110.115 303.2C110.515 301.867 111.075 300.733 111.795 299.8C112.541 298.867 113.435 298.147 114.475 297.64C115.515 297.133 116.675 296.88 117.955 296.88C119.395 296.88 120.621 297.2 121.635 297.84C122.675 298.453 123.461 299.413 123.995 300.72H124.155V288.4H127.355V318H124.155V314.64ZM118.835 315.6C119.555 315.6 120.235 315.507 120.875 315.32C121.541 315.133 122.115 314.867 122.595 314.52C123.075 314.147 123.448 313.707 123.715 313.2C124.008 312.667 124.155 312.067 124.155 311.4V303.72C124.155 303.16 124.008 302.64 123.715 302.16C123.448 301.653 123.075 301.227 122.595 300.88C122.115 300.533 121.541 300.267 120.875 300.08C120.235 299.867 119.555 299.76 118.835 299.76C117.021 299.76 115.595 300.333 114.555 301.48C113.515 302.6 112.995 304.08 112.995 305.92V309.44C112.995 311.28 113.515 312.773 114.555 313.92C115.595 315.04 117.021 315.6 118.835 315.6ZM141.918 318.48C140.504 318.48 139.224 318.227 138.078 317.72C136.958 317.213 135.984 316.493 135.158 315.56C134.358 314.6 133.731 313.467 133.278 312.16C132.851 310.827 132.638 309.333 132.638 307.68C132.638 306.053 132.851 304.573 133.278 303.24C133.731 301.907 134.358 300.773 135.158 299.84C135.984 298.88 136.958 298.147 138.078 297.64C139.224 297.133 140.504 296.88 141.918 296.88C143.304 296.88 144.544 297.133 145.638 297.64C146.731 298.147 147.664 298.853 148.438 299.76C149.211 300.64 149.798 301.693 150.198 302.92C150.624 304.147 150.838 305.493 150.838 306.96V308.48H135.998V309.44C135.998 310.32 136.131 311.147 136.398 311.92C136.691 312.667 137.091 313.32 137.598 313.88C138.131 314.44 138.771 314.88 139.518 315.2C140.291 315.52 141.158 315.68 142.118 315.68C143.424 315.68 144.558 315.373 145.518 314.76C146.504 314.147 147.264 313.267 147.798 312.12L150.078 313.76C149.411 315.173 148.371 316.32 146.958 317.2C145.544 318.053 143.864 318.48 141.918 318.48ZM141.918 299.56C141.038 299.56 140.238 299.72 139.518 300.04C138.798 300.333 138.171 300.76 137.638 301.32C137.131 301.88 136.731 302.547 136.438 303.32C136.144 304.067 135.998 304.893 135.998 305.8V306.08H147.398V305.64C147.398 303.8 146.891 302.333 145.878 301.24C144.891 300.12 143.571 299.56 141.918 299.56Z" fill="black"/>
<path d="M682.369 318.48C680.929 318.48 679.636 318.227 678.489 317.72C677.342 317.213 676.369 316.493 675.569 315.56C674.796 314.627 674.196 313.493 673.769 312.16C673.369 310.827 673.169 309.333 673.169 307.68C673.169 306.027 673.369 304.533 673.769 303.2C674.196 301.867 674.796 300.733 675.569 299.8C676.369 298.867 677.342 298.147 678.489 297.64C679.636 297.133 680.929 296.88 682.369 296.88C684.422 296.88 686.062 297.333 687.289 298.24C688.542 299.12 689.476 300.28 690.089 301.72L687.409 303.08C687.036 302.013 686.422 301.187 685.569 300.6C684.716 300.013 683.649 299.72 682.369 299.72C681.409 299.72 680.569 299.88 679.849 300.2C679.129 300.493 678.529 300.92 678.049 301.48C677.569 302.013 677.209 302.667 676.969 303.44C676.729 304.187 676.609 305.013 676.609 305.92V309.44C676.609 311.253 677.089 312.747 678.049 313.92C679.036 315.067 680.476 315.64 682.369 315.64C684.956 315.64 686.822 314.44 687.969 312.04L690.289 313.6C689.622 315.093 688.622 316.28 687.289 317.16C685.982 318.04 684.342 318.48 682.369 318.48ZM702.372 318.48C700.985 318.48 699.719 318.227 698.572 317.72C697.425 317.213 696.439 316.493 695.612 315.56C694.812 314.6 694.185 313.467 693.732 312.16C693.279 310.827 693.052 309.333 693.052 307.68C693.052 306.053 693.279 304.573 693.732 303.24C694.185 301.907 694.812 300.773 695.612 299.84C696.439 298.88 697.425 298.147 698.572 297.64C699.719 297.133 700.985 296.88 702.372 296.88C703.759 296.88 705.012 297.133 706.132 297.64C707.279 298.147 708.265 298.88 709.092 299.84C709.919 300.773 710.559 301.907 711.012 303.24C711.465 304.573 711.692 306.053 711.692 307.68C711.692 309.333 711.465 310.827 711.012 312.16C710.559 313.467 709.919 314.6 709.092 315.56C708.265 316.493 707.279 317.213 706.132 317.72C705.012 318.227 703.759 318.48 702.372 318.48ZM702.372 315.64C704.105 315.64 705.519 315.107 706.612 314.04C707.705 312.973 708.252 311.347 708.252 309.16V306.2C708.252 304.013 707.705 302.387 706.612 301.32C705.519 300.253 704.105 299.72 702.372 299.72C700.639 299.72 699.225 300.253 698.132 301.32C697.039 302.387 696.492 304.013 696.492 306.2V309.16C696.492 311.347 697.039 312.973 698.132 314.04C699.225 315.107 700.639 315.64 702.372 315.64ZM730.155 314.64H729.995C728.741 317.2 726.728 318.48 723.955 318.48C722.675 318.48 721.515 318.227 720.475 317.72C719.435 317.213 718.541 316.493 717.795 315.56C717.075 314.627 716.515 313.493 716.115 312.16C715.741 310.827 715.555 309.333 715.555 307.68C715.555 306.027 715.741 304.533 716.115 303.2C716.515 301.867 717.075 300.733 717.795 299.8C718.541 298.867 719.435 298.147 720.475 297.64C721.515 297.133 722.675 296.88 723.955 296.88C725.395 296.88 726.621 297.2 727.635 297.84C728.675 298.453 729.461 299.413 729.995 300.72H730.155V288.4H733.355V318H730.155V314.64ZM724.835 315.6C725.555 315.6 726.235 315.507 726.875 315.32C727.541 315.133 728.115 314.867 728.595 314.52C729.075 314.147 729.448 313.707 729.715 313.2C730.008 312.667 730.155 312.067 730.155 311.4V303.72C730.155 303.16 730.008 302.64 729.715 302.16C729.448 301.653 729.075 301.227 728.595 300.88C728.115 300.533 727.541 300.267 726.875 300.08C726.235 299.867 725.555 299.76 724.835 299.76C723.021 299.76 721.595 300.333 720.555 301.48C719.515 302.6 718.995 304.08 718.995 305.92V309.44C718.995 311.28 719.515 312.773 720.555 313.92C721.595 315.04 723.021 315.6 724.835 315.6ZM747.918 318.48C746.504 318.48 745.224 318.227 744.078 317.72C742.958 317.213 741.984 316.493 741.158 315.56C740.358 314.6 739.731 313.467 739.278 312.16C738.851 310.827 738.638 309.333 738.638 307.68C738.638 306.053 738.851 304.573 739.278 303.24C739.731 301.907 740.358 300.773 741.158 299.84C741.984 298.88 742.958 298.147 744.078 297.64C745.224 297.133 746.504 296.88 747.918 296.88C749.304 296.88 750.544 297.133 751.638 297.64C752.731 298.147 753.664 298.853 754.438 299.76C755.211 300.64 755.798 301.693 756.198 302.92C756.624 304.147 756.838 305.493 756.838 306.96V308.48H741.998V309.44C741.998 310.32 742.131 311.147 742.398 311.92C742.691 312.667 743.091 313.32 743.598 313.88C744.131 314.44 744.771 314.88 745.518 315.2C746.291 315.52 747.158 315.68 748.118 315.68C749.424 315.68 750.558 315.373 751.518 314.76C752.504 314.147 753.264 313.267 753.798 312.12L756.078 313.76C755.411 315.173 754.371 316.32 752.958 317.2C751.544 318.053 749.864 318.48 747.918 318.48ZM747.918 299.56C747.038 299.56 746.238 299.72 745.518 300.04C744.798 300.333 744.171 300.76 743.638 301.32C743.131 301.88 742.731 302.547 742.438 303.32C742.144 304.067 741.998 304.893 741.998 305.8V306.08H753.398V305.64C753.398 303.8 752.891 302.333 751.878 301.24C750.891 300.12 749.571 299.56 747.918 299.56Z" fill="black"/>
<path d="M682.369 803.48C680.929 803.48 679.636 803.227 678.489 802.72C677.342 802.213 676.369 801.493 675.569 800.56C674.796 799.627 674.196 798.493 673.769 797.16C673.369 795.827 673.169 794.333 673.169 792.68C673.169 791.027 673.369 789.533 673.769 788.2C674.196 786.867 674.796 785.733 675.569 784.8C676.369 783.867 677.342 783.147 678.489 782.64C679.636 782.133 680.929 781.88 682.369 781.88C684.422 781.88 686.062 782.333 687.289 783.24C688.542 784.12 689.476 785.28 690.089 786.72L687.409 788.08C687.036 787.013 686.422 786.187 685.569 785.6C684.716 785.013 683.649 784.72 682.369 784.72C681.409 784.72 680.569 784.88 679.849 785.2C679.129 785.493 678.529 785.92 678.049 786.48C677.569 787.013 677.209 787.667 676.969 788.44C676.729 789.187 676.609 790.013 676.609 790.92V794.44C676.609 796.253 677.089 797.747 678.049 798.92C679.036 800.067 680.476 800.64 682.369 800.64C684.956 800.64 686.822 799.44 687.969 797.04L690.289 798.6C689.622 800.093 688.622 801.28 687.289 802.16C685.982 803.04 684.342 803.48 682.369 803.48ZM702.372 803.48C700.985 803.48 699.719 803.227 698.572 802.72C697.425 802.213 696.439 801.493 695.612 800.56C694.812 799.6 694.185 798.467 693.732 797.16C693.279 795.827 693.052 794.333 693.052 792.68C693.052 791.053 693.279 789.573 693.732 788.24C694.185 786.907 694.812 785.773 695.612 784.84C696.439 783.88 697.425 783.147 698.572 782.64C699.719 782.133 700.985 781.88 702.372 781.88C703.759 781.88 705.012 782.133 706.132 782.64C707.279 783.147 708.265 783.88 709.092 784.84C709.919 785.773 710.559 786.907 711.012 788.24C711.465 789.573 711.692 791.053 711.692 792.68C711.692 794.333 711.465 795.827 711.012 797.16C710.559 798.467 709.919 799.6 709.092 800.56C708.265 801.493 707.279 802.213 706.132 802.72C705.012 803.227 703.759 803.48 702.372 803.48ZM702.372 800.64C704.105 800.64 705.519 800.107 706.612 799.04C707.705 797.973 708.252 796.347 708.252 794.16V791.2C708.252 789.013 707.705 787.387 706.612 786.32C705.519 785.253 704.105 784.72 702.372 784.72C700.639 784.72 699.225 785.253 698.132 786.32C697.039 787.387 696.492 789.013 696.492 791.2V794.16C696.492 796.347 697.039 797.973 698.132 799.04C699.225 800.107 700.639 800.64 702.372 800.64ZM730.155 799.64H729.995C728.741 802.2 726.728 803.48 723.955 803.48C722.675 803.48 721.515 803.227 720.475 802.72C719.435 802.213 718.541 801.493 717.795 800.56C717.075 799.627 716.515 798.493 716.115 797.16C715.741 795.827 715.555 794.333 715.555 792.68C715.555 791.027 715.741 789.533 716.115 788.2C716.515 786.867 717.075 785.733 717.795 784.8C718.541 783.867 719.435 783.147 720.475 782.64C721.515 782.133 722.675 781.88 723.955 781.88C725.395 781.88 726.621 782.2 727.635 782.84C728.675 783.453 729.461 784.413 729.995 785.72H730.155V773.4H733.355V803H730.155V799.64ZM724.835 800.6C725.555 800.6 726.235 800.507 726.875 800.32C727.541 800.133 728.115 799.867 728.595 799.52C729.075 799.147 729.448 798.707 729.715 798.2C730.008 797.667 730.155 797.067 730.155 796.4V788.72C730.155 788.16 730.008 787.64 729.715 787.16C729.448 786.653 729.075 786.227 728.595 785.88C728.115 785.533 727.541 785.267 726.875 785.08C726.235 784.867 725.555 784.76 724.835 784.76C723.021 784.76 721.595 785.333 720.555 786.48C719.515 787.6 718.995 789.08 718.995 790.92V794.44C718.995 796.28 719.515 797.773 720.555 798.92C721.595 800.04 723.021 800.6 724.835 800.6ZM747.918 803.48C746.504 803.48 745.224 803.227 744.078 802.72C742.958 802.213 741.984 801.493 741.158 800.56C740.358 799.6 739.731 798.467 739.278 797.16C738.851 795.827 738.638 794.333 738.638 792.68C738.638 791.053 738.851 789.573 739.278 788.24C739.731 786.907 740.358 785.773 741.158 784.84C741.984 783.88 742.958 783.147 744.078 782.64C745.224 782.133 746.504 781.88 747.918 781.88C749.304 781.88 750.544 782.133 751.638 782.64C752.731 783.147 753.664 783.853 754.438 784.76C755.211 785.64 755.798 786.693 756.198 787.92C756.624 789.147 756.838 790.493 756.838 791.96V793.48H741.998V794.44C741.998 795.32 742.131 796.147 742.398 796.92C742.691 797.667 743.091 798.32 743.598 798.88C744.131 799.44 744.771 799.88 745.518 800.2C746.291 800.52 747.158 800.68 748.118 800.68C749.424 800.68 750.558 800.373 751.518 799.76C752.504 799.147 753.264 798.267 753.798 797.12L756.078 798.76C755.411 800.173 754.371 801.32 752.958 802.2C751.544 803.053 749.864 803.48 747.918 803.48ZM747.918 784.56C747.038 784.56 746.238 784.72 745.518 785.04C744.798 785.333 744.171 785.76 743.638 786.32C743.131 786.88 742.731 787.547 742.438 788.32C742.144 789.067 741.998 789.893 741.998 790.8V791.08H753.398V790.64C753.398 788.8 752.891 787.333 751.878 786.24C750.891 785.12 749.571 784.56 747.918 784.56Z" fill="black"/>
<path d="M74.4391 730.36H90.5591V751H87.3591V733.16H77.6391V751H74.4391V730.36ZM105.169 751.48C103.782 751.48 102.515 751.227 101.369 750.72C100.222 750.213 99.2354 749.493 98.4088 748.56C97.6088 747.6 96.9821 746.467 96.5288 745.16C96.0754 743.827 95.8488 742.333 95.8488 740.68C95.8488 739.053 96.0754 737.573 96.5288 736.24C96.9821 734.907 97.6088 733.773 98.4088 732.84C99.2354 731.88 100.222 731.147 101.369 730.64C102.515 730.133 103.782 729.88 105.169 729.88C106.555 729.88 107.809 730.133 108.929 730.64C110.075 731.147 111.062 731.88 111.889 732.84C112.715 733.773 113.355 734.907 113.809 736.24C114.262 737.573 114.489 739.053 114.489 740.68C114.489 742.333 114.262 743.827 113.809 745.16C113.355 746.467 112.715 747.6 111.889 748.56C111.062 749.493 110.075 750.213 108.929 750.72C107.809 751.227 106.555 751.48 105.169 751.48ZM105.169 748.64C106.902 748.64 108.315 748.107 109.409 747.04C110.502 745.973 111.049 744.347 111.049 742.16V739.2C111.049 737.013 110.502 735.387 109.409 734.32C108.315 733.253 106.902 732.72 105.169 732.72C103.435 732.72 102.022 733.253 100.929 734.32C99.8354 735.387 99.2888 737.013 99.2888 739.2V742.16C99.2888 744.347 99.8354 745.973 100.929 747.04C102.022 748.107 103.435 748.64 105.169 748.64ZM116.593 748.2H118.953C119.78 746.867 120.447 745.2 120.953 743.2C121.46 741.2 121.713 738.907 121.713 736.32V730.36H135.673V748.2H139.113V756.6H136.193V751H119.513V756.6H116.593V748.2ZM132.473 748.2V733.16H124.753V736.48C124.753 739.227 124.513 741.573 124.033 743.52C123.58 745.44 123.033 747 122.393 748.2H132.473ZM143.541 730.36H156.581V733.16H146.741V751H143.541V730.36ZM167.981 751.48C166.595 751.48 165.328 751.227 164.181 750.72C163.035 750.213 162.048 749.493 161.221 748.56C160.421 747.6 159.795 746.467 159.341 745.16C158.888 743.827 158.661 742.333 158.661 740.68C158.661 739.053 158.888 737.573 159.341 736.24C159.795 734.907 160.421 733.773 161.221 732.84C162.048 731.88 163.035 731.147 164.181 730.64C165.328 730.133 166.595 729.88 167.981 729.88C169.368 729.88 170.621 730.133 171.741 730.64C172.888 731.147 173.875 731.88 174.701 732.84C175.528 733.773 176.168 734.907 176.621 736.24C177.075 737.573 177.301 739.053 177.301 740.68C177.301 742.333 177.075 743.827 176.621 745.16C176.168 746.467 175.528 747.6 174.701 748.56C173.875 749.493 172.888 750.213 171.741 750.72C170.621 751.227 169.368 751.48 167.981 751.48ZM167.981 748.64C169.715 748.64 171.128 748.107 172.221 747.04C173.315 745.973 173.861 744.347 173.861 742.16V739.2C173.861 737.013 173.315 735.387 172.221 734.32C171.128 733.253 169.715 732.72 167.981 732.72C166.248 732.72 164.835 733.253 163.741 734.32C162.648 735.387 162.101 737.013 162.101 739.2V742.16C162.101 744.347 162.648 745.973 163.741 747.04C164.835 748.107 166.248 748.64 167.981 748.64ZM186.496 733.16H179.456V730.36H196.736V733.16H189.696V751H186.496V733.16ZM208.216 751.48C206.829 751.48 205.562 751.227 204.416 750.72C203.269 750.213 202.282 749.493 201.456 748.56C200.656 747.6 200.029 746.467 199.576 745.16C199.122 743.827 198.896 742.333 198.896 740.68C198.896 739.053 199.122 737.573 199.576 736.24C200.029 734.907 200.656 733.773 201.456 732.84C202.282 731.88 203.269 731.147 204.416 730.64C205.562 730.133 206.829 729.88 208.216 729.88C209.602 729.88 210.856 730.133 211.976 730.64C213.122 731.147 214.109 731.88 214.936 732.84C215.762 733.773 216.402 734.907 216.856 736.24C217.309 737.573 217.536 739.053 217.536 740.68C217.536 742.333 217.309 743.827 216.856 745.16C216.402 746.467 215.762 747.6 214.936 748.56C214.109 749.493 213.122 750.213 211.976 750.72C210.856 751.227 209.602 751.48 208.216 751.48ZM208.216 748.64C209.949 748.64 211.362 748.107 212.456 747.04C213.549 745.973 214.096 744.347 214.096 742.16V739.2C214.096 737.013 213.549 735.387 212.456 734.32C211.362 733.253 209.949 732.72 208.216 732.72C206.482 732.72 205.069 733.253 203.976 734.32C202.882 735.387 202.336 737.013 202.336 739.2V742.16C202.336 744.347 202.882 745.973 203.976 747.04C205.069 748.107 206.482 748.64 208.216 748.64ZM222.798 730.36H233.198C234.878 730.36 236.198 730.84 237.158 731.8C238.118 732.733 238.598 734 238.598 735.6C238.598 738.187 237.252 739.64 234.558 739.96V740.12C236.158 740.253 237.345 740.76 238.118 741.64C238.918 742.493 239.318 743.56 239.318 744.84C239.318 745.667 239.185 746.453 238.918 747.2C238.678 747.947 238.318 748.6 237.838 749.16C237.358 749.72 236.772 750.173 236.078 750.52C235.385 750.84 234.598 751 233.718 751H222.798V730.36ZM232.758 748.36C233.718 748.36 234.478 748.107 235.038 747.6C235.598 747.093 235.878 746.373 235.878 745.44V744.52C235.878 743.587 235.598 742.867 235.038 742.36C234.478 741.853 233.718 741.6 232.758 741.6H225.998V748.36H232.758ZM232.358 739C233.238 739 233.918 738.787 234.398 738.36C234.905 737.907 235.158 737.267 235.158 736.44V735.56C235.158 734.733 234.905 734.107 234.398 733.68C233.918 733.227 233.238 733 232.358 733H225.998V739H232.358ZM245.103 730.36H248.303V739H252.423L256.423 732.68C256.716 732.2 256.996 731.813 257.263 731.52C257.53 731.2 257.796 730.96 258.063 730.8C258.33 730.64 258.61 730.533 258.903 730.48C259.196 730.4 259.53 730.36 259.903 730.36H261.783V733.16H259.303L256.063 738.28C255.85 738.627 255.663 738.907 255.503 739.12C255.343 739.333 255.183 739.52 255.023 739.68C254.863 739.813 254.69 739.933 254.503 740.04C254.316 740.12 254.09 740.2 253.823 740.28V740.44C254.383 740.52 254.863 740.707 255.263 741C255.69 741.267 256.13 741.8 256.583 742.6L259.743 748.2H262.103V751H259.783C259.09 751 258.45 750.827 257.863 750.48C257.303 750.107 256.756 749.44 256.223 748.48L252.423 741.72H248.303V751H245.103V730.36ZM281.705 751C280.505 751 279.638 750.68 279.105 750.04C278.598 749.4 278.278 748.6 278.145 747.64H277.945C277.491 748.92 276.745 749.88 275.705 750.52C274.665 751.16 273.425 751.48 271.985 751.48C269.798 751.48 268.091 750.92 266.865 749.8C265.665 748.68 265.065 747.16 265.065 745.24C265.065 743.293 265.771 741.8 267.185 740.76C268.625 739.72 270.851 739.2 273.865 739.2H277.945V737.16C277.945 735.693 277.545 734.573 276.745 733.8C275.945 733.027 274.718 732.64 273.065 732.64C271.811 732.64 270.758 732.92 269.905 733.48C269.078 734.04 268.385 734.787 267.825 735.72L265.905 733.92C266.465 732.8 267.358 731.853 268.585 731.08C269.811 730.28 271.358 729.88 273.225 729.88C275.731 729.88 277.678 730.493 279.065 731.72C280.451 732.947 281.145 734.653 281.145 736.84V748.2H283.505V751H281.705ZM272.505 748.76C273.305 748.76 274.038 748.667 274.705 748.48C275.371 748.293 275.945 748.027 276.425 747.68C276.905 747.333 277.278 746.933 277.545 746.48C277.811 746.027 277.945 745.533 277.945 745V741.6H273.705C271.865 741.6 270.518 741.867 269.665 742.4C268.838 742.933 268.425 743.707 268.425 744.72V745.56C268.425 746.573 268.785 747.36 269.505 747.92C270.251 748.48 271.251 748.76 272.505 748.76ZM290.503 746.32C291.356 746.32 291.969 746.547 292.343 747C292.743 747.427 292.943 747.987 292.943 748.68V749.24C292.943 750.333 292.623 751.533 291.983 752.84C291.343 754.173 290.449 755.333 289.303 756.32H286.623C287.423 755.467 288.063 754.653 288.543 753.88C289.049 753.133 289.409 752.293 289.623 751.36C289.089 751.227 288.689 750.973 288.423 750.6C288.183 750.227 288.063 749.773 288.063 749.24V748.68C288.063 747.987 288.249 747.427 288.623 747C289.023 746.547 289.649 746.32 290.503 746.32ZM112.115 782.36H122.515C124.195 782.36 125.515 782.84 126.475 783.8C127.435 784.733 127.915 786 127.915 787.6C127.915 790.187 126.568 791.64 123.875 791.96V792.12C125.475 792.253 126.662 792.76 127.435 793.64C128.235 794.493 128.635 795.56 128.635 796.84C128.635 797.667 128.502 798.453 128.235 799.2C127.995 799.947 127.635 800.6 127.155 801.16C126.675 801.72 126.088 802.173 125.395 802.52C124.702 802.84 123.915 803 123.035 803H112.115V782.36ZM122.075 800.36C123.035 800.36 123.795 800.107 124.355 799.6C124.915 799.093 125.195 798.373 125.195 797.44V796.52C125.195 795.587 124.915 794.867 124.355 794.36C123.795 793.853 123.035 793.6 122.075 793.6H115.315V800.36H122.075ZM121.675 791C122.555 791 123.235 790.787 123.715 790.36C124.222 789.907 124.475 789.267 124.475 788.44V787.56C124.475 786.733 124.222 786.107 123.715 785.68C123.235 785.227 122.555 785 121.675 785H115.315V791H121.675ZM142.18 803.48C140.766 803.48 139.486 803.227 138.34 802.72C137.22 802.213 136.246 801.493 135.42 800.56C134.62 799.6 133.993 798.467 133.54 797.16C133.113 795.827 132.9 794.333 132.9 792.68C132.9 791.053 133.113 789.573 133.54 788.24C133.993 786.907 134.62 785.773 135.42 784.84C136.246 783.88 137.22 783.147 138.34 782.64C139.486 782.133 140.766 781.88 142.18 781.88C143.566 781.88 144.806 782.133 145.9 782.64C146.993 783.147 147.926 783.853 148.7 784.76C149.473 785.64 150.06 786.693 150.46 787.92C150.886 789.147 151.1 790.493 151.1 791.96V793.48H136.26V794.44C136.26 795.32 136.393 796.147 136.66 796.92C136.953 797.667 137.353 798.32 137.86 798.88C138.393 799.44 139.033 799.88 139.78 800.2C140.553 800.52 141.42 800.68 142.38 800.68C143.686 800.68 144.82 800.373 145.78 799.76C146.766 799.147 147.526 798.267 148.06 797.12L150.34 798.76C149.673 800.173 148.633 801.32 147.22 802.2C145.806 803.053 144.126 803.48 142.18 803.48ZM142.18 784.56C141.3 784.56 140.5 784.72 139.78 785.04C139.06 785.333 138.433 785.76 137.9 786.32C137.393 786.88 136.993 787.547 136.7 788.32C136.406 789.067 136.26 789.893 136.26 790.8V791.08H147.66V790.64C147.66 788.8 147.153 787.333 146.14 786.24C145.153 785.12 143.833 784.56 142.18 784.56ZM156.373 782.36H159.573V785.72H159.733C160.266 784.413 161.039 783.453 162.053 782.84C163.093 782.2 164.333 781.88 165.773 781.88C167.053 781.88 168.213 782.133 169.253 782.64C170.293 783.147 171.173 783.867 171.893 784.8C172.639 785.733 173.199 786.867 173.573 788.2C173.973 789.533 174.173 791.027 174.173 792.68C174.173 794.333 173.973 795.827 173.573 797.16C173.199 798.493 172.639 799.627 171.893 800.56C171.173 801.493 170.293 802.213 169.253 802.72C168.213 803.227 167.053 803.48 165.773 803.48C162.973 803.48 160.959 802.2 159.733 799.64H159.573V811H156.373V782.36ZM164.893 800.6C166.706 800.6 168.133 800.04 169.173 798.92C170.213 797.773 170.733 796.28 170.733 794.44V790.92C170.733 789.08 170.213 787.6 169.173 786.48C168.133 785.333 166.706 784.76 164.893 784.76C164.173 784.76 163.479 784.867 162.813 785.08C162.173 785.267 161.613 785.533 161.133 785.88C160.653 786.227 160.266 786.653 159.973 787.16C159.706 787.64 159.573 788.16 159.573 788.72V796.4C159.573 797.067 159.706 797.667 159.973 798.2C160.266 798.707 160.653 799.147 161.133 799.52C161.613 799.867 162.173 800.133 162.813 800.32C163.479 800.507 164.173 800.6 164.893 800.6ZM187.256 803.48C185.816 803.48 184.522 803.227 183.376 802.72C182.229 802.213 181.256 801.493 180.456 800.56C179.682 799.627 179.082 798.493 178.656 797.16C178.256 795.827 178.056 794.333 178.056 792.68C178.056 791.027 178.256 789.533 178.656 788.2C179.082 786.867 179.682 785.733 180.456 784.8C181.256 783.867 182.229 783.147 183.376 782.64C184.522 782.133 185.816 781.88 187.256 781.88C189.309 781.88 190.949 782.333 192.176 783.24C193.429 784.12 194.362 785.28 194.976 786.72L192.296 788.08C191.922 787.013 191.309 786.187 190.456 785.6C189.602 785.013 188.536 784.72 187.256 784.72C186.296 784.72 185.456 784.88 184.736 785.2C184.016 785.493 183.416 785.92 182.936 786.48C182.456 787.013 182.096 787.667 181.856 788.44C181.616 789.187 181.496 790.013 181.496 790.92V794.44C181.496 796.253 181.976 797.747 182.936 798.92C183.922 800.067 185.362 800.64 187.256 800.64C189.842 800.64 191.709 799.44 192.856 797.04L195.176 798.6C194.509 800.093 193.509 801.28 192.176 802.16C190.869 803.04 189.229 803.48 187.256 803.48ZM204.289 785.16H197.249V782.36H214.529V785.16H207.489V803H204.289V785.16ZM218.716 782.36H221.916V791H226.036L230.036 784.68C230.33 784.2 230.61 783.813 230.876 783.52C231.143 783.2 231.41 782.96 231.676 782.8C231.943 782.64 232.223 782.533 232.516 782.48C232.81 782.4 233.143 782.36 233.516 782.36H235.396V785.16H232.916L229.676 790.28C229.463 790.627 229.276 790.907 229.116 791.12C228.956 791.333 228.796 791.52 228.636 791.68C228.476 791.813 228.303 791.933 228.116 792.04C227.93 792.12 227.703 792.2 227.436 792.28V792.44C227.996 792.52 228.476 792.707 228.876 793C229.303 793.267 229.743 793.8 230.196 794.6L233.356 800.2H235.716V803H233.396C232.703 803 232.063 802.827 231.476 802.48C230.916 802.107 230.37 801.44 229.836 800.48L226.036 793.72H221.916V803H218.716V782.36ZM255.318 803C254.118 803 253.251 802.68 252.718 802.04C252.211 801.4 251.891 800.6 251.758 799.64H251.558C251.105 800.92 250.358 801.88 249.318 802.52C248.278 803.16 247.038 803.48 245.598 803.48C243.411 803.48 241.705 802.92 240.478 801.8C239.278 800.68 238.678 799.16 238.678 797.24C238.678 795.293 239.385 793.8 240.798 792.76C242.238 791.72 244.465 791.2 247.478 791.2H251.558V789.16C251.558 787.693 251.158 786.573 250.358 785.8C249.558 785.027 248.331 784.64 246.678 784.64C245.425 784.64 244.371 784.92 243.518 785.48C242.691 786.04 241.998 786.787 241.438 787.72L239.518 785.92C240.078 784.8 240.971 783.853 242.198 783.08C243.425 782.28 244.971 781.88 246.838 781.88C249.345 781.88 251.291 782.493 252.678 783.72C254.065 784.947 254.758 786.653 254.758 788.84V800.2H257.118V803H255.318ZM246.118 800.76C246.918 800.76 247.651 800.667 248.318 800.48C248.985 800.293 249.558 800.027 250.038 799.68C250.518 799.333 250.891 798.933 251.158 798.48C251.425 798.027 251.558 797.533 251.558 797V793.6H247.318C245.478 793.6 244.131 793.867 243.278 794.4C242.451 794.933 242.038 795.707 242.038 796.72V797.56C242.038 798.573 242.398 799.36 243.118 799.92C243.865 800.48 244.865 800.76 246.118 800.76ZM62.4273 834.36H65.6273V843H69.7473L73.7473 836.68C74.0407 836.2 74.3207 835.813 74.5873 835.52C74.854 835.2 75.1207 834.96 75.3873 834.8C75.654 834.64 75.934 834.533 76.2273 834.48C76.5207 834.4 76.854 834.36 77.2273 834.36H79.1073V837.16H76.6273L73.3873 842.28C73.174 842.627 72.9873 842.907 72.8273 843.12C72.6673 843.333 72.5073 843.52 72.3473 843.68C72.1873 843.813 72.014 843.933 71.8273 844.04C71.6407 844.12 71.414 844.2 71.1473 844.28V844.44C71.7073 844.52 72.1873 844.707 72.5873 845C73.014 845.267 73.454 845.8 73.9073 846.6L77.0673 852.2H79.4273V855H77.1073C76.414 855 75.774 854.827 75.1873 854.48C74.6273 854.107 74.0807 853.44 73.5473 852.48L69.7473 845.72H65.6273V855H62.4273V834.36ZM91.5945 855.48C90.2079 855.48 88.9412 855.227 87.7945 854.72C86.6479 854.213 85.6612 853.493 84.8345 852.56C84.0345 851.6 83.4079 850.467 82.9545 849.16C82.5012 847.827 82.2745 846.333 82.2745 844.68C82.2745 843.053 82.5012 841.573 82.9545 840.24C83.4079 838.907 84.0345 837.773 84.8345 836.84C85.6612 835.88 86.6479 835.147 87.7945 834.64C88.9412 834.133 90.2079 833.88 91.5945 833.88C92.9812 833.88 94.2345 834.133 95.3545 834.64C96.5012 835.147 97.4879 835.88 98.3145 836.84C99.1412 837.773 99.7812 838.907 100.235 840.24C100.688 841.573 100.915 843.053 100.915 844.68C100.915 846.333 100.688 847.827 100.235 849.16C99.7812 850.467 99.1412 851.6 98.3145 852.56C97.4879 853.493 96.5012 854.213 95.3545 854.72C94.2345 855.227 92.9812 855.48 91.5945 855.48ZM91.5945 852.64C93.3279 852.64 94.7412 852.107 95.8345 851.04C96.9279 849.973 97.4745 848.347 97.4745 846.16V843.2C97.4745 841.013 96.9279 839.387 95.8345 838.32C94.7412 837.253 93.3279 836.72 91.5945 836.72C89.8612 836.72 88.4479 837.253 87.3545 838.32C86.2612 839.387 85.7145 841.013 85.7145 843.2V846.16C85.7145 848.347 86.2612 849.973 87.3545 851.04C88.4479 852.107 89.8612 852.64 91.5945 852.64ZM106.177 834.36H110.377L116.657 845.08H116.817L123.057 834.36H127.217V855H124.097V838.2H123.897L122.737 840.44L116.697 850.68L110.657 840.44L109.497 838.2H109.297V855H106.177V834.36ZM134.029 834.36H150.149V855H146.949V837.16H137.229V855H134.029V834.36ZM164.759 855.48C163.372 855.48 162.105 855.227 160.959 854.72C159.812 854.213 158.825 853.493 157.999 852.56C157.199 851.6 156.572 850.467 156.119 849.16C155.665 847.827 155.439 846.333 155.439 844.68C155.439 843.053 155.665 841.573 156.119 840.24C156.572 838.907 157.199 837.773 157.999 836.84C158.825 835.88 159.812 835.147 160.959 834.64C162.105 834.133 163.372 833.88 164.759 833.88C166.145 833.88 167.399 834.133 168.519 834.64C169.665 835.147 170.652 835.88 171.479 836.84C172.305 837.773 172.945 838.907 173.399 840.24C173.852 841.573 174.079 843.053 174.079 844.68C174.079 846.333 173.852 847.827 173.399 849.16C172.945 850.467 172.305 851.6 171.479 852.56C170.652 853.493 169.665 854.213 168.519 854.72C167.399 855.227 166.145 855.48 164.759 855.48ZM164.759 852.64C166.492 852.64 167.905 852.107 168.999 851.04C170.092 849.973 170.639 848.347 170.639 846.16V843.2C170.639 841.013 170.092 839.387 168.999 838.32C167.905 837.253 166.492 836.72 164.759 836.72C163.025 836.72 161.612 837.253 160.519 838.32C159.425 839.387 158.879 841.013 158.879 843.2V846.16C158.879 848.347 159.425 849.973 160.519 851.04C161.612 852.107 163.025 852.64 164.759 852.64ZM179.341 834.36H182.541V842.96H192.861V834.36H196.061V855H192.861V845.76H182.541V855H179.341V834.36ZM210.617 855.48C209.204 855.48 207.924 855.227 206.777 854.72C205.657 854.213 204.684 853.493 203.857 852.56C203.057 851.6 202.43 850.467 201.977 849.16C201.55 847.827 201.337 846.333 201.337 844.68C201.337 843.053 201.55 841.573 201.977 840.24C202.43 838.907 203.057 837.773 203.857 836.84C204.684 835.88 205.657 835.147 206.777 834.64C207.924 834.133 209.204 833.88 210.617 833.88C212.004 833.88 213.244 834.133 214.337 834.64C215.43 835.147 216.364 835.853 217.137 836.76C217.91 837.64 218.497 838.693 218.897 839.92C219.324 841.147 219.537 842.493 219.537 843.96V845.48H204.697V846.44C204.697 847.32 204.83 848.147 205.097 848.92C205.39 849.667 205.79 850.32 206.297 850.88C206.83 851.44 207.47 851.88 208.217 852.2C208.99 852.52 209.857 852.68 210.817 852.68C212.124 852.68 213.257 852.373 214.217 851.76C215.204 851.147 215.964 850.267 216.497 849.12L218.777 850.76C218.11 852.173 217.07 853.32 215.657 854.2C214.244 855.053 212.564 855.48 210.617 855.48ZM210.617 836.56C209.737 836.56 208.937 836.72 208.217 837.04C207.497 837.333 206.87 837.76 206.337 838.32C205.83 838.88 205.43 839.547 205.137 840.32C204.844 841.067 204.697 841.893 204.697 842.8V843.08H216.097V842.64C216.097 840.8 215.59 839.333 214.577 838.24C213.59 837.12 212.27 836.56 210.617 836.56ZM224.81 834.36H228.01V842.96H238.33V834.36H241.53V855H238.33V845.76H228.01V855H224.81V834.36ZM252.766 837.16H245.726V834.36H263.006V837.16H255.966V855H252.766V837.16ZM274.485 855.48C273.098 855.48 271.832 855.227 270.685 854.72C269.538 854.213 268.552 853.493 267.725 852.56C266.925 851.6 266.298 850.467 265.845 849.16C265.392 847.827 265.165 846.333 265.165 844.68C265.165 843.053 265.392 841.573 265.845 840.24C266.298 838.907 266.925 837.773 267.725 836.84C268.552 835.88 269.538 835.147 270.685 834.64C271.832 834.133 273.098 833.88 274.485 833.88C275.872 833.88 277.125 834.133 278.245 834.64C279.392 835.147 280.378 835.88 281.205 836.84C282.032 837.773 282.672 838.907 283.125 840.24C283.578 841.573 283.805 843.053 283.805 844.68C283.805 846.333 283.578 847.827 283.125 849.16C282.672 850.467 282.032 851.6 281.205 852.56C280.378 853.493 279.392 854.213 278.245 854.72C277.125 855.227 275.872 855.48 274.485 855.48ZM274.485 852.64C276.218 852.64 277.632 852.107 278.725 851.04C279.818 849.973 280.365 848.347 280.365 846.16V843.2C280.365 841.013 279.818 839.387 278.725 838.32C277.632 837.253 276.218 836.72 274.485 836.72C272.752 836.72 271.338 837.253 270.245 838.32C269.152 839.387 268.605 841.013 268.605 843.2V846.16C268.605 848.347 269.152 849.973 270.245 851.04C271.338 852.107 272.752 852.64 274.485 852.64ZM289.068 834.36H299.468C301.148 834.36 302.468 834.84 303.428 835.8C304.388 836.733 304.868 838 304.868 839.6C304.868 842.187 303.521 843.64 300.828 843.96V844.12C302.428 844.253 303.615 844.76 304.388 845.64C305.188 846.493 305.588 847.56 305.588 848.84C305.588 849.667 305.455 850.453 305.188 851.2C304.948 851.947 304.588 852.6 304.108 853.16C303.628 853.72 303.041 854.173 302.348 854.52C301.655 854.84 300.868 855 299.988 855H289.068V834.36ZM299.028 852.36C299.988 852.36 300.748 852.107 301.308 851.6C301.868 851.093 302.148 850.373 302.148 849.44V848.52C302.148 847.587 301.868 846.867 301.308 846.36C300.748 845.853 299.988 845.6 299.028 845.6H292.268V852.36H299.028ZM298.628 843C299.508 843 300.188 842.787 300.668 842.36C301.175 841.907 301.428 841.267 301.428 840.44V839.56C301.428 838.733 301.175 838.107 300.668 837.68C300.188 837.227 299.508 837 298.628 837H292.268V843H298.628Z" fill="black"/>
<path d="M558.433 586C557.313 586 556.459 585.693 555.873 585.08C555.313 584.44 555.033 583.613 555.033 582.6V568.16H551.633V565.36H553.553C554.246 565.36 554.713 565.227 554.953 564.96C555.219 564.667 555.353 564.173 555.353 563.48V559.64H558.233V565.36H562.753V568.16H558.233V583.2H562.433V586H558.433ZM575.5 586.48C574.087 586.48 572.807 586.227 571.66 585.72C570.54 585.213 569.567 584.493 568.74 583.56C567.94 582.6 567.313 581.467 566.86 580.16C566.433 578.827 566.22 577.333 566.22 575.68C566.22 574.053 566.433 572.573 566.86 571.24C567.313 569.907 567.94 568.773 568.74 567.84C569.567 566.88 570.54 566.147 571.66 565.64C572.807 565.133 574.087 564.88 575.5 564.88C576.887 564.88 578.127 565.133 579.22 565.64C580.313 566.147 581.247 566.853 582.02 567.76C582.793 568.64 583.38 569.693 583.78 570.92C584.207 572.147 584.42 573.493 584.42 574.96V576.48H569.58V577.44C569.58 578.32 569.713 579.147 569.98 579.92C570.273 580.667 570.673 581.32 571.18 581.88C571.713 582.44 572.353 582.88 573.1 583.2C573.873 583.52 574.74 583.68 575.7 583.68C577.007 583.68 578.14 583.373 579.1 582.76C580.087 582.147 580.847 581.267 581.38 580.12L583.66 581.76C582.993 583.173 581.953 584.32 580.54 585.2C579.127 586.053 577.447 586.48 575.5 586.48ZM575.5 567.56C574.62 567.56 573.82 567.72 573.1 568.04C572.38 568.333 571.753 568.76 571.22 569.32C570.713 569.88 570.313 570.547 570.02 571.32C569.727 572.067 569.58 572.893 569.58 573.8V574.08H580.98V573.64C580.98 571.8 580.473 570.333 579.46 569.24C578.473 568.12 577.153 567.56 575.5 567.56ZM595.893 586.48C593.973 586.48 592.36 586.12 591.053 585.4C589.773 584.653 588.666 583.667 587.733 582.44L590.013 580.6C590.813 581.613 591.706 582.4 592.693 582.96C593.68 583.493 594.826 583.76 596.133 583.76C597.493 583.76 598.546 583.467 599.293 582.88C600.066 582.293 600.453 581.467 600.453 580.4C600.453 579.6 600.186 578.92 599.653 578.36C599.146 577.773 598.213 577.373 596.853 577.16L595.213 576.92C594.253 576.787 593.373 576.587 592.573 576.32C591.773 576.027 591.066 575.653 590.453 575.2C589.866 574.72 589.4 574.133 589.053 573.44C588.733 572.747 588.573 571.92 588.573 570.96C588.573 569.947 588.76 569.067 589.133 568.32C589.506 567.547 590.013 566.907 590.653 566.4C591.32 565.893 592.106 565.52 593.013 565.28C593.92 565.013 594.893 564.88 595.933 564.88C597.613 564.88 599.013 565.173 600.133 565.76C601.28 566.347 602.28 567.16 603.133 568.2L601.013 570.12C600.56 569.48 599.893 568.907 599.013 568.4C598.133 567.867 597.026 567.6 595.693 567.6C594.36 567.6 593.346 567.893 592.653 568.48C591.986 569.04 591.653 569.813 591.653 570.8C591.653 571.813 591.986 572.547 592.653 573C593.346 573.453 594.333 573.787 595.613 574L597.213 574.24C599.506 574.587 601.133 575.253 602.093 576.24C603.053 577.2 603.533 578.467 603.533 580.04C603.533 582.04 602.853 583.613 601.493 584.76C600.133 585.907 598.266 586.48 595.893 586.48ZM613.472 586C612.352 586 611.498 585.693 610.912 585.08C610.352 584.44 610.072 583.613 610.072 582.6V568.16H606.672V565.36H608.592C609.285 565.36 609.752 565.227 609.992 564.96C610.258 564.667 610.392 564.173 610.392 563.48V559.64H613.272V565.36H617.792V568.16H613.272V583.2H617.472V586H613.472ZM638.588 586.48C636.668 586.48 635.055 586.12 633.748 585.4C632.468 584.653 631.362 583.667 630.428 582.44L632.708 580.6C633.508 581.613 634.402 582.4 635.388 582.96C636.375 583.493 637.522 583.76 638.828 583.76C640.188 583.76 641.242 583.467 641.988 582.88C642.762 582.293 643.148 581.467 643.148 580.4C643.148 579.6 642.882 578.92 642.348 578.36C641.842 577.773 640.908 577.373 639.548 577.16L637.908 576.92C636.948 576.787 636.068 576.587 635.268 576.32C634.468 576.027 633.762 575.653 633.148 575.2C632.562 574.72 632.095 574.133 631.748 573.44C631.428 572.747 631.268 571.92 631.268 570.96C631.268 569.947 631.455 569.067 631.828 568.32C632.202 567.547 632.708 566.907 633.348 566.4C634.015 565.893 634.802 565.52 635.708 565.28C636.615 565.013 637.588 564.88 638.628 564.88C640.308 564.88 641.708 565.173 642.828 565.76C643.975 566.347 644.975 567.16 645.828 568.2L643.708 570.12C643.255 569.48 642.588 568.907 641.708 568.4C640.828 567.867 639.722 567.6 638.388 567.6C637.055 567.6 636.042 567.893 635.348 568.48C634.682 569.04 634.348 569.813 634.348 570.8C634.348 571.813 634.682 572.547 635.348 573C636.042 573.453 637.028 573.787 638.308 574L639.908 574.24C642.202 574.587 643.828 575.253 644.788 576.24C645.748 577.2 646.228 578.467 646.228 580.04C646.228 582.04 645.548 583.613 644.188 584.76C642.828 585.907 640.962 586.48 638.588 586.48ZM659.64 586.48C658.227 586.48 656.947 586.227 655.8 585.72C654.68 585.213 653.707 584.493 652.88 583.56C652.08 582.6 651.454 581.467 651 580.16C650.574 578.827 650.36 577.333 650.36 575.68C650.36 574.053 650.574 572.573 651 571.24C651.454 569.907 652.08 568.773 652.88 567.84C653.707 566.88 654.68 566.147 655.8 565.64C656.947 565.133 658.227 564.88 659.64 564.88C661.027 564.88 662.267 565.133 663.36 565.64C664.454 566.147 665.387 566.853 666.16 567.76C666.934 568.64 667.52 569.693 667.92 570.92C668.347 572.147 668.56 573.493 668.56 574.96V576.48H653.72V577.44C653.72 578.32 653.854 579.147 654.12 579.92C654.414 580.667 654.814 581.32 655.32 581.88C655.854 582.44 656.494 582.88 657.24 583.2C658.014 583.52 658.88 583.68 659.84 583.68C661.147 583.68 662.28 583.373 663.24 582.76C664.227 582.147 664.987 581.267 665.52 580.12L667.8 581.76C667.134 583.173 666.094 584.32 664.68 585.2C663.267 586.053 661.587 586.48 659.64 586.48ZM659.64 567.56C658.76 567.56 657.96 567.72 657.24 568.04C656.52 568.333 655.894 568.76 655.36 569.32C654.854 569.88 654.454 570.547 654.16 571.32C653.867 572.067 653.72 572.893 653.72 573.8V574.08H665.12V573.64C665.12 571.8 664.614 570.333 663.6 569.24C662.614 568.12 661.294 567.56 659.64 567.56ZM673.834 586V565.36H677.034V569.16H677.234C677.607 568.173 678.274 567.293 679.234 566.52C680.194 565.747 681.514 565.36 683.194 565.36H684.434V568.56H682.554C680.82 568.56 679.46 568.893 678.474 569.56C677.514 570.2 677.034 571.013 677.034 572V586H673.834ZM693.472 586L686.232 565.36H689.432L693.032 575.6L695.272 582.64H695.472L697.712 575.6L701.392 565.36H704.472L697.192 586H693.472ZM716.047 586.48C714.633 586.48 713.353 586.227 712.207 585.72C711.087 585.213 710.113 584.493 709.287 583.56C708.487 582.6 707.86 581.467 707.407 580.16C706.98 578.827 706.767 577.333 706.767 575.68C706.767 574.053 706.98 572.573 707.407 571.24C707.86 569.907 708.487 568.773 709.287 567.84C710.113 566.88 711.087 566.147 712.207 565.64C713.353 565.133 714.633 564.88 716.047 564.88C717.433 564.88 718.673 565.133 719.767 565.64C720.86 566.147 721.793 566.853 722.567 567.76C723.34 568.64 723.927 569.693 724.327 570.92C724.753 572.147 724.967 573.493 724.967 574.96V576.48H710.127V577.44C710.127 578.32 710.26 579.147 710.527 579.92C710.82 580.667 711.22 581.32 711.727 581.88C712.26 582.44 712.9 582.88 713.647 583.2C714.42 583.52 715.287 583.68 716.247 583.68C717.553 583.68 718.687 583.373 719.647 582.76C720.633 582.147 721.393 581.267 721.927 580.12L724.207 581.76C723.54 583.173 722.5 584.32 721.087 585.2C719.673 586.053 717.993 586.48 716.047 586.48ZM716.047 567.56C715.167 567.56 714.367 567.72 713.647 568.04C712.927 568.333 712.3 568.76 711.767 569.32C711.26 569.88 710.86 570.547 710.567 571.32C710.273 572.067 710.127 572.893 710.127 573.8V574.08H721.527V573.64C721.527 571.8 721.02 570.333 720.007 569.24C719.02 568.12 717.7 567.56 716.047 567.56ZM730.24 586V565.36H733.44V569.16H733.64C734.013 568.173 734.68 567.293 735.64 566.52C736.6 565.747 737.92 565.36 739.6 565.36H740.84V568.56H738.96C737.227 568.56 735.867 568.893 734.88 569.56C733.92 570.2 733.44 571.013 733.44 572V586H730.24Z" fill="black"/>
<path d="M355.48 415.451C355.48 416.891 355.227 418.185 354.72 419.331C354.213 420.478 353.493 421.451 352.56 422.251C351.627 423.025 350.493 423.625 349.16 424.051C347.827 424.451 346.333 424.651 344.68 424.651C343.027 424.651 341.533 424.451 340.2 424.051C338.867 423.625 337.733 423.025 336.8 422.251C335.867 421.451 335.147 420.478 334.64 419.331C334.133 418.185 333.88 416.891 333.88 415.451C333.88 413.398 334.333 411.758 335.24 410.531C336.12 409.278 337.28 408.345 338.72 407.731L340.08 410.411C339.013 410.785 338.187 411.398 337.6 412.251C337.013 413.105 336.72 414.171 336.72 415.451C336.72 416.411 336.88 417.251 337.2 417.971C337.493 418.691 337.92 419.291 338.48 419.771C339.013 420.251 339.667 420.611 340.44 420.851C341.187 421.091 342.013 421.211 342.92 421.211L346.44 421.211C348.253 421.211 349.747 420.731 350.92 419.771C352.067 418.785 352.64 417.345 352.64 415.451C352.64 412.865 351.44 410.998 349.04 409.851L350.6 407.531C352.093 408.198 353.28 409.198 354.16 410.531C355.04 411.838 355.48 413.478 355.48 415.451ZM355.48 395.448C355.48 396.835 355.227 398.102 354.72 399.248C354.213 400.395 353.493 401.382 352.56 402.208C351.6 403.008 350.467 403.635 349.16 404.088C347.827 404.542 346.333 404.768 344.68 404.768C343.053 404.768 341.573 404.542 340.24 404.088C338.907 403.635 337.773 403.008 336.84 402.208C335.88 401.382 335.147 400.395 334.64 399.248C334.133 398.102 333.88 396.835 333.88 395.448C333.88 394.062 334.133 392.808 334.64 391.688C335.147 390.542 335.88 389.555 336.84 388.728C337.773 387.902 338.907 387.262 340.24 386.808C341.573 386.355 343.053 386.128 344.68 386.128C346.333 386.128 347.827 386.355 349.16 386.808C350.467 387.262 351.6 387.902 352.56 388.728C353.493 389.555 354.213 390.542 354.72 391.688C355.227 392.808 355.48 394.062 355.48 395.448ZM352.64 395.448C352.64 393.715 352.107 392.302 351.04 391.208C349.973 390.115 348.347 389.568 346.16 389.568L343.2 389.568C341.013 389.568 339.387 390.115 338.32 391.208C337.253 392.302 336.72 393.715 336.72 395.448C336.72 397.182 337.253 398.595 338.32 399.688C339.387 400.782 341.013 401.328 343.2 401.328L346.16 401.328C348.347 401.328 349.973 400.782 351.04 399.688C352.107 398.595 352.64 397.182 352.64 395.448ZM355 380.866L334.36 380.866L334.36 377.666L337.72 377.666L337.72 377.506C336.547 376.999 335.613 376.292 334.92 375.386C334.227 374.452 333.88 373.212 333.88 371.666C333.88 369.532 334.573 367.852 335.96 366.626C337.32 365.372 339.253 364.746 341.76 364.746L355 364.746L355 367.946L342.32 367.946C338.613 367.946 336.76 369.506 336.76 372.626C336.76 373.266 336.84 373.892 337 374.506C337.16 375.092 337.4 375.626 337.72 376.106C338.04 376.586 338.453 376.972 338.96 377.266C339.44 377.532 340.013 377.666 340.68 377.666L355 377.666L355 380.866ZM355 353.571C355 354.691 354.693 355.545 354.08 356.131C353.44 356.691 352.613 356.971 351.6 356.971L337.16 356.971L337.16 360.371L334.36 360.371L334.36 358.451C334.36 357.758 334.227 357.291 333.96 357.051C333.667 356.785 333.173 356.651 332.48 356.651L328.64 356.651L328.64 353.771L334.36 353.771L334.36 349.251L337.16 349.251L337.16 353.771L352.2 353.771L352.2 349.571L355 349.571L355 353.571ZM355 344.108L334.36 344.108L334.36 340.908L338.16 340.908L338.16 340.708C337.173 340.334 336.293 339.668 335.52 338.708C334.747 337.748 334.36 336.428 334.36 334.748L334.36 333.508L337.56 333.508L337.56 335.388C337.56 337.121 337.893 338.481 338.56 339.468C339.2 340.428 340.013 340.908 341 340.908L355 340.908L355 344.108ZM355 314.577C355 315.777 354.68 316.643 354.04 317.177C353.4 317.683 352.6 318.003 351.64 318.137L351.64 318.337C352.92 318.79 353.88 319.537 354.52 320.577C355.16 321.617 355.48 322.857 355.48 324.297C355.48 326.483 354.92 328.19 353.8 329.417C352.68 330.617 351.16 331.217 349.24 331.217C347.293 331.217 345.8 330.51 344.76 329.097C343.72 327.657 343.2 325.43 343.2 322.417L343.2 318.337L341.16 318.337C339.693 318.337 338.573 318.737 337.8 319.537C337.027 320.337 336.64 321.563 336.64 323.217C336.64 324.47 336.92 325.523 337.48 326.377C338.04 327.203 338.787 327.897 339.72 328.457L337.92 330.377C336.8 329.817 335.853 328.923 335.08 327.697C334.28 326.47 333.88 324.923 333.88 323.057C333.88 320.55 334.493 318.603 335.72 317.217C336.947 315.83 338.653 315.137 340.84 315.137L352.2 315.137L352.2 312.777L355 312.777L355 314.577ZM352.76 323.777C352.76 322.977 352.667 322.243 352.48 321.577C352.293 320.91 352.027 320.337 351.68 319.857C351.333 319.377 350.933 319.003 350.48 318.737C350.027 318.47 349.533 318.337 349 318.337L345.6 318.337L345.6 322.577C345.6 324.417 345.867 325.763 346.4 326.617C346.933 327.443 347.707 327.857 348.72 327.857L349.56 327.857C350.573 327.857 351.36 327.497 351.92 326.777C352.48 326.03 352.76 325.03 352.76 323.777ZM355.48 300.529C355.48 301.969 355.227 303.263 354.72 304.409C354.213 305.556 353.493 306.529 352.56 307.329C351.627 308.103 350.493 308.703 349.16 309.129C347.827 309.529 346.333 309.729 344.68 309.729C343.027 309.729 341.533 309.529 340.2 309.129C338.867 308.703 337.733 308.103 336.8 307.329C335.867 306.529 335.147 305.556 334.64 304.409C334.133 303.263 333.88 301.969 333.88 300.529C333.88 298.476 334.333 296.836 335.24 295.609C336.12 294.356 337.28 293.423 338.72 292.809L340.08 295.489C339.013 295.863 338.187 296.476 337.6 297.329C337.013 298.183 336.72 299.249 336.72 300.529C336.72 301.489 336.88 302.329 337.2 303.049C337.493 303.769 337.92 304.369 338.48 304.849C339.013 305.329 339.667 305.689 340.44 305.929C341.187 306.169 342.013 306.289 342.92 306.289L346.44 306.289C348.253 306.289 349.747 305.809 350.92 304.849C352.067 303.863 352.64 302.423 352.64 300.529C352.64 297.943 351.44 296.076 349.04 294.929L350.6 292.609C352.093 293.276 353.28 294.276 354.16 295.609C355.04 296.916 355.48 298.556 355.48 300.529ZM355 283.532C355 284.652 354.693 285.506 354.08 286.092C353.44 286.652 352.613 286.932 351.6 286.932L337.16 286.932L337.16 290.332L334.36 290.332L334.36 288.412C334.36 287.719 334.227 287.252 333.96 287.012C333.667 286.746 333.173 286.612 332.48 286.612L328.64 286.612L328.64 283.732L334.36 283.732L334.36 279.212L337.16 279.212L337.16 283.732L352.2 283.732L352.2 279.532L355 279.532L355 283.532Z" fill="black"/>
<path d="M344.55 197H343.45C342.124 197 340.852 197.527 339.914 198.464C338.977 199.402 338.45 200.674 338.45 202V202.45C338.449 203.327 338.218 204.188 337.779 204.947C337.34 205.706 336.709 206.337 335.95 206.775L334.875 207.4C334.115 207.839 333.253 208.07 332.375 208.07C331.497 208.07 330.635 207.839 329.875 207.4L329.5 207.2C328.353 206.538 326.99 206.359 325.71 206.701C324.43 207.043 323.339 207.879 322.675 209.025L322.125 209.975C321.463 211.122 321.284 212.485 321.626 213.765C321.968 215.045 322.804 216.136 323.95 216.8L324.325 217.05C325.081 217.486 325.709 218.113 326.148 218.867C326.586 219.621 326.82 220.477 326.825 221.35V222.625C326.829 223.506 326.599 224.372 326.16 225.136C325.721 225.9 325.088 226.534 324.325 226.975L323.95 227.2C322.804 227.864 321.968 228.955 321.626 230.235C321.284 231.515 321.463 232.878 322.125 234.025L322.675 234.975C323.339 236.121 324.43 236.957 325.71 237.299C326.99 237.641 328.353 237.462 329.5 236.8L329.875 236.6C330.635 236.161 331.497 235.93 332.375 235.93C333.253 235.93 334.115 236.161 334.875 236.6L335.95 237.225C336.709 237.663 337.34 238.294 337.779 239.053C338.218 239.812 338.449 240.673 338.45 241.55V242C338.45 243.326 338.977 244.598 339.914 245.536C340.852 246.473 342.124 247 343.45 247H344.55C345.876 247 347.148 246.473 348.086 245.536C349.023 244.598 349.55 243.326 349.55 242V241.55C349.551 240.673 349.782 239.812 350.221 239.053C350.66 238.294 351.291 237.663 352.05 237.225L353.125 236.6C353.885 236.161 354.747 235.93 355.625 235.93C356.503 235.93 357.365 236.161 358.125 236.6L358.5 236.8C359.647 237.462 361.01 237.641 362.29 237.299C363.57 236.957 364.661 236.121 365.325 234.975L365.875 234C366.537 232.853 366.716 231.49 366.374 230.21C366.032 228.93 365.196 227.839 364.05 227.175L363.675 226.975C362.912 226.534 362.279 225.9 361.84 225.136C361.401 224.372 361.172 223.506 361.175 222.625V221.375C361.172 220.494 361.401 219.628 361.84 218.864C362.279 218.1 362.912 217.466 363.675 217.025L364.05 216.8C365.196 216.136 366.032 215.045 366.374 213.765C366.716 212.485 366.537 211.122 365.875 209.975L365.325 209.025C364.661 207.879 363.57 207.043 362.29 206.701C361.01 206.359 359.647 206.538 358.5 207.2L358.125 207.4C357.365 207.839 356.503 208.07 355.625 208.07C354.747 208.07 353.885 207.839 353.125 207.4L352.05 206.775C351.291 206.337 350.66 205.706 350.221 204.947C349.782 204.188 349.551 203.327 349.55 202.45V202C349.55 200.674 349.023 199.402 348.086 198.464C347.148 197.527 345.876 197 344.55 197Z" stroke="black" stroke-width="2" stroke-linecap="round" stroke-linejoin="round"/>
<path d="M344 229.5C348.142 229.5 351.5 226.142 351.5 222C351.5 217.858 348.142 214.5 344 214.5C339.858 214.5 336.5 217.858 336.5 222C336.5 226.142 339.858 229.5 344 229.5Z" stroke="black" stroke-width="2" stroke-linecap="round" stroke-linejoin="round"/>
<path d="M375.266 17.4965H390.686C393.802 17.4965 396.238 18.3741 397.993 20.1293C399.784 21.8845 400.68 24.2307 400.68 27.1679C400.68 28.5649 400.483 29.7469 400.089 30.7141C399.695 31.6812 399.193 32.4872 398.584 33.1319C397.975 33.7409 397.313 34.2065 396.596 34.5289C395.88 34.8155 395.217 35.0125 394.608 35.1199V35.4423C395.289 35.4781 396.041 35.6572 396.865 35.9796C397.725 36.302 398.531 36.8214 399.283 37.5378C400.035 38.2184 400.662 39.1139 401.163 40.2243C401.701 41.2989 401.969 42.6063 401.969 44.1466C401.969 45.6868 401.719 47.1196 401.217 48.4449C400.751 49.7703 400.089 50.9165 399.229 51.8837C398.369 52.8508 397.349 53.6209 396.166 54.1941C394.984 54.7314 393.695 55 392.298 55H375.266V17.4965ZM379.779 51.024H390.901C392.835 51.024 394.358 50.5404 395.468 49.5733C396.578 48.5703 397.134 47.1196 397.134 45.2212V43.3943C397.134 41.4959 396.578 40.0631 395.468 39.0959C394.358 38.093 392.835 37.5915 390.901 37.5915H379.779V51.024ZM379.779 33.723H390.149C391.94 33.723 393.337 33.2752 394.34 32.3797C395.343 31.4842 395.844 30.1947 395.844 28.5111V26.6843C395.844 25.0008 395.343 23.7113 394.34 22.8158C393.337 21.9203 391.94 21.4725 390.149 21.4725H379.779V33.723ZM430.087 55C428.475 55 427.311 54.5702 426.595 53.7105C425.914 52.8508 425.484 51.7762 425.305 50.4867H425.037C424.428 52.206 423.425 53.4956 422.028 54.3552C420.631 55.2149 418.965 55.6448 417.031 55.6448C414.094 55.6448 411.801 54.8925 410.153 53.3881C408.542 51.8837 407.736 49.8419 407.736 47.2629C407.736 44.648 408.685 42.6421 410.583 41.2451C412.518 39.8482 415.509 39.1497 419.556 39.1497H425.037V36.4094C425.037 34.4394 424.499 32.9349 423.425 31.8961C422.35 30.8574 420.702 30.338 418.482 30.338C416.798 30.338 415.383 30.7141 414.237 31.4663C413.127 32.2185 412.195 33.2215 411.443 34.4752L408.864 32.0573C409.616 30.5529 410.816 29.2813 412.464 28.2425C414.112 27.1679 416.189 26.6306 418.697 26.6306C422.064 26.6306 424.678 27.4545 426.541 29.1022C428.404 30.7499 429.335 33.0424 429.335 35.9796V51.2389H432.505V55H430.087ZM417.729 51.9911C418.804 51.9911 419.789 51.8658 420.685 51.615C421.58 51.3643 422.35 51.0061 422.995 50.5404C423.64 50.0748 424.141 49.5375 424.499 48.9285C424.858 48.3196 425.037 47.6569 425.037 46.9405V42.3735H419.341C416.87 42.3735 415.061 42.7317 413.915 43.4481C412.804 44.1645 412.249 45.2032 412.249 46.5644V47.6927C412.249 49.0539 412.732 50.1106 413.7 50.8628C414.703 51.615 416.046 51.9911 417.729 51.9911ZM448.956 55.6448C447.022 55.6448 445.285 55.3045 443.744 54.6239C442.204 53.9433 440.897 52.9762 439.822 51.7225C438.783 50.4688 437.977 48.9464 437.404 47.1554C436.867 45.3644 436.598 43.3585 436.598 41.1377C436.598 38.9168 436.867 36.9109 437.404 35.1199C437.977 33.3289 438.783 31.8066 439.822 30.5529C440.897 29.2992 442.204 28.3321 443.744 27.6515C445.285 26.9709 447.022 26.6306 448.956 26.6306C451.714 26.6306 453.917 27.2395 455.565 28.4574C457.248 29.6395 458.502 31.1976 459.326 33.1319L455.726 34.9587C455.225 33.5259 454.401 32.4155 453.254 31.6275C452.108 30.8394 450.675 30.4454 448.956 30.4454C447.667 30.4454 446.538 30.6603 445.571 31.0902C444.604 31.4842 443.798 32.0573 443.153 32.8095C442.509 33.5259 442.025 34.4035 441.703 35.4423C441.38 36.4453 441.219 37.5557 441.219 38.7736V43.5018C441.219 45.9376 441.864 47.9435 443.153 49.5195C444.479 51.0598 446.413 51.8299 448.956 51.8299C452.431 51.8299 454.938 50.218 456.478 46.9942L459.595 49.0897C458.699 51.0956 457.356 52.6896 455.565 53.8717C453.81 55.0537 451.607 55.6448 448.956 55.6448ZM465.662 15.2399H469.961V40.4392H470.176L474.42 35.711L482.265 27.2754H487.477L477.214 38.2363L488.498 55H483.286L474.098 40.869L469.961 45.1137V55H465.662V15.2399ZM503.528 55.6448C501.63 55.6448 499.91 55.3045 498.37 54.6239C496.866 53.9433 495.558 52.9762 494.448 51.7225C493.373 50.433 492.531 48.9106 491.922 47.1554C491.349 45.3644 491.063 43.3585 491.063 41.1377C491.063 38.9527 491.349 36.9647 491.922 35.1737C492.531 33.3827 493.373 31.8603 494.448 30.6066C495.558 29.3171 496.866 28.3321 498.37 27.6515C499.91 26.9709 501.63 26.6306 503.528 26.6306C505.391 26.6306 507.056 26.9709 508.525 27.6515C509.994 28.3321 511.247 29.2813 512.286 30.4992C513.325 31.6812 514.113 33.0961 514.65 34.7438C515.223 36.3915 515.51 38.2004 515.51 40.1705V42.2123H495.576V43.5018C495.576 44.6839 495.755 45.7943 496.113 46.8331C496.507 47.836 497.045 48.7136 497.725 49.4658C498.442 50.218 499.301 50.8091 500.304 51.2389C501.343 51.6687 502.507 51.8837 503.797 51.8837C505.552 51.8837 507.074 51.4717 508.364 50.6479C509.689 49.824 510.71 48.642 511.426 47.1017L514.489 49.3046C513.593 51.2031 512.196 52.7433 510.298 53.9254C508.4 55.0716 506.143 55.6448 503.528 55.6448ZM503.528 30.2305C502.346 30.2305 501.271 30.4454 500.304 30.8753C499.337 31.2693 498.495 31.8424 497.779 32.5946C497.098 33.3468 496.561 34.2423 496.167 35.2811C495.773 36.2841 495.576 37.3945 495.576 38.6124V38.9885H510.889V38.3975C510.889 35.9259 510.208 33.9558 508.847 32.4872C507.522 30.9827 505.749 30.2305 503.528 30.2305ZM522.593 55V27.2754H526.891V31.7887H527.106C527.787 30.2126 528.736 28.9589 529.954 28.0276C531.208 27.0963 532.873 26.6306 534.951 26.6306C537.816 26.6306 540.073 27.5619 541.721 29.4246C543.404 31.2514 544.246 33.8483 544.246 37.2154V55H539.948V37.9676C539.948 32.9886 537.852 30.4992 533.661 30.4992C532.802 30.4992 531.96 30.6066 531.136 30.8215C530.348 31.0365 529.632 31.3588 528.987 31.7887C528.342 32.2185 527.823 32.7737 527.429 33.4543C527.07 34.0991 526.891 34.8692 526.891 35.7647V55H522.593ZM570.862 50.4867H570.647C568.963 53.9254 566.259 55.6448 562.534 55.6448C560.814 55.6448 559.256 55.3045 557.859 54.6239C556.462 53.9433 555.262 52.9762 554.259 51.7225C553.292 50.4688 552.54 48.9464 552.003 47.1554C551.501 45.3644 551.25 43.3585 551.25 41.1377C551.25 38.9168 551.501 36.9109 552.003 35.1199C552.54 33.3289 553.292 31.8066 554.259 30.5529C555.262 29.2992 556.462 28.3321 557.859 27.6515C559.256 26.9709 560.814 26.6306 562.534 26.6306C564.468 26.6306 566.116 27.0604 567.477 27.9201C568.874 28.744 569.93 30.0335 570.647 31.7887H570.862V15.2399H575.16V55H570.862V50.4867ZM563.716 51.7762C564.683 51.7762 565.596 51.6508 566.456 51.4001C567.351 51.1494 568.122 50.7912 568.766 50.3255C569.411 49.824 569.912 49.233 570.271 48.5524C570.665 47.836 570.862 47.0301 570.862 46.1346V35.8184C570.862 35.0662 570.665 34.3677 570.271 33.723C569.912 33.0424 569.411 32.4693 568.766 32.0036C568.122 31.5379 567.351 31.1797 566.456 30.929C565.596 30.6424 564.683 30.4992 563.716 30.4992C561.28 30.4992 559.364 31.2693 557.967 32.8095C556.57 34.314 555.871 36.302 555.871 38.7736V43.5018C555.871 45.9734 556.57 47.9793 557.967 49.5195C559.364 51.024 561.28 51.7762 563.716 51.7762Z" fill="black"/>
<path d="M7 128V108C7 101.373 12.3726 96 19 96H468.576M468.576 96V66M468.576 96H947C953.627 96 959 101.373 959 108V128" stroke="black" stroke-width="3" stroke-linecap="round"/>
<path d="M956 904L956 924C956 930.627 950.627 936 944 936L494.424 936M494.424 936L494.424 966M494.424 936L16.0001 936C9.37264 936 4.00003 930.627 4.00003 924L4.00003 904" stroke="black" stroke-width="3" stroke-linecap="round"/>
<path d="M389.069 1013V975.497H411.421V979.473H393.583V992.045H409.863V996.021H393.583V1013H389.069ZM417.603 1013L417.603 985.275H421.902V990.38H422.17C422.672 989.054 423.567 987.872 424.857 986.834C426.146 985.795 427.919 985.275 430.176 985.275H431.842V989.574H429.316C426.988 989.574 425.161 990.022 423.836 990.917C422.546 991.777 421.902 992.869 421.902 994.195V1013H417.603ZM447.547 1013.64C445.685 1013.64 443.983 1013.3 442.443 1012.62C440.903 1011.94 439.577 1010.98 438.467 1009.72C437.392 1008.43 436.551 1006.91 435.942 1005.16C435.333 1003.36 435.028 1001.36 435.028 999.138C435.028 996.953 435.333 994.965 435.942 993.174C436.551 991.383 437.392 989.86 438.467 988.607C439.577 987.317 440.903 986.332 442.443 985.651C443.983 984.971 445.685 984.631 447.547 984.631C449.41 984.631 451.093 984.971 452.598 985.651C454.138 986.332 455.463 987.317 456.574 988.607C457.684 989.86 458.544 991.383 459.153 993.174C459.762 994.965 460.066 996.953 460.066 999.138C460.066 1001.36 459.762 1003.36 459.153 1005.16C458.544 1006.91 457.684 1008.43 456.574 1009.72C455.463 1010.98 454.138 1011.94 452.598 1012.62C451.093 1013.3 449.41 1013.64 447.547 1013.64ZM447.547 1009.83C449.876 1009.83 451.774 1009.11 453.243 1007.68C454.711 1006.25 455.446 1004.06 455.446 1001.13V997.15C455.446 994.212 454.711 992.027 453.243 990.595C451.774 989.162 449.876 988.445 447.547 988.445C445.219 988.445 443.321 989.162 441.852 990.595C440.383 992.027 439.649 994.212 439.649 997.15V1001.13C439.649 1004.06 440.383 1006.25 441.852 1007.68C443.321 1009.11 445.219 1009.83 447.547 1009.83ZM467.136 1013V985.275H471.434V989.789H471.649C472.33 988.213 473.279 986.959 474.497 986.028C475.75 985.096 477.416 984.631 479.493 984.631C482.359 984.631 484.616 985.562 486.263 987.425C487.947 989.251 488.789 991.848 488.789 995.215V1013H484.49V995.968C484.49 990.989 482.395 988.499 478.204 988.499C477.344 988.499 476.503 988.607 475.679 988.822C474.891 989.036 474.174 989.359 473.529 989.789C472.885 990.219 472.365 990.774 471.971 991.454C471.613 992.099 471.434 992.869 471.434 993.765V1013H467.136ZM503.799 1013C502.294 1013 501.148 1012.59 500.36 1011.76C499.608 1010.9 499.232 1009.79 499.232 1008.43V989.036H494.665V985.275H497.244C498.175 985.275 498.802 985.096 499.124 984.738C499.482 984.344 499.662 983.681 499.662 982.75V977.592H503.53V985.275H509.602V989.036H503.53V1009.24H509.172V1013H503.799ZM526.724 1013.64C524.826 1013.64 523.106 1013.3 521.566 1012.62C520.062 1011.94 518.754 1010.98 517.644 1009.72C516.569 1008.43 515.727 1006.91 515.119 1005.16C514.545 1003.36 514.259 1001.36 514.259 999.138C514.259 996.953 514.545 994.965 515.119 993.174C515.727 991.383 516.569 989.86 517.644 988.607C518.754 987.317 520.062 986.332 521.566 985.651C523.106 984.971 524.826 984.631 526.724 984.631C528.587 984.631 530.252 984.971 531.721 985.651C533.19 986.332 534.443 987.281 535.482 988.499C536.521 989.681 537.309 991.096 537.846 992.744C538.419 994.392 538.706 996.2 538.706 998.171V1000.21H518.772V1001.5C518.772 1002.68 518.951 1003.79 519.309 1004.83C519.703 1005.84 520.241 1006.71 520.921 1007.47C521.638 1008.22 522.497 1008.81 523.5 1009.24C524.539 1009.67 525.703 1009.88 526.993 1009.88C528.748 1009.88 530.27 1009.47 531.56 1008.65C532.885 1007.82 533.906 1006.64 534.622 1005.1L537.685 1007.3C536.79 1009.2 535.393 1010.74 533.494 1011.93C531.596 1013.07 529.339 1013.64 526.724 1013.64ZM526.724 988.231C525.542 988.231 524.468 988.445 523.5 988.875C522.533 989.269 521.691 989.842 520.975 990.595C520.295 991.347 519.757 992.242 519.363 993.281C518.969 994.284 518.772 995.394 518.772 996.612V996.988H534.085V996.397C534.085 993.926 533.405 991.956 532.043 990.487C530.718 988.983 528.945 988.231 526.724 988.231ZM545.789 1013V985.275H550.087V989.789H550.302C550.983 988.213 551.932 986.959 553.15 986.028C554.404 985.096 556.069 984.631 558.147 984.631C561.013 984.631 563.269 985.562 564.917 987.425C566.6 989.251 567.442 991.848 567.442 995.215V1013H563.144V995.968C563.144 990.989 561.048 988.499 556.857 988.499C555.998 988.499 555.156 988.607 554.332 988.822C553.544 989.036 552.828 989.359 552.183 989.789C551.538 990.219 551.019 990.774 550.625 991.454C550.267 992.099 550.087 992.869 550.087 993.765V1013H545.789ZM594.058 1008.49H593.843C592.159 1011.93 589.455 1013.64 585.73 1013.64C584.01 1013.64 582.452 1013.3 581.055 1012.62C579.658 1011.94 578.458 1010.98 577.455 1009.72C576.488 1008.47 575.736 1006.95 575.199 1005.16C574.697 1003.36 574.446 1001.36 574.446 999.138C574.446 996.917 574.697 994.911 575.199 993.12C575.736 991.329 576.488 989.807 577.455 988.553C578.458 987.299 579.658 986.332 581.055 985.651C582.452 984.971 584.01 984.631 585.73 984.631C587.664 984.631 589.312 985.06 590.673 985.92C592.07 986.744 593.127 988.033 593.843 989.789H594.058V973.24H598.356V1013H594.058V1008.49ZM586.912 1009.78C587.879 1009.78 588.792 1009.65 589.652 1009.4C590.547 1009.15 591.318 1008.79 591.962 1008.33C592.607 1007.82 593.109 1007.23 593.467 1006.55C593.861 1005.84 594.058 1005.03 594.058 1004.13V993.818C594.058 993.066 593.861 992.368 593.467 991.723C593.109 991.042 592.607 990.469 591.962 990.004C591.318 989.538 590.547 989.18 589.652 988.929C588.792 988.642 587.879 988.499 586.912 988.499C584.476 988.499 582.56 989.269 581.163 990.81C579.766 992.314 579.067 994.302 579.067 996.774V1001.5C579.067 1003.97 579.766 1005.98 581.163 1007.52C582.56 1009.02 584.476 1009.78 586.912 1009.78Z" fill="black"/>
<path d="M581.414 632.586C580.633 631.805 579.367 631.805 578.586 632.586L565.858 645.314C565.077 646.095 565.077 647.361 565.858 648.142C566.639 648.923 567.905 648.923 568.686 648.142L580 636.828L591.314 648.142C592.095 648.923 593.361 648.923 594.142 648.142C594.923 647.361 594.923 646.095 594.142 645.314L581.414 632.586ZM582 697V634H578V697H582Z" fill="#B0ADAD"/>
<path d="M478.443 802.414C479.224 801.633 479.224 800.367 478.443 799.586L465.715 786.858C464.934 786.077 463.668 786.077 462.887 786.858C462.106 787.639 462.106 788.905 462.887 789.686L474.2 801L462.887 812.314C462.106 813.095 462.106 814.361 462.887 815.142C463.668 815.923 464.934 815.923 465.715 815.142L478.443 802.414ZM336.972 803H477.029V799H336.972V803Z" fill="#B0ADAD"/>
<path d="M478.414 745.414C479.195 744.633 479.195 743.367 478.414 742.586L465.686 729.858C464.905 729.077 463.639 729.077 462.858 729.858C462.077 730.639 462.077 731.905 462.858 732.686L474.172 744L462.858 755.314C462.077 756.095 462.077 757.361 462.858 758.142C463.639 758.923 464.905 758.923 465.686 758.142L478.414 745.414ZM372 446V724H376V446H372ZM394 746H477V742H394V746ZM372 724C372 736.15 381.85 746 394 746V742C384.059 742 376 733.941 376 724H372Z" fill="#B0ADAD"/>
<path d="M477.414 569.414C478.195 568.633 478.195 567.367 477.414 566.586L464.686 553.858C463.905 553.077 462.639 553.077 461.858 553.858C461.077 554.639 461.077 555.905 461.858 556.686L473.172 568L461.858 579.314C461.077 580.095 461.077 581.361 461.858 582.142C462.639 582.923 463.905 582.923 464.686 582.142L477.414 569.414ZM372 531V548H376V531H372ZM394 570H476V566H394V570ZM372 548C372 560.15 381.85 570 394 570V566C384.059 566 376 557.941 376 548H372Z" fill="#B0ADAD"/>
<rect x="1060" y="137" width="267" height="767" rx="19.7568" fill="#E1F8E1" stroke="#209B1D" stroke-width="2"/>
<path d="M1088.3 474.36H1091.42V485.8L1091.1 490.76H1091.26L1093.82 486.36L1102.06 474.36H1105.02V495H1101.9V483.56L1102.22 478.6H1102.06L1099.5 483L1091.26 495H1088.3V474.36ZM1111.81 474.36H1115.01V482.96H1125.33V474.36H1128.53V495H1125.33V485.76H1115.01V495H1111.81V474.36ZM1139.77 477.16H1132.73V474.36H1150.01V477.16H1142.97V495H1139.77V477.16ZM1161.45 495.48C1160.04 495.48 1158.76 495.227 1157.61 494.72C1156.49 494.213 1155.52 493.493 1154.69 492.56C1153.89 491.6 1153.26 490.467 1152.81 489.16C1152.38 487.827 1152.17 486.333 1152.17 484.68C1152.17 483.053 1152.38 481.573 1152.81 480.24C1153.26 478.907 1153.89 477.773 1154.69 476.84C1155.52 475.88 1156.49 475.147 1157.61 474.64C1158.76 474.133 1160.04 473.88 1161.45 473.88C1162.84 473.88 1164.08 474.133 1165.17 474.64C1166.26 475.147 1167.2 475.853 1167.97 476.76C1168.74 477.64 1169.33 478.693 1169.73 479.92C1170.16 481.147 1170.37 482.493 1170.37 483.96V485.48H1155.53V486.44C1155.53 487.32 1155.66 488.147 1155.93 488.92C1156.22 489.667 1156.62 490.32 1157.13 490.88C1157.66 491.44 1158.3 491.88 1159.05 492.2C1159.82 492.52 1160.69 492.68 1161.65 492.68C1162.96 492.68 1164.09 492.373 1165.05 491.76C1166.04 491.147 1166.8 490.267 1167.33 489.12L1169.61 490.76C1168.94 492.173 1167.9 493.32 1166.49 494.2C1165.08 495.053 1163.4 495.48 1161.45 495.48ZM1161.45 476.56C1160.57 476.56 1159.77 476.72 1159.05 477.04C1158.33 477.333 1157.7 477.76 1157.17 478.32C1156.66 478.88 1156.26 479.547 1155.97 480.32C1155.68 481.067 1155.53 481.893 1155.53 482.8V483.08H1166.93V482.64C1166.93 480.8 1166.42 479.333 1165.41 478.24C1164.42 477.12 1163.1 476.56 1161.45 476.56ZM1175.64 474.36H1188.68V477.16H1178.84V495H1175.64V474.36ZM1193.03 474.36H1196.23V477.72H1196.39C1196.92 476.413 1197.69 475.453 1198.71 474.84C1199.75 474.2 1200.99 473.88 1202.43 473.88C1203.71 473.88 1204.87 474.133 1205.91 474.64C1206.95 475.147 1207.83 475.867 1208.55 476.8C1209.29 477.733 1209.85 478.867 1210.23 480.2C1210.63 481.533 1210.83 483.027 1210.83 484.68C1210.83 486.333 1210.63 487.827 1210.23 489.16C1209.85 490.493 1209.29 491.627 1208.55 492.56C1207.83 493.493 1206.95 494.213 1205.91 494.72C1204.87 495.227 1203.71 495.48 1202.43 495.48C1199.63 495.48 1197.61 494.2 1196.39 491.64H1196.23V503H1193.03V474.36ZM1201.55 492.6C1203.36 492.6 1204.79 492.04 1205.83 490.92C1206.87 489.773 1207.39 488.28 1207.39 486.44V482.92C1207.39 481.08 1206.87 479.6 1205.83 478.48C1204.79 477.333 1203.36 476.76 1201.55 476.76C1200.83 476.76 1200.13 476.867 1199.47 477.08C1198.83 477.267 1198.27 477.533 1197.79 477.88C1197.31 478.227 1196.92 478.653 1196.63 479.16C1196.36 479.64 1196.23 480.16 1196.23 480.72V488.4C1196.23 489.067 1196.36 489.667 1196.63 490.2C1196.92 490.707 1197.31 491.147 1197.79 491.52C1198.27 491.867 1198.83 492.133 1199.47 492.32C1200.13 492.507 1200.83 492.6 1201.55 492.6ZM1231.23 495C1230.03 495 1229.16 494.68 1228.63 494.04C1228.12 493.4 1227.8 492.6 1227.67 491.64H1227.47C1227.01 492.92 1226.27 493.88 1225.23 494.52C1224.19 495.16 1222.95 495.48 1221.51 495.48C1219.32 495.48 1217.61 494.92 1216.39 493.8C1215.19 492.68 1214.59 491.16 1214.59 489.24C1214.59 487.293 1215.29 485.8 1216.71 484.76C1218.15 483.72 1220.37 483.2 1223.39 483.2H1227.47V481.16C1227.47 479.693 1227.07 478.573 1226.27 477.8C1225.47 477.027 1224.24 476.64 1222.59 476.64C1221.33 476.64 1220.28 476.92 1219.43 477.48C1218.6 478.04 1217.91 478.787 1217.35 479.72L1215.43 477.92C1215.99 476.8 1216.88 475.853 1218.11 475.08C1219.33 474.28 1220.88 473.88 1222.75 473.88C1225.25 473.88 1227.2 474.493 1228.59 475.72C1229.97 476.947 1230.67 478.653 1230.67 480.84V492.2H1233.03V495H1231.23ZM1222.03 492.76C1222.83 492.76 1223.56 492.667 1224.23 492.48C1224.89 492.293 1225.47 492.027 1225.95 491.68C1226.43 491.333 1226.8 490.933 1227.07 490.48C1227.33 490.027 1227.47 489.533 1227.47 489V485.6H1223.23C1221.39 485.6 1220.04 485.867 1219.19 486.4C1218.36 486.933 1217.95 487.707 1217.95 488.72V489.56C1217.95 490.573 1218.31 491.36 1219.03 491.92C1219.77 492.48 1220.77 492.76 1222.03 492.76ZM1254.24 495H1237.6V474.36H1240.8V492.2H1250.52V474.36H1253.72V492.2H1257.16V500.6H1254.24V495ZM1261.58 474.36H1264.7V485.8L1264.38 490.76H1264.54L1267.1 486.36L1275.34 474.36H1278.3V495H1275.18V483.56L1275.5 478.6H1275.34L1272.78 483L1264.54 495H1261.58V474.36ZM1283.26 492.2H1285.54L1286.86 489.16C1287.15 488.467 1287.51 487.947 1287.94 487.6C1288.36 487.227 1288.84 487 1289.38 486.92V486.76C1287.54 486.6 1286.15 486 1285.22 484.96C1284.28 483.92 1283.82 482.52 1283.82 480.76C1283.82 478.76 1284.42 477.2 1285.62 476.08C1286.82 474.933 1288.47 474.36 1290.58 474.36H1299.7V495L1296.5 495V487.08H1291.14L1288.98 492.16C1288.5 493.28 1287.96 494.04 1287.38 494.44C1286.82 494.813 1286.18 495 1285.46 495H1283.26V492.2ZM1296.5 484.36V477.16H1291.06C1289.86 477.16 1288.92 477.387 1288.26 477.84C1287.59 478.293 1287.26 479.053 1287.26 480.12V481.44C1287.26 482.507 1287.59 483.267 1288.26 483.72C1288.92 484.147 1289.86 484.36 1291.06 484.36H1296.5ZM1108.18 534.52C1108.18 532.6 1108.37 530.747 1108.74 528.96C1109.11 527.173 1109.62 525.52 1110.26 524C1110.93 522.453 1111.7 521.053 1112.58 519.8C1113.46 518.547 1114.41 517.48 1115.42 516.6H1118.46C1117.34 517.613 1116.33 518.76 1115.42 520.04C1114.54 521.32 1113.78 522.68 1113.14 524.12C1112.53 525.56 1112.05 527.027 1111.7 528.52C1111.35 530.013 1111.18 531.453 1111.18 532.84V536.28C1111.18 537.693 1111.35 539.147 1111.7 540.64C1112.05 542.133 1112.54 543.6 1113.18 545.04C1113.82 546.48 1114.58 547.84 1115.46 549.12C1116.37 550.4 1117.37 551.52 1118.46 552.48H1115.42C1114.43 551.653 1113.5 550.613 1112.62 549.36C1111.74 548.107 1110.97 546.707 1110.3 545.16C1109.66 543.613 1109.14 541.947 1108.74 540.16C1108.37 538.347 1108.18 536.467 1108.18 534.52ZM1129.46 547.48C1128.07 547.48 1126.8 547.227 1125.66 546.72C1124.51 546.213 1123.52 545.493 1122.7 544.56C1121.9 543.6 1121.27 542.467 1120.82 541.16C1120.36 539.827 1120.14 538.333 1120.14 536.68C1120.14 535.053 1120.36 533.573 1120.82 532.24C1121.27 530.907 1121.9 529.773 1122.7 528.84C1123.52 527.88 1124.51 527.147 1125.66 526.64C1126.8 526.133 1128.07 525.88 1129.46 525.88C1130.84 525.88 1132.1 526.133 1133.22 526.64C1134.36 527.147 1135.35 527.88 1136.18 528.84C1137 529.773 1137.64 530.907 1138.1 532.24C1138.55 533.573 1138.78 535.053 1138.78 536.68C1138.78 538.333 1138.55 539.827 1138.1 541.16C1137.64 542.467 1137 543.6 1136.18 544.56C1135.35 545.493 1134.36 546.213 1133.22 546.72C1132.1 547.227 1130.84 547.48 1129.46 547.48ZM1129.46 544.64C1131.19 544.64 1132.6 544.107 1133.7 543.04C1134.79 541.973 1135.34 540.347 1135.34 538.16V535.2C1135.34 533.013 1134.79 531.387 1133.7 530.32C1132.6 529.253 1131.19 528.72 1129.46 528.72C1127.72 528.72 1126.31 529.253 1125.22 530.32C1124.12 531.387 1123.58 533.013 1123.58 535.2V538.16C1123.58 540.347 1124.12 541.973 1125.22 543.04C1126.31 544.107 1127.72 544.64 1129.46 544.64ZM1147.97 529.16H1140.93V526.36H1158.21V529.16H1151.17V547H1147.97V529.16ZM1158.3 544.2H1161.02C1161.37 543.72 1161.68 543.147 1161.94 542.48C1162.21 541.813 1162.44 541.013 1162.62 540.08C1162.81 539.147 1162.96 538.04 1163.06 536.76C1163.17 535.48 1163.22 533.973 1163.22 532.24V526.36H1177.18V547H1173.98V529.16H1166.26V532.32C1166.26 534.32 1166.18 536.067 1166.02 537.56C1165.89 539.053 1165.69 540.333 1165.42 541.4C1165.18 542.467 1164.89 543.347 1164.54 544.04C1164.2 544.707 1163.82 545.24 1163.42 545.64C1162.92 546.147 1162.36 546.507 1161.74 546.72C1161.13 546.907 1160.4 547 1159.54 547H1158.3V544.2ZM1199 547C1197.8 547 1196.93 546.68 1196.4 546.04C1195.89 545.4 1195.57 544.6 1195.44 543.64H1195.24C1194.79 544.92 1194.04 545.88 1193 546.52C1191.96 547.16 1190.72 547.48 1189.28 547.48C1187.09 547.48 1185.39 546.92 1184.16 545.8C1182.96 544.68 1182.36 543.16 1182.36 541.24C1182.36 539.293 1183.07 537.8 1184.48 536.76C1185.92 535.72 1188.15 535.2 1191.16 535.2H1195.24V533.16C1195.24 531.693 1194.84 530.573 1194.04 529.8C1193.24 529.027 1192.01 528.64 1190.36 528.64C1189.11 528.64 1188.05 528.92 1187.2 529.48C1186.37 530.04 1185.68 530.787 1185.12 531.72L1183.2 529.92C1183.76 528.8 1184.65 527.853 1185.88 527.08C1187.11 526.28 1188.65 525.88 1190.52 525.88C1193.03 525.88 1194.97 526.493 1196.36 527.72C1197.75 528.947 1198.44 530.653 1198.44 532.84V544.2H1200.8V547H1199ZM1189.8 544.76C1190.6 544.76 1191.33 544.667 1192 544.48C1192.67 544.293 1193.24 544.027 1193.72 543.68C1194.2 543.333 1194.57 542.933 1194.84 542.48C1195.11 542.027 1195.24 541.533 1195.24 541V537.6H1191C1189.16 537.6 1187.81 537.867 1186.96 538.4C1186.13 538.933 1185.72 539.707 1185.72 540.72V541.56C1185.72 542.573 1186.08 543.36 1186.8 543.92C1187.55 544.48 1188.55 544.76 1189.8 544.76ZM1203.23 544.2H1205.59C1206.41 542.867 1207.08 541.2 1207.59 539.2C1208.09 537.2 1208.35 534.907 1208.35 532.32V526.36H1222.31V544.2H1225.75V552.6H1222.83V547H1206.15V552.6H1203.23V544.2ZM1219.11 544.2V529.16H1211.39V532.48C1211.39 535.227 1211.15 537.573 1210.67 539.52C1210.21 541.44 1209.67 543 1209.03 544.2H1219.11ZM1230.17 526.36H1233.37V535H1237.49L1241.49 528.68C1241.79 528.2 1242.07 527.813 1242.33 527.52C1242.6 527.2 1242.87 526.96 1243.13 526.8C1243.4 526.64 1243.68 526.533 1243.97 526.48C1244.27 526.4 1244.6 526.36 1244.97 526.36H1246.85V529.16H1244.37L1241.13 534.28C1240.92 534.627 1240.73 534.907 1240.57 535.12C1240.41 535.333 1240.25 535.52 1240.09 535.68C1239.93 535.813 1239.76 535.933 1239.57 536.04C1239.39 536.12 1239.16 536.2 1238.89 536.28V536.44C1239.45 536.52 1239.93 536.707 1240.33 537C1240.76 537.267 1241.2 537.8 1241.65 538.6L1244.81 544.2H1247.17V547H1244.85C1244.16 547 1243.52 546.827 1242.93 546.48C1242.37 546.107 1241.83 545.44 1241.29 544.48L1237.49 537.72H1233.37V547H1230.17V526.36ZM1266.78 547C1265.58 547 1264.71 546.68 1264.18 546.04C1263.67 545.4 1263.35 544.6 1263.22 543.64H1263.02C1262.56 544.92 1261.82 545.88 1260.78 546.52C1259.74 547.16 1258.5 547.48 1257.06 547.48C1254.87 547.48 1253.16 546.92 1251.94 545.8C1250.74 544.68 1250.14 543.16 1250.14 541.24C1250.14 539.293 1250.84 537.8 1252.26 536.76C1253.7 535.72 1255.92 535.2 1258.93 535.2H1263.02V533.16C1263.02 531.693 1262.62 530.573 1261.82 529.8C1261.02 529.027 1259.79 528.64 1258.14 528.64C1256.88 528.64 1255.83 528.92 1254.98 529.48C1254.15 530.04 1253.46 530.787 1252.9 531.72L1250.98 529.92C1251.54 528.8 1252.43 527.853 1253.65 527.08C1254.88 526.28 1256.43 525.88 1258.3 525.88C1260.8 525.88 1262.75 526.493 1264.14 527.72C1265.52 528.947 1266.22 530.653 1266.22 532.84V544.2H1268.57V547H1266.78ZM1257.58 544.76C1258.38 544.76 1259.11 544.667 1259.78 544.48C1260.44 544.293 1261.02 544.027 1261.5 543.68C1261.98 543.333 1262.35 542.933 1262.62 542.48C1262.88 542.027 1263.02 541.533 1263.02 541V537.6H1258.78C1256.94 537.6 1255.59 537.867 1254.74 538.4C1253.91 538.933 1253.5 539.707 1253.5 540.72V541.56C1253.5 542.573 1253.86 543.36 1254.58 543.92C1255.32 544.48 1256.32 544.76 1257.58 544.76ZM1279.82 534.52C1279.82 536.467 1279.62 538.347 1279.22 540.16C1278.85 541.947 1278.33 543.613 1277.66 545.16C1277.02 546.707 1276.26 548.107 1275.38 549.36C1274.5 550.613 1273.57 551.653 1272.58 552.48H1269.54C1270.64 551.52 1271.62 550.4 1272.5 549.12C1273.41 547.84 1274.18 546.48 1274.82 545.04C1275.46 543.6 1275.96 542.133 1276.3 540.64C1276.65 539.147 1276.82 537.693 1276.82 536.28V532.84C1276.82 531.453 1276.65 530.013 1276.3 528.52C1275.96 527.027 1275.46 525.56 1274.82 524.12C1274.21 522.68 1273.45 521.32 1272.54 520.04C1271.66 518.76 1270.66 517.613 1269.54 516.6H1272.58C1273.6 517.48 1274.54 518.547 1275.42 519.8C1276.3 521.053 1277.06 522.453 1277.7 524C1278.37 525.52 1278.89 527.173 1279.26 528.96C1279.64 530.747 1279.82 532.6 1279.82 534.52Z" fill="black"/>
</svg>
