<svg width="1266" height="473" viewBox="0 0 1266 473" fill="none" xmlns="http://www.w3.org/2000/svg">
<rect x="3.4925" y="139.492" width="476.015" height="332.015" rx="16.4175" fill="#FFE2E1" stroke="#D59795" stroke-width="2.985"/>
<path d="M785.391 307.414C786.172 306.633 786.172 305.367 785.391 304.586L772.663 291.858C771.882 291.077 770.616 291.077 769.835 291.858C769.054 292.639 769.054 293.905 769.835 294.686L781.149 306L769.835 317.314C769.054 318.095 769.054 319.361 769.835 320.142C770.616 320.923 771.882 320.923 772.663 320.142L785.391 307.414ZM481 308H783.977V304H481V308Z" fill="#D59795"/>
<path d="M343.414 307.414C344.195 306.633 344.195 305.367 343.414 304.586L330.686 291.858C329.905 291.077 328.639 291.077 327.858 291.858C327.077 292.639 327.077 293.905 327.858 294.686L339.172 306L327.858 317.314C327.077 318.095 327.077 319.361 327.858 320.142C328.639 320.923 329.905 320.923 330.686 320.142L343.414 307.414ZM250 308H342V304H250V308Z" fill="#B0ADAD"/>
<path d="M142.266 17.4965H157.686C160.802 17.4965 163.238 18.3741 164.993 20.1293C166.784 21.8845 167.68 24.2307 167.68 27.1679C167.68 28.5649 167.483 29.7469 167.089 30.7141C166.695 31.6812 166.193 32.4872 165.584 33.1319C164.975 33.7409 164.313 34.2065 163.596 34.5289C162.88 34.8155 162.217 35.0125 161.608 35.1199V35.4423C162.289 35.4781 163.041 35.6572 163.865 35.9796C164.725 36.302 165.531 36.8214 166.283 37.5378C167.035 38.2184 167.662 39.1139 168.163 40.2243C168.701 41.2989 168.969 42.6063 168.969 44.1466C168.969 45.6868 168.719 47.1196 168.217 48.4449C167.751 49.7703 167.089 50.9165 166.229 51.8837C165.369 52.8508 164.349 53.6209 163.166 54.1941C161.984 54.7314 160.695 55 159.298 55H142.266V17.4965ZM146.779 51.024H157.901C159.835 51.024 161.358 50.5404 162.468 49.5733C163.578 48.5703 164.134 47.1196 164.134 45.2212V43.3943C164.134 41.4959 163.578 40.0631 162.468 39.0959C161.358 38.093 159.835 37.5915 157.901 37.5915H146.779V51.024ZM146.779 33.723H157.149C158.94 33.723 160.337 33.2752 161.34 32.3797C162.343 31.4842 162.844 30.1947 162.844 28.5111V26.6843C162.844 25.0008 162.343 23.7113 161.34 22.8158C160.337 21.9203 158.94 21.4725 157.149 21.4725H146.779V33.723ZM197.087 55C195.475 55 194.311 54.5702 193.595 53.7105C192.914 52.8508 192.484 51.7762 192.305 50.4867H192.037C191.428 52.206 190.425 53.4956 189.028 54.3552C187.631 55.2149 185.965 55.6448 184.031 55.6448C181.094 55.6448 178.801 54.8925 177.153 53.3881C175.542 51.8837 174.736 49.8419 174.736 47.2629C174.736 44.648 175.685 42.6421 177.583 41.2451C179.518 39.8482 182.509 39.1497 186.556 39.1497H192.037V36.4094C192.037 34.4394 191.499 32.9349 190.425 31.8961C189.35 30.8574 187.702 30.338 185.482 30.338C183.798 30.338 182.383 30.7141 181.237 31.4663C180.127 32.2185 179.195 33.2215 178.443 34.4752L175.864 32.0573C176.616 30.5529 177.816 29.2813 179.464 28.2425C181.112 27.1679 183.189 26.6306 185.697 26.6306C189.064 26.6306 191.678 27.4545 193.541 29.1022C195.404 30.7499 196.335 33.0424 196.335 35.9796V51.2389H199.505V55H197.087ZM184.729 51.9911C185.804 51.9911 186.789 51.8658 187.685 51.615C188.58 51.3643 189.35 51.0061 189.995 50.5404C190.64 50.0748 191.141 49.5375 191.499 48.9285C191.858 48.3196 192.037 47.6569 192.037 46.9405V42.3735H186.341C183.87 42.3735 182.061 42.7317 180.915 43.4481C179.804 44.1645 179.249 45.2032 179.249 46.5644V47.6927C179.249 49.0539 179.732 50.1106 180.7 50.8628C181.703 51.615 183.046 51.9911 184.729 51.9911ZM215.956 55.6448C214.022 55.6448 212.285 55.3045 210.744 54.6239C209.204 53.9433 207.897 52.9762 206.822 51.7225C205.783 50.4688 204.977 48.9464 204.404 47.1554C203.867 45.3644 203.598 43.3585 203.598 41.1377C203.598 38.9168 203.867 36.9109 204.404 35.1199C204.977 33.3289 205.783 31.8066 206.822 30.5529C207.897 29.2992 209.204 28.3321 210.744 27.6515C212.285 26.9709 214.022 26.6306 215.956 26.6306C218.714 26.6306 220.917 27.2395 222.565 28.4574C224.248 29.6395 225.502 31.1976 226.326 33.1319L222.726 34.9587C222.225 33.5259 221.401 32.4155 220.254 31.6275C219.108 30.8394 217.675 30.4454 215.956 30.4454C214.667 30.4454 213.538 30.6603 212.571 31.0902C211.604 31.4842 210.798 32.0573 210.153 32.8095C209.509 33.5259 209.025 34.4035 208.703 35.4423C208.38 36.4453 208.219 37.5557 208.219 38.7736V43.5018C208.219 45.9376 208.864 47.9435 210.153 49.5195C211.479 51.0598 213.413 51.8299 215.956 51.8299C219.431 51.8299 221.938 50.218 223.478 46.9942L226.595 49.0897C225.699 51.0956 224.356 52.6896 222.565 53.8717C220.81 55.0537 218.607 55.6448 215.956 55.6448ZM232.662 15.2399H236.961V40.4392H237.176L241.42 35.711L249.265 27.2754H254.477L244.214 38.2363L255.498 55H250.286L241.098 40.869L236.961 45.1137V55H232.662V15.2399ZM270.528 55.6448C268.63 55.6448 266.91 55.3045 265.37 54.6239C263.866 53.9433 262.558 52.9762 261.448 51.7225C260.373 50.433 259.531 48.9106 258.922 47.1554C258.349 45.3644 258.063 43.3585 258.063 41.1377C258.063 38.9527 258.349 36.9647 258.922 35.1737C259.531 33.3827 260.373 31.8603 261.448 30.6066C262.558 29.3171 263.866 28.3321 265.37 27.6515C266.91 26.9709 268.63 26.6306 270.528 26.6306C272.391 26.6306 274.056 26.9709 275.525 27.6515C276.994 28.3321 278.247 29.2813 279.286 30.4992C280.325 31.6812 281.113 33.0961 281.65 34.7438C282.223 36.3915 282.51 38.2004 282.51 40.1705V42.2123H262.576V43.5018C262.576 44.6839 262.755 45.7943 263.113 46.8331C263.507 47.836 264.045 48.7136 264.725 49.4658C265.442 50.218 266.301 50.8091 267.304 51.2389C268.343 51.6687 269.507 51.8837 270.797 51.8837C272.552 51.8837 274.074 51.4717 275.364 50.6479C276.689 49.824 277.71 48.642 278.426 47.1017L281.489 49.3046C280.593 51.2031 279.196 52.7433 277.298 53.9254C275.4 55.0716 273.143 55.6448 270.528 55.6448ZM270.528 30.2305C269.346 30.2305 268.271 30.4454 267.304 30.8753C266.337 31.2693 265.495 31.8424 264.779 32.5946C264.098 33.3468 263.561 34.2423 263.167 35.2811C262.773 36.2841 262.576 37.3945 262.576 38.6124V38.9885H277.889V38.3975C277.889 35.9259 277.208 33.9558 275.847 32.4872C274.522 30.9827 272.749 30.2305 270.528 30.2305ZM289.593 55V27.2754H293.891V31.7887H294.106C294.787 30.2126 295.736 28.9589 296.954 28.0276C298.208 27.0963 299.873 26.6306 301.951 26.6306C304.816 26.6306 307.073 27.5619 308.721 29.4246C310.404 31.2514 311.246 33.8483 311.246 37.2154V55H306.948V37.9676C306.948 32.9886 304.852 30.4992 300.661 30.4992C299.802 30.4992 298.96 30.6066 298.136 30.8215C297.348 31.0365 296.632 31.3588 295.987 31.7887C295.342 32.2185 294.823 32.7737 294.429 33.4543C294.07 34.0991 293.891 34.8692 293.891 35.7647V55H289.593ZM337.862 50.4867H337.647C335.963 53.9254 333.259 55.6448 329.534 55.6448C327.814 55.6448 326.256 55.3045 324.859 54.6239C323.462 53.9433 322.262 52.9762 321.259 51.7225C320.292 50.4688 319.54 48.9464 319.003 47.1554C318.501 45.3644 318.25 43.3585 318.25 41.1377C318.25 38.9168 318.501 36.9109 319.003 35.1199C319.54 33.3289 320.292 31.8066 321.259 30.5529C322.262 29.2992 323.462 28.3321 324.859 27.6515C326.256 26.9709 327.814 26.6306 329.534 26.6306C331.468 26.6306 333.116 27.0604 334.477 27.9201C335.874 28.744 336.93 30.0335 337.647 31.7887H337.862V15.2399H342.16V55H337.862V50.4867ZM330.716 51.7762C331.683 51.7762 332.596 51.6508 333.456 51.4001C334.351 51.1494 335.122 50.7912 335.766 50.3255C336.411 49.824 336.912 49.233 337.271 48.5524C337.665 47.836 337.862 47.0301 337.862 46.1346V35.8184C337.862 35.0662 337.665 34.3677 337.271 33.723C336.912 33.0424 336.411 32.4693 335.766 32.0036C335.122 31.5379 334.351 31.1797 333.456 30.929C332.596 30.6424 331.683 30.4992 330.716 30.4992C328.28 30.4992 326.364 31.2693 324.967 32.8095C323.57 34.314 322.871 36.302 322.871 38.7736V43.5018C322.871 45.9734 323.57 47.9793 324.967 49.5195C326.364 51.024 328.28 51.7762 330.716 51.7762Z" fill="black"/>
<rect x="1264.51" y="471.508" width="476.015" height="333.015" rx="16.4175" transform="rotate(-180 1264.51 471.508)" fill="#FFF2CC" stroke="#D5B555" stroke-width="2.985"/>
<path d="M921.069 326V288.497H943.421V292.473H925.583V305.045H941.863V309.021H925.583V326H921.069ZM949.603 326V298.275H953.902L953.902 303.38H954.17C954.672 302.054 955.567 300.872 956.857 299.834C958.146 298.795 959.919 298.275 962.176 298.275H963.842V302.574H961.316C958.988 302.574 957.161 303.022 955.836 303.917C954.546 304.777 953.902 305.869 953.902 307.195V326H949.603ZM979.547 326.645C977.685 326.645 975.983 326.304 974.443 325.624C972.903 324.943 971.577 323.976 970.467 322.722C969.392 321.433 968.551 319.911 967.942 318.155C967.333 316.364 967.028 314.359 967.028 312.138C967.028 309.953 967.333 307.965 967.942 306.174C968.551 304.383 969.392 302.86 970.467 301.607C971.577 300.317 972.903 299.332 974.443 298.651C975.983 297.971 977.685 297.631 979.547 297.631C981.41 297.631 983.093 297.971 984.598 298.651C986.138 299.332 987.463 300.317 988.574 301.607C989.684 302.86 990.544 304.383 991.153 306.174C991.762 307.965 992.066 309.953 992.066 312.138C992.066 314.359 991.762 316.364 991.153 318.155C990.544 319.911 989.684 321.433 988.574 322.722C987.463 323.976 986.138 324.943 984.598 325.624C983.093 326.304 981.41 326.645 979.547 326.645ZM979.547 322.83C981.876 322.83 983.774 322.114 985.243 320.681C986.711 319.248 987.446 317.063 987.446 314.126V310.15C987.446 307.212 986.711 305.027 985.243 303.595C983.774 302.162 981.876 301.445 979.547 301.445C977.219 301.445 975.321 302.162 973.852 303.595C972.383 305.027 971.649 307.212 971.649 310.15V314.126C971.649 317.063 972.383 319.248 973.852 320.681C975.321 322.114 977.219 322.83 979.547 322.83ZM999.136 326V298.275H1003.43V302.789H1003.65C1004.33 301.213 1005.28 299.959 1006.5 299.028C1007.75 298.096 1009.42 297.631 1011.49 297.631C1014.36 297.631 1016.62 298.562 1018.26 300.425C1019.95 302.251 1020.79 304.848 1020.79 308.215V326H1016.49V308.968C1016.49 303.989 1014.39 301.499 1010.2 301.499C1009.34 301.499 1008.5 301.607 1007.68 301.822C1006.89 302.036 1006.17 302.359 1005.53 302.789C1004.88 303.219 1004.37 303.774 1003.97 304.454C1003.61 305.099 1003.43 305.869 1003.43 306.765V326H999.136ZM1035.8 326C1034.29 326 1033.15 325.588 1032.36 324.764C1031.61 323.905 1031.23 322.794 1031.23 321.433V302.036H1026.66V298.275H1029.24C1030.17 298.275 1030.8 298.096 1031.12 297.738C1031.48 297.344 1031.66 296.681 1031.66 295.75V290.592H1035.53V298.275H1041.6V302.036H1035.53V322.239H1041.17V326H1035.8ZM1058.72 326.645C1056.83 326.645 1055.11 326.304 1053.57 325.624C1052.06 324.943 1050.75 323.976 1049.64 322.722C1048.57 321.433 1047.73 319.911 1047.12 318.155C1046.55 316.364 1046.26 314.359 1046.26 312.138C1046.26 309.953 1046.55 307.965 1047.12 306.174C1047.73 304.383 1048.57 302.86 1049.64 301.607C1050.75 300.317 1052.06 299.332 1053.57 298.651C1055.11 297.971 1056.83 297.631 1058.72 297.631C1060.59 297.631 1062.25 297.971 1063.72 298.651C1065.19 299.332 1066.44 300.281 1067.48 301.499C1068.52 302.681 1069.31 304.096 1069.85 305.744C1070.42 307.392 1070.71 309.2 1070.71 311.171V313.212H1050.77V314.502C1050.77 315.684 1050.95 316.794 1051.31 317.833C1051.7 318.836 1052.24 319.714 1052.92 320.466C1053.64 321.218 1054.5 321.809 1055.5 322.239C1056.54 322.669 1057.7 322.884 1058.99 322.884C1060.75 322.884 1062.27 322.472 1063.56 321.648C1064.89 320.824 1065.91 319.642 1066.62 318.102L1069.69 320.305C1068.79 322.203 1067.39 323.743 1065.49 324.925C1063.6 326.072 1061.34 326.645 1058.72 326.645ZM1058.72 301.231C1057.54 301.231 1056.47 301.445 1055.5 301.875C1054.53 302.269 1053.69 302.842 1052.98 303.595C1052.29 304.347 1051.76 305.242 1051.36 306.281C1050.97 307.284 1050.77 308.394 1050.77 309.612V309.988H1066.09V309.397C1066.09 306.926 1065.4 304.956 1064.04 303.487C1062.72 301.983 1060.95 301.231 1058.72 301.231ZM1077.79 326V298.275H1082.09V302.789H1082.3C1082.98 301.213 1083.93 299.959 1085.15 299.028C1086.4 298.096 1088.07 297.631 1090.15 297.631C1093.01 297.631 1095.27 298.562 1096.92 300.425C1098.6 302.251 1099.44 304.848 1099.44 308.215V326H1095.14V308.968C1095.14 303.989 1093.05 301.499 1088.86 301.499C1088 301.499 1087.16 301.607 1086.33 301.822C1085.54 302.036 1084.83 302.359 1084.18 302.789C1083.54 303.219 1083.02 303.774 1082.62 304.454C1082.27 305.099 1082.09 305.869 1082.09 306.765V326H1077.79ZM1126.06 321.487H1125.84C1124.16 324.925 1121.45 326.645 1117.73 326.645C1116.01 326.645 1114.45 326.304 1113.06 325.624C1111.66 324.943 1110.46 323.976 1109.46 322.722C1108.49 321.469 1107.74 319.946 1107.2 318.155C1106.7 316.364 1106.45 314.359 1106.45 312.138C1106.45 309.917 1106.7 307.911 1107.2 306.12C1107.74 304.329 1108.49 302.807 1109.46 301.553C1110.46 300.299 1111.66 299.332 1113.06 298.651C1114.45 297.971 1116.01 297.631 1117.73 297.631C1119.66 297.631 1121.31 298.06 1122.67 298.92C1124.07 299.744 1125.13 301.033 1125.84 302.789H1126.06V286.24H1130.36V326H1126.06V321.487ZM1118.91 322.776C1119.88 322.776 1120.79 322.651 1121.65 322.4C1122.55 322.149 1123.32 321.791 1123.96 321.325C1124.61 320.824 1125.11 320.233 1125.47 319.552C1125.86 318.836 1126.06 318.03 1126.06 317.135V306.818C1126.06 306.066 1125.86 305.368 1125.47 304.723C1125.11 304.042 1124.61 303.469 1123.96 303.004C1123.32 302.538 1122.55 302.18 1121.65 301.929C1120.79 301.642 1119.88 301.499 1118.91 301.499C1116.48 301.499 1114.56 302.269 1113.16 303.81C1111.77 305.314 1111.07 307.302 1111.07 309.774V314.502C1111.07 316.973 1111.77 318.979 1113.16 320.52C1114.56 322.024 1116.48 322.776 1118.91 322.776Z" fill="black"/>
<path d="M2 128V108C2 101.373 7.37258 96 14 96H234.242M234.242 96V66M234.242 96H469C475.627 96 481 101.373 481 108V128" stroke="black" stroke-width="3" stroke-linecap="round"/>
<rect x="27.5" y="163.5" width="220" height="284" rx="10.5" fill="#F2F3F2" stroke="#B0ADAD" stroke-width="3"/>
<rect x="346.5" y="163.5" width="109" height="284" rx="10.5" fill="#F2F3F2" stroke="#B0ADAD" stroke-width="3"/>
<path d="M104.369 320.48C102.929 320.48 101.636 320.227 100.489 319.72C99.3424 319.213 98.3691 318.493 97.5691 317.56C96.7957 316.627 96.1957 315.493 95.7691 314.16C95.3691 312.827 95.1691 311.333 95.1691 309.68C95.1691 308.027 95.3691 306.533 95.7691 305.2C96.1957 303.867 96.7957 302.733 97.5691 301.8C98.3691 300.867 99.3424 300.147 100.489 299.64C101.636 299.133 102.929 298.88 104.369 298.88C106.422 298.88 108.062 299.333 109.289 300.24C110.542 301.12 111.476 302.28 112.089 303.72L109.409 305.08C109.036 304.013 108.422 303.187 107.569 302.6C106.716 302.013 105.649 301.72 104.369 301.72C103.409 301.72 102.569 301.88 101.849 302.2C101.129 302.493 100.529 302.92 100.049 303.48C99.5691 304.013 99.2091 304.667 98.9691 305.44C98.7291 306.187 98.6091 307.013 98.6091 307.92V311.44C98.6091 313.253 99.0891 314.747 100.049 315.92C101.036 317.067 102.476 317.64 104.369 317.64C106.956 317.64 108.822 316.44 109.969 314.04L112.289 315.6C111.622 317.093 110.622 318.28 109.289 319.16C107.982 320.04 106.342 320.48 104.369 320.48ZM124.372 320.48C122.985 320.48 121.719 320.227 120.572 319.72C119.425 319.213 118.439 318.493 117.612 317.56C116.812 316.6 116.185 315.467 115.732 314.16C115.279 312.827 115.052 311.333 115.052 309.68C115.052 308.053 115.279 306.573 115.732 305.24C116.185 303.907 116.812 302.773 117.612 301.84C118.439 300.88 119.425 300.147 120.572 299.64C121.719 299.133 122.985 298.88 124.372 298.88C125.759 298.88 127.012 299.133 128.132 299.64C129.279 300.147 130.265 300.88 131.092 301.84C131.919 302.773 132.559 303.907 133.012 305.24C133.465 306.573 133.692 308.053 133.692 309.68C133.692 311.333 133.465 312.827 133.012 314.16C132.559 315.467 131.919 316.6 131.092 317.56C130.265 318.493 129.279 319.213 128.132 319.72C127.012 320.227 125.759 320.48 124.372 320.48ZM124.372 317.64C126.105 317.64 127.519 317.107 128.612 316.04C129.705 314.973 130.252 313.347 130.252 311.16V308.2C130.252 306.013 129.705 304.387 128.612 303.32C127.519 302.253 126.105 301.72 124.372 301.72C122.639 301.72 121.225 302.253 120.132 303.32C119.039 304.387 118.492 306.013 118.492 308.2V311.16C118.492 313.347 119.039 314.973 120.132 316.04C121.225 317.107 122.639 317.64 124.372 317.64ZM152.155 316.64H151.995C150.741 319.2 148.728 320.48 145.955 320.48C144.675 320.48 143.515 320.227 142.475 319.72C141.435 319.213 140.541 318.493 139.795 317.56C139.075 316.627 138.515 315.493 138.115 314.16C137.741 312.827 137.555 311.333 137.555 309.68C137.555 308.027 137.741 306.533 138.115 305.2C138.515 303.867 139.075 302.733 139.795 301.8C140.541 300.867 141.435 300.147 142.475 299.64C143.515 299.133 144.675 298.88 145.955 298.88C147.395 298.88 148.621 299.2 149.635 299.84C150.675 300.453 151.461 301.413 151.995 302.72H152.155V290.4H155.355V320H152.155V316.64ZM146.835 317.6C147.555 317.6 148.235 317.507 148.875 317.32C149.541 317.133 150.115 316.867 150.595 316.52C151.075 316.147 151.448 315.707 151.715 315.2C152.008 314.667 152.155 314.067 152.155 313.4V305.72C152.155 305.16 152.008 304.64 151.715 304.16C151.448 303.653 151.075 303.227 150.595 302.88C150.115 302.533 149.541 302.267 148.875 302.08C148.235 301.867 147.555 301.76 146.835 301.76C145.021 301.76 143.595 302.333 142.555 303.48C141.515 304.6 140.995 306.08 140.995 307.92V311.44C140.995 313.28 141.515 314.773 142.555 315.92C143.595 317.04 145.021 317.6 146.835 317.6ZM169.918 320.48C168.504 320.48 167.224 320.227 166.078 319.72C164.958 319.213 163.984 318.493 163.158 317.56C162.358 316.6 161.731 315.467 161.278 314.16C160.851 312.827 160.638 311.333 160.638 309.68C160.638 308.053 160.851 306.573 161.278 305.24C161.731 303.907 162.358 302.773 163.158 301.84C163.984 300.88 164.958 300.147 166.078 299.64C167.224 299.133 168.504 298.88 169.918 298.88C171.304 298.88 172.544 299.133 173.638 299.64C174.731 300.147 175.664 300.853 176.438 301.76C177.211 302.64 177.798 303.693 178.198 304.92C178.624 306.147 178.838 307.493 178.838 308.96V310.48H163.998V311.44C163.998 312.32 164.131 313.147 164.398 313.92C164.691 314.667 165.091 315.32 165.598 315.88C166.131 316.44 166.771 316.88 167.518 317.2C168.291 317.52 169.158 317.68 170.118 317.68C171.424 317.68 172.558 317.373 173.518 316.76C174.504 316.147 175.264 315.267 175.798 314.12L178.078 315.76C177.411 317.173 176.371 318.32 174.958 319.2C173.544 320.053 171.864 320.48 169.918 320.48ZM169.918 301.56C169.038 301.56 168.238 301.72 167.518 302.04C166.798 302.333 166.171 302.76 165.638 303.32C165.131 303.88 164.731 304.547 164.438 305.32C164.144 306.067 163.998 306.893 163.998 307.8V308.08H175.398V307.64C175.398 305.8 174.891 304.333 173.878 303.24C172.891 302.12 171.571 301.56 169.918 301.56Z" fill="black"/>
<path d="M413.48 417.451C413.48 418.891 413.227 420.185 412.72 421.331C412.213 422.478 411.493 423.451 410.56 424.251C409.627 425.025 408.493 425.625 407.16 426.051C405.827 426.451 404.333 426.651 402.68 426.651C401.027 426.651 399.533 426.451 398.2 426.051C396.867 425.625 395.733 425.025 394.8 424.251C393.867 423.451 393.147 422.478 392.64 421.331C392.133 420.185 391.88 418.891 391.88 417.451C391.88 415.398 392.333 413.758 393.24 412.531C394.12 411.278 395.28 410.345 396.72 409.731L398.08 412.411C397.013 412.785 396.187 413.398 395.6 414.251C395.013 415.105 394.72 416.171 394.72 417.451C394.72 418.411 394.88 419.251 395.2 419.971C395.493 420.691 395.92 421.291 396.48 421.771C397.013 422.251 397.667 422.611 398.44 422.851C399.187 423.091 400.013 423.211 400.92 423.211L404.44 423.211C406.253 423.211 407.747 422.731 408.92 421.771C410.067 420.785 410.64 419.345 410.64 417.451C410.64 414.865 409.44 412.998 407.04 411.851L408.6 409.531C410.093 410.198 411.28 411.198 412.16 412.531C413.04 413.838 413.48 415.478 413.48 417.451ZM413.48 397.448C413.48 398.835 413.227 400.102 412.72 401.248C412.213 402.395 411.493 403.382 410.56 404.208C409.6 405.008 408.467 405.635 407.16 406.088C405.827 406.542 404.333 406.768 402.68 406.768C401.053 406.768 399.573 406.542 398.24 406.088C396.907 405.635 395.773 405.008 394.84 404.208C393.88 403.382 393.147 402.395 392.64 401.248C392.133 400.102 391.88 398.835 391.88 397.448C391.88 396.062 392.133 394.808 392.64 393.688C393.147 392.542 393.88 391.555 394.84 390.728C395.773 389.902 396.907 389.262 398.24 388.808C399.573 388.355 401.053 388.128 402.68 388.128C404.333 388.128 405.827 388.355 407.16 388.808C408.467 389.262 409.6 389.902 410.56 390.728C411.493 391.555 412.213 392.542 412.72 393.688C413.227 394.808 413.48 396.062 413.48 397.448ZM410.64 397.448C410.64 395.715 410.107 394.302 409.04 393.208C407.973 392.115 406.347 391.568 404.16 391.568L401.2 391.568C399.013 391.568 397.387 392.115 396.32 393.208C395.253 394.302 394.72 395.715 394.72 397.448C394.72 399.182 395.253 400.595 396.32 401.688C397.387 402.782 399.013 403.328 401.2 403.328L404.16 403.328C406.347 403.328 407.973 402.782 409.04 401.688C410.107 400.595 410.64 399.182 410.64 397.448ZM413 382.866L392.36 382.866L392.36 379.666L395.72 379.666L395.72 379.506C394.547 378.999 393.613 378.292 392.92 377.386C392.227 376.452 391.88 375.212 391.88 373.666C391.88 371.532 392.573 369.852 393.96 368.626C395.32 367.372 397.253 366.746 399.76 366.746L413 366.746L413 369.946L400.32 369.946C396.613 369.946 394.76 371.506 394.76 374.626C394.76 375.266 394.84 375.892 395 376.506C395.16 377.092 395.4 377.626 395.72 378.106C396.04 378.586 396.453 378.972 396.96 379.266C397.44 379.532 398.013 379.666 398.68 379.666L413 379.666L413 382.866ZM413 355.571C413 356.691 412.693 357.545 412.08 358.131C411.44 358.691 410.613 358.971 409.6 358.971L395.16 358.971L395.16 362.371L392.36 362.371L392.36 360.451C392.36 359.758 392.227 359.291 391.96 359.051C391.667 358.785 391.173 358.651 390.48 358.651L386.64 358.651L386.64 355.771L392.36 355.771L392.36 351.251L395.16 351.251L395.16 355.771L410.2 355.771L410.2 351.571L413 351.571L413 355.571ZM413 346.108L392.36 346.108L392.36 342.908L396.16 342.908L396.16 342.708C395.173 342.334 394.293 341.668 393.52 340.708C392.747 339.748 392.36 338.428 392.36 336.748L392.36 335.508L395.56 335.508L395.56 337.388C395.56 339.121 395.893 340.481 396.56 341.468C397.2 342.428 398.013 342.908 399 342.908L413 342.908L413 346.108ZM413 316.577C413 317.777 412.68 318.643 412.04 319.177C411.4 319.683 410.6 320.003 409.64 320.137L409.64 320.337C410.92 320.79 411.88 321.537 412.52 322.577C413.16 323.617 413.48 324.857 413.48 326.297C413.48 328.483 412.92 330.19 411.8 331.417C410.68 332.617 409.16 333.217 407.24 333.217C405.293 333.217 403.8 332.51 402.76 331.097C401.72 329.657 401.2 327.43 401.2 324.417L401.2 320.337L399.16 320.337C397.693 320.337 396.573 320.737 395.8 321.537C395.027 322.337 394.64 323.563 394.64 325.217C394.64 326.47 394.92 327.523 395.48 328.377C396.04 329.203 396.787 329.897 397.72 330.457L395.92 332.377C394.8 331.817 393.853 330.923 393.08 329.697C392.28 328.47 391.88 326.923 391.88 325.057C391.88 322.55 392.493 320.603 393.72 319.217C394.947 317.83 396.653 317.137 398.84 317.137L410.2 317.137L410.2 314.777L413 314.777L413 316.577ZM410.76 325.777C410.76 324.977 410.667 324.243 410.48 323.577C410.293 322.91 410.027 322.337 409.68 321.857C409.333 321.377 408.933 321.003 408.48 320.737C408.027 320.47 407.533 320.337 407 320.337L403.6 320.337L403.6 324.577C403.6 326.417 403.867 327.763 404.4 328.617C404.933 329.443 405.707 329.857 406.72 329.857L407.56 329.857C408.573 329.857 409.36 329.497 409.92 328.777C410.48 328.03 410.76 327.03 410.76 325.777ZM413.48 302.529C413.48 303.969 413.227 305.263 412.72 306.409C412.213 307.556 411.493 308.529 410.56 309.329C409.627 310.103 408.493 310.703 407.16 311.129C405.827 311.529 404.333 311.729 402.68 311.729C401.027 311.729 399.533 311.529 398.2 311.129C396.867 310.703 395.733 310.103 394.8 309.329C393.867 308.529 393.147 307.556 392.64 306.409C392.133 305.263 391.88 303.969 391.88 302.529C391.88 300.476 392.333 298.836 393.24 297.609C394.12 296.356 395.28 295.423 396.72 294.809L398.08 297.489C397.013 297.863 396.187 298.476 395.6 299.329C395.013 300.183 394.72 301.249 394.72 302.529C394.72 303.489 394.88 304.329 395.2 305.049C395.493 305.769 395.92 306.369 396.48 306.849C397.013 307.329 397.667 307.689 398.44 307.929C399.187 308.169 400.013 308.289 400.92 308.289L404.44 308.289C406.253 308.289 407.747 307.809 408.92 306.849C410.067 305.863 410.64 304.423 410.64 302.529C410.64 299.943 409.44 298.076 407.04 296.929L408.6 294.609C410.093 295.276 411.28 296.276 412.16 297.609C413.04 298.916 413.48 300.556 413.48 302.529ZM413 285.532C413 286.652 412.693 287.506 412.08 288.092C411.44 288.652 410.613 288.932 409.6 288.932L395.16 288.932L395.16 292.332L392.36 292.332L392.36 290.412C392.36 289.719 392.227 289.252 391.96 289.012C391.667 288.746 391.173 288.612 390.48 288.612L386.64 288.612L386.64 285.732L392.36 285.732L392.36 281.212L395.16 281.212L395.16 285.732L410.2 285.732L410.2 281.532L413 281.532L413 285.532Z" fill="black"/>
<path d="M402.55 199H401.45C400.124 199 398.852 199.527 397.914 200.464C396.977 201.402 396.45 202.674 396.45 204V204.45C396.449 205.327 396.218 206.188 395.779 206.947C395.34 207.706 394.709 208.337 393.95 208.775L392.875 209.4C392.115 209.839 391.253 210.07 390.375 210.07C389.497 210.07 388.635 209.839 387.875 209.4L387.5 209.2C386.353 208.538 384.99 208.359 383.71 208.701C382.43 209.043 381.339 209.879 380.675 211.025L380.125 211.975C379.463 213.122 379.284 214.485 379.626 215.765C379.968 217.045 380.804 218.136 381.95 218.8L382.325 219.05C383.081 219.486 383.709 220.113 384.148 220.867C384.586 221.621 384.82 222.477 384.825 223.35V224.625C384.829 225.506 384.599 226.372 384.16 227.136C383.721 227.9 383.088 228.534 382.325 228.975L381.95 229.2C380.804 229.864 379.968 230.955 379.626 232.235C379.284 233.515 379.463 234.878 380.125 236.025L380.675 236.975C381.339 238.121 382.43 238.957 383.71 239.299C384.99 239.641 386.353 239.462 387.5 238.8L387.875 238.6C388.635 238.161 389.497 237.93 390.375 237.93C391.253 237.93 392.115 238.161 392.875 238.6L393.95 239.225C394.709 239.663 395.34 240.294 395.779 241.053C396.218 241.812 396.449 242.673 396.45 243.55V244C396.45 245.326 396.977 246.598 397.914 247.536C398.852 248.473 400.124 249 401.45 249H402.55C403.876 249 405.148 248.473 406.086 247.536C407.023 246.598 407.55 245.326 407.55 244V243.55C407.551 242.673 407.782 241.812 408.221 241.053C408.66 240.294 409.291 239.663 410.05 239.225L411.125 238.6C411.885 238.161 412.747 237.93 413.625 237.93C414.503 237.93 415.365 238.161 416.125 238.6L416.5 238.8C417.647 239.462 419.01 239.641 420.29 239.299C421.57 238.957 422.661 238.121 423.325 236.975L423.875 236C424.537 234.853 424.716 233.49 424.374 232.21C424.032 230.93 423.196 229.839 422.05 229.175L421.675 228.975C420.912 228.534 420.279 227.9 419.84 227.136C419.401 226.372 419.172 225.506 419.175 224.625V223.375C419.172 222.494 419.401 221.628 419.84 220.864C420.279 220.1 420.912 219.466 421.675 219.025L422.05 218.8C423.196 218.136 424.032 217.045 424.374 215.765C424.716 214.485 424.537 213.122 423.875 211.975L423.325 211.025C422.661 209.879 421.57 209.043 420.29 208.701C419.01 208.359 417.647 208.538 416.5 209.2L416.125 209.4C415.365 209.839 414.503 210.07 413.625 210.07C412.747 210.07 411.885 209.839 411.125 209.4L410.05 208.775C409.291 208.337 408.66 207.706 408.221 206.947C407.782 206.188 407.551 205.327 407.55 204.45V204C407.55 202.674 407.023 201.402 406.086 200.464C405.148 199.527 403.876 199 402.55 199Z" stroke="black" stroke-width="2" stroke-linecap="round" stroke-linejoin="round"/>
<path d="M402 231.5C406.142 231.5 409.5 228.142 409.5 224C409.5 219.858 406.142 216.5 402 216.5C397.858 216.5 394.5 219.858 394.5 224C394.5 228.142 397.858 231.5 402 231.5Z" stroke="black" stroke-width="2" stroke-linecap="round" stroke-linejoin="round"/>
</svg>
