<svg width="1354" height="905" viewBox="0 0 1354 905" fill="none" xmlns="http://www.w3.org/2000/svg">
<rect x="1.4925" y="137.492" width="956.015" height="332.015" rx="16.4175" fill="#FFE2E1" stroke="#D59795" stroke-width="2.985"/>
<path d="M1056.42 304.914C1057.2 304.133 1057.2 302.867 1056.42 302.086L1043.69 289.358C1042.91 288.577 1041.64 288.577 1040.86 289.358C1040.08 290.139 1040.08 291.405 1040.86 292.186L1052.17 303.5L1040.86 314.814C1040.08 315.595 1040.08 316.861 1040.86 317.642C1041.64 318.423 1042.91 318.423 1043.69 317.642L1056.42 304.914ZM958.998 305.5H1055V301.5H958.998V305.5Z" fill="#D59795"/>
<path d="M1056.42 784.414C1057.2 783.633 1057.2 782.367 1056.42 781.586L1043.69 768.858C1042.91 768.077 1041.64 768.077 1040.86 768.858C1040.08 769.639 1040.08 770.905 1040.86 771.686L1052.18 783L1040.86 794.314C1040.08 795.095 1040.08 796.361 1040.86 797.142C1041.64 797.923 1042.91 797.923 1043.69 797.142L1056.42 784.414ZM959 785H1055.01V781H959V785Z" fill="#D5B555"/>
<path d="M285.414 305.414C286.195 304.633 286.195 303.367 285.414 302.586L272.686 289.858C271.905 289.077 270.639 289.077 269.858 289.858C269.077 290.639 269.077 291.905 269.858 292.686L281.172 304L269.858 315.314C269.077 316.095 269.077 317.361 269.858 318.142C270.639 318.923 271.905 318.923 272.686 318.142L285.414 305.414ZM192 306H284V302H192V306Z" fill="#B0ADAD"/>
<path d="M492.414 304.414C493.195 303.633 493.195 302.367 492.414 301.586L479.686 288.858C478.905 288.077 477.639 288.077 476.858 288.858C476.077 289.639 476.077 290.905 476.858 291.686L488.172 303L476.858 314.314C476.077 315.095 476.077 316.361 476.858 317.142C477.639 317.923 478.905 317.923 479.686 317.142L492.414 304.414ZM399 305H491V301H399V305Z" fill="#B0ADAD"/>
<rect x="957.508" y="901.508" width="476.015" height="227.015" rx="16.4175" transform="rotate(-180 957.508 901.508)" fill="#FFF2CC" stroke="#D5B555" stroke-width="2.985"/>
<rect x="25.5" y="161.5" width="166" height="284" rx="10.5" fill="#F2F3F2" stroke="#B0ADAD" stroke-width="3"/>
<rect x="495.5" y="161.5" width="438" height="284" rx="10.5" fill="#F2F3F2" stroke="#B0ADAD" stroke-width="3"/>
<rect x="481.5" y="515.5" width="324" height="114" rx="10.5" fill="#CBE1FF" stroke="#3276CF" stroke-width="3"/>
<rect x="288.5" y="161.5" width="109" height="284" rx="10.5" fill="#F2F3F2" stroke="#B0ADAD" stroke-width="3"/>
<path d="M76.3691 318.48C74.9291 318.48 73.6357 318.227 72.4891 317.72C71.3424 317.213 70.3691 316.493 69.5691 315.56C68.7957 314.627 68.1957 313.493 67.7691 312.16C67.3691 310.827 67.1691 309.333 67.1691 307.68C67.1691 306.027 67.3691 304.533 67.7691 303.2C68.1957 301.867 68.7957 300.733 69.5691 299.8C70.3691 298.867 71.3424 298.147 72.4891 297.64C73.6357 297.133 74.9291 296.88 76.3691 296.88C78.4224 296.88 80.0624 297.333 81.2891 298.24C82.5424 299.12 83.4757 300.28 84.0891 301.72L81.4091 303.08C81.0357 302.013 80.4224 301.187 79.5691 300.6C78.7157 300.013 77.6491 299.72 76.3691 299.72C75.4091 299.72 74.5691 299.88 73.8491 300.2C73.1291 300.493 72.5291 300.92 72.0491 301.48C71.5691 302.013 71.2091 302.667 70.9691 303.44C70.7291 304.187 70.6091 305.013 70.6091 305.92V309.44C70.6091 311.253 71.0891 312.747 72.0491 313.92C73.0357 315.067 74.4757 315.64 76.3691 315.64C78.9557 315.64 80.8224 314.44 81.9691 312.04L84.2891 313.6C83.6224 315.093 82.6224 316.28 81.2891 317.16C79.9824 318.04 78.3424 318.48 76.3691 318.48ZM96.3719 318.48C94.9852 318.48 93.7185 318.227 92.5719 317.72C91.4252 317.213 90.4385 316.493 89.6119 315.56C88.8119 314.6 88.1852 313.467 87.7319 312.16C87.2785 310.827 87.0519 309.333 87.0519 307.68C87.0519 306.053 87.2785 304.573 87.7319 303.24C88.1852 301.907 88.8119 300.773 89.6119 299.84C90.4385 298.88 91.4252 298.147 92.5719 297.64C93.7185 297.133 94.9852 296.88 96.3719 296.88C97.7585 296.88 99.0119 297.133 100.132 297.64C101.279 298.147 102.265 298.88 103.092 299.84C103.919 300.773 104.559 301.907 105.012 303.24C105.465 304.573 105.692 306.053 105.692 307.68C105.692 309.333 105.465 310.827 105.012 312.16C104.559 313.467 103.919 314.6 103.092 315.56C102.265 316.493 101.279 317.213 100.132 317.72C99.0119 318.227 97.7585 318.48 96.3719 318.48ZM96.3719 315.64C98.1052 315.64 99.5185 315.107 100.612 314.04C101.705 312.973 102.252 311.347 102.252 309.16V306.2C102.252 304.013 101.705 302.387 100.612 301.32C99.5185 300.253 98.1052 299.72 96.3719 299.72C94.6385 299.72 93.2252 300.253 92.1319 301.32C91.0385 302.387 90.4919 304.013 90.4919 306.2V309.16C90.4919 311.347 91.0385 312.973 92.1319 314.04C93.2252 315.107 94.6385 315.64 96.3719 315.64ZM124.155 314.64H123.995C122.741 317.2 120.728 318.48 117.955 318.48C116.675 318.48 115.515 318.227 114.475 317.72C113.435 317.213 112.541 316.493 111.795 315.56C111.075 314.627 110.515 313.493 110.115 312.16C109.741 310.827 109.555 309.333 109.555 307.68C109.555 306.027 109.741 304.533 110.115 303.2C110.515 301.867 111.075 300.733 111.795 299.8C112.541 298.867 113.435 298.147 114.475 297.64C115.515 297.133 116.675 296.88 117.955 296.88C119.395 296.88 120.621 297.2 121.635 297.84C122.675 298.453 123.461 299.413 123.995 300.72H124.155V288.4H127.355V318H124.155V314.64ZM118.835 315.6C119.555 315.6 120.235 315.507 120.875 315.32C121.541 315.133 122.115 314.867 122.595 314.52C123.075 314.147 123.448 313.707 123.715 313.2C124.008 312.667 124.155 312.067 124.155 311.4V303.72C124.155 303.16 124.008 302.64 123.715 302.16C123.448 301.653 123.075 301.227 122.595 300.88C122.115 300.533 121.541 300.267 120.875 300.08C120.235 299.867 119.555 299.76 118.835 299.76C117.021 299.76 115.595 300.333 114.555 301.48C113.515 302.6 112.995 304.08 112.995 305.92V309.44C112.995 311.28 113.515 312.773 114.555 313.92C115.595 315.04 117.021 315.6 118.835 315.6ZM141.918 318.48C140.504 318.48 139.224 318.227 138.078 317.72C136.958 317.213 135.984 316.493 135.158 315.56C134.358 314.6 133.731 313.467 133.278 312.16C132.851 310.827 132.638 309.333 132.638 307.68C132.638 306.053 132.851 304.573 133.278 303.24C133.731 301.907 134.358 300.773 135.158 299.84C135.984 298.88 136.958 298.147 138.078 297.64C139.224 297.133 140.504 296.88 141.918 296.88C143.304 296.88 144.544 297.133 145.638 297.64C146.731 298.147 147.664 298.853 148.438 299.76C149.211 300.64 149.798 301.693 150.198 302.92C150.624 304.147 150.838 305.493 150.838 306.96V308.48H135.998V309.44C135.998 310.32 136.131 311.147 136.398 311.92C136.691 312.667 137.091 313.32 137.598 313.88C138.131 314.44 138.771 314.88 139.518 315.2C140.291 315.52 141.158 315.68 142.118 315.68C143.424 315.68 144.558 315.373 145.518 314.76C146.504 314.147 147.264 313.267 147.798 312.12L150.078 313.76C149.411 315.173 148.371 316.32 146.958 317.2C145.544 318.053 143.864 318.48 141.918 318.48ZM141.918 299.56C141.038 299.56 140.238 299.72 139.518 300.04C138.798 300.333 138.171 300.76 137.638 301.32C137.131 301.88 136.731 302.547 136.438 303.32C136.144 304.067 135.998 304.893 135.998 305.8V306.08H147.398V305.64C147.398 303.8 146.891 302.333 145.878 301.24C144.891 300.12 143.571 299.56 141.918 299.56Z" fill="black"/>
<path d="M682.369 318.48C680.929 318.48 679.636 318.227 678.489 317.72C677.342 317.213 676.369 316.493 675.569 315.56C674.796 314.627 674.196 313.493 673.769 312.16C673.369 310.827 673.169 309.333 673.169 307.68C673.169 306.027 673.369 304.533 673.769 303.2C674.196 301.867 674.796 300.733 675.569 299.8C676.369 298.867 677.342 298.147 678.489 297.64C679.636 297.133 680.929 296.88 682.369 296.88C684.422 296.88 686.062 297.333 687.289 298.24C688.542 299.12 689.476 300.28 690.089 301.72L687.409 303.08C687.036 302.013 686.422 301.187 685.569 300.6C684.716 300.013 683.649 299.72 682.369 299.72C681.409 299.72 680.569 299.88 679.849 300.2C679.129 300.493 678.529 300.92 678.049 301.48C677.569 302.013 677.209 302.667 676.969 303.44C676.729 304.187 676.609 305.013 676.609 305.92V309.44C676.609 311.253 677.089 312.747 678.049 313.92C679.036 315.067 680.476 315.64 682.369 315.64C684.956 315.64 686.822 314.44 687.969 312.04L690.289 313.6C689.622 315.093 688.622 316.28 687.289 317.16C685.982 318.04 684.342 318.48 682.369 318.48ZM702.372 318.48C700.985 318.48 699.719 318.227 698.572 317.72C697.425 317.213 696.439 316.493 695.612 315.56C694.812 314.6 694.185 313.467 693.732 312.16C693.279 310.827 693.052 309.333 693.052 307.68C693.052 306.053 693.279 304.573 693.732 303.24C694.185 301.907 694.812 300.773 695.612 299.84C696.439 298.88 697.425 298.147 698.572 297.64C699.719 297.133 700.985 296.88 702.372 296.88C703.759 296.88 705.012 297.133 706.132 297.64C707.279 298.147 708.265 298.88 709.092 299.84C709.919 300.773 710.559 301.907 711.012 303.24C711.465 304.573 711.692 306.053 711.692 307.68C711.692 309.333 711.465 310.827 711.012 312.16C710.559 313.467 709.919 314.6 709.092 315.56C708.265 316.493 707.279 317.213 706.132 317.72C705.012 318.227 703.759 318.48 702.372 318.48ZM702.372 315.64C704.105 315.64 705.519 315.107 706.612 314.04C707.705 312.973 708.252 311.347 708.252 309.16V306.2C708.252 304.013 707.705 302.387 706.612 301.32C705.519 300.253 704.105 299.72 702.372 299.72C700.639 299.72 699.225 300.253 698.132 301.32C697.039 302.387 696.492 304.013 696.492 306.2V309.16C696.492 311.347 697.039 312.973 698.132 314.04C699.225 315.107 700.639 315.64 702.372 315.64ZM730.155 314.64H729.995C728.741 317.2 726.728 318.48 723.955 318.48C722.675 318.48 721.515 318.227 720.475 317.72C719.435 317.213 718.541 316.493 717.795 315.56C717.075 314.627 716.515 313.493 716.115 312.16C715.741 310.827 715.555 309.333 715.555 307.68C715.555 306.027 715.741 304.533 716.115 303.2C716.515 301.867 717.075 300.733 717.795 299.8C718.541 298.867 719.435 298.147 720.475 297.64C721.515 297.133 722.675 296.88 723.955 296.88C725.395 296.88 726.621 297.2 727.635 297.84C728.675 298.453 729.461 299.413 729.995 300.72H730.155V288.4H733.355V318H730.155V314.64ZM724.835 315.6C725.555 315.6 726.235 315.507 726.875 315.32C727.541 315.133 728.115 314.867 728.595 314.52C729.075 314.147 729.448 313.707 729.715 313.2C730.008 312.667 730.155 312.067 730.155 311.4V303.72C730.155 303.16 730.008 302.64 729.715 302.16C729.448 301.653 729.075 301.227 728.595 300.88C728.115 300.533 727.541 300.267 726.875 300.08C726.235 299.867 725.555 299.76 724.835 299.76C723.021 299.76 721.595 300.333 720.555 301.48C719.515 302.6 718.995 304.08 718.995 305.92V309.44C718.995 311.28 719.515 312.773 720.555 313.92C721.595 315.04 723.021 315.6 724.835 315.6ZM747.918 318.48C746.504 318.48 745.224 318.227 744.078 317.72C742.958 317.213 741.984 316.493 741.158 315.56C740.358 314.6 739.731 313.467 739.278 312.16C738.851 310.827 738.638 309.333 738.638 307.68C738.638 306.053 738.851 304.573 739.278 303.24C739.731 301.907 740.358 300.773 741.158 299.84C741.984 298.88 742.958 298.147 744.078 297.64C745.224 297.133 746.504 296.88 747.918 296.88C749.304 296.88 750.544 297.133 751.638 297.64C752.731 298.147 753.664 298.853 754.438 299.76C755.211 300.64 755.798 301.693 756.198 302.92C756.624 304.147 756.838 305.493 756.838 306.96V308.48H741.998V309.44C741.998 310.32 742.131 311.147 742.398 311.92C742.691 312.667 743.091 313.32 743.598 313.88C744.131 314.44 744.771 314.88 745.518 315.2C746.291 315.52 747.158 315.68 748.118 315.68C749.424 315.68 750.558 315.373 751.518 314.76C752.504 314.147 753.264 313.267 753.798 312.12L756.078 313.76C755.411 315.173 754.371 316.32 752.958 317.2C751.544 318.053 749.864 318.48 747.918 318.48ZM747.918 299.56C747.038 299.56 746.238 299.72 745.518 300.04C744.798 300.333 744.171 300.76 743.638 301.32C743.131 301.88 742.731 302.547 742.438 303.32C742.144 304.067 741.998 304.893 741.998 305.8V306.08H753.398V305.64C753.398 303.8 752.891 302.333 751.878 301.24C750.891 300.12 749.571 299.56 747.918 299.56Z" fill="black"/>
<path d="M558.433 586C557.313 586 556.459 585.693 555.873 585.08C555.313 584.44 555.033 583.613 555.033 582.6V568.16H551.633V565.36H553.553C554.246 565.36 554.713 565.227 554.953 564.96C555.219 564.667 555.353 564.173 555.353 563.48V559.64H558.233V565.36H562.753V568.16H558.233V583.2H562.433V586H558.433ZM575.5 586.48C574.087 586.48 572.807 586.227 571.66 585.72C570.54 585.213 569.567 584.493 568.74 583.56C567.94 582.6 567.313 581.467 566.86 580.16C566.433 578.827 566.22 577.333 566.22 575.68C566.22 574.053 566.433 572.573 566.86 571.24C567.313 569.907 567.94 568.773 568.74 567.84C569.567 566.88 570.54 566.147 571.66 565.64C572.807 565.133 574.087 564.88 575.5 564.88C576.887 564.88 578.127 565.133 579.22 565.64C580.313 566.147 581.247 566.853 582.02 567.76C582.793 568.64 583.38 569.693 583.78 570.92C584.207 572.147 584.42 573.493 584.42 574.96V576.48H569.58V577.44C569.58 578.32 569.713 579.147 569.98 579.92C570.273 580.667 570.673 581.32 571.18 581.88C571.713 582.44 572.353 582.88 573.1 583.2C573.873 583.52 574.74 583.68 575.7 583.68C577.007 583.68 578.14 583.373 579.1 582.76C580.087 582.147 580.847 581.267 581.38 580.12L583.66 581.76C582.993 583.173 581.953 584.32 580.54 585.2C579.127 586.053 577.447 586.48 575.5 586.48ZM575.5 567.56C574.62 567.56 573.82 567.72 573.1 568.04C572.38 568.333 571.753 568.76 571.22 569.32C570.713 569.88 570.313 570.547 570.02 571.32C569.727 572.067 569.58 572.893 569.58 573.8V574.08H580.98V573.64C580.98 571.8 580.473 570.333 579.46 569.24C578.473 568.12 577.153 567.56 575.5 567.56ZM595.893 586.48C593.973 586.48 592.36 586.12 591.053 585.4C589.773 584.653 588.666 583.667 587.733 582.44L590.013 580.6C590.813 581.613 591.706 582.4 592.693 582.96C593.68 583.493 594.826 583.76 596.133 583.76C597.493 583.76 598.546 583.467 599.293 582.88C600.066 582.293 600.453 581.467 600.453 580.4C600.453 579.6 600.186 578.92 599.653 578.36C599.146 577.773 598.213 577.373 596.853 577.16L595.213 576.92C594.253 576.787 593.373 576.587 592.573 576.32C591.773 576.027 591.066 575.653 590.453 575.2C589.866 574.72 589.4 574.133 589.053 573.44C588.733 572.747 588.573 571.92 588.573 570.96C588.573 569.947 588.76 569.067 589.133 568.32C589.506 567.547 590.013 566.907 590.653 566.4C591.32 565.893 592.106 565.52 593.013 565.28C593.92 565.013 594.893 564.88 595.933 564.88C597.613 564.88 599.013 565.173 600.133 565.76C601.28 566.347 602.28 567.16 603.133 568.2L601.013 570.12C600.56 569.48 599.893 568.907 599.013 568.4C598.133 567.867 597.026 567.6 595.693 567.6C594.36 567.6 593.346 567.893 592.653 568.48C591.986 569.04 591.653 569.813 591.653 570.8C591.653 571.813 591.986 572.547 592.653 573C593.346 573.453 594.333 573.787 595.613 574L597.213 574.24C599.506 574.587 601.133 575.253 602.093 576.24C603.053 577.2 603.533 578.467 603.533 580.04C603.533 582.04 602.853 583.613 601.493 584.76C600.133 585.907 598.266 586.48 595.893 586.48ZM613.472 586C612.352 586 611.498 585.693 610.912 585.08C610.352 584.44 610.072 583.613 610.072 582.6V568.16H606.672V565.36H608.592C609.285 565.36 609.752 565.227 609.992 564.96C610.258 564.667 610.392 564.173 610.392 563.48V559.64H613.272V565.36H617.792V568.16H613.272V583.2H617.472V586H613.472ZM638.588 586.48C636.668 586.48 635.055 586.12 633.748 585.4C632.468 584.653 631.362 583.667 630.428 582.44L632.708 580.6C633.508 581.613 634.402 582.4 635.388 582.96C636.375 583.493 637.522 583.76 638.828 583.76C640.188 583.76 641.242 583.467 641.988 582.88C642.762 582.293 643.148 581.467 643.148 580.4C643.148 579.6 642.882 578.92 642.348 578.36C641.842 577.773 640.908 577.373 639.548 577.16L637.908 576.92C636.948 576.787 636.068 576.587 635.268 576.32C634.468 576.027 633.762 575.653 633.148 575.2C632.562 574.72 632.095 574.133 631.748 573.44C631.428 572.747 631.268 571.92 631.268 570.96C631.268 569.947 631.455 569.067 631.828 568.32C632.202 567.547 632.708 566.907 633.348 566.4C634.015 565.893 634.802 565.52 635.708 565.28C636.615 565.013 637.588 564.88 638.628 564.88C640.308 564.88 641.708 565.173 642.828 565.76C643.975 566.347 644.975 567.16 645.828 568.2L643.708 570.12C643.255 569.48 642.588 568.907 641.708 568.4C640.828 567.867 639.722 567.6 638.388 567.6C637.055 567.6 636.042 567.893 635.348 568.48C634.682 569.04 634.348 569.813 634.348 570.8C634.348 571.813 634.682 572.547 635.348 573C636.042 573.453 637.028 573.787 638.308 574L639.908 574.24C642.202 574.587 643.828 575.253 644.788 576.24C645.748 577.2 646.228 578.467 646.228 580.04C646.228 582.04 645.548 583.613 644.188 584.76C642.828 585.907 640.962 586.48 638.588 586.48ZM659.64 586.48C658.227 586.48 656.947 586.227 655.8 585.72C654.68 585.213 653.707 584.493 652.88 583.56C652.08 582.6 651.454 581.467 651 580.16C650.574 578.827 650.36 577.333 650.36 575.68C650.36 574.053 650.574 572.573 651 571.24C651.454 569.907 652.08 568.773 652.88 567.84C653.707 566.88 654.68 566.147 655.8 565.64C656.947 565.133 658.227 564.88 659.64 564.88C661.027 564.88 662.267 565.133 663.36 565.64C664.454 566.147 665.387 566.853 666.16 567.76C666.934 568.64 667.52 569.693 667.92 570.92C668.347 572.147 668.56 573.493 668.56 574.96V576.48H653.72V577.44C653.72 578.32 653.854 579.147 654.12 579.92C654.414 580.667 654.814 581.32 655.32 581.88C655.854 582.44 656.494 582.88 657.24 583.2C658.014 583.52 658.88 583.68 659.84 583.68C661.147 583.68 662.28 583.373 663.24 582.76C664.227 582.147 664.987 581.267 665.52 580.12L667.8 581.76C667.134 583.173 666.094 584.32 664.68 585.2C663.267 586.053 661.587 586.48 659.64 586.48ZM659.64 567.56C658.76 567.56 657.96 567.72 657.24 568.04C656.52 568.333 655.894 568.76 655.36 569.32C654.854 569.88 654.454 570.547 654.16 571.32C653.867 572.067 653.72 572.893 653.72 573.8V574.08H665.12V573.64C665.12 571.8 664.614 570.333 663.6 569.24C662.614 568.12 661.294 567.56 659.64 567.56ZM673.834 586V565.36H677.034V569.16H677.234C677.607 568.173 678.274 567.293 679.234 566.52C680.194 565.747 681.514 565.36 683.194 565.36H684.434V568.56H682.554C680.82 568.56 679.46 568.893 678.474 569.56C677.514 570.2 677.034 571.013 677.034 572V586H673.834ZM693.472 586L686.232 565.36H689.432L693.032 575.6L695.272 582.64H695.472L697.712 575.6L701.392 565.36H704.472L697.192 586H693.472ZM716.047 586.48C714.633 586.48 713.353 586.227 712.207 585.72C711.087 585.213 710.113 584.493 709.287 583.56C708.487 582.6 707.86 581.467 707.407 580.16C706.98 578.827 706.767 577.333 706.767 575.68C706.767 574.053 706.98 572.573 707.407 571.24C707.86 569.907 708.487 568.773 709.287 567.84C710.113 566.88 711.087 566.147 712.207 565.64C713.353 565.133 714.633 564.88 716.047 564.88C717.433 564.88 718.673 565.133 719.767 565.64C720.86 566.147 721.793 566.853 722.567 567.76C723.34 568.64 723.927 569.693 724.327 570.92C724.753 572.147 724.967 573.493 724.967 574.96V576.48H710.127V577.44C710.127 578.32 710.26 579.147 710.527 579.92C710.82 580.667 711.22 581.32 711.727 581.88C712.26 582.44 712.9 582.88 713.647 583.2C714.42 583.52 715.287 583.68 716.247 583.68C717.553 583.68 718.687 583.373 719.647 582.76C720.633 582.147 721.393 581.267 721.927 580.12L724.207 581.76C723.54 583.173 722.5 584.32 721.087 585.2C719.673 586.053 717.993 586.48 716.047 586.48ZM716.047 567.56C715.167 567.56 714.367 567.72 713.647 568.04C712.927 568.333 712.3 568.76 711.767 569.32C711.26 569.88 710.86 570.547 710.567 571.32C710.273 572.067 710.127 572.893 710.127 573.8V574.08H721.527V573.64C721.527 571.8 721.02 570.333 720.007 569.24C719.02 568.12 717.7 567.56 716.047 567.56ZM730.24 586V565.36H733.44V569.16H733.64C734.013 568.173 734.68 567.293 735.64 566.52C736.6 565.747 737.92 565.36 739.6 565.36H740.84V568.56H738.96C737.227 568.56 735.867 568.893 734.88 569.56C733.92 570.2 733.44 571.013 733.44 572V586H730.24Z" fill="black"/>
<path d="M355.48 415.451C355.48 416.891 355.227 418.185 354.72 419.331C354.213 420.478 353.493 421.451 352.56 422.251C351.627 423.025 350.493 423.625 349.16 424.051C347.827 424.451 346.333 424.651 344.68 424.651C343.027 424.651 341.533 424.451 340.2 424.051C338.867 423.625 337.733 423.025 336.8 422.251C335.867 421.451 335.147 420.478 334.64 419.331C334.133 418.185 333.88 416.891 333.88 415.451C333.88 413.398 334.333 411.758 335.24 410.531C336.12 409.278 337.28 408.345 338.72 407.731L340.08 410.411C339.013 410.785 338.187 411.398 337.6 412.251C337.013 413.105 336.72 414.171 336.72 415.451C336.72 416.411 336.88 417.251 337.2 417.971C337.493 418.691 337.92 419.291 338.48 419.771C339.013 420.251 339.667 420.611 340.44 420.851C341.187 421.091 342.013 421.211 342.92 421.211L346.44 421.211C348.253 421.211 349.747 420.731 350.92 419.771C352.067 418.785 352.64 417.345 352.64 415.451C352.64 412.865 351.44 410.998 349.04 409.851L350.6 407.531C352.093 408.198 353.28 409.198 354.16 410.531C355.04 411.838 355.48 413.478 355.48 415.451ZM355.48 395.448C355.48 396.835 355.227 398.102 354.72 399.248C354.213 400.395 353.493 401.382 352.56 402.208C351.6 403.008 350.467 403.635 349.16 404.088C347.827 404.542 346.333 404.768 344.68 404.768C343.053 404.768 341.573 404.542 340.24 404.088C338.907 403.635 337.773 403.008 336.84 402.208C335.88 401.382 335.147 400.395 334.64 399.248C334.133 398.102 333.88 396.835 333.88 395.448C333.88 394.062 334.133 392.808 334.64 391.688C335.147 390.542 335.88 389.555 336.84 388.728C337.773 387.902 338.907 387.262 340.24 386.808C341.573 386.355 343.053 386.128 344.68 386.128C346.333 386.128 347.827 386.355 349.16 386.808C350.467 387.262 351.6 387.902 352.56 388.728C353.493 389.555 354.213 390.542 354.72 391.688C355.227 392.808 355.48 394.062 355.48 395.448ZM352.64 395.448C352.64 393.715 352.107 392.302 351.04 391.208C349.973 390.115 348.347 389.568 346.16 389.568L343.2 389.568C341.013 389.568 339.387 390.115 338.32 391.208C337.253 392.302 336.72 393.715 336.72 395.448C336.72 397.182 337.253 398.595 338.32 399.688C339.387 400.782 341.013 401.328 343.2 401.328L346.16 401.328C348.347 401.328 349.973 400.782 351.04 399.688C352.107 398.595 352.64 397.182 352.64 395.448ZM355 380.866L334.36 380.866L334.36 377.666L337.72 377.666L337.72 377.506C336.547 376.999 335.613 376.292 334.92 375.386C334.227 374.452 333.88 373.212 333.88 371.666C333.88 369.532 334.573 367.852 335.96 366.626C337.32 365.372 339.253 364.746 341.76 364.746L355 364.746L355 367.946L342.32 367.946C338.613 367.946 336.76 369.506 336.76 372.626C336.76 373.266 336.84 373.892 337 374.506C337.16 375.092 337.4 375.626 337.72 376.106C338.04 376.586 338.453 376.972 338.96 377.266C339.44 377.532 340.013 377.666 340.68 377.666L355 377.666L355 380.866ZM355 353.571C355 354.691 354.693 355.545 354.08 356.131C353.44 356.691 352.613 356.971 351.6 356.971L337.16 356.971L337.16 360.371L334.36 360.371L334.36 358.451C334.36 357.758 334.227 357.291 333.96 357.051C333.667 356.785 333.173 356.651 332.48 356.651L328.64 356.651L328.64 353.771L334.36 353.771L334.36 349.251L337.16 349.251L337.16 353.771L352.2 353.771L352.2 349.571L355 349.571L355 353.571ZM355 344.108L334.36 344.108L334.36 340.908L338.16 340.908L338.16 340.708C337.173 340.334 336.293 339.668 335.52 338.708C334.747 337.748 334.36 336.428 334.36 334.748L334.36 333.508L337.56 333.508L337.56 335.388C337.56 337.121 337.893 338.481 338.56 339.468C339.2 340.428 340.013 340.908 341 340.908L355 340.908L355 344.108ZM355 314.577C355 315.777 354.68 316.643 354.04 317.177C353.4 317.683 352.6 318.003 351.64 318.137L351.64 318.337C352.92 318.79 353.88 319.537 354.52 320.577C355.16 321.617 355.48 322.857 355.48 324.297C355.48 326.483 354.92 328.19 353.8 329.417C352.68 330.617 351.16 331.217 349.24 331.217C347.293 331.217 345.8 330.51 344.76 329.097C343.72 327.657 343.2 325.43 343.2 322.417L343.2 318.337L341.16 318.337C339.693 318.337 338.573 318.737 337.8 319.537C337.027 320.337 336.64 321.563 336.64 323.217C336.64 324.47 336.92 325.523 337.48 326.377C338.04 327.203 338.787 327.897 339.72 328.457L337.92 330.377C336.8 329.817 335.853 328.923 335.08 327.697C334.28 326.47 333.88 324.923 333.88 323.057C333.88 320.55 334.493 318.603 335.72 317.217C336.947 315.83 338.653 315.137 340.84 315.137L352.2 315.137L352.2 312.777L355 312.777L355 314.577ZM352.76 323.777C352.76 322.977 352.667 322.243 352.48 321.577C352.293 320.91 352.027 320.337 351.68 319.857C351.333 319.377 350.933 319.003 350.48 318.737C350.027 318.47 349.533 318.337 349 318.337L345.6 318.337L345.6 322.577C345.6 324.417 345.867 325.763 346.4 326.617C346.933 327.443 347.707 327.857 348.72 327.857L349.56 327.857C350.573 327.857 351.36 327.497 351.92 326.777C352.48 326.03 352.76 325.03 352.76 323.777ZM355.48 300.529C355.48 301.969 355.227 303.263 354.72 304.409C354.213 305.556 353.493 306.529 352.56 307.329C351.627 308.103 350.493 308.703 349.16 309.129C347.827 309.529 346.333 309.729 344.68 309.729C343.027 309.729 341.533 309.529 340.2 309.129C338.867 308.703 337.733 308.103 336.8 307.329C335.867 306.529 335.147 305.556 334.64 304.409C334.133 303.263 333.88 301.969 333.88 300.529C333.88 298.476 334.333 296.836 335.24 295.609C336.12 294.356 337.28 293.423 338.72 292.809L340.08 295.489C339.013 295.863 338.187 296.476 337.6 297.329C337.013 298.183 336.72 299.249 336.72 300.529C336.72 301.489 336.88 302.329 337.2 303.049C337.493 303.769 337.92 304.369 338.48 304.849C339.013 305.329 339.667 305.689 340.44 305.929C341.187 306.169 342.013 306.289 342.92 306.289L346.44 306.289C348.253 306.289 349.747 305.809 350.92 304.849C352.067 303.863 352.64 302.423 352.64 300.529C352.64 297.943 351.44 296.076 349.04 294.929L350.6 292.609C352.093 293.276 353.28 294.276 354.16 295.609C355.04 296.916 355.48 298.556 355.48 300.529ZM355 283.532C355 284.652 354.693 285.506 354.08 286.092C353.44 286.652 352.613 286.932 351.6 286.932L337.16 286.932L337.16 290.332L334.36 290.332L334.36 288.412C334.36 287.719 334.227 287.252 333.96 287.012C333.667 286.746 333.173 286.612 332.48 286.612L328.64 286.612L328.64 283.732L334.36 283.732L334.36 279.212L337.16 279.212L337.16 283.732L352.2 283.732L352.2 279.532L355 279.532L355 283.532Z" fill="black"/>
<path d="M344.55 197H343.45C342.124 197 340.852 197.527 339.914 198.464C338.977 199.402 338.45 200.674 338.45 202V202.45C338.449 203.327 338.218 204.188 337.779 204.947C337.34 205.706 336.709 206.337 335.95 206.775L334.875 207.4C334.115 207.839 333.253 208.07 332.375 208.07C331.497 208.07 330.635 207.839 329.875 207.4L329.5 207.2C328.353 206.538 326.99 206.359 325.71 206.701C324.43 207.043 323.339 207.879 322.675 209.025L322.125 209.975C321.463 211.122 321.284 212.485 321.626 213.765C321.968 215.045 322.804 216.136 323.95 216.8L324.325 217.05C325.081 217.486 325.709 218.113 326.148 218.867C326.586 219.621 326.82 220.477 326.825 221.35V222.625C326.829 223.506 326.599 224.372 326.16 225.136C325.721 225.9 325.088 226.534 324.325 226.975L323.95 227.2C322.804 227.864 321.968 228.955 321.626 230.235C321.284 231.515 321.463 232.878 322.125 234.025L322.675 234.975C323.339 236.121 324.43 236.957 325.71 237.299C326.99 237.641 328.353 237.462 329.5 236.8L329.875 236.6C330.635 236.161 331.497 235.93 332.375 235.93C333.253 235.93 334.115 236.161 334.875 236.6L335.95 237.225C336.709 237.663 337.34 238.294 337.779 239.053C338.218 239.812 338.449 240.673 338.45 241.55V242C338.45 243.326 338.977 244.598 339.914 245.536C340.852 246.473 342.124 247 343.45 247H344.55C345.876 247 347.148 246.473 348.086 245.536C349.023 244.598 349.55 243.326 349.55 242V241.55C349.551 240.673 349.782 239.812 350.221 239.053C350.66 238.294 351.291 237.663 352.05 237.225L353.125 236.6C353.885 236.161 354.747 235.93 355.625 235.93C356.503 235.93 357.365 236.161 358.125 236.6L358.5 236.8C359.647 237.462 361.01 237.641 362.29 237.299C363.57 236.957 364.661 236.121 365.325 234.975L365.875 234C366.537 232.853 366.716 231.49 366.374 230.21C366.032 228.93 365.196 227.839 364.05 227.175L363.675 226.975C362.912 226.534 362.279 225.9 361.84 225.136C361.401 224.372 361.172 223.506 361.175 222.625V221.375C361.172 220.494 361.401 219.628 361.84 218.864C362.279 218.1 362.912 217.466 363.675 217.025L364.05 216.8C365.196 216.136 366.032 215.045 366.374 213.765C366.716 212.485 366.537 211.122 365.875 209.975L365.325 209.025C364.661 207.879 363.57 207.043 362.29 206.701C361.01 206.359 359.647 206.538 358.5 207.2L358.125 207.4C357.365 207.839 356.503 208.07 355.625 208.07C354.747 208.07 353.885 207.839 353.125 207.4L352.05 206.775C351.291 206.337 350.66 205.706 350.221 204.947C349.782 204.188 349.551 203.327 349.55 202.45V202C349.55 200.674 349.023 199.402 348.086 198.464C347.148 197.527 345.876 197 344.55 197Z" stroke="black" stroke-width="2" stroke-linecap="round" stroke-linejoin="round"/>
<path d="M344 229.5C348.142 229.5 351.5 226.142 351.5 222C351.5 217.858 348.142 214.5 344 214.5C339.858 214.5 336.5 217.858 336.5 222C336.5 226.142 339.858 229.5 344 229.5Z" stroke="black" stroke-width="2" stroke-linecap="round" stroke-linejoin="round"/>
<path d="M375.266 17.4965H390.686C393.802 17.4965 396.238 18.3741 397.993 20.1293C399.784 21.8845 400.68 24.2307 400.68 27.1679C400.68 28.5649 400.483 29.7469 400.089 30.7141C399.695 31.6812 399.193 32.4872 398.584 33.1319C397.975 33.7409 397.313 34.2065 396.596 34.5289C395.88 34.8155 395.217 35.0125 394.608 35.1199V35.4423C395.289 35.4781 396.041 35.6572 396.865 35.9796C397.725 36.302 398.531 36.8214 399.283 37.5378C400.035 38.2184 400.662 39.1139 401.163 40.2243C401.701 41.2989 401.969 42.6063 401.969 44.1466C401.969 45.6868 401.719 47.1196 401.217 48.4449C400.751 49.7703 400.089 50.9165 399.229 51.8837C398.369 52.8508 397.349 53.6209 396.166 54.1941C394.984 54.7314 393.695 55 392.298 55H375.266V17.4965ZM379.779 51.024H390.901C392.835 51.024 394.358 50.5404 395.468 49.5733C396.578 48.5703 397.134 47.1196 397.134 45.2212V43.3943C397.134 41.4959 396.578 40.0631 395.468 39.0959C394.358 38.093 392.835 37.5915 390.901 37.5915H379.779V51.024ZM379.779 33.723H390.149C391.94 33.723 393.337 33.2752 394.34 32.3797C395.343 31.4842 395.844 30.1947 395.844 28.5111V26.6843C395.844 25.0008 395.343 23.7113 394.34 22.8158C393.337 21.9203 391.94 21.4725 390.149 21.4725H379.779V33.723ZM430.087 55C428.475 55 427.311 54.5702 426.595 53.7105C425.914 52.8508 425.484 51.7762 425.305 50.4867H425.037C424.428 52.206 423.425 53.4956 422.028 54.3552C420.631 55.2149 418.965 55.6448 417.031 55.6448C414.094 55.6448 411.801 54.8925 410.153 53.3881C408.542 51.8837 407.736 49.8419 407.736 47.2629C407.736 44.648 408.685 42.6421 410.583 41.2451C412.518 39.8482 415.509 39.1497 419.556 39.1497H425.037V36.4094C425.037 34.4394 424.499 32.9349 423.425 31.8961C422.35 30.8574 420.702 30.338 418.482 30.338C416.798 30.338 415.383 30.7141 414.237 31.4663C413.127 32.2185 412.195 33.2215 411.443 34.4752L408.864 32.0573C409.616 30.5529 410.816 29.2813 412.464 28.2425C414.112 27.1679 416.189 26.6306 418.697 26.6306C422.064 26.6306 424.678 27.4545 426.541 29.1022C428.404 30.7499 429.335 33.0424 429.335 35.9796V51.2389H432.505V55H430.087ZM417.729 51.9911C418.804 51.9911 419.789 51.8658 420.685 51.615C421.58 51.3643 422.35 51.0061 422.995 50.5404C423.64 50.0748 424.141 49.5375 424.499 48.9285C424.858 48.3196 425.037 47.6569 425.037 46.9405V42.3735H419.341C416.87 42.3735 415.061 42.7317 413.915 43.4481C412.804 44.1645 412.249 45.2032 412.249 46.5644V47.6927C412.249 49.0539 412.732 50.1106 413.7 50.8628C414.703 51.615 416.046 51.9911 417.729 51.9911ZM448.956 55.6448C447.022 55.6448 445.285 55.3045 443.744 54.6239C442.204 53.9433 440.897 52.9762 439.822 51.7225C438.783 50.4688 437.977 48.9464 437.404 47.1554C436.867 45.3644 436.598 43.3585 436.598 41.1377C436.598 38.9168 436.867 36.9109 437.404 35.1199C437.977 33.3289 438.783 31.8066 439.822 30.5529C440.897 29.2992 442.204 28.3321 443.744 27.6515C445.285 26.9709 447.022 26.6306 448.956 26.6306C451.714 26.6306 453.917 27.2395 455.565 28.4574C457.248 29.6395 458.502 31.1976 459.326 33.1319L455.726 34.9587C455.225 33.5259 454.401 32.4155 453.254 31.6275C452.108 30.8394 450.675 30.4454 448.956 30.4454C447.667 30.4454 446.538 30.6603 445.571 31.0902C444.604 31.4842 443.798 32.0573 443.153 32.8095C442.509 33.5259 442.025 34.4035 441.703 35.4423C441.38 36.4453 441.219 37.5557 441.219 38.7736V43.5018C441.219 45.9376 441.864 47.9435 443.153 49.5195C444.479 51.0598 446.413 51.8299 448.956 51.8299C452.431 51.8299 454.938 50.218 456.478 46.9942L459.595 49.0897C458.699 51.0956 457.356 52.6896 455.565 53.8717C453.81 55.0537 451.607 55.6448 448.956 55.6448ZM465.662 15.2399H469.961V40.4392H470.176L474.42 35.711L482.265 27.2754H487.477L477.214 38.2363L488.498 55H483.286L474.098 40.869L469.961 45.1137V55H465.662V15.2399ZM503.528 55.6448C501.63 55.6448 499.91 55.3045 498.37 54.6239C496.866 53.9433 495.558 52.9762 494.448 51.7225C493.373 50.433 492.531 48.9106 491.922 47.1554C491.349 45.3644 491.063 43.3585 491.063 41.1377C491.063 38.9527 491.349 36.9647 491.922 35.1737C492.531 33.3827 493.373 31.8603 494.448 30.6066C495.558 29.3171 496.866 28.3321 498.37 27.6515C499.91 26.9709 501.63 26.6306 503.528 26.6306C505.391 26.6306 507.056 26.9709 508.525 27.6515C509.994 28.3321 511.247 29.2813 512.286 30.4992C513.325 31.6812 514.113 33.0961 514.65 34.7438C515.223 36.3915 515.51 38.2004 515.51 40.1705V42.2123H495.576V43.5018C495.576 44.6839 495.755 45.7943 496.113 46.8331C496.507 47.836 497.045 48.7136 497.725 49.4658C498.442 50.218 499.301 50.8091 500.304 51.2389C501.343 51.6687 502.507 51.8837 503.797 51.8837C505.552 51.8837 507.074 51.4717 508.364 50.6479C509.689 49.824 510.71 48.642 511.426 47.1017L514.489 49.3046C513.593 51.2031 512.196 52.7433 510.298 53.9254C508.4 55.0716 506.143 55.6448 503.528 55.6448ZM503.528 30.2305C502.346 30.2305 501.271 30.4454 500.304 30.8753C499.337 31.2693 498.495 31.8424 497.779 32.5946C497.098 33.3468 496.561 34.2423 496.167 35.2811C495.773 36.2841 495.576 37.3945 495.576 38.6124V38.9885H510.889V38.3975C510.889 35.9259 510.208 33.9558 508.847 32.4872C507.522 30.9827 505.749 30.2305 503.528 30.2305ZM522.593 55V27.2754H526.891V31.7887H527.106C527.787 30.2126 528.736 28.9589 529.954 28.0276C531.208 27.0963 532.873 26.6306 534.951 26.6306C537.816 26.6306 540.073 27.5619 541.721 29.4246C543.404 31.2514 544.246 33.8483 544.246 37.2154V55H539.948V37.9676C539.948 32.9886 537.852 30.4992 533.661 30.4992C532.802 30.4992 531.96 30.6066 531.136 30.8215C530.348 31.0365 529.632 31.3588 528.987 31.7887C528.342 32.2185 527.823 32.7737 527.429 33.4543C527.07 34.0991 526.891 34.8692 526.891 35.7647V55H522.593ZM570.862 50.4867H570.647C568.963 53.9254 566.259 55.6448 562.534 55.6448C560.814 55.6448 559.256 55.3045 557.859 54.6239C556.462 53.9433 555.262 52.9762 554.259 51.7225C553.292 50.4688 552.54 48.9464 552.003 47.1554C551.501 45.3644 551.25 43.3585 551.25 41.1377C551.25 38.9168 551.501 36.9109 552.003 35.1199C552.54 33.3289 553.292 31.8066 554.259 30.5529C555.262 29.2992 556.462 28.3321 557.859 27.6515C559.256 26.9709 560.814 26.6306 562.534 26.6306C564.468 26.6306 566.116 27.0604 567.477 27.9201C568.874 28.744 569.93 30.0335 570.647 31.7887H570.862V15.2399H575.16V55H570.862V50.4867ZM563.716 51.7762C564.683 51.7762 565.596 51.6508 566.456 51.4001C567.351 51.1494 568.122 50.7912 568.766 50.3255C569.411 49.824 569.912 49.233 570.271 48.5524C570.665 47.836 570.862 47.0301 570.862 46.1346V35.8184C570.862 35.0662 570.665 34.3677 570.271 33.723C569.912 33.0424 569.411 32.4693 568.766 32.0036C568.122 31.5379 567.351 31.1797 566.456 30.929C565.596 30.6424 564.683 30.4992 563.716 30.4992C561.28 30.4992 559.364 31.2693 557.967 32.8095C556.57 34.314 555.871 36.302 555.871 38.7736V43.5018C555.871 45.9734 556.57 47.9793 557.967 49.5195C559.364 51.024 561.28 51.7762 563.716 51.7762Z" fill="black"/>
<path d="M7 128V108C7 101.373 12.3726 96 19 96H468.576M468.576 96V66M468.576 96H947C953.627 96 959 101.373 959 108V128" stroke="black" stroke-width="3" stroke-linecap="round"/>
<path d="M809.586 566.586C808.805 567.367 808.805 568.633 809.586 569.414L822.314 582.142C823.095 582.923 824.361 582.923 825.142 582.142C825.923 581.361 825.923 580.095 825.142 579.314L813.828 568L825.142 556.686C825.923 555.905 825.923 554.639 825.142 553.858C824.361 553.077 823.095 553.077 822.314 553.858L809.586 566.586ZM811 570H865V566H811V570ZM883 588V673H887V588H883ZM865 570C874.941 570 883 578.059 883 588H887C887 575.85 877.15 566 865 566V570Z" fill="#D5B555"/>
<path d="M610.069 803V765.497H632.421V769.473H614.583V782.045H630.863V786.021H614.583V803H610.069ZM638.603 803V775.275H642.902L642.902 780.38H643.17C643.672 779.054 644.567 777.872 645.857 776.834C647.146 775.795 648.919 775.275 651.176 775.275H652.842V779.574H650.316C647.988 779.574 646.161 780.022 644.836 780.917C643.546 781.777 642.902 782.869 642.902 784.195V803H638.603ZM668.547 803.645C666.685 803.645 664.983 803.304 663.443 802.624C661.903 801.943 660.577 800.976 659.467 799.722C658.392 798.433 657.551 796.911 656.942 795.155C656.333 793.364 656.028 791.359 656.028 789.138C656.028 786.953 656.333 784.965 656.942 783.174C657.551 781.383 658.392 779.86 659.467 778.607C660.577 777.317 661.903 776.332 663.443 775.651C664.983 774.971 666.685 774.631 668.547 774.631C670.41 774.631 672.093 774.971 673.598 775.651C675.138 776.332 676.463 777.317 677.574 778.607C678.684 779.86 679.544 781.383 680.153 783.174C680.762 784.965 681.066 786.953 681.066 789.138C681.066 791.359 680.762 793.364 680.153 795.155C679.544 796.911 678.684 798.433 677.574 799.722C676.463 800.976 675.138 801.943 673.598 802.624C672.093 803.304 670.41 803.645 668.547 803.645ZM668.547 799.83C670.876 799.83 672.774 799.114 674.243 797.681C675.711 796.248 676.446 794.063 676.446 791.126V787.15C676.446 784.212 675.711 782.027 674.243 780.595C672.774 779.162 670.876 778.445 668.547 778.445C666.219 778.445 664.321 779.162 662.852 780.595C661.383 782.027 660.649 784.212 660.649 787.15V791.126C660.649 794.063 661.383 796.248 662.852 797.681C664.321 799.114 666.219 799.83 668.547 799.83ZM688.136 803V775.275H692.434V779.789H692.649C693.33 778.213 694.279 776.959 695.497 776.028C696.75 775.096 698.416 774.631 700.493 774.631C703.359 774.631 705.616 775.562 707.263 777.425C708.947 779.251 709.789 781.848 709.789 785.215V803H705.49V785.968C705.49 780.989 703.395 778.499 699.204 778.499C698.344 778.499 697.503 778.607 696.679 778.822C695.891 779.036 695.174 779.359 694.529 779.789C693.885 780.219 693.365 780.774 692.971 781.454C692.613 782.099 692.434 782.869 692.434 783.765V803H688.136ZM724.799 803C723.294 803 722.148 802.588 721.36 801.764C720.608 800.905 720.232 799.794 720.232 798.433V779.036H715.665V775.275H718.244C719.175 775.275 719.802 775.096 720.124 774.738C720.482 774.344 720.662 773.681 720.662 772.75V767.592H724.53V775.275H730.602V779.036H724.53V799.239H730.172V803H724.799ZM747.724 803.645C745.826 803.645 744.106 803.304 742.566 802.624C741.062 801.943 739.754 800.976 738.644 799.722C737.569 798.433 736.727 796.911 736.119 795.155C735.545 793.364 735.259 791.359 735.259 789.138C735.259 786.953 735.545 784.965 736.119 783.174C736.727 781.383 737.569 779.86 738.644 778.607C739.754 777.317 741.062 776.332 742.566 775.651C744.106 774.971 745.826 774.631 747.724 774.631C749.587 774.631 751.252 774.971 752.721 775.651C754.19 776.332 755.443 777.281 756.482 778.499C757.521 779.681 758.309 781.096 758.846 782.744C759.419 784.392 759.706 786.2 759.706 788.171V790.212H739.772V791.502C739.772 792.684 739.951 793.794 740.309 794.833C740.703 795.836 741.241 796.714 741.921 797.466C742.638 798.218 743.497 798.809 744.5 799.239C745.539 799.669 746.703 799.884 747.993 799.884C749.748 799.884 751.27 799.472 752.56 798.648C753.885 797.824 754.906 796.642 755.622 795.102L758.685 797.305C757.79 799.203 756.393 800.743 754.494 801.925C752.596 803.072 750.339 803.645 747.724 803.645ZM747.724 778.231C746.542 778.231 745.468 778.445 744.5 778.875C743.533 779.269 742.691 779.842 741.975 780.595C741.295 781.347 740.757 782.242 740.363 783.281C739.969 784.284 739.772 785.394 739.772 786.612V786.988H755.085V786.397C755.085 783.926 754.405 781.956 753.043 780.487C751.718 778.983 749.945 778.231 747.724 778.231ZM766.789 803V775.275H771.087V779.789H771.302C771.983 778.213 772.932 776.959 774.15 776.028C775.404 775.096 777.069 774.631 779.147 774.631C782.013 774.631 784.269 775.562 785.917 777.425C787.6 779.251 788.442 781.848 788.442 785.215V803H784.144V785.968C784.144 780.989 782.048 778.499 777.857 778.499C776.998 778.499 776.156 778.607 775.332 778.822C774.544 779.036 773.828 779.359 773.183 779.789C772.538 780.219 772.019 780.774 771.625 781.454C771.267 782.099 771.087 782.869 771.087 783.765V803H766.789ZM815.058 798.487H814.843C813.159 801.925 810.455 803.645 806.73 803.645C805.01 803.645 803.452 803.304 802.055 802.624C800.658 801.943 799.458 800.976 798.455 799.722C797.488 798.469 796.736 796.946 796.199 795.155C795.697 793.364 795.446 791.359 795.446 789.138C795.446 786.917 795.697 784.911 796.199 783.12C796.736 781.329 797.488 779.807 798.455 778.553C799.458 777.299 800.658 776.332 802.055 775.651C803.452 774.971 805.01 774.631 806.73 774.631C808.664 774.631 810.312 775.06 811.673 775.92C813.07 776.744 814.127 778.033 814.843 779.789H815.058V763.24H819.356V803H815.058V798.487ZM807.912 799.776C808.879 799.776 809.792 799.651 810.652 799.4C811.547 799.149 812.318 798.791 812.962 798.325C813.607 797.824 814.109 797.233 814.467 796.552C814.861 795.836 815.058 795.03 815.058 794.135V783.818C815.058 783.066 814.861 782.368 814.467 781.723C814.109 781.042 813.607 780.469 812.962 780.004C812.318 779.538 811.547 779.18 810.652 778.929C809.792 778.642 808.879 778.499 807.912 778.499C805.476 778.499 803.56 779.269 802.163 780.81C800.766 782.314 800.067 784.302 800.067 786.774V791.502C800.067 793.973 800.766 795.979 802.163 797.52C803.56 799.024 805.476 799.776 807.912 799.776Z" fill="black"/>
<path d="M478.414 788.414C479.195 787.633 479.195 786.367 478.414 785.586L465.686 772.858C464.905 772.077 463.639 772.077 462.858 772.858C462.077 773.639 462.077 774.905 462.858 775.686L474.172 787L462.858 798.314C462.077 799.095 462.077 800.361 462.858 801.142C463.639 801.923 464.905 801.923 465.686 801.142L478.414 788.414ZM337 447V767H341V447H337ZM359 789H477V785H359V789ZM337 767C337 779.15 346.85 789 359 789V785C349.059 785 341 776.941 341 767H337Z" fill="#B0ADAD"/>
<path d="M478.414 573.414C479.195 572.633 479.195 571.367 478.414 570.586L465.686 557.858C464.905 557.077 463.639 557.077 462.858 557.858C462.077 558.639 462.077 559.905 462.858 560.686L474.172 572L462.858 583.314C462.077 584.095 462.077 585.361 462.858 586.142C463.639 586.923 464.905 586.923 465.686 586.142L478.414 573.414ZM337 524V552H341V524H337ZM359 574H477V570H359V574ZM337 552C337 564.15 346.85 574 359 574V570C349.059 570 341 561.941 341 552H337Z" fill="#B0ADAD"/>
<rect x="1063" y="137" width="267" height="767" rx="19.7568" fill="#E1F8E1" stroke="#209B1D" stroke-width="2"/>
<path d="M1091.3 467.36H1094.42V478.8L1094.1 483.76H1094.26L1096.82 479.36L1105.06 467.36H1108.02V488H1104.9V476.56L1105.22 471.6H1105.06L1102.5 476L1094.26 488H1091.3V467.36ZM1114.81 467.36H1118.01V475.96H1128.33V467.36H1131.53V488H1128.33V478.76H1118.01V488H1114.81V467.36ZM1142.77 470.16H1135.73V467.36H1153.01V470.16H1145.97V488H1142.77V470.16ZM1164.45 488.48C1163.04 488.48 1161.76 488.227 1160.61 487.72C1159.49 487.213 1158.52 486.493 1157.69 485.56C1156.89 484.6 1156.26 483.467 1155.81 482.16C1155.38 480.827 1155.17 479.333 1155.17 477.68C1155.17 476.053 1155.38 474.573 1155.81 473.24C1156.26 471.907 1156.89 470.773 1157.69 469.84C1158.52 468.88 1159.49 468.147 1160.61 467.64C1161.76 467.133 1163.04 466.88 1164.45 466.88C1165.84 466.88 1167.08 467.133 1168.17 467.64C1169.26 468.147 1170.2 468.853 1170.97 469.76C1171.74 470.64 1172.33 471.693 1172.73 472.92C1173.16 474.147 1173.37 475.493 1173.37 476.96V478.48H1158.53V479.44C1158.53 480.32 1158.66 481.147 1158.93 481.92C1159.22 482.667 1159.62 483.32 1160.13 483.88C1160.66 484.44 1161.3 484.88 1162.05 485.2C1162.82 485.52 1163.69 485.68 1164.65 485.68C1165.96 485.68 1167.09 485.373 1168.05 484.76C1169.04 484.147 1169.8 483.267 1170.33 482.12L1172.61 483.76C1171.94 485.173 1170.9 486.32 1169.49 487.2C1168.08 488.053 1166.4 488.48 1164.45 488.48ZM1164.45 469.56C1163.57 469.56 1162.77 469.72 1162.05 470.04C1161.33 470.333 1160.7 470.76 1160.17 471.32C1159.66 471.88 1159.26 472.547 1158.97 473.32C1158.68 474.067 1158.53 474.893 1158.53 475.8V476.08H1169.93V475.64C1169.93 473.8 1169.42 472.333 1168.41 471.24C1167.42 470.12 1166.1 469.56 1164.45 469.56ZM1178.64 467.36H1191.68V470.16H1181.84V488H1178.64V467.36ZM1196.03 467.36H1199.23V470.72H1199.39C1199.92 469.413 1200.69 468.453 1201.71 467.84C1202.75 467.2 1203.99 466.88 1205.43 466.88C1206.71 466.88 1207.87 467.133 1208.91 467.64C1209.95 468.147 1210.83 468.867 1211.55 469.8C1212.29 470.733 1212.85 471.867 1213.23 473.2C1213.63 474.533 1213.83 476.027 1213.83 477.68C1213.83 479.333 1213.63 480.827 1213.23 482.16C1212.85 483.493 1212.29 484.627 1211.55 485.56C1210.83 486.493 1209.95 487.213 1208.91 487.72C1207.87 488.227 1206.71 488.48 1205.43 488.48C1202.63 488.48 1200.61 487.2 1199.39 484.64H1199.23V496H1196.03V467.36ZM1204.55 485.6C1206.36 485.6 1207.79 485.04 1208.83 483.92C1209.87 482.773 1210.39 481.28 1210.39 479.44V475.92C1210.39 474.08 1209.87 472.6 1208.83 471.48C1207.79 470.333 1206.36 469.76 1204.55 469.76C1203.83 469.76 1203.13 469.867 1202.47 470.08C1201.83 470.267 1201.27 470.533 1200.79 470.88C1200.31 471.227 1199.92 471.653 1199.63 472.16C1199.36 472.64 1199.23 473.16 1199.23 473.72V481.4C1199.23 482.067 1199.36 482.667 1199.63 483.2C1199.92 483.707 1200.31 484.147 1200.79 484.52C1201.27 484.867 1201.83 485.133 1202.47 485.32C1203.13 485.507 1203.83 485.6 1204.55 485.6ZM1234.23 488C1233.03 488 1232.16 487.68 1231.63 487.04C1231.12 486.4 1230.8 485.6 1230.67 484.64H1230.47C1230.01 485.92 1229.27 486.88 1228.23 487.52C1227.19 488.16 1225.95 488.48 1224.51 488.48C1222.32 488.48 1220.61 487.92 1219.39 486.8C1218.19 485.68 1217.59 484.16 1217.59 482.24C1217.59 480.293 1218.29 478.8 1219.71 477.76C1221.15 476.72 1223.37 476.2 1226.39 476.2H1230.47V474.16C1230.47 472.693 1230.07 471.573 1229.27 470.8C1228.47 470.027 1227.24 469.64 1225.59 469.64C1224.33 469.64 1223.28 469.92 1222.43 470.48C1221.6 471.04 1220.91 471.787 1220.35 472.72L1218.43 470.92C1218.99 469.8 1219.88 468.853 1221.11 468.08C1222.33 467.28 1223.88 466.88 1225.75 466.88C1228.25 466.88 1230.2 467.493 1231.59 468.72C1232.97 469.947 1233.67 471.653 1233.67 473.84V485.2H1236.03V488H1234.23ZM1225.03 485.76C1225.83 485.76 1226.56 485.667 1227.23 485.48C1227.89 485.293 1228.47 485.027 1228.95 484.68C1229.43 484.333 1229.8 483.933 1230.07 483.48C1230.33 483.027 1230.47 482.533 1230.47 482V478.6H1226.23C1224.39 478.6 1223.04 478.867 1222.19 479.4C1221.36 479.933 1220.95 480.707 1220.95 481.72V482.56C1220.95 483.573 1221.31 484.36 1222.03 484.92C1222.77 485.48 1223.77 485.76 1225.03 485.76ZM1257.24 488H1240.6V467.36H1243.8V485.2H1253.52V467.36H1256.72V485.2H1260.16V493.6H1257.24V488ZM1264.58 467.36H1267.7V478.8L1267.38 483.76H1267.54L1270.1 479.36L1278.34 467.36H1281.3V488H1278.18V476.56L1278.5 471.6H1278.34L1275.78 476L1267.54 488H1264.58V467.36ZM1286.26 485.2H1288.54L1289.86 482.16C1290.15 481.467 1290.51 480.947 1290.94 480.6C1291.36 480.227 1291.84 480 1292.38 479.92V479.76C1290.54 479.6 1289.15 479 1288.22 477.96C1287.28 476.92 1286.82 475.52 1286.82 473.76C1286.82 471.76 1287.42 470.2 1288.62 469.08C1289.82 467.933 1291.47 467.36 1293.58 467.36H1302.7V488L1299.5 488V480.08H1294.14L1291.98 485.16C1291.5 486.28 1290.96 487.04 1290.38 487.44C1289.82 487.813 1289.18 488 1288.46 488H1286.26V485.2ZM1299.5 477.36V470.16H1294.06C1292.86 470.16 1291.92 470.387 1291.26 470.84C1290.59 471.293 1290.26 472.053 1290.26 473.12V474.44C1290.26 475.507 1290.59 476.267 1291.26 476.72C1291.92 477.147 1292.86 477.36 1294.06 477.36H1299.5ZM1111.18 527.52C1111.18 525.6 1111.37 523.747 1111.74 521.96C1112.11 520.173 1112.62 518.52 1113.26 517C1113.93 515.453 1114.7 514.053 1115.58 512.8C1116.46 511.547 1117.41 510.48 1118.42 509.6H1121.46C1120.34 510.613 1119.33 511.76 1118.42 513.04C1117.54 514.32 1116.78 515.68 1116.14 517.12C1115.53 518.56 1115.05 520.027 1114.7 521.52C1114.35 523.013 1114.18 524.453 1114.18 525.84V529.28C1114.18 530.693 1114.35 532.147 1114.7 533.64C1115.05 535.133 1115.54 536.6 1116.18 538.04C1116.82 539.48 1117.58 540.84 1118.46 542.12C1119.37 543.4 1120.37 544.52 1121.46 545.48H1118.42C1117.43 544.653 1116.5 543.613 1115.62 542.36C1114.74 541.107 1113.97 539.707 1113.3 538.16C1112.66 536.613 1112.14 534.947 1111.74 533.16C1111.37 531.347 1111.18 529.467 1111.18 527.52ZM1132.46 540.48C1131.07 540.48 1129.8 540.227 1128.66 539.72C1127.51 539.213 1126.52 538.493 1125.7 537.56C1124.9 536.6 1124.27 535.467 1123.82 534.16C1123.36 532.827 1123.14 531.333 1123.14 529.68C1123.14 528.053 1123.36 526.573 1123.82 525.24C1124.27 523.907 1124.9 522.773 1125.7 521.84C1126.52 520.88 1127.51 520.147 1128.66 519.64C1129.8 519.133 1131.07 518.88 1132.46 518.88C1133.84 518.88 1135.1 519.133 1136.22 519.64C1137.36 520.147 1138.35 520.88 1139.18 521.84C1140 522.773 1140.64 523.907 1141.1 525.24C1141.55 526.573 1141.78 528.053 1141.78 529.68C1141.78 531.333 1141.55 532.827 1141.1 534.16C1140.64 535.467 1140 536.6 1139.18 537.56C1138.35 538.493 1137.36 539.213 1136.22 539.72C1135.1 540.227 1133.84 540.48 1132.46 540.48ZM1132.46 537.64C1134.19 537.64 1135.6 537.107 1136.7 536.04C1137.79 534.973 1138.34 533.347 1138.34 531.16V528.2C1138.34 526.013 1137.79 524.387 1136.7 523.32C1135.6 522.253 1134.19 521.72 1132.46 521.72C1130.72 521.72 1129.31 522.253 1128.22 523.32C1127.12 524.387 1126.58 526.013 1126.58 528.2V531.16C1126.58 533.347 1127.12 534.973 1128.22 536.04C1129.31 537.107 1130.72 537.64 1132.46 537.64ZM1150.97 522.16H1143.93V519.36H1161.21V522.16H1154.17V540H1150.97V522.16ZM1161.3 537.2H1164.02C1164.37 536.72 1164.68 536.147 1164.94 535.48C1165.21 534.813 1165.44 534.013 1165.62 533.08C1165.81 532.147 1165.96 531.04 1166.06 529.76C1166.17 528.48 1166.22 526.973 1166.22 525.24V519.36H1180.18V540H1176.98V522.16H1169.26V525.32C1169.26 527.32 1169.18 529.067 1169.02 530.56C1168.89 532.053 1168.69 533.333 1168.42 534.4C1168.18 535.467 1167.89 536.347 1167.54 537.04C1167.2 537.707 1166.82 538.24 1166.42 538.64C1165.92 539.147 1165.36 539.507 1164.74 539.72C1164.13 539.907 1163.4 540 1162.54 540H1161.3V537.2ZM1202 540C1200.8 540 1199.93 539.68 1199.4 539.04C1198.89 538.4 1198.57 537.6 1198.44 536.64H1198.24C1197.79 537.92 1197.04 538.88 1196 539.52C1194.96 540.16 1193.72 540.48 1192.28 540.48C1190.09 540.48 1188.39 539.92 1187.16 538.8C1185.96 537.68 1185.36 536.16 1185.36 534.24C1185.36 532.293 1186.07 530.8 1187.48 529.76C1188.92 528.72 1191.15 528.2 1194.16 528.2H1198.24V526.16C1198.24 524.693 1197.84 523.573 1197.04 522.8C1196.24 522.027 1195.01 521.64 1193.36 521.64C1192.11 521.64 1191.05 521.92 1190.2 522.48C1189.37 523.04 1188.68 523.787 1188.12 524.72L1186.2 522.92C1186.76 521.8 1187.65 520.853 1188.88 520.08C1190.11 519.28 1191.65 518.88 1193.52 518.88C1196.03 518.88 1197.97 519.493 1199.36 520.72C1200.75 521.947 1201.44 523.653 1201.44 525.84V537.2H1203.8V540H1202ZM1192.8 537.76C1193.6 537.76 1194.33 537.667 1195 537.48C1195.67 537.293 1196.24 537.027 1196.72 536.68C1197.2 536.333 1197.57 535.933 1197.84 535.48C1198.11 535.027 1198.24 534.533 1198.24 534V530.6H1194C1192.16 530.6 1190.81 530.867 1189.96 531.4C1189.13 531.933 1188.72 532.707 1188.72 533.72V534.56C1188.72 535.573 1189.08 536.36 1189.8 536.92C1190.55 537.48 1191.55 537.76 1192.8 537.76ZM1206.23 537.2H1208.59C1209.41 535.867 1210.08 534.2 1210.59 532.2C1211.09 530.2 1211.35 527.907 1211.35 525.32V519.36H1225.31V537.2H1228.75V545.6H1225.83V540H1209.15V545.6H1206.23V537.2ZM1222.11 537.2V522.16H1214.39V525.48C1214.39 528.227 1214.15 530.573 1213.67 532.52C1213.21 534.44 1212.67 536 1212.03 537.2H1222.11ZM1233.17 519.36H1236.37V528H1240.49L1244.49 521.68C1244.79 521.2 1245.07 520.813 1245.33 520.52C1245.6 520.2 1245.87 519.96 1246.13 519.8C1246.4 519.64 1246.68 519.533 1246.97 519.48C1247.27 519.4 1247.6 519.36 1247.97 519.36H1249.85V522.16H1247.37L1244.13 527.28C1243.92 527.627 1243.73 527.907 1243.57 528.12C1243.41 528.333 1243.25 528.52 1243.09 528.68C1242.93 528.813 1242.76 528.933 1242.57 529.04C1242.39 529.12 1242.16 529.2 1241.89 529.28V529.44C1242.45 529.52 1242.93 529.707 1243.33 530C1243.76 530.267 1244.2 530.8 1244.65 531.6L1247.81 537.2H1250.17V540H1247.85C1247.16 540 1246.52 539.827 1245.93 539.48C1245.37 539.107 1244.83 538.44 1244.29 537.48L1240.49 530.72H1236.37V540H1233.17V519.36ZM1269.78 540C1268.58 540 1267.71 539.68 1267.18 539.04C1266.67 538.4 1266.35 537.6 1266.22 536.64H1266.02C1265.56 537.92 1264.82 538.88 1263.78 539.52C1262.74 540.16 1261.5 540.48 1260.06 540.48C1257.87 540.48 1256.16 539.92 1254.94 538.8C1253.74 537.68 1253.14 536.16 1253.14 534.24C1253.14 532.293 1253.84 530.8 1255.26 529.76C1256.7 528.72 1258.92 528.2 1261.93 528.2H1266.02V526.16C1266.02 524.693 1265.62 523.573 1264.82 522.8C1264.02 522.027 1262.79 521.64 1261.14 521.64C1259.88 521.64 1258.83 521.92 1257.98 522.48C1257.15 523.04 1256.46 523.787 1255.9 524.72L1253.98 522.92C1254.54 521.8 1255.43 520.853 1256.65 520.08C1257.88 519.28 1259.43 518.88 1261.3 518.88C1263.8 518.88 1265.75 519.493 1267.14 520.72C1268.52 521.947 1269.22 523.653 1269.22 525.84V537.2H1271.57V540H1269.78ZM1260.58 537.76C1261.38 537.76 1262.11 537.667 1262.78 537.48C1263.44 537.293 1264.02 537.027 1264.5 536.68C1264.98 536.333 1265.35 535.933 1265.62 535.48C1265.88 535.027 1266.02 534.533 1266.02 534V530.6H1261.78C1259.94 530.6 1258.59 530.867 1257.74 531.4C1256.91 531.933 1256.5 532.707 1256.5 533.72V534.56C1256.5 535.573 1256.86 536.36 1257.58 536.92C1258.32 537.48 1259.32 537.76 1260.58 537.76ZM1282.82 527.52C1282.82 529.467 1282.62 531.347 1282.22 533.16C1281.85 534.947 1281.33 536.613 1280.66 538.16C1280.02 539.707 1279.26 541.107 1278.38 542.36C1277.5 543.613 1276.57 544.653 1275.58 545.48H1272.54C1273.64 544.52 1274.62 543.4 1275.5 542.12C1276.41 540.84 1277.18 539.48 1277.82 538.04C1278.46 536.6 1278.96 535.133 1279.3 533.64C1279.65 532.147 1279.82 530.693 1279.82 529.28V525.84C1279.82 524.453 1279.65 523.013 1279.3 521.52C1278.96 520.027 1278.46 518.56 1277.82 517.12C1277.21 515.68 1276.45 514.32 1275.54 513.04C1274.66 511.76 1273.66 510.613 1272.54 509.6H1275.58C1276.6 510.48 1277.54 511.547 1278.42 512.8C1279.3 514.053 1280.06 515.453 1280.7 517C1281.37 518.52 1281.89 520.173 1282.26 521.96C1282.64 523.747 1282.82 525.6 1282.82 527.52Z" fill="black"/>
</svg>
