<svg width="1351" height="1038" viewBox="0 0 1351 1038" fill="none" xmlns="http://www.w3.org/2000/svg">
<rect x="1.4925" y="147.492" width="956.015" height="332.015" rx="16.4175" fill="#FFE2E1" stroke="#D59795" stroke-width="2.985"/>
<path d="M1056.42 314.914C1057.2 314.133 1057.2 312.867 1056.42 312.086L1043.69 299.358C1042.91 298.577 1041.64 298.577 1040.86 299.358C1040.08 300.139 1040.08 301.405 1040.86 302.186L1052.17 313.5L1040.86 324.814C1040.08 325.595 1040.08 326.861 1040.86 327.642C1041.64 328.423 1042.91 328.423 1043.69 327.642L1056.42 314.914ZM958.998 315.5H1055V311.5H958.998V315.5Z" fill="#D59795"/>
<path d="M1056.42 796.414C1057.2 795.633 1057.2 794.367 1056.42 793.586L1043.69 780.858C1042.91 780.077 1041.64 780.077 1040.86 780.858C1040.08 781.639 1040.08 782.905 1040.86 783.686L1052.18 795L1040.86 806.314C1040.08 807.095 1040.08 808.361 1040.86 809.142C1041.64 809.923 1042.91 809.923 1043.69 809.142L1056.42 796.414ZM959 797H1055.01V793H959V797Z" fill="#D5B555"/>
<path d="M285.414 315.414C286.195 314.633 286.195 313.367 285.414 312.586L272.686 299.858C271.905 299.077 270.639 299.077 269.858 299.858C269.077 300.639 269.077 301.905 269.858 302.686L281.172 314L269.858 325.314C269.077 326.095 269.077 327.361 269.858 328.142C270.639 328.923 271.905 328.923 272.686 328.142L285.414 315.414ZM192 316H284V312H192V316Z" fill="#B0ADAD"/>
<path d="M492.414 314.414C493.195 313.633 493.195 312.367 492.414 311.586L479.686 298.858C478.905 298.077 477.639 298.077 476.858 298.858C476.077 299.639 476.077 300.905 476.858 301.686L488.172 313L476.858 324.314C476.077 325.095 476.077 326.361 476.858 327.142C477.639 327.923 478.905 327.923 479.686 327.142L492.414 314.414ZM399 315H491V311H399V315Z" fill="#B0ADAD"/>
<rect x="957.508" y="911.508" width="956.015" height="227.015" rx="16.4175" transform="rotate(-180 957.508 911.508)" fill="#FFF2CC" stroke="#D5B555" stroke-width="2.985"/>
<rect x="25.5" y="171.5" width="166" height="284" rx="10.5" fill="#F2F3F2" stroke="#B0ADAD" stroke-width="3"/>
<rect x="495.5" y="171.5" width="438" height="284" rx="10.5" fill="#F2F3F2" stroke="#B0ADAD" stroke-width="3"/>
<rect x="764.5" y="708.5" width="169" height="179" rx="10.5" fill="#F2F3F2" stroke="#B0ADAD" stroke-width="3"/>
<rect x="476.5" y="708.5" width="247" height="90" rx="10.5" fill="#F2F3F2" stroke="#B0ADAD" stroke-width="3"/>
<rect x="476.5" y="798.5" width="247" height="89" rx="10.5" fill="#F2F3F2" stroke="#B0ADAD" stroke-width="3"/>
<rect x="25.5" y="708.5" width="310" height="179" rx="10.5" fill="#F2F3F2" stroke="#B0ADAD" stroke-width="3"/>
<rect x="480.5" y="525.5" width="324" height="114" rx="10.5" fill="#CBE1FF" stroke="#3276CF" stroke-width="3"/>
<rect x="288.5" y="171.5" width="109" height="284" rx="10.5" fill="#F2F3F2" stroke="#B0ADAD" stroke-width="3"/>
<path d="M76.3691 328.48C74.9291 328.48 73.6357 328.227 72.4891 327.72C71.3424 327.213 70.3691 326.493 69.5691 325.56C68.7957 324.627 68.1957 323.493 67.7691 322.16C67.3691 320.827 67.1691 319.333 67.1691 317.68C67.1691 316.027 67.3691 314.533 67.7691 313.2C68.1957 311.867 68.7957 310.733 69.5691 309.8C70.3691 308.867 71.3424 308.147 72.4891 307.64C73.6357 307.133 74.9291 306.88 76.3691 306.88C78.4224 306.88 80.0624 307.333 81.2891 308.24C82.5424 309.12 83.4757 310.28 84.0891 311.72L81.4091 313.08C81.0357 312.013 80.4224 311.187 79.5691 310.6C78.7157 310.013 77.6491 309.72 76.3691 309.72C75.4091 309.72 74.5691 309.88 73.8491 310.2C73.1291 310.493 72.5291 310.92 72.0491 311.48C71.5691 312.013 71.2091 312.667 70.9691 313.44C70.7291 314.187 70.6091 315.013 70.6091 315.92V319.44C70.6091 321.253 71.0891 322.747 72.0491 323.92C73.0357 325.067 74.4757 325.64 76.3691 325.64C78.9557 325.64 80.8224 324.44 81.9691 322.04L84.2891 323.6C83.6224 325.093 82.6224 326.28 81.2891 327.16C79.9824 328.04 78.3424 328.48 76.3691 328.48ZM96.3719 328.48C94.9852 328.48 93.7185 328.227 92.5719 327.72C91.4252 327.213 90.4385 326.493 89.6119 325.56C88.8119 324.6 88.1852 323.467 87.7319 322.16C87.2785 320.827 87.0519 319.333 87.0519 317.68C87.0519 316.053 87.2785 314.573 87.7319 313.24C88.1852 311.907 88.8119 310.773 89.6119 309.84C90.4385 308.88 91.4252 308.147 92.5719 307.64C93.7185 307.133 94.9852 306.88 96.3719 306.88C97.7585 306.88 99.0119 307.133 100.132 307.64C101.279 308.147 102.265 308.88 103.092 309.84C103.919 310.773 104.559 311.907 105.012 313.24C105.465 314.573 105.692 316.053 105.692 317.68C105.692 319.333 105.465 320.827 105.012 322.16C104.559 323.467 103.919 324.6 103.092 325.56C102.265 326.493 101.279 327.213 100.132 327.72C99.0119 328.227 97.7585 328.48 96.3719 328.48ZM96.3719 325.64C98.1052 325.64 99.5185 325.107 100.612 324.04C101.705 322.973 102.252 321.347 102.252 319.16V316.2C102.252 314.013 101.705 312.387 100.612 311.32C99.5185 310.253 98.1052 309.72 96.3719 309.72C94.6385 309.72 93.2252 310.253 92.1319 311.32C91.0385 312.387 90.4919 314.013 90.4919 316.2V319.16C90.4919 321.347 91.0385 322.973 92.1319 324.04C93.2252 325.107 94.6385 325.64 96.3719 325.64ZM124.155 324.64H123.995C122.741 327.2 120.728 328.48 117.955 328.48C116.675 328.48 115.515 328.227 114.475 327.72C113.435 327.213 112.541 326.493 111.795 325.56C111.075 324.627 110.515 323.493 110.115 322.16C109.741 320.827 109.555 319.333 109.555 317.68C109.555 316.027 109.741 314.533 110.115 313.2C110.515 311.867 111.075 310.733 111.795 309.8C112.541 308.867 113.435 308.147 114.475 307.64C115.515 307.133 116.675 306.88 117.955 306.88C119.395 306.88 120.621 307.2 121.635 307.84C122.675 308.453 123.461 309.413 123.995 310.72H124.155V298.4H127.355V328H124.155V324.64ZM118.835 325.6C119.555 325.6 120.235 325.507 120.875 325.32C121.541 325.133 122.115 324.867 122.595 324.52C123.075 324.147 123.448 323.707 123.715 323.2C124.008 322.667 124.155 322.067 124.155 321.4V313.72C124.155 313.16 124.008 312.64 123.715 312.16C123.448 311.653 123.075 311.227 122.595 310.88C122.115 310.533 121.541 310.267 120.875 310.08C120.235 309.867 119.555 309.76 118.835 309.76C117.021 309.76 115.595 310.333 114.555 311.48C113.515 312.6 112.995 314.08 112.995 315.92V319.44C112.995 321.28 113.515 322.773 114.555 323.92C115.595 325.04 117.021 325.6 118.835 325.6ZM141.918 328.48C140.504 328.48 139.224 328.227 138.078 327.72C136.958 327.213 135.984 326.493 135.158 325.56C134.358 324.6 133.731 323.467 133.278 322.16C132.851 320.827 132.638 319.333 132.638 317.68C132.638 316.053 132.851 314.573 133.278 313.24C133.731 311.907 134.358 310.773 135.158 309.84C135.984 308.88 136.958 308.147 138.078 307.64C139.224 307.133 140.504 306.88 141.918 306.88C143.304 306.88 144.544 307.133 145.638 307.64C146.731 308.147 147.664 308.853 148.438 309.76C149.211 310.64 149.798 311.693 150.198 312.92C150.624 314.147 150.838 315.493 150.838 316.96V318.48H135.998V319.44C135.998 320.32 136.131 321.147 136.398 321.92C136.691 322.667 137.091 323.32 137.598 323.88C138.131 324.44 138.771 324.88 139.518 325.2C140.291 325.52 141.158 325.68 142.118 325.68C143.424 325.68 144.558 325.373 145.518 324.76C146.504 324.147 147.264 323.267 147.798 322.12L150.078 323.76C149.411 325.173 148.371 326.32 146.958 327.2C145.544 328.053 143.864 328.48 141.918 328.48ZM141.918 309.56C141.038 309.56 140.238 309.72 139.518 310.04C138.798 310.333 138.171 310.76 137.638 311.32C137.131 311.88 136.731 312.547 136.438 313.32C136.144 314.067 135.998 314.893 135.998 315.8V316.08H147.398V315.64C147.398 313.8 146.891 312.333 145.878 311.24C144.891 310.12 143.571 309.56 141.918 309.56Z" fill="black"/>
<path d="M682.369 328.48C680.929 328.48 679.636 328.227 678.489 327.72C677.342 327.213 676.369 326.493 675.569 325.56C674.796 324.627 674.196 323.493 673.769 322.16C673.369 320.827 673.169 319.333 673.169 317.68C673.169 316.027 673.369 314.533 673.769 313.2C674.196 311.867 674.796 310.733 675.569 309.8C676.369 308.867 677.342 308.147 678.489 307.64C679.636 307.133 680.929 306.88 682.369 306.88C684.422 306.88 686.062 307.333 687.289 308.24C688.542 309.12 689.476 310.28 690.089 311.72L687.409 313.08C687.036 312.013 686.422 311.187 685.569 310.6C684.716 310.013 683.649 309.72 682.369 309.72C681.409 309.72 680.569 309.88 679.849 310.2C679.129 310.493 678.529 310.92 678.049 311.48C677.569 312.013 677.209 312.667 676.969 313.44C676.729 314.187 676.609 315.013 676.609 315.92V319.44C676.609 321.253 677.089 322.747 678.049 323.92C679.036 325.067 680.476 325.64 682.369 325.64C684.956 325.64 686.822 324.44 687.969 322.04L690.289 323.6C689.622 325.093 688.622 326.28 687.289 327.16C685.982 328.04 684.342 328.48 682.369 328.48ZM702.372 328.48C700.985 328.48 699.719 328.227 698.572 327.72C697.425 327.213 696.439 326.493 695.612 325.56C694.812 324.6 694.185 323.467 693.732 322.16C693.279 320.827 693.052 319.333 693.052 317.68C693.052 316.053 693.279 314.573 693.732 313.24C694.185 311.907 694.812 310.773 695.612 309.84C696.439 308.88 697.425 308.147 698.572 307.64C699.719 307.133 700.985 306.88 702.372 306.88C703.759 306.88 705.012 307.133 706.132 307.64C707.279 308.147 708.265 308.88 709.092 309.84C709.919 310.773 710.559 311.907 711.012 313.24C711.465 314.573 711.692 316.053 711.692 317.68C711.692 319.333 711.465 320.827 711.012 322.16C710.559 323.467 709.919 324.6 709.092 325.56C708.265 326.493 707.279 327.213 706.132 327.72C705.012 328.227 703.759 328.48 702.372 328.48ZM702.372 325.64C704.105 325.64 705.519 325.107 706.612 324.04C707.705 322.973 708.252 321.347 708.252 319.16V316.2C708.252 314.013 707.705 312.387 706.612 311.32C705.519 310.253 704.105 309.72 702.372 309.72C700.639 309.72 699.225 310.253 698.132 311.32C697.039 312.387 696.492 314.013 696.492 316.2V319.16C696.492 321.347 697.039 322.973 698.132 324.04C699.225 325.107 700.639 325.64 702.372 325.64ZM730.155 324.64H729.995C728.741 327.2 726.728 328.48 723.955 328.48C722.675 328.48 721.515 328.227 720.475 327.72C719.435 327.213 718.541 326.493 717.795 325.56C717.075 324.627 716.515 323.493 716.115 322.16C715.741 320.827 715.555 319.333 715.555 317.68C715.555 316.027 715.741 314.533 716.115 313.2C716.515 311.867 717.075 310.733 717.795 309.8C718.541 308.867 719.435 308.147 720.475 307.64C721.515 307.133 722.675 306.88 723.955 306.88C725.395 306.88 726.621 307.2 727.635 307.84C728.675 308.453 729.461 309.413 729.995 310.72H730.155V298.4H733.355V328H730.155V324.64ZM724.835 325.6C725.555 325.6 726.235 325.507 726.875 325.32C727.541 325.133 728.115 324.867 728.595 324.52C729.075 324.147 729.448 323.707 729.715 323.2C730.008 322.667 730.155 322.067 730.155 321.4V313.72C730.155 313.16 730.008 312.64 729.715 312.16C729.448 311.653 729.075 311.227 728.595 310.88C728.115 310.533 727.541 310.267 726.875 310.08C726.235 309.867 725.555 309.76 724.835 309.76C723.021 309.76 721.595 310.333 720.555 311.48C719.515 312.6 718.995 314.08 718.995 315.92V319.44C718.995 321.28 719.515 322.773 720.555 323.92C721.595 325.04 723.021 325.6 724.835 325.6ZM747.918 328.48C746.504 328.48 745.224 328.227 744.078 327.72C742.958 327.213 741.984 326.493 741.158 325.56C740.358 324.6 739.731 323.467 739.278 322.16C738.851 320.827 738.638 319.333 738.638 317.68C738.638 316.053 738.851 314.573 739.278 313.24C739.731 311.907 740.358 310.773 741.158 309.84C741.984 308.88 742.958 308.147 744.078 307.64C745.224 307.133 746.504 306.88 747.918 306.88C749.304 306.88 750.544 307.133 751.638 307.64C752.731 308.147 753.664 308.853 754.438 309.76C755.211 310.64 755.798 311.693 756.198 312.92C756.624 314.147 756.838 315.493 756.838 316.96V318.48H741.998V319.44C741.998 320.32 742.131 321.147 742.398 321.92C742.691 322.667 743.091 323.32 743.598 323.88C744.131 324.44 744.771 324.88 745.518 325.2C746.291 325.52 747.158 325.68 748.118 325.68C749.424 325.68 750.558 325.373 751.518 324.76C752.504 324.147 753.264 323.267 753.798 322.12L756.078 323.76C755.411 325.173 754.371 326.32 752.958 327.2C751.544 328.053 749.864 328.48 747.918 328.48ZM747.918 309.56C747.038 309.56 746.238 309.72 745.518 310.04C744.798 310.333 744.171 310.76 743.638 311.32C743.131 311.88 742.731 312.547 742.438 313.32C742.144 314.067 741.998 314.893 741.998 315.8V316.08H753.398V315.64C753.398 313.8 752.891 312.333 751.878 311.24C750.891 310.12 749.571 309.56 747.918 309.56Z" fill="black"/>
<path d="M814.369 808.48C812.929 808.48 811.636 808.227 810.489 807.72C809.342 807.213 808.369 806.493 807.569 805.56C806.796 804.627 806.196 803.493 805.769 802.16C805.369 800.827 805.169 799.333 805.169 797.68C805.169 796.027 805.369 794.533 805.769 793.2C806.196 791.867 806.796 790.733 807.569 789.8C808.369 788.867 809.342 788.147 810.489 787.64C811.636 787.133 812.929 786.88 814.369 786.88C816.422 786.88 818.062 787.333 819.289 788.24C820.542 789.12 821.476 790.28 822.089 791.72L819.409 793.08C819.036 792.013 818.422 791.187 817.569 790.6C816.716 790.013 815.649 789.72 814.369 789.72C813.409 789.72 812.569 789.88 811.849 790.2C811.129 790.493 810.529 790.92 810.049 791.48C809.569 792.013 809.209 792.667 808.969 793.44C808.729 794.187 808.609 795.013 808.609 795.92V799.44C808.609 801.253 809.089 802.747 810.049 803.92C811.036 805.067 812.476 805.64 814.369 805.64C816.956 805.64 818.822 804.44 819.969 802.04L822.289 803.6C821.622 805.093 820.622 806.28 819.289 807.16C817.982 808.04 816.342 808.48 814.369 808.48ZM834.372 808.48C832.985 808.48 831.719 808.227 830.572 807.72C829.425 807.213 828.439 806.493 827.612 805.56C826.812 804.6 826.185 803.467 825.732 802.16C825.279 800.827 825.052 799.333 825.052 797.68C825.052 796.053 825.279 794.573 825.732 793.24C826.185 791.907 826.812 790.773 827.612 789.84C828.439 788.88 829.425 788.147 830.572 787.64C831.719 787.133 832.985 786.88 834.372 786.88C835.759 786.88 837.012 787.133 838.132 787.64C839.279 788.147 840.265 788.88 841.092 789.84C841.919 790.773 842.559 791.907 843.012 793.24C843.465 794.573 843.692 796.053 843.692 797.68C843.692 799.333 843.465 800.827 843.012 802.16C842.559 803.467 841.919 804.6 841.092 805.56C840.265 806.493 839.279 807.213 838.132 807.72C837.012 808.227 835.759 808.48 834.372 808.48ZM834.372 805.64C836.105 805.64 837.519 805.107 838.612 804.04C839.705 802.973 840.252 801.347 840.252 799.16V796.2C840.252 794.013 839.705 792.387 838.612 791.32C837.519 790.253 836.105 789.72 834.372 789.72C832.639 789.72 831.225 790.253 830.132 791.32C829.039 792.387 828.492 794.013 828.492 796.2V799.16C828.492 801.347 829.039 802.973 830.132 804.04C831.225 805.107 832.639 805.64 834.372 805.64ZM862.155 804.64H861.995C860.741 807.2 858.728 808.48 855.955 808.48C854.675 808.48 853.515 808.227 852.475 807.72C851.435 807.213 850.541 806.493 849.795 805.56C849.075 804.627 848.515 803.493 848.115 802.16C847.741 800.827 847.555 799.333 847.555 797.68C847.555 796.027 847.741 794.533 848.115 793.2C848.515 791.867 849.075 790.733 849.795 789.8C850.541 788.867 851.435 788.147 852.475 787.64C853.515 787.133 854.675 786.88 855.955 786.88C857.395 786.88 858.621 787.2 859.635 787.84C860.675 788.453 861.461 789.413 861.995 790.72H862.155V778.4H865.355V808H862.155V804.64ZM856.835 805.6C857.555 805.6 858.235 805.507 858.875 805.32C859.541 805.133 860.115 804.867 860.595 804.52C861.075 804.147 861.448 803.707 861.715 803.2C862.008 802.667 862.155 802.067 862.155 801.4V793.72C862.155 793.16 862.008 792.64 861.715 792.16C861.448 791.653 861.075 791.227 860.595 790.88C860.115 790.533 859.541 790.267 858.875 790.08C858.235 789.867 857.555 789.76 856.835 789.76C855.021 789.76 853.595 790.333 852.555 791.48C851.515 792.6 850.995 794.08 850.995 795.92V799.44C850.995 801.28 851.515 802.773 852.555 803.92C853.595 805.04 855.021 805.6 856.835 805.6ZM879.918 808.48C878.504 808.48 877.224 808.227 876.078 807.72C874.958 807.213 873.984 806.493 873.158 805.56C872.358 804.6 871.731 803.467 871.278 802.16C870.851 800.827 870.638 799.333 870.638 797.68C870.638 796.053 870.851 794.573 871.278 793.24C871.731 791.907 872.358 790.773 873.158 789.84C873.984 788.88 874.958 788.147 876.078 787.64C877.224 787.133 878.504 786.88 879.918 786.88C881.304 786.88 882.544 787.133 883.638 787.64C884.731 788.147 885.664 788.853 886.438 789.76C887.211 790.64 887.798 791.693 888.198 792.92C888.624 794.147 888.838 795.493 888.838 796.96V798.48H873.998V799.44C873.998 800.32 874.131 801.147 874.398 801.92C874.691 802.667 875.091 803.32 875.598 803.88C876.131 804.44 876.771 804.88 877.518 805.2C878.291 805.52 879.158 805.68 880.118 805.68C881.424 805.68 882.558 805.373 883.518 804.76C884.504 804.147 885.264 803.267 885.798 802.12L888.078 803.76C887.411 805.173 886.371 806.32 884.958 807.2C883.544 808.053 881.864 808.48 879.918 808.48ZM879.918 789.56C879.038 789.56 878.238 789.72 877.518 790.04C876.798 790.333 876.171 790.76 875.638 791.32C875.131 791.88 874.731 792.547 874.438 793.32C874.144 794.067 873.998 794.893 873.998 795.8V796.08H885.398V795.64C885.398 793.8 884.891 792.333 883.878 791.24C882.891 790.12 881.571 789.56 879.918 789.56Z" fill="black"/>
<path d="M597.144 765C596.024 765 595.17 764.693 594.584 764.08C594.024 763.44 593.744 762.613 593.744 761.6V747.16H590.344V744.36H592.264C592.957 744.36 593.424 744.227 593.664 743.96C593.93 743.667 594.064 743.173 594.064 742.48V738.64H596.944V744.36H601.464V747.16H596.944V762.2H601.144V765H597.144ZM619.327 744.36H622.487L613.247 769.8C613.007 770.413 612.767 770.92 612.527 771.32C612.287 771.747 611.994 772.08 611.647 772.32C611.3 772.56 610.86 772.733 610.327 772.84C609.82 772.947 609.194 773 608.447 773H606.807V770.2H610.047L611.607 765.8L603.887 744.36H607.087L612.047 758.4L613.007 761.76H613.207L614.327 758.4L619.327 744.36ZM626.568 744.36H629.768V747.72H629.928C630.461 746.413 631.235 745.453 632.248 744.84C633.288 744.2 634.528 743.88 635.968 743.88C637.248 743.88 638.408 744.133 639.448 744.64C640.488 745.147 641.368 745.867 642.088 746.8C642.835 747.733 643.395 748.867 643.768 750.2C644.168 751.533 644.368 753.027 644.368 754.68C644.368 756.333 644.168 757.827 643.768 759.16C643.395 760.493 642.835 761.627 642.088 762.56C641.368 763.493 640.488 764.213 639.448 764.72C638.408 765.227 637.248 765.48 635.968 765.48C633.168 765.48 631.155 764.2 629.928 761.64H629.768V773H626.568V744.36ZM635.088 762.6C636.901 762.6 638.328 762.04 639.368 760.92C640.408 759.773 640.928 758.28 640.928 756.44V752.92C640.928 751.08 640.408 749.6 639.368 748.48C638.328 747.333 636.901 746.76 635.088 746.76C634.368 746.76 633.675 746.867 633.008 747.08C632.368 747.267 631.808 747.533 631.328 747.88C630.848 748.227 630.461 748.653 630.168 749.16C629.901 749.64 629.768 750.16 629.768 750.72V758.4C629.768 759.067 629.901 759.667 630.168 760.2C630.461 760.707 630.848 761.147 631.328 761.52C631.808 761.867 632.368 762.133 633.008 762.32C633.675 762.507 634.368 762.6 635.088 762.6ZM657.531 765.48C656.118 765.48 654.838 765.227 653.691 764.72C652.571 764.213 651.598 763.493 650.771 762.56C649.971 761.6 649.344 760.467 648.891 759.16C648.464 757.827 648.251 756.333 648.251 754.68C648.251 753.053 648.464 751.573 648.891 750.24C649.344 748.907 649.971 747.773 650.771 746.84C651.598 745.88 652.571 745.147 653.691 744.64C654.838 744.133 656.118 743.88 657.531 743.88C658.918 743.88 660.158 744.133 661.251 744.64C662.344 745.147 663.278 745.853 664.051 746.76C664.824 747.64 665.411 748.693 665.811 749.92C666.238 751.147 666.451 752.493 666.451 753.96V755.48H651.611V756.44C651.611 757.32 651.744 758.147 652.011 758.92C652.304 759.667 652.704 760.32 653.211 760.88C653.744 761.44 654.384 761.88 655.131 762.2C655.904 762.52 656.771 762.68 657.731 762.68C659.038 762.68 660.171 762.373 661.131 761.76C662.118 761.147 662.878 760.267 663.411 759.12L665.691 760.76C665.024 762.173 663.984 763.32 662.571 764.2C661.158 765.053 659.478 765.48 657.531 765.48ZM657.531 746.56C656.651 746.56 655.851 746.72 655.131 747.04C654.411 747.333 653.784 747.76 653.251 748.32C652.744 748.88 652.344 749.547 652.051 750.32C651.758 751.067 651.611 751.893 651.611 752.8V753.08H663.011V752.64C663.011 750.8 662.504 749.333 661.491 748.24C660.504 747.12 659.184 746.56 657.531 746.56ZM677.924 765.48C676.004 765.48 674.391 765.12 673.084 764.4C671.804 763.653 670.698 762.667 669.764 761.44L672.044 759.6C672.844 760.613 673.738 761.4 674.724 761.96C675.711 762.493 676.858 762.76 678.164 762.76C679.524 762.76 680.578 762.467 681.324 761.88C682.098 761.293 682.484 760.467 682.484 759.4C682.484 758.6 682.218 757.92 681.684 757.36C681.178 756.773 680.244 756.373 678.884 756.16L677.244 755.92C676.284 755.787 675.404 755.587 674.604 755.32C673.804 755.027 673.098 754.653 672.484 754.2C671.898 753.72 671.431 753.133 671.084 752.44C670.764 751.747 670.604 750.92 670.604 749.96C670.604 748.947 670.791 748.067 671.164 747.32C671.538 746.547 672.044 745.907 672.684 745.4C673.351 744.893 674.138 744.52 675.044 744.28C675.951 744.013 676.924 743.88 677.964 743.88C679.644 743.88 681.044 744.173 682.164 744.76C683.311 745.347 684.311 746.16 685.164 747.2L683.044 749.12C682.591 748.48 681.924 747.907 681.044 747.4C680.164 746.867 679.058 746.6 677.724 746.6C676.391 746.6 675.378 746.893 674.684 747.48C674.018 748.04 673.684 748.813 673.684 749.8C673.684 750.813 674.018 751.547 674.684 752C675.378 752.453 676.364 752.787 677.644 753L679.244 753.24C681.538 753.587 683.164 754.253 684.124 755.24C685.084 756.2 685.564 757.467 685.564 759.04C685.564 761.04 684.884 762.613 683.524 763.76C682.164 764.907 680.298 765.48 677.924 765.48Z" fill="black"/>
<path d="M599.217 854.48C597.777 854.48 596.483 854.227 595.337 853.72C594.19 853.213 593.217 852.493 592.417 851.56C591.643 850.627 591.043 849.493 590.617 848.16C590.217 846.827 590.017 845.333 590.017 843.68C590.017 842.027 590.217 840.533 590.617 839.2C591.043 837.867 591.643 836.733 592.417 835.8C593.217 834.867 594.19 834.147 595.337 833.64C596.483 833.133 597.777 832.88 599.217 832.88C601.27 832.88 602.91 833.333 604.137 834.24C605.39 835.12 606.323 836.28 606.937 837.72L604.257 839.08C603.883 838.013 603.27 837.187 602.417 836.6C601.563 836.013 600.497 835.72 599.217 835.72C598.257 835.72 597.417 835.88 596.697 836.2C595.977 836.493 595.377 836.92 594.897 837.48C594.417 838.013 594.057 838.667 593.817 839.44C593.577 840.187 593.457 841.013 593.457 841.92V845.44C593.457 847.253 593.937 848.747 594.897 849.92C595.883 851.067 597.323 851.64 599.217 851.64C601.803 851.64 603.67 850.44 604.817 848.04L607.137 849.6C606.47 851.093 605.47 852.28 604.137 853.16C602.83 854.04 601.19 854.48 599.217 854.48ZM615.054 854C613.934 854 613.081 853.693 612.494 853.08C611.934 852.44 611.654 851.64 611.654 850.68V824.4H614.854V851.2H617.894V854H615.054ZM624.152 828.52C623.459 828.52 622.952 828.36 622.632 828.04C622.339 827.693 622.192 827.253 622.192 826.72V826.2C622.192 825.667 622.339 825.24 622.632 824.92C622.952 824.573 623.459 824.4 624.152 824.4C624.846 824.4 625.339 824.573 625.632 824.92C625.952 825.24 626.112 825.667 626.112 826.2V826.72C626.112 827.253 625.952 827.693 625.632 828.04C625.339 828.36 624.846 828.52 624.152 828.52ZM622.552 833.36H625.752V854H622.552V833.36ZM640.312 854.48C638.899 854.48 637.619 854.227 636.472 853.72C635.352 853.213 634.379 852.493 633.552 851.56C632.752 850.6 632.126 849.467 631.672 848.16C631.246 846.827 631.032 845.333 631.032 843.68C631.032 842.053 631.246 840.573 631.672 839.24C632.126 837.907 632.752 836.773 633.552 835.84C634.379 834.88 635.352 834.147 636.472 833.64C637.619 833.133 638.899 832.88 640.312 832.88C641.699 832.88 642.939 833.133 644.032 833.64C645.126 834.147 646.059 834.853 646.832 835.76C647.606 836.64 648.192 837.693 648.592 838.92C649.019 840.147 649.232 841.493 649.232 842.96V844.48H634.392V845.44C634.392 846.32 634.526 847.147 634.792 847.92C635.086 848.667 635.486 849.32 635.992 849.88C636.526 850.44 637.166 850.88 637.912 851.2C638.686 851.52 639.552 851.68 640.512 851.68C641.819 851.68 642.952 851.373 643.912 850.76C644.899 850.147 645.659 849.267 646.192 848.12L648.472 849.76C647.806 851.173 646.766 852.32 645.352 853.2C643.939 854.053 642.259 854.48 640.312 854.48ZM640.312 835.56C639.432 835.56 638.632 835.72 637.912 836.04C637.192 836.333 636.566 836.76 636.032 837.32C635.526 837.88 635.126 838.547 634.832 839.32C634.539 840.067 634.392 840.893 634.392 841.8V842.08H645.792V841.64C645.792 839.8 645.286 838.333 644.272 837.24C643.286 836.12 641.966 835.56 640.312 835.56ZM654.505 854V833.36H657.705V836.72H657.865C658.372 835.547 659.079 834.613 659.985 833.92C660.919 833.227 662.159 832.88 663.705 832.88C665.839 832.88 667.519 833.573 668.745 834.96C669.999 836.32 670.625 838.253 670.625 840.76V854H667.425V841.32C667.425 837.613 665.865 835.76 662.745 835.76C662.105 835.76 661.479 835.84 660.865 836C660.279 836.16 659.745 836.4 659.265 836.72C658.785 837.04 658.399 837.453 658.105 837.96C657.839 838.44 657.705 839.013 657.705 839.68V854H654.505ZM681.8 854C680.68 854 679.827 853.693 679.24 853.08C678.68 852.44 678.4 851.613 678.4 850.6V836.16H675V833.36H676.92C677.613 833.36 678.08 833.227 678.32 832.96C678.587 832.667 678.72 832.173 678.72 831.48V827.64H681.6V833.36H686.12V836.16H681.6V851.2H685.8V854H681.8Z" fill="black"/>
<path d="M74.4391 740.36H90.5591V761H87.3591V743.16H77.6391V761H74.4391V740.36ZM105.169 761.48C103.782 761.48 102.515 761.227 101.369 760.72C100.222 760.213 99.2354 759.493 98.4088 758.56C97.6088 757.6 96.9821 756.467 96.5288 755.16C96.0754 753.827 95.8488 752.333 95.8488 750.68C95.8488 749.053 96.0754 747.573 96.5288 746.24C96.9821 744.907 97.6088 743.773 98.4088 742.84C99.2354 741.88 100.222 741.147 101.369 740.64C102.515 740.133 103.782 739.88 105.169 739.88C106.555 739.88 107.809 740.133 108.929 740.64C110.075 741.147 111.062 741.88 111.889 742.84C112.715 743.773 113.355 744.907 113.809 746.24C114.262 747.573 114.489 749.053 114.489 750.68C114.489 752.333 114.262 753.827 113.809 755.16C113.355 756.467 112.715 757.6 111.889 758.56C111.062 759.493 110.075 760.213 108.929 760.72C107.809 761.227 106.555 761.48 105.169 761.48ZM105.169 758.64C106.902 758.64 108.315 758.107 109.409 757.04C110.502 755.973 111.049 754.347 111.049 752.16V749.2C111.049 747.013 110.502 745.387 109.409 744.32C108.315 743.253 106.902 742.72 105.169 742.72C103.435 742.72 102.022 743.253 100.929 744.32C99.8354 745.387 99.2888 747.013 99.2888 749.2V752.16C99.2888 754.347 99.8354 755.973 100.929 757.04C102.022 758.107 103.435 758.64 105.169 758.64ZM116.593 758.2H118.953C119.78 756.867 120.447 755.2 120.953 753.2C121.46 751.2 121.713 748.907 121.713 746.32V740.36H135.673V758.2H139.113V766.6H136.193V761H119.513V766.6H116.593V758.2ZM132.473 758.2V743.16H124.753V746.48C124.753 749.227 124.513 751.573 124.033 753.52C123.58 755.44 123.033 757 122.393 758.2H132.473ZM143.541 740.36H156.581V743.16H146.741V761H143.541V740.36ZM167.981 761.48C166.595 761.48 165.328 761.227 164.181 760.72C163.035 760.213 162.048 759.493 161.221 758.56C160.421 757.6 159.795 756.467 159.341 755.16C158.888 753.827 158.661 752.333 158.661 750.68C158.661 749.053 158.888 747.573 159.341 746.24C159.795 744.907 160.421 743.773 161.221 742.84C162.048 741.88 163.035 741.147 164.181 740.64C165.328 740.133 166.595 739.88 167.981 739.88C169.368 739.88 170.621 740.133 171.741 740.64C172.888 741.147 173.875 741.88 174.701 742.84C175.528 743.773 176.168 744.907 176.621 746.24C177.075 747.573 177.301 749.053 177.301 750.68C177.301 752.333 177.075 753.827 176.621 755.16C176.168 756.467 175.528 757.6 174.701 758.56C173.875 759.493 172.888 760.213 171.741 760.72C170.621 761.227 169.368 761.48 167.981 761.48ZM167.981 758.64C169.715 758.64 171.128 758.107 172.221 757.04C173.315 755.973 173.861 754.347 173.861 752.16V749.2C173.861 747.013 173.315 745.387 172.221 744.32C171.128 743.253 169.715 742.72 167.981 742.72C166.248 742.72 164.835 743.253 163.741 744.32C162.648 745.387 162.101 747.013 162.101 749.2V752.16C162.101 754.347 162.648 755.973 163.741 757.04C164.835 758.107 166.248 758.64 167.981 758.64ZM186.496 743.16H179.456V740.36H196.736V743.16H189.696V761H186.496V743.16ZM208.216 761.48C206.829 761.48 205.562 761.227 204.416 760.72C203.269 760.213 202.282 759.493 201.456 758.56C200.656 757.6 200.029 756.467 199.576 755.16C199.122 753.827 198.896 752.333 198.896 750.68C198.896 749.053 199.122 747.573 199.576 746.24C200.029 744.907 200.656 743.773 201.456 742.84C202.282 741.88 203.269 741.147 204.416 740.64C205.562 740.133 206.829 739.88 208.216 739.88C209.602 739.88 210.856 740.133 211.976 740.64C213.122 741.147 214.109 741.88 214.936 742.84C215.762 743.773 216.402 744.907 216.856 746.24C217.309 747.573 217.536 749.053 217.536 750.68C217.536 752.333 217.309 753.827 216.856 755.16C216.402 756.467 215.762 757.6 214.936 758.56C214.109 759.493 213.122 760.213 211.976 760.72C210.856 761.227 209.602 761.48 208.216 761.48ZM208.216 758.64C209.949 758.64 211.362 758.107 212.456 757.04C213.549 755.973 214.096 754.347 214.096 752.16V749.2C214.096 747.013 213.549 745.387 212.456 744.32C211.362 743.253 209.949 742.72 208.216 742.72C206.482 742.72 205.069 743.253 203.976 744.32C202.882 745.387 202.336 747.013 202.336 749.2V752.16C202.336 754.347 202.882 755.973 203.976 757.04C205.069 758.107 206.482 758.64 208.216 758.64ZM222.798 740.36H233.198C234.878 740.36 236.198 740.84 237.158 741.8C238.118 742.733 238.598 744 238.598 745.6C238.598 748.187 237.252 749.64 234.558 749.96V750.12C236.158 750.253 237.345 750.76 238.118 751.64C238.918 752.493 239.318 753.56 239.318 754.84C239.318 755.667 239.185 756.453 238.918 757.2C238.678 757.947 238.318 758.6 237.838 759.16C237.358 759.72 236.772 760.173 236.078 760.52C235.385 760.84 234.598 761 233.718 761H222.798V740.36ZM232.758 758.36C233.718 758.36 234.478 758.107 235.038 757.6C235.598 757.093 235.878 756.373 235.878 755.44V754.52C235.878 753.587 235.598 752.867 235.038 752.36C234.478 751.853 233.718 751.6 232.758 751.6H225.998V758.36H232.758ZM232.358 749C233.238 749 233.918 748.787 234.398 748.36C234.905 747.907 235.158 747.267 235.158 746.44V745.56C235.158 744.733 234.905 744.107 234.398 743.68C233.918 743.227 233.238 743 232.358 743H225.998V749H232.358ZM245.103 740.36H248.303V749H252.423L256.423 742.68C256.716 742.2 256.996 741.813 257.263 741.52C257.53 741.2 257.796 740.96 258.063 740.8C258.33 740.64 258.61 740.533 258.903 740.48C259.196 740.4 259.53 740.36 259.903 740.36H261.783V743.16H259.303L256.063 748.28C255.85 748.627 255.663 748.907 255.503 749.12C255.343 749.333 255.183 749.52 255.023 749.68C254.863 749.813 254.69 749.933 254.503 750.04C254.316 750.12 254.09 750.2 253.823 750.28V750.44C254.383 750.52 254.863 750.707 255.263 751C255.69 751.267 256.13 751.8 256.583 752.6L259.743 758.2H262.103V761H259.783C259.09 761 258.45 760.827 257.863 760.48C257.303 760.107 256.756 759.44 256.223 758.48L252.423 751.72H248.303V761H245.103V740.36ZM281.705 761C280.505 761 279.638 760.68 279.105 760.04C278.598 759.4 278.278 758.6 278.145 757.64H277.945C277.491 758.92 276.745 759.88 275.705 760.52C274.665 761.16 273.425 761.48 271.985 761.48C269.798 761.48 268.091 760.92 266.865 759.8C265.665 758.68 265.065 757.16 265.065 755.24C265.065 753.293 265.771 751.8 267.185 750.76C268.625 749.72 270.851 749.2 273.865 749.2H277.945V747.16C277.945 745.693 277.545 744.573 276.745 743.8C275.945 743.027 274.718 742.64 273.065 742.64C271.811 742.64 270.758 742.92 269.905 743.48C269.078 744.04 268.385 744.787 267.825 745.72L265.905 743.92C266.465 742.8 267.358 741.853 268.585 741.08C269.811 740.28 271.358 739.88 273.225 739.88C275.731 739.88 277.678 740.493 279.065 741.72C280.451 742.947 281.145 744.653 281.145 746.84V758.2H283.505V761H281.705ZM272.505 758.76C273.305 758.76 274.038 758.667 274.705 758.48C275.371 758.293 275.945 758.027 276.425 757.68C276.905 757.333 277.278 756.933 277.545 756.48C277.811 756.027 277.945 755.533 277.945 755V751.6H273.705C271.865 751.6 270.518 751.867 269.665 752.4C268.838 752.933 268.425 753.707 268.425 754.72V755.56C268.425 756.573 268.785 757.36 269.505 757.92C270.251 758.48 271.251 758.76 272.505 758.76ZM290.503 756.32C291.356 756.32 291.969 756.547 292.343 757C292.743 757.427 292.943 757.987 292.943 758.68V759.24C292.943 760.333 292.623 761.533 291.983 762.84C291.343 764.173 290.449 765.333 289.303 766.32H286.623C287.423 765.467 288.063 764.653 288.543 763.88C289.049 763.133 289.409 762.293 289.623 761.36C289.089 761.227 288.689 760.973 288.423 760.6C288.183 760.227 288.063 759.773 288.063 759.24V758.68C288.063 757.987 288.249 757.427 288.623 757C289.023 756.547 289.649 756.32 290.503 756.32ZM112.115 792.36H122.515C124.195 792.36 125.515 792.84 126.475 793.8C127.435 794.733 127.915 796 127.915 797.6C127.915 800.187 126.568 801.64 123.875 801.96V802.12C125.475 802.253 126.662 802.76 127.435 803.64C128.235 804.493 128.635 805.56 128.635 806.84C128.635 807.667 128.502 808.453 128.235 809.2C127.995 809.947 127.635 810.6 127.155 811.16C126.675 811.72 126.088 812.173 125.395 812.52C124.702 812.84 123.915 813 123.035 813H112.115V792.36ZM122.075 810.36C123.035 810.36 123.795 810.107 124.355 809.6C124.915 809.093 125.195 808.373 125.195 807.44V806.52C125.195 805.587 124.915 804.867 124.355 804.36C123.795 803.853 123.035 803.6 122.075 803.6H115.315V810.36H122.075ZM121.675 801C122.555 801 123.235 800.787 123.715 800.36C124.222 799.907 124.475 799.267 124.475 798.44V797.56C124.475 796.733 124.222 796.107 123.715 795.68C123.235 795.227 122.555 795 121.675 795H115.315V801H121.675ZM142.18 813.48C140.766 813.48 139.486 813.227 138.34 812.72C137.22 812.213 136.246 811.493 135.42 810.56C134.62 809.6 133.993 808.467 133.54 807.16C133.113 805.827 132.9 804.333 132.9 802.68C132.9 801.053 133.113 799.573 133.54 798.24C133.993 796.907 134.62 795.773 135.42 794.84C136.246 793.88 137.22 793.147 138.34 792.64C139.486 792.133 140.766 791.88 142.18 791.88C143.566 791.88 144.806 792.133 145.9 792.64C146.993 793.147 147.926 793.853 148.7 794.76C149.473 795.64 150.06 796.693 150.46 797.92C150.886 799.147 151.1 800.493 151.1 801.96V803.48H136.26V804.44C136.26 805.32 136.393 806.147 136.66 806.92C136.953 807.667 137.353 808.32 137.86 808.88C138.393 809.44 139.033 809.88 139.78 810.2C140.553 810.52 141.42 810.68 142.38 810.68C143.686 810.68 144.82 810.373 145.78 809.76C146.766 809.147 147.526 808.267 148.06 807.12L150.34 808.76C149.673 810.173 148.633 811.32 147.22 812.2C145.806 813.053 144.126 813.48 142.18 813.48ZM142.18 794.56C141.3 794.56 140.5 794.72 139.78 795.04C139.06 795.333 138.433 795.76 137.9 796.32C137.393 796.88 136.993 797.547 136.7 798.32C136.406 799.067 136.26 799.893 136.26 800.8V801.08H147.66V800.64C147.66 798.8 147.153 797.333 146.14 796.24C145.153 795.12 143.833 794.56 142.18 794.56ZM156.373 792.36H159.573V795.72H159.733C160.266 794.413 161.039 793.453 162.053 792.84C163.093 792.2 164.333 791.88 165.773 791.88C167.053 791.88 168.213 792.133 169.253 792.64C170.293 793.147 171.173 793.867 171.893 794.8C172.639 795.733 173.199 796.867 173.573 798.2C173.973 799.533 174.173 801.027 174.173 802.68C174.173 804.333 173.973 805.827 173.573 807.16C173.199 808.493 172.639 809.627 171.893 810.56C171.173 811.493 170.293 812.213 169.253 812.72C168.213 813.227 167.053 813.48 165.773 813.48C162.973 813.48 160.959 812.2 159.733 809.64H159.573V821H156.373V792.36ZM164.893 810.6C166.706 810.6 168.133 810.04 169.173 808.92C170.213 807.773 170.733 806.28 170.733 804.44V800.92C170.733 799.08 170.213 797.6 169.173 796.48C168.133 795.333 166.706 794.76 164.893 794.76C164.173 794.76 163.479 794.867 162.813 795.08C162.173 795.267 161.613 795.533 161.133 795.88C160.653 796.227 160.266 796.653 159.973 797.16C159.706 797.64 159.573 798.16 159.573 798.72V806.4C159.573 807.067 159.706 807.667 159.973 808.2C160.266 808.707 160.653 809.147 161.133 809.52C161.613 809.867 162.173 810.133 162.813 810.32C163.479 810.507 164.173 810.6 164.893 810.6ZM187.256 813.48C185.816 813.48 184.522 813.227 183.376 812.72C182.229 812.213 181.256 811.493 180.456 810.56C179.682 809.627 179.082 808.493 178.656 807.16C178.256 805.827 178.056 804.333 178.056 802.68C178.056 801.027 178.256 799.533 178.656 798.2C179.082 796.867 179.682 795.733 180.456 794.8C181.256 793.867 182.229 793.147 183.376 792.64C184.522 792.133 185.816 791.88 187.256 791.88C189.309 791.88 190.949 792.333 192.176 793.24C193.429 794.12 194.362 795.28 194.976 796.72L192.296 798.08C191.922 797.013 191.309 796.187 190.456 795.6C189.602 795.013 188.536 794.72 187.256 794.72C186.296 794.72 185.456 794.88 184.736 795.2C184.016 795.493 183.416 795.92 182.936 796.48C182.456 797.013 182.096 797.667 181.856 798.44C181.616 799.187 181.496 800.013 181.496 800.92V804.44C181.496 806.253 181.976 807.747 182.936 808.92C183.922 810.067 185.362 810.64 187.256 810.64C189.842 810.64 191.709 809.44 192.856 807.04L195.176 808.6C194.509 810.093 193.509 811.28 192.176 812.16C190.869 813.04 189.229 813.48 187.256 813.48ZM204.289 795.16H197.249V792.36H214.529V795.16H207.489V813H204.289V795.16ZM218.716 792.36H221.916V801H226.036L230.036 794.68C230.33 794.2 230.61 793.813 230.876 793.52C231.143 793.2 231.41 792.96 231.676 792.8C231.943 792.64 232.223 792.533 232.516 792.48C232.81 792.4 233.143 792.36 233.516 792.36H235.396V795.16H232.916L229.676 800.28C229.463 800.627 229.276 800.907 229.116 801.12C228.956 801.333 228.796 801.52 228.636 801.68C228.476 801.813 228.303 801.933 228.116 802.04C227.93 802.12 227.703 802.2 227.436 802.28V802.44C227.996 802.52 228.476 802.707 228.876 803C229.303 803.267 229.743 803.8 230.196 804.6L233.356 810.2H235.716V813H233.396C232.703 813 232.063 812.827 231.476 812.48C230.916 812.107 230.37 811.44 229.836 810.48L226.036 803.72H221.916V813H218.716V792.36ZM255.318 813C254.118 813 253.251 812.68 252.718 812.04C252.211 811.4 251.891 810.6 251.758 809.64H251.558C251.105 810.92 250.358 811.88 249.318 812.52C248.278 813.16 247.038 813.48 245.598 813.48C243.411 813.48 241.705 812.92 240.478 811.8C239.278 810.68 238.678 809.16 238.678 807.24C238.678 805.293 239.385 803.8 240.798 802.76C242.238 801.72 244.465 801.2 247.478 801.2H251.558V799.16C251.558 797.693 251.158 796.573 250.358 795.8C249.558 795.027 248.331 794.64 246.678 794.64C245.425 794.64 244.371 794.92 243.518 795.48C242.691 796.04 241.998 796.787 241.438 797.72L239.518 795.92C240.078 794.8 240.971 793.853 242.198 793.08C243.425 792.28 244.971 791.88 246.838 791.88C249.345 791.88 251.291 792.493 252.678 793.72C254.065 794.947 254.758 796.653 254.758 798.84V810.2H257.118V813H255.318ZM246.118 810.76C246.918 810.76 247.651 810.667 248.318 810.48C248.985 810.293 249.558 810.027 250.038 809.68C250.518 809.333 250.891 808.933 251.158 808.48C251.425 808.027 251.558 807.533 251.558 807V803.6H247.318C245.478 803.6 244.131 803.867 243.278 804.4C242.451 804.933 242.038 805.707 242.038 806.72V807.56C242.038 808.573 242.398 809.36 243.118 809.92C243.865 810.48 244.865 810.76 246.118 810.76ZM62.4273 844.36H65.6273V853H69.7473L73.7473 846.68C74.0407 846.2 74.3207 845.813 74.5873 845.52C74.854 845.2 75.1207 844.96 75.3873 844.8C75.654 844.64 75.934 844.533 76.2273 844.48C76.5207 844.4 76.854 844.36 77.2273 844.36H79.1073V847.16H76.6273L73.3873 852.28C73.174 852.627 72.9873 852.907 72.8273 853.12C72.6673 853.333 72.5073 853.52 72.3473 853.68C72.1873 853.813 72.014 853.933 71.8273 854.04C71.6407 854.12 71.414 854.2 71.1473 854.28V854.44C71.7073 854.52 72.1873 854.707 72.5873 855C73.014 855.267 73.454 855.8 73.9073 856.6L77.0673 862.2H79.4273V865H77.1073C76.414 865 75.774 864.827 75.1873 864.48C74.6273 864.107 74.0807 863.44 73.5473 862.48L69.7473 855.72H65.6273V865H62.4273V844.36ZM91.5945 865.48C90.2079 865.48 88.9412 865.227 87.7945 864.72C86.6479 864.213 85.6612 863.493 84.8345 862.56C84.0345 861.6 83.4079 860.467 82.9545 859.16C82.5012 857.827 82.2745 856.333 82.2745 854.68C82.2745 853.053 82.5012 851.573 82.9545 850.24C83.4079 848.907 84.0345 847.773 84.8345 846.84C85.6612 845.88 86.6479 845.147 87.7945 844.64C88.9412 844.133 90.2079 843.88 91.5945 843.88C92.9812 843.88 94.2345 844.133 95.3545 844.64C96.5012 845.147 97.4879 845.88 98.3145 846.84C99.1412 847.773 99.7812 848.907 100.235 850.24C100.688 851.573 100.915 853.053 100.915 854.68C100.915 856.333 100.688 857.827 100.235 859.16C99.7812 860.467 99.1412 861.6 98.3145 862.56C97.4879 863.493 96.5012 864.213 95.3545 864.72C94.2345 865.227 92.9812 865.48 91.5945 865.48ZM91.5945 862.64C93.3279 862.64 94.7412 862.107 95.8345 861.04C96.9279 859.973 97.4745 858.347 97.4745 856.16V853.2C97.4745 851.013 96.9279 849.387 95.8345 848.32C94.7412 847.253 93.3279 846.72 91.5945 846.72C89.8612 846.72 88.4479 847.253 87.3545 848.32C86.2612 849.387 85.7145 851.013 85.7145 853.2V856.16C85.7145 858.347 86.2612 859.973 87.3545 861.04C88.4479 862.107 89.8612 862.64 91.5945 862.64ZM106.177 844.36H110.377L116.657 855.08H116.817L123.057 844.36H127.217V865H124.097V848.2H123.897L122.737 850.44L116.697 860.68L110.657 850.44L109.497 848.2H109.297V865H106.177V844.36ZM134.029 844.36H150.149V865H146.949V847.16H137.229V865H134.029V844.36ZM164.759 865.48C163.372 865.48 162.105 865.227 160.959 864.72C159.812 864.213 158.825 863.493 157.999 862.56C157.199 861.6 156.572 860.467 156.119 859.16C155.665 857.827 155.439 856.333 155.439 854.68C155.439 853.053 155.665 851.573 156.119 850.24C156.572 848.907 157.199 847.773 157.999 846.84C158.825 845.88 159.812 845.147 160.959 844.64C162.105 844.133 163.372 843.88 164.759 843.88C166.145 843.88 167.399 844.133 168.519 844.64C169.665 845.147 170.652 845.88 171.479 846.84C172.305 847.773 172.945 848.907 173.399 850.24C173.852 851.573 174.079 853.053 174.079 854.68C174.079 856.333 173.852 857.827 173.399 859.16C172.945 860.467 172.305 861.6 171.479 862.56C170.652 863.493 169.665 864.213 168.519 864.72C167.399 865.227 166.145 865.48 164.759 865.48ZM164.759 862.64C166.492 862.64 167.905 862.107 168.999 861.04C170.092 859.973 170.639 858.347 170.639 856.16V853.2C170.639 851.013 170.092 849.387 168.999 848.32C167.905 847.253 166.492 846.72 164.759 846.72C163.025 846.72 161.612 847.253 160.519 848.32C159.425 849.387 158.879 851.013 158.879 853.2V856.16C158.879 858.347 159.425 859.973 160.519 861.04C161.612 862.107 163.025 862.64 164.759 862.64ZM179.341 844.36H182.541V852.96H192.861V844.36H196.061V865H192.861V855.76H182.541V865H179.341V844.36ZM210.617 865.48C209.204 865.48 207.924 865.227 206.777 864.72C205.657 864.213 204.684 863.493 203.857 862.56C203.057 861.6 202.43 860.467 201.977 859.16C201.55 857.827 201.337 856.333 201.337 854.68C201.337 853.053 201.55 851.573 201.977 850.24C202.43 848.907 203.057 847.773 203.857 846.84C204.684 845.88 205.657 845.147 206.777 844.64C207.924 844.133 209.204 843.88 210.617 843.88C212.004 843.88 213.244 844.133 214.337 844.64C215.43 845.147 216.364 845.853 217.137 846.76C217.91 847.64 218.497 848.693 218.897 849.92C219.324 851.147 219.537 852.493 219.537 853.96V855.48H204.697V856.44C204.697 857.32 204.83 858.147 205.097 858.92C205.39 859.667 205.79 860.32 206.297 860.88C206.83 861.44 207.47 861.88 208.217 862.2C208.99 862.52 209.857 862.68 210.817 862.68C212.124 862.68 213.257 862.373 214.217 861.76C215.204 861.147 215.964 860.267 216.497 859.12L218.777 860.76C218.11 862.173 217.07 863.32 215.657 864.2C214.244 865.053 212.564 865.48 210.617 865.48ZM210.617 846.56C209.737 846.56 208.937 846.72 208.217 847.04C207.497 847.333 206.87 847.76 206.337 848.32C205.83 848.88 205.43 849.547 205.137 850.32C204.844 851.067 204.697 851.893 204.697 852.8V853.08H216.097V852.64C216.097 850.8 215.59 849.333 214.577 848.24C213.59 847.12 212.27 846.56 210.617 846.56ZM224.81 844.36H228.01V852.96H238.33V844.36H241.53V865H238.33V855.76H228.01V865H224.81V844.36ZM252.766 847.16H245.726V844.36H263.006V847.16H255.966V865H252.766V847.16ZM274.485 865.48C273.098 865.48 271.832 865.227 270.685 864.72C269.538 864.213 268.552 863.493 267.725 862.56C266.925 861.6 266.298 860.467 265.845 859.16C265.392 857.827 265.165 856.333 265.165 854.68C265.165 853.053 265.392 851.573 265.845 850.24C266.298 848.907 266.925 847.773 267.725 846.84C268.552 845.88 269.538 845.147 270.685 844.64C271.832 844.133 273.098 843.88 274.485 843.88C275.872 843.88 277.125 844.133 278.245 844.64C279.392 845.147 280.378 845.88 281.205 846.84C282.032 847.773 282.672 848.907 283.125 850.24C283.578 851.573 283.805 853.053 283.805 854.68C283.805 856.333 283.578 857.827 283.125 859.16C282.672 860.467 282.032 861.6 281.205 862.56C280.378 863.493 279.392 864.213 278.245 864.72C277.125 865.227 275.872 865.48 274.485 865.48ZM274.485 862.64C276.218 862.64 277.632 862.107 278.725 861.04C279.818 859.973 280.365 858.347 280.365 856.16V853.2C280.365 851.013 279.818 849.387 278.725 848.32C277.632 847.253 276.218 846.72 274.485 846.72C272.752 846.72 271.338 847.253 270.245 848.32C269.152 849.387 268.605 851.013 268.605 853.2V856.16C268.605 858.347 269.152 859.973 270.245 861.04C271.338 862.107 272.752 862.64 274.485 862.64ZM289.068 844.36H299.468C301.148 844.36 302.468 844.84 303.428 845.8C304.388 846.733 304.868 848 304.868 849.6C304.868 852.187 303.521 853.64 300.828 853.96V854.12C302.428 854.253 303.615 854.76 304.388 855.64C305.188 856.493 305.588 857.56 305.588 858.84C305.588 859.667 305.455 860.453 305.188 861.2C304.948 861.947 304.588 862.6 304.108 863.16C303.628 863.72 303.041 864.173 302.348 864.52C301.655 864.84 300.868 865 299.988 865H289.068V844.36ZM299.028 862.36C299.988 862.36 300.748 862.107 301.308 861.6C301.868 861.093 302.148 860.373 302.148 859.44V858.52C302.148 857.587 301.868 856.867 301.308 856.36C300.748 855.853 299.988 855.6 299.028 855.6H292.268V862.36H299.028ZM298.628 853C299.508 853 300.188 852.787 300.668 852.36C301.175 851.907 301.428 851.267 301.428 850.44V849.56C301.428 848.733 301.175 848.107 300.668 847.68C300.188 847.227 299.508 847 298.628 847H292.268V853H298.628Z" fill="black"/>
<path d="M557.433 596C556.313 596 555.459 595.693 554.873 595.08C554.313 594.44 554.033 593.613 554.033 592.6V578.16H550.633V575.36H552.553C553.246 575.36 553.713 575.227 553.953 574.96C554.219 574.667 554.353 574.173 554.353 573.48V569.64H557.233V575.36H561.753V578.16H557.233V593.2H561.433V596H557.433ZM574.5 596.48C573.087 596.48 571.807 596.227 570.66 595.72C569.54 595.213 568.567 594.493 567.74 593.56C566.94 592.6 566.313 591.467 565.86 590.16C565.433 588.827 565.22 587.333 565.22 585.68C565.22 584.053 565.433 582.573 565.86 581.24C566.313 579.907 566.94 578.773 567.74 577.84C568.567 576.88 569.54 576.147 570.66 575.64C571.807 575.133 573.087 574.88 574.5 574.88C575.887 574.88 577.127 575.133 578.22 575.64C579.313 576.147 580.247 576.853 581.02 577.76C581.793 578.64 582.38 579.693 582.78 580.92C583.207 582.147 583.42 583.493 583.42 584.96V586.48H568.58V587.44C568.58 588.32 568.713 589.147 568.98 589.92C569.273 590.667 569.673 591.32 570.18 591.88C570.713 592.44 571.353 592.88 572.1 593.2C572.873 593.52 573.74 593.68 574.7 593.68C576.007 593.68 577.14 593.373 578.1 592.76C579.087 592.147 579.847 591.267 580.38 590.12L582.66 591.76C581.993 593.173 580.953 594.32 579.54 595.2C578.127 596.053 576.447 596.48 574.5 596.48ZM574.5 577.56C573.62 577.56 572.82 577.72 572.1 578.04C571.38 578.333 570.753 578.76 570.22 579.32C569.713 579.88 569.313 580.547 569.02 581.32C568.727 582.067 568.58 582.893 568.58 583.8V584.08H579.98V583.64C579.98 581.8 579.473 580.333 578.46 579.24C577.473 578.12 576.153 577.56 574.5 577.56ZM594.893 596.48C592.973 596.48 591.36 596.12 590.053 595.4C588.773 594.653 587.666 593.667 586.733 592.44L589.013 590.6C589.813 591.613 590.706 592.4 591.693 592.96C592.68 593.493 593.826 593.76 595.133 593.76C596.493 593.76 597.546 593.467 598.293 592.88C599.066 592.293 599.453 591.467 599.453 590.4C599.453 589.6 599.186 588.92 598.653 588.36C598.146 587.773 597.213 587.373 595.853 587.16L594.213 586.92C593.253 586.787 592.373 586.587 591.573 586.32C590.773 586.027 590.066 585.653 589.453 585.2C588.866 584.72 588.4 584.133 588.053 583.44C587.733 582.747 587.573 581.92 587.573 580.96C587.573 579.947 587.76 579.067 588.133 578.32C588.506 577.547 589.013 576.907 589.653 576.4C590.32 575.893 591.106 575.52 592.013 575.28C592.92 575.013 593.893 574.88 594.933 574.88C596.613 574.88 598.013 575.173 599.133 575.76C600.28 576.347 601.28 577.16 602.133 578.2L600.013 580.12C599.56 579.48 598.893 578.907 598.013 578.4C597.133 577.867 596.026 577.6 594.693 577.6C593.36 577.6 592.346 577.893 591.653 578.48C590.986 579.04 590.653 579.813 590.653 580.8C590.653 581.813 590.986 582.547 591.653 583C592.346 583.453 593.333 583.787 594.613 584L596.213 584.24C598.506 584.587 600.133 585.253 601.093 586.24C602.053 587.2 602.533 588.467 602.533 590.04C602.533 592.04 601.853 593.613 600.493 594.76C599.133 595.907 597.266 596.48 594.893 596.48ZM612.472 596C611.352 596 610.498 595.693 609.912 595.08C609.352 594.44 609.072 593.613 609.072 592.6V578.16H605.672V575.36H607.592C608.285 575.36 608.752 575.227 608.992 574.96C609.258 574.667 609.392 574.173 609.392 573.48V569.64H612.272V575.36H616.792V578.16H612.272V593.2H616.472V596H612.472ZM637.588 596.48C635.668 596.48 634.055 596.12 632.748 595.4C631.468 594.653 630.362 593.667 629.428 592.44L631.708 590.6C632.508 591.613 633.402 592.4 634.388 592.96C635.375 593.493 636.522 593.76 637.828 593.76C639.188 593.76 640.242 593.467 640.988 592.88C641.762 592.293 642.148 591.467 642.148 590.4C642.148 589.6 641.882 588.92 641.348 588.36C640.842 587.773 639.908 587.373 638.548 587.16L636.908 586.92C635.948 586.787 635.068 586.587 634.268 586.32C633.468 586.027 632.762 585.653 632.148 585.2C631.562 584.72 631.095 584.133 630.748 583.44C630.428 582.747 630.268 581.92 630.268 580.96C630.268 579.947 630.455 579.067 630.828 578.32C631.202 577.547 631.708 576.907 632.348 576.4C633.015 575.893 633.802 575.52 634.708 575.28C635.615 575.013 636.588 574.88 637.628 574.88C639.308 574.88 640.708 575.173 641.828 575.76C642.975 576.347 643.975 577.16 644.828 578.2L642.708 580.12C642.255 579.48 641.588 578.907 640.708 578.4C639.828 577.867 638.722 577.6 637.388 577.6C636.055 577.6 635.042 577.893 634.348 578.48C633.682 579.04 633.348 579.813 633.348 580.8C633.348 581.813 633.682 582.547 634.348 583C635.042 583.453 636.028 583.787 637.308 584L638.908 584.24C641.202 584.587 642.828 585.253 643.788 586.24C644.748 587.2 645.228 588.467 645.228 590.04C645.228 592.04 644.548 593.613 643.188 594.76C641.828 595.907 639.962 596.48 637.588 596.48ZM658.64 596.48C657.227 596.48 655.947 596.227 654.8 595.72C653.68 595.213 652.707 594.493 651.88 593.56C651.08 592.6 650.454 591.467 650 590.16C649.574 588.827 649.36 587.333 649.36 585.68C649.36 584.053 649.574 582.573 650 581.24C650.454 579.907 651.08 578.773 651.88 577.84C652.707 576.88 653.68 576.147 654.8 575.64C655.947 575.133 657.227 574.88 658.64 574.88C660.027 574.88 661.267 575.133 662.36 575.64C663.454 576.147 664.387 576.853 665.16 577.76C665.934 578.64 666.52 579.693 666.92 580.92C667.347 582.147 667.56 583.493 667.56 584.96V586.48H652.72V587.44C652.72 588.32 652.854 589.147 653.12 589.92C653.414 590.667 653.814 591.32 654.32 591.88C654.854 592.44 655.494 592.88 656.24 593.2C657.014 593.52 657.88 593.68 658.84 593.68C660.147 593.68 661.28 593.373 662.24 592.76C663.227 592.147 663.987 591.267 664.52 590.12L666.8 591.76C666.134 593.173 665.094 594.32 663.68 595.2C662.267 596.053 660.587 596.48 658.64 596.48ZM658.64 577.56C657.76 577.56 656.96 577.72 656.24 578.04C655.52 578.333 654.894 578.76 654.36 579.32C653.854 579.88 653.454 580.547 653.16 581.32C652.867 582.067 652.72 582.893 652.72 583.8V584.08H664.12V583.64C664.12 581.8 663.614 580.333 662.6 579.24C661.614 578.12 660.294 577.56 658.64 577.56ZM672.834 596V575.36H676.034V579.16H676.234C676.607 578.173 677.274 577.293 678.234 576.52C679.194 575.747 680.514 575.36 682.194 575.36H683.434V578.56H681.554C679.82 578.56 678.46 578.893 677.474 579.56C676.514 580.2 676.034 581.013 676.034 582V596H672.834ZM692.472 596L685.232 575.36H688.432L692.032 585.6L694.272 592.64H694.472L696.712 585.6L700.392 575.36H703.472L696.192 596H692.472ZM715.047 596.48C713.633 596.48 712.353 596.227 711.207 595.72C710.087 595.213 709.113 594.493 708.287 593.56C707.487 592.6 706.86 591.467 706.407 590.16C705.98 588.827 705.767 587.333 705.767 585.68C705.767 584.053 705.98 582.573 706.407 581.24C706.86 579.907 707.487 578.773 708.287 577.84C709.113 576.88 710.087 576.147 711.207 575.64C712.353 575.133 713.633 574.88 715.047 574.88C716.433 574.88 717.673 575.133 718.767 575.64C719.86 576.147 720.793 576.853 721.567 577.76C722.34 578.64 722.927 579.693 723.327 580.92C723.753 582.147 723.967 583.493 723.967 584.96V586.48H709.127V587.44C709.127 588.32 709.26 589.147 709.527 589.92C709.82 590.667 710.22 591.32 710.727 591.88C711.26 592.44 711.9 592.88 712.647 593.2C713.42 593.52 714.287 593.68 715.247 593.68C716.553 593.68 717.687 593.373 718.647 592.76C719.633 592.147 720.393 591.267 720.927 590.12L723.207 591.76C722.54 593.173 721.5 594.32 720.087 595.2C718.673 596.053 716.993 596.48 715.047 596.48ZM715.047 577.56C714.167 577.56 713.367 577.72 712.647 578.04C711.927 578.333 711.3 578.76 710.767 579.32C710.26 579.88 709.86 580.547 709.567 581.32C709.273 582.067 709.127 582.893 709.127 583.8V584.08H720.527V583.64C720.527 581.8 720.02 580.333 719.007 579.24C718.02 578.12 716.7 577.56 715.047 577.56ZM729.24 596V575.36H732.44V579.16H732.64C733.013 578.173 733.68 577.293 734.64 576.52C735.6 575.747 736.92 575.36 738.6 575.36H739.84V578.56H737.96C736.227 578.56 734.867 578.893 733.88 579.56C732.92 580.2 732.44 581.013 732.44 582V596H729.24Z" fill="black"/>
<path d="M355.48 425.451C355.48 426.891 355.227 428.185 354.72 429.331C354.213 430.478 353.493 431.451 352.56 432.251C351.627 433.025 350.493 433.625 349.16 434.051C347.827 434.451 346.333 434.651 344.68 434.651C343.027 434.651 341.533 434.451 340.2 434.051C338.867 433.625 337.733 433.025 336.8 432.251C335.867 431.451 335.147 430.478 334.64 429.331C334.133 428.185 333.88 426.891 333.88 425.451C333.88 423.398 334.333 421.758 335.24 420.531C336.12 419.278 337.28 418.345 338.72 417.731L340.08 420.411C339.013 420.785 338.187 421.398 337.6 422.251C337.013 423.105 336.72 424.171 336.72 425.451C336.72 426.411 336.88 427.251 337.2 427.971C337.493 428.691 337.92 429.291 338.48 429.771C339.013 430.251 339.667 430.611 340.44 430.851C341.187 431.091 342.013 431.211 342.92 431.211L346.44 431.211C348.253 431.211 349.747 430.731 350.92 429.771C352.067 428.785 352.64 427.345 352.64 425.451C352.64 422.865 351.44 420.998 349.04 419.851L350.6 417.531C352.093 418.198 353.28 419.198 354.16 420.531C355.04 421.838 355.48 423.478 355.48 425.451ZM355.48 405.448C355.48 406.835 355.227 408.102 354.72 409.248C354.213 410.395 353.493 411.382 352.56 412.208C351.6 413.008 350.467 413.635 349.16 414.088C347.827 414.542 346.333 414.768 344.68 414.768C343.053 414.768 341.573 414.542 340.24 414.088C338.907 413.635 337.773 413.008 336.84 412.208C335.88 411.382 335.147 410.395 334.64 409.248C334.133 408.102 333.88 406.835 333.88 405.448C333.88 404.062 334.133 402.808 334.64 401.688C335.147 400.542 335.88 399.555 336.84 398.728C337.773 397.902 338.907 397.262 340.24 396.808C341.573 396.355 343.053 396.128 344.68 396.128C346.333 396.128 347.827 396.355 349.16 396.808C350.467 397.262 351.6 397.902 352.56 398.728C353.493 399.555 354.213 400.542 354.72 401.688C355.227 402.808 355.48 404.062 355.48 405.448ZM352.64 405.448C352.64 403.715 352.107 402.302 351.04 401.208C349.973 400.115 348.347 399.568 346.16 399.568L343.2 399.568C341.013 399.568 339.387 400.115 338.32 401.208C337.253 402.302 336.72 403.715 336.72 405.448C336.72 407.182 337.253 408.595 338.32 409.688C339.387 410.782 341.013 411.328 343.2 411.328L346.16 411.328C348.347 411.328 349.973 410.782 351.04 409.688C352.107 408.595 352.64 407.182 352.64 405.448ZM355 390.866L334.36 390.866L334.36 387.666L337.72 387.666L337.72 387.506C336.547 386.999 335.613 386.292 334.92 385.386C334.227 384.452 333.88 383.212 333.88 381.666C333.88 379.532 334.573 377.852 335.96 376.626C337.32 375.372 339.253 374.746 341.76 374.746L355 374.746L355 377.946L342.32 377.946C338.613 377.946 336.76 379.506 336.76 382.626C336.76 383.266 336.84 383.892 337 384.506C337.16 385.092 337.4 385.626 337.72 386.106C338.04 386.586 338.453 386.972 338.96 387.266C339.44 387.532 340.013 387.666 340.68 387.666L355 387.666L355 390.866ZM355 363.571C355 364.691 354.693 365.545 354.08 366.131C353.44 366.691 352.613 366.971 351.6 366.971L337.16 366.971L337.16 370.371L334.36 370.371L334.36 368.451C334.36 367.758 334.227 367.291 333.96 367.051C333.667 366.785 333.173 366.651 332.48 366.651L328.64 366.651L328.64 363.771L334.36 363.771L334.36 359.251L337.16 359.251L337.16 363.771L352.2 363.771L352.2 359.571L355 359.571L355 363.571ZM355 354.108L334.36 354.108L334.36 350.908L338.16 350.908L338.16 350.708C337.173 350.334 336.293 349.668 335.52 348.708C334.747 347.748 334.36 346.428 334.36 344.748L334.36 343.508L337.56 343.508L337.56 345.388C337.56 347.121 337.893 348.481 338.56 349.468C339.2 350.428 340.013 350.908 341 350.908L355 350.908L355 354.108ZM355 324.577C355 325.777 354.68 326.643 354.04 327.177C353.4 327.683 352.6 328.003 351.64 328.137L351.64 328.337C352.92 328.79 353.88 329.537 354.52 330.577C355.16 331.617 355.48 332.857 355.48 334.297C355.48 336.483 354.92 338.19 353.8 339.417C352.68 340.617 351.16 341.217 349.24 341.217C347.293 341.217 345.8 340.51 344.76 339.097C343.72 337.657 343.2 335.43 343.2 332.417L343.2 328.337L341.16 328.337C339.693 328.337 338.573 328.737 337.8 329.537C337.027 330.337 336.64 331.563 336.64 333.217C336.64 334.47 336.92 335.523 337.48 336.377C338.04 337.203 338.787 337.897 339.72 338.457L337.92 340.377C336.8 339.817 335.853 338.923 335.08 337.697C334.28 336.47 333.88 334.923 333.88 333.057C333.88 330.55 334.493 328.603 335.72 327.217C336.947 325.83 338.653 325.137 340.84 325.137L352.2 325.137L352.2 322.777L355 322.777L355 324.577ZM352.76 333.777C352.76 332.977 352.667 332.243 352.48 331.577C352.293 330.91 352.027 330.337 351.68 329.857C351.333 329.377 350.933 329.003 350.48 328.737C350.027 328.47 349.533 328.337 349 328.337L345.6 328.337L345.6 332.577C345.6 334.417 345.867 335.763 346.4 336.617C346.933 337.443 347.707 337.857 348.72 337.857L349.56 337.857C350.573 337.857 351.36 337.497 351.92 336.777C352.48 336.03 352.76 335.03 352.76 333.777ZM355.48 310.529C355.48 311.969 355.227 313.263 354.72 314.409C354.213 315.556 353.493 316.529 352.56 317.329C351.627 318.103 350.493 318.703 349.16 319.129C347.827 319.529 346.333 319.729 344.68 319.729C343.027 319.729 341.533 319.529 340.2 319.129C338.867 318.703 337.733 318.103 336.8 317.329C335.867 316.529 335.147 315.556 334.64 314.409C334.133 313.263 333.88 311.969 333.88 310.529C333.88 308.476 334.333 306.836 335.24 305.609C336.12 304.356 337.28 303.423 338.72 302.809L340.08 305.489C339.013 305.863 338.187 306.476 337.6 307.329C337.013 308.183 336.72 309.249 336.72 310.529C336.72 311.489 336.88 312.329 337.2 313.049C337.493 313.769 337.92 314.369 338.48 314.849C339.013 315.329 339.667 315.689 340.44 315.929C341.187 316.169 342.013 316.289 342.92 316.289L346.44 316.289C348.253 316.289 349.747 315.809 350.92 314.849C352.067 313.863 352.64 312.423 352.64 310.529C352.64 307.943 351.44 306.076 349.04 304.929L350.6 302.609C352.093 303.276 353.28 304.276 354.16 305.609C355.04 306.916 355.48 308.556 355.48 310.529ZM355 293.532C355 294.652 354.693 295.506 354.08 296.092C353.44 296.652 352.613 296.932 351.6 296.932L337.16 296.932L337.16 300.332L334.36 300.332L334.36 298.412C334.36 297.719 334.227 297.252 333.96 297.012C333.667 296.746 333.173 296.612 332.48 296.612L328.64 296.612L328.64 293.732L334.36 293.732L334.36 289.212L337.16 289.212L337.16 293.732L352.2 293.732L352.2 289.532L355 289.532L355 293.532Z" fill="black"/>
<path d="M344.55 207H343.45C342.124 207 340.852 207.527 339.914 208.464C338.977 209.402 338.45 210.674 338.45 212V212.45C338.449 213.327 338.218 214.188 337.779 214.947C337.34 215.706 336.709 216.337 335.95 216.775L334.875 217.4C334.115 217.839 333.253 218.07 332.375 218.07C331.497 218.07 330.635 217.839 329.875 217.4L329.5 217.2C328.353 216.538 326.99 216.359 325.71 216.701C324.43 217.043 323.339 217.879 322.675 219.025L322.125 219.975C321.463 221.122 321.284 222.485 321.626 223.765C321.968 225.045 322.804 226.136 323.95 226.8L324.325 227.05C325.081 227.486 325.709 228.113 326.148 228.867C326.586 229.621 326.82 230.477 326.825 231.35V232.625C326.829 233.506 326.599 234.372 326.16 235.136C325.721 235.9 325.088 236.534 324.325 236.975L323.95 237.2C322.804 237.864 321.968 238.955 321.626 240.235C321.284 241.515 321.463 242.878 322.125 244.025L322.675 244.975C323.339 246.121 324.43 246.957 325.71 247.299C326.99 247.641 328.353 247.462 329.5 246.8L329.875 246.6C330.635 246.161 331.497 245.93 332.375 245.93C333.253 245.93 334.115 246.161 334.875 246.6L335.95 247.225C336.709 247.663 337.34 248.294 337.779 249.053C338.218 249.812 338.449 250.673 338.45 251.55V252C338.45 253.326 338.977 254.598 339.914 255.536C340.852 256.473 342.124 257 343.45 257H344.55C345.876 257 347.148 256.473 348.086 255.536C349.023 254.598 349.55 253.326 349.55 252V251.55C349.551 250.673 349.782 249.812 350.221 249.053C350.66 248.294 351.291 247.663 352.05 247.225L353.125 246.6C353.885 246.161 354.747 245.93 355.625 245.93C356.503 245.93 357.365 246.161 358.125 246.6L358.5 246.8C359.647 247.462 361.01 247.641 362.29 247.299C363.57 246.957 364.661 246.121 365.325 244.975L365.875 244C366.537 242.853 366.716 241.49 366.374 240.21C366.032 238.93 365.196 237.839 364.05 237.175L363.675 236.975C362.912 236.534 362.279 235.9 361.84 235.136C361.401 234.372 361.172 233.506 361.175 232.625V231.375C361.172 230.494 361.401 229.628 361.84 228.864C362.279 228.1 362.912 227.466 363.675 227.025L364.05 226.8C365.196 226.136 366.032 225.045 366.374 223.765C366.716 222.485 366.537 221.122 365.875 219.975L365.325 219.025C364.661 217.879 363.57 217.043 362.29 216.701C361.01 216.359 359.647 216.538 358.5 217.2L358.125 217.4C357.365 217.839 356.503 218.07 355.625 218.07C354.747 218.07 353.885 217.839 353.125 217.4L352.05 216.775C351.291 216.337 350.66 215.706 350.221 214.947C349.782 214.188 349.551 213.327 349.55 212.45V212C349.55 210.674 349.023 209.402 348.086 208.464C347.148 207.527 345.876 207 344.55 207Z" stroke="black" stroke-width="2" stroke-linecap="round" stroke-linejoin="round"/>
<path d="M344 239.5C348.142 239.5 351.5 236.142 351.5 232C351.5 227.858 348.142 224.5 344 224.5C339.858 224.5 336.5 227.858 336.5 232C336.5 236.142 339.858 239.5 344 239.5Z" stroke="black" stroke-width="2" stroke-linecap="round" stroke-linejoin="round"/>
<path d="M541.55 729H540.45C539.124 729 537.852 729.527 536.914 730.464C535.977 731.402 535.45 732.674 535.45 734V734.45C535.449 735.327 535.218 736.188 534.779 736.947C534.34 737.706 533.709 738.337 532.95 738.775L531.875 739.4C531.115 739.839 530.253 740.07 529.375 740.07C528.497 740.07 527.635 739.839 526.875 739.4L526.5 739.2C525.353 738.538 523.99 738.359 522.71 738.701C521.43 739.043 520.339 739.879 519.675 741.025L519.125 741.975C518.463 743.122 518.284 744.485 518.626 745.765C518.968 747.045 519.804 748.136 520.95 748.8L521.325 749.05C522.081 749.486 522.709 750.113 523.148 750.867C523.586 751.621 523.82 752.477 523.825 753.35V754.625C523.829 755.506 523.599 756.372 523.16 757.136C522.721 757.9 522.088 758.534 521.325 758.975L520.95 759.2C519.804 759.864 518.968 760.955 518.626 762.235C518.284 763.515 518.463 764.878 519.125 766.025L519.675 766.975C520.339 768.121 521.43 768.957 522.71 769.299C523.99 769.641 525.353 769.462 526.5 768.8L526.875 768.6C527.635 768.161 528.497 767.93 529.375 767.93C530.253 767.93 531.115 768.161 531.875 768.6L532.95 769.225C533.709 769.663 534.34 770.294 534.779 771.053C535.218 771.812 535.449 772.673 535.45 773.55V774C535.45 775.326 535.977 776.598 536.914 777.536C537.852 778.473 539.124 779 540.45 779H541.55C542.876 779 544.148 778.473 545.086 777.536C546.023 776.598 546.55 775.326 546.55 774V773.55C546.551 772.673 546.782 771.812 547.221 771.053C547.66 770.294 548.291 769.663 549.05 769.225L550.125 768.6C550.885 768.161 551.747 767.93 552.625 767.93C553.503 767.93 554.365 768.161 555.125 768.6L555.5 768.8C556.647 769.462 558.01 769.641 559.29 769.299C560.57 768.957 561.661 768.121 562.325 766.975L562.875 766C563.537 764.853 563.716 763.49 563.374 762.21C563.032 760.93 562.196 759.839 561.05 759.175L560.675 758.975C559.912 758.534 559.279 757.9 558.84 757.136C558.401 756.372 558.172 755.506 558.175 754.625V753.375C558.172 752.494 558.401 751.628 558.84 750.864C559.279 750.1 559.912 749.466 560.675 749.025L561.05 748.8C562.196 748.136 563.032 747.045 563.374 745.765C563.716 744.485 563.537 743.122 562.875 741.975L562.325 741.025C561.661 739.879 560.57 739.043 559.29 738.701C558.01 738.359 556.647 738.538 555.5 739.2L555.125 739.4C554.365 739.839 553.503 740.07 552.625 740.07C551.747 740.07 550.885 739.839 550.125 739.4L549.05 738.775C548.291 738.337 547.66 737.706 547.221 736.947C546.782 736.188 546.551 735.327 546.55 734.45V734C546.55 732.674 546.023 731.402 545.086 730.464C544.148 729.527 542.876 729 541.55 729Z" stroke="black" stroke-width="2" stroke-linecap="round" stroke-linejoin="round"/>
<path d="M541 761.5C545.142 761.5 548.5 758.142 548.5 754C548.5 749.858 545.142 746.5 541 746.5C536.858 746.5 533.5 749.858 533.5 754C533.5 758.142 536.858 761.5 541 761.5Z" stroke="black" stroke-width="2" stroke-linecap="round" stroke-linejoin="round"/>
<path d="M541.55 818H540.45C539.124 818 537.852 818.527 536.914 819.464C535.977 820.402 535.45 821.674 535.45 823V823.45C535.449 824.327 535.218 825.188 534.779 825.947C534.34 826.706 533.709 827.337 532.95 827.775L531.875 828.4C531.115 828.839 530.253 829.07 529.375 829.07C528.497 829.07 527.635 828.839 526.875 828.4L526.5 828.2C525.353 827.538 523.99 827.359 522.71 827.701C521.43 828.043 520.339 828.879 519.675 830.025L519.125 830.975C518.463 832.122 518.284 833.485 518.626 834.765C518.968 836.045 519.804 837.136 520.95 837.8L521.325 838.05C522.081 838.486 522.709 839.113 523.148 839.867C523.586 840.621 523.82 841.477 523.825 842.35V843.625C523.829 844.506 523.599 845.372 523.16 846.136C522.721 846.9 522.088 847.534 521.325 847.975L520.95 848.2C519.804 848.864 518.968 849.955 518.626 851.235C518.284 852.515 518.463 853.878 519.125 855.025L519.675 855.975C520.339 857.121 521.43 857.957 522.71 858.299C523.99 858.641 525.353 858.462 526.5 857.8L526.875 857.6C527.635 857.161 528.497 856.93 529.375 856.93C530.253 856.93 531.115 857.161 531.875 857.6L532.95 858.225C533.709 858.663 534.34 859.294 534.779 860.053C535.218 860.812 535.449 861.673 535.45 862.55V863C535.45 864.326 535.977 865.598 536.914 866.536C537.852 867.473 539.124 868 540.45 868H541.55C542.876 868 544.148 867.473 545.086 866.536C546.023 865.598 546.55 864.326 546.55 863V862.55C546.551 861.673 546.782 860.812 547.221 860.053C547.66 859.294 548.291 858.663 549.05 858.225L550.125 857.6C550.885 857.161 551.747 856.93 552.625 856.93C553.503 856.93 554.365 857.161 555.125 857.6L555.5 857.8C556.647 858.462 558.01 858.641 559.29 858.299C560.57 857.957 561.661 857.121 562.325 855.975L562.875 855C563.537 853.853 563.716 852.49 563.374 851.21C563.032 849.93 562.196 848.839 561.05 848.175L560.675 847.975C559.912 847.534 559.279 846.9 558.84 846.136C558.401 845.372 558.172 844.506 558.175 843.625V842.375C558.172 841.494 558.401 840.628 558.84 839.864C559.279 839.1 559.912 838.466 560.675 838.025L561.05 837.8C562.196 837.136 563.032 836.045 563.374 834.765C563.716 833.485 563.537 832.122 562.875 830.975L562.325 830.025C561.661 828.879 560.57 828.043 559.29 827.701C558.01 827.359 556.647 827.538 555.5 828.2L555.125 828.4C554.365 828.839 553.503 829.07 552.625 829.07C551.747 829.07 550.885 828.839 550.125 828.4L549.05 827.775C548.291 827.337 547.66 826.706 547.221 825.947C546.782 825.188 546.551 824.327 546.55 823.45V823C546.55 821.674 546.023 820.402 545.086 819.464C544.148 818.527 542.876 818 541.55 818Z" stroke="black" stroke-width="2" stroke-linecap="round" stroke-linejoin="round"/>
<path d="M541 850.5C545.142 850.5 548.5 847.142 548.5 843C548.5 838.858 545.142 835.5 541 835.5C536.858 835.5 533.5 838.858 533.5 843C533.5 847.142 536.858 850.5 541 850.5Z" stroke="black" stroke-width="2" stroke-linecap="round" stroke-linejoin="round"/>
<path d="M375.266 17.4965H390.686C393.802 17.4965 396.238 18.3741 397.993 20.1293C399.784 21.8845 400.68 24.2307 400.68 27.1679C400.68 28.5649 400.483 29.7469 400.089 30.7141C399.695 31.6812 399.193 32.4872 398.584 33.1319C397.975 33.7409 397.313 34.2065 396.596 34.5289C395.88 34.8155 395.217 35.0125 394.608 35.1199V35.4423C395.289 35.4781 396.041 35.6572 396.865 35.9796C397.725 36.302 398.531 36.8214 399.283 37.5378C400.035 38.2184 400.662 39.1139 401.163 40.2243C401.701 41.2989 401.969 42.6063 401.969 44.1466C401.969 45.6868 401.719 47.1196 401.217 48.4449C400.751 49.7703 400.089 50.9165 399.229 51.8837C398.369 52.8508 397.349 53.6209 396.166 54.1941C394.984 54.7314 393.695 55 392.298 55H375.266V17.4965ZM379.779 51.024H390.901C392.835 51.024 394.358 50.5404 395.468 49.5733C396.578 48.5703 397.134 47.1196 397.134 45.2212V43.3943C397.134 41.4959 396.578 40.0631 395.468 39.0959C394.358 38.093 392.835 37.5915 390.901 37.5915H379.779V51.024ZM379.779 33.723H390.149C391.94 33.723 393.337 33.2752 394.34 32.3797C395.343 31.4842 395.844 30.1947 395.844 28.5111V26.6843C395.844 25.0008 395.343 23.7113 394.34 22.8158C393.337 21.9203 391.94 21.4725 390.149 21.4725H379.779V33.723ZM430.087 55C428.475 55 427.311 54.5702 426.595 53.7105C425.914 52.8508 425.484 51.7762 425.305 50.4867H425.037C424.428 52.206 423.425 53.4956 422.028 54.3552C420.631 55.2149 418.965 55.6448 417.031 55.6448C414.094 55.6448 411.801 54.8925 410.153 53.3881C408.542 51.8837 407.736 49.8419 407.736 47.2629C407.736 44.648 408.685 42.6421 410.583 41.2451C412.518 39.8482 415.509 39.1497 419.556 39.1497H425.037V36.4094C425.037 34.4394 424.499 32.9349 423.425 31.8961C422.35 30.8574 420.702 30.338 418.482 30.338C416.798 30.338 415.383 30.7141 414.237 31.4663C413.127 32.2185 412.195 33.2215 411.443 34.4752L408.864 32.0573C409.616 30.5529 410.816 29.2813 412.464 28.2425C414.112 27.1679 416.189 26.6306 418.697 26.6306C422.064 26.6306 424.678 27.4545 426.541 29.1022C428.404 30.7499 429.335 33.0424 429.335 35.9796V51.2389H432.505V55H430.087ZM417.729 51.9911C418.804 51.9911 419.789 51.8658 420.685 51.615C421.58 51.3643 422.35 51.0061 422.995 50.5404C423.64 50.0748 424.141 49.5375 424.499 48.9285C424.858 48.3196 425.037 47.6569 425.037 46.9405V42.3735H419.341C416.87 42.3735 415.061 42.7317 413.915 43.4481C412.804 44.1645 412.249 45.2032 412.249 46.5644V47.6927C412.249 49.0539 412.732 50.1106 413.7 50.8628C414.703 51.615 416.046 51.9911 417.729 51.9911ZM448.956 55.6448C447.022 55.6448 445.285 55.3045 443.744 54.6239C442.204 53.9433 440.897 52.9762 439.822 51.7225C438.783 50.4688 437.977 48.9464 437.404 47.1554C436.867 45.3644 436.598 43.3585 436.598 41.1377C436.598 38.9168 436.867 36.9109 437.404 35.1199C437.977 33.3289 438.783 31.8066 439.822 30.5529C440.897 29.2992 442.204 28.3321 443.744 27.6515C445.285 26.9709 447.022 26.6306 448.956 26.6306C451.714 26.6306 453.917 27.2395 455.565 28.4574C457.248 29.6395 458.502 31.1976 459.326 33.1319L455.726 34.9587C455.225 33.5259 454.401 32.4155 453.254 31.6275C452.108 30.8394 450.675 30.4454 448.956 30.4454C447.667 30.4454 446.538 30.6603 445.571 31.0902C444.604 31.4842 443.798 32.0573 443.153 32.8095C442.509 33.5259 442.025 34.4035 441.703 35.4423C441.38 36.4453 441.219 37.5557 441.219 38.7736V43.5018C441.219 45.9376 441.864 47.9435 443.153 49.5195C444.479 51.0598 446.413 51.8299 448.956 51.8299C452.431 51.8299 454.938 50.218 456.478 46.9942L459.595 49.0897C458.699 51.0956 457.356 52.6896 455.565 53.8717C453.81 55.0537 451.607 55.6448 448.956 55.6448ZM465.662 15.2399H469.961V40.4392H470.176L474.42 35.711L482.265 27.2754H487.477L477.214 38.2363L488.498 55H483.286L474.098 40.869L469.961 45.1137V55H465.662V15.2399ZM503.528 55.6448C501.63 55.6448 499.91 55.3045 498.37 54.6239C496.866 53.9433 495.558 52.9762 494.448 51.7225C493.373 50.433 492.531 48.9106 491.922 47.1554C491.349 45.3644 491.063 43.3585 491.063 41.1377C491.063 38.9527 491.349 36.9647 491.922 35.1737C492.531 33.3827 493.373 31.8603 494.448 30.6066C495.558 29.3171 496.866 28.3321 498.37 27.6515C499.91 26.9709 501.63 26.6306 503.528 26.6306C505.391 26.6306 507.056 26.9709 508.525 27.6515C509.994 28.3321 511.247 29.2813 512.286 30.4992C513.325 31.6812 514.113 33.0961 514.65 34.7438C515.223 36.3915 515.51 38.2004 515.51 40.1705V42.2123H495.576V43.5018C495.576 44.6839 495.755 45.7943 496.113 46.8331C496.507 47.836 497.045 48.7136 497.725 49.4658C498.442 50.218 499.301 50.8091 500.304 51.2389C501.343 51.6687 502.507 51.8837 503.797 51.8837C505.552 51.8837 507.074 51.4717 508.364 50.6479C509.689 49.824 510.71 48.642 511.426 47.1017L514.489 49.3046C513.593 51.2031 512.196 52.7433 510.298 53.9254C508.4 55.0716 506.143 55.6448 503.528 55.6448ZM503.528 30.2305C502.346 30.2305 501.271 30.4454 500.304 30.8753C499.337 31.2693 498.495 31.8424 497.779 32.5946C497.098 33.3468 496.561 34.2423 496.167 35.2811C495.773 36.2841 495.576 37.3945 495.576 38.6124V38.9885H510.889V38.3975C510.889 35.9259 510.208 33.9558 508.847 32.4872C507.522 30.9827 505.749 30.2305 503.528 30.2305ZM522.593 55V27.2754H526.891V31.7887H527.106C527.787 30.2126 528.736 28.9589 529.954 28.0276C531.208 27.0963 532.873 26.6306 534.951 26.6306C537.816 26.6306 540.073 27.5619 541.721 29.4246C543.404 31.2514 544.246 33.8483 544.246 37.2154V55H539.948V37.9676C539.948 32.9886 537.852 30.4992 533.661 30.4992C532.802 30.4992 531.96 30.6066 531.136 30.8215C530.348 31.0365 529.632 31.3588 528.987 31.7887C528.342 32.2185 527.823 32.7737 527.429 33.4543C527.07 34.0991 526.891 34.8692 526.891 35.7647V55H522.593ZM570.862 50.4867H570.647C568.963 53.9254 566.259 55.6448 562.534 55.6448C560.814 55.6448 559.256 55.3045 557.859 54.6239C556.462 53.9433 555.262 52.9762 554.259 51.7225C553.292 50.4688 552.54 48.9464 552.003 47.1554C551.501 45.3644 551.25 43.3585 551.25 41.1377C551.25 38.9168 551.501 36.9109 552.003 35.1199C552.54 33.3289 553.292 31.8066 554.259 30.5529C555.262 29.2992 556.462 28.3321 557.859 27.6515C559.256 26.9709 560.814 26.6306 562.534 26.6306C564.468 26.6306 566.116 27.0604 567.477 27.9201C568.874 28.744 569.93 30.0335 570.647 31.7887H570.862V15.2399H575.16V55H570.862V50.4867ZM563.716 51.7762C564.683 51.7762 565.596 51.6508 566.456 51.4001C567.351 51.1494 568.122 50.7912 568.766 50.3255C569.411 49.824 569.912 49.233 570.271 48.5524C570.665 47.836 570.862 47.0301 570.862 46.1346V35.8184C570.862 35.0662 570.665 34.3677 570.271 33.723C569.912 33.0424 569.411 32.4693 568.766 32.0036C568.122 31.5379 567.351 31.1797 566.456 30.929C565.596 30.6424 564.683 30.4992 563.716 30.4992C561.28 30.4992 559.364 31.2693 557.967 32.8095C556.57 34.314 555.871 36.302 555.871 38.7736V43.5018C555.871 45.9734 556.57 47.9793 557.967 49.5195C559.364 51.024 561.28 51.7762 563.716 51.7762Z" fill="black"/>
<path d="M7 128V108C7 101.373 12.3726 96 19 96H468.576M468.576 96V66M468.576 96H947C953.627 96 959 101.373 959 108V128" stroke="black" stroke-width="3" stroke-linecap="round"/>
<path d="M809.586 576.586C808.805 577.367 808.805 578.633 809.586 579.414L822.314 592.142C823.095 592.923 824.361 592.923 825.142 592.142C825.923 591.361 825.923 590.095 825.142 589.314L813.828 578L825.142 566.686C825.923 565.905 825.923 564.639 825.142 563.858C824.361 563.077 823.095 563.077 822.314 563.858L809.586 576.586ZM811 580H865V576H811V580ZM883 598V707H887V598H883ZM865 580C874.941 580 883 588.059 883 598H887C887 585.85 877.15 576 865 576V580Z" fill="#B0ADAD"/>
<path d="M956 914L956 934C956 940.627 950.627 946 944 946L494.424 946M494.424 946L494.424 976M494.424 946L16.0001 946C9.37264 946 4.00003 940.627 4.00003 934L4.00003 914" stroke="black" stroke-width="3" stroke-linecap="round"/>
<path d="M389.069 1023V985.497H411.421V989.473H393.583V1002.05H409.863V1006.02H393.583V1023H389.069ZM417.603 1023L417.603 995.275H421.902V1000.38H422.17C422.672 999.054 423.567 997.872 424.857 996.834C426.146 995.795 427.919 995.275 430.176 995.275H431.842V999.574H429.316C426.988 999.574 425.161 1000.02 423.836 1000.92C422.546 1001.78 421.902 1002.87 421.902 1004.19V1023H417.603ZM447.547 1023.64C445.685 1023.64 443.983 1023.3 442.443 1022.62C440.903 1021.94 439.577 1020.98 438.467 1019.72C437.392 1018.43 436.551 1016.91 435.942 1015.16C435.333 1013.36 435.028 1011.36 435.028 1009.14C435.028 1006.95 435.333 1004.96 435.942 1003.17C436.551 1001.38 437.392 999.86 438.467 998.607C439.577 997.317 440.903 996.332 442.443 995.651C443.983 994.971 445.685 994.631 447.547 994.631C449.41 994.631 451.093 994.971 452.598 995.651C454.138 996.332 455.463 997.317 456.574 998.607C457.684 999.86 458.544 1001.38 459.153 1003.17C459.762 1004.96 460.066 1006.95 460.066 1009.14C460.066 1011.36 459.762 1013.36 459.153 1015.16C458.544 1016.91 457.684 1018.43 456.574 1019.72C455.463 1020.98 454.138 1021.94 452.598 1022.62C451.093 1023.3 449.41 1023.64 447.547 1023.64ZM447.547 1019.83C449.876 1019.83 451.774 1019.11 453.243 1017.68C454.711 1016.25 455.446 1014.06 455.446 1011.13V1007.15C455.446 1004.21 454.711 1002.03 453.243 1000.59C451.774 999.162 449.876 998.445 447.547 998.445C445.219 998.445 443.321 999.162 441.852 1000.59C440.383 1002.03 439.649 1004.21 439.649 1007.15V1011.13C439.649 1014.06 440.383 1016.25 441.852 1017.68C443.321 1019.11 445.219 1019.83 447.547 1019.83ZM467.136 1023V995.275H471.434V999.789H471.649C472.33 998.213 473.279 996.959 474.497 996.028C475.75 995.096 477.416 994.631 479.493 994.631C482.359 994.631 484.616 995.562 486.263 997.425C487.947 999.251 488.789 1001.85 488.789 1005.22V1023H484.49V1005.97C484.49 1000.99 482.395 998.499 478.204 998.499C477.344 998.499 476.503 998.607 475.679 998.822C474.891 999.036 474.174 999.359 473.529 999.789C472.885 1000.22 472.365 1000.77 471.971 1001.45C471.613 1002.1 471.434 1002.87 471.434 1003.76V1023H467.136ZM503.799 1023C502.294 1023 501.148 1022.59 500.36 1021.76C499.608 1020.9 499.232 1019.79 499.232 1018.43V999.036H494.665V995.275H497.244C498.175 995.275 498.802 995.096 499.124 994.738C499.482 994.344 499.662 993.681 499.662 992.75V987.592H503.53V995.275H509.602V999.036H503.53V1019.24H509.172V1023H503.799ZM526.724 1023.64C524.826 1023.64 523.106 1023.3 521.566 1022.62C520.062 1021.94 518.754 1020.98 517.644 1019.72C516.569 1018.43 515.727 1016.91 515.119 1015.16C514.545 1013.36 514.259 1011.36 514.259 1009.14C514.259 1006.95 514.545 1004.96 515.119 1003.17C515.727 1001.38 516.569 999.86 517.644 998.607C518.754 997.317 520.062 996.332 521.566 995.651C523.106 994.971 524.826 994.631 526.724 994.631C528.587 994.631 530.252 994.971 531.721 995.651C533.19 996.332 534.443 997.281 535.482 998.499C536.521 999.681 537.309 1001.1 537.846 1002.74C538.419 1004.39 538.706 1006.2 538.706 1008.17V1010.21H518.772V1011.5C518.772 1012.68 518.951 1013.79 519.309 1014.83C519.703 1015.84 520.241 1016.71 520.921 1017.47C521.638 1018.22 522.497 1018.81 523.5 1019.24C524.539 1019.67 525.703 1019.88 526.993 1019.88C528.748 1019.88 530.27 1019.47 531.56 1018.65C532.885 1017.82 533.906 1016.64 534.622 1015.1L537.685 1017.3C536.79 1019.2 535.393 1020.74 533.494 1021.93C531.596 1023.07 529.339 1023.64 526.724 1023.64ZM526.724 998.231C525.542 998.231 524.468 998.445 523.5 998.875C522.533 999.269 521.691 999.842 520.975 1000.59C520.295 1001.35 519.757 1002.24 519.363 1003.28C518.969 1004.28 518.772 1005.39 518.772 1006.61V1006.99H534.085V1006.4C534.085 1003.93 533.405 1001.96 532.043 1000.49C530.718 998.983 528.945 998.231 526.724 998.231ZM545.789 1023V995.275H550.087V999.789H550.302C550.983 998.213 551.932 996.959 553.15 996.028C554.404 995.096 556.069 994.631 558.147 994.631C561.013 994.631 563.269 995.562 564.917 997.425C566.6 999.251 567.442 1001.85 567.442 1005.22V1023H563.144V1005.97C563.144 1000.99 561.048 998.499 556.857 998.499C555.998 998.499 555.156 998.607 554.332 998.822C553.544 999.036 552.828 999.359 552.183 999.789C551.538 1000.22 551.019 1000.77 550.625 1001.45C550.267 1002.1 550.087 1002.87 550.087 1003.76V1023H545.789ZM594.058 1018.49H593.843C592.159 1021.93 589.455 1023.64 585.73 1023.64C584.01 1023.64 582.452 1023.3 581.055 1022.62C579.658 1021.94 578.458 1020.98 577.455 1019.72C576.488 1018.47 575.736 1016.95 575.199 1015.16C574.697 1013.36 574.446 1011.36 574.446 1009.14C574.446 1006.92 574.697 1004.91 575.199 1003.12C575.736 1001.33 576.488 999.807 577.455 998.553C578.458 997.299 579.658 996.332 581.055 995.651C582.452 994.971 584.01 994.631 585.73 994.631C587.664 994.631 589.312 995.06 590.673 995.92C592.07 996.744 593.127 998.033 593.843 999.789H594.058V983.24H598.356V1023H594.058V1018.49ZM586.912 1019.78C587.879 1019.78 588.792 1019.65 589.652 1019.4C590.547 1019.15 591.318 1018.79 591.962 1018.33C592.607 1017.82 593.109 1017.23 593.467 1016.55C593.861 1015.84 594.058 1015.03 594.058 1014.13V1003.82C594.058 1003.07 593.861 1002.37 593.467 1001.72C593.109 1001.04 592.607 1000.47 591.962 1000C591.318 999.538 590.547 999.18 589.652 998.929C588.792 998.642 587.879 998.499 586.912 998.499C584.476 998.499 582.56 999.269 581.163 1000.81C579.766 1002.31 579.067 1004.3 579.067 1006.77V1011.5C579.067 1013.97 579.766 1015.98 581.163 1017.52C582.56 1019.02 584.476 1019.78 586.912 1019.78Z" fill="black"/>
<path d="M760.414 799.414C761.195 798.633 761.195 797.367 760.414 796.586L747.686 783.858C746.905 783.077 745.639 783.077 744.858 783.858C744.077 784.639 744.077 785.905 744.858 786.686L756.172 798L744.858 809.314C744.077 810.095 744.077 811.361 744.858 812.142C745.639 812.923 746.905 812.923 747.686 812.142L760.414 799.414ZM715 800H759V796H715V800Z" fill="#B0ADAD"/>
<path d="M476.432 800.404C477.208 799.617 477.199 798.351 476.412 797.576L463.592 784.94C462.805 784.165 461.539 784.174 460.764 784.961C459.988 785.747 459.998 787.014 460.784 787.789L472.18 799.02L460.948 810.416C460.173 811.203 460.182 812.469 460.969 813.244C461.755 814.02 463.022 814.01 463.797 813.224L476.432 800.404ZM337.014 802L475.022 801L474.993 797L336.986 798L337.014 802Z" fill="#B0ADAD"/>
<path d="M473.414 755.414C474.195 754.633 474.195 753.367 473.414 752.586L460.686 739.858C459.905 739.077 458.639 739.077 457.858 739.858C457.077 740.639 457.077 741.905 457.858 742.686L469.172 754L457.858 765.314C457.077 766.095 457.077 767.361 457.858 768.142C458.639 768.923 459.905 768.923 460.686 768.142L473.414 755.414ZM374 456V734H378V456H374ZM396 756H472V752H396V756ZM374 734C374 746.15 383.85 756 396 756V752C386.059 752 378 743.941 378 734H374Z" fill="#B0ADAD"/>
<path d="M476.414 579.414C477.195 578.633 477.195 577.367 476.414 576.586L463.686 563.858C462.905 563.077 461.639 563.077 460.858 563.858C460.077 564.639 460.077 565.905 460.858 566.686L472.172 578L460.858 589.314C460.077 590.095 460.077 591.361 460.858 592.142C461.639 592.923 462.905 592.923 463.686 592.142L476.414 579.414ZM374 541V558H378V541H374ZM396 580H475V576H396V580ZM374 558C374 570.15 383.85 580 396 580V576C386.059 576 378 567.941 378 558H374Z" fill="#B0ADAD"/>
<path d="M680.586 520.414C681.367 521.195 682.633 521.195 683.414 520.414L696.142 507.686C696.923 506.905 696.923 505.639 696.142 504.858C695.361 504.077 694.095 504.077 693.314 504.858L682 516.172L670.686 504.858C669.905 504.077 668.639 504.077 667.858 504.858C667.077 505.639 667.077 506.905 667.858 507.686L680.586 520.414ZM680 456L680 519L684 519L684 456L680 456Z" fill="#B0ADAD"/>
<rect x="1060" y="147" width="267" height="767" rx="19.7568" fill="#E1F8E1" stroke="#209B1D" stroke-width="2"/>
<path d="M1088.3 484.36H1091.42V495.8L1091.1 500.76H1091.26L1093.82 496.36L1102.06 484.36H1105.02V505H1101.9V493.56L1102.22 488.6H1102.06L1099.5 493L1091.26 505H1088.3V484.36ZM1111.81 484.36H1115.01V492.96H1125.33V484.36H1128.53V505H1125.33V495.76H1115.01V505H1111.81V484.36ZM1139.77 487.16H1132.73V484.36H1150.01V487.16H1142.97V505H1139.77V487.16ZM1161.45 505.48C1160.04 505.48 1158.76 505.227 1157.61 504.72C1156.49 504.213 1155.52 503.493 1154.69 502.56C1153.89 501.6 1153.26 500.467 1152.81 499.16C1152.38 497.827 1152.17 496.333 1152.17 494.68C1152.17 493.053 1152.38 491.573 1152.81 490.24C1153.26 488.907 1153.89 487.773 1154.69 486.84C1155.52 485.88 1156.49 485.147 1157.61 484.64C1158.76 484.133 1160.04 483.88 1161.45 483.88C1162.84 483.88 1164.08 484.133 1165.17 484.64C1166.26 485.147 1167.2 485.853 1167.97 486.76C1168.74 487.64 1169.33 488.693 1169.73 489.92C1170.16 491.147 1170.37 492.493 1170.37 493.96V495.48H1155.53V496.44C1155.53 497.32 1155.66 498.147 1155.93 498.92C1156.22 499.667 1156.62 500.32 1157.13 500.88C1157.66 501.44 1158.3 501.88 1159.05 502.2C1159.82 502.52 1160.69 502.68 1161.65 502.68C1162.96 502.68 1164.09 502.373 1165.05 501.76C1166.04 501.147 1166.8 500.267 1167.33 499.12L1169.61 500.76C1168.94 502.173 1167.9 503.32 1166.49 504.2C1165.08 505.053 1163.4 505.48 1161.45 505.48ZM1161.45 486.56C1160.57 486.56 1159.77 486.72 1159.05 487.04C1158.33 487.333 1157.7 487.76 1157.17 488.32C1156.66 488.88 1156.26 489.547 1155.97 490.32C1155.68 491.067 1155.53 491.893 1155.53 492.8V493.08H1166.93V492.64C1166.93 490.8 1166.42 489.333 1165.41 488.24C1164.42 487.12 1163.1 486.56 1161.45 486.56ZM1175.64 484.36H1188.68V487.16H1178.84V505H1175.64V484.36ZM1193.03 484.36H1196.23V487.72H1196.39C1196.92 486.413 1197.69 485.453 1198.71 484.84C1199.75 484.2 1200.99 483.88 1202.43 483.88C1203.71 483.88 1204.87 484.133 1205.91 484.64C1206.95 485.147 1207.83 485.867 1208.55 486.8C1209.29 487.733 1209.85 488.867 1210.23 490.2C1210.63 491.533 1210.83 493.027 1210.83 494.68C1210.83 496.333 1210.63 497.827 1210.23 499.16C1209.85 500.493 1209.29 501.627 1208.55 502.56C1207.83 503.493 1206.95 504.213 1205.91 504.72C1204.87 505.227 1203.71 505.48 1202.43 505.48C1199.63 505.48 1197.61 504.2 1196.39 501.64H1196.23V513H1193.03V484.36ZM1201.55 502.6C1203.36 502.6 1204.79 502.04 1205.83 500.92C1206.87 499.773 1207.39 498.28 1207.39 496.44V492.92C1207.39 491.08 1206.87 489.6 1205.83 488.48C1204.79 487.333 1203.36 486.76 1201.55 486.76C1200.83 486.76 1200.13 486.867 1199.47 487.08C1198.83 487.267 1198.27 487.533 1197.79 487.88C1197.31 488.227 1196.92 488.653 1196.63 489.16C1196.36 489.64 1196.23 490.16 1196.23 490.72V498.4C1196.23 499.067 1196.36 499.667 1196.63 500.2C1196.92 500.707 1197.31 501.147 1197.79 501.52C1198.27 501.867 1198.83 502.133 1199.47 502.32C1200.13 502.507 1200.83 502.6 1201.55 502.6ZM1231.23 505C1230.03 505 1229.16 504.68 1228.63 504.04C1228.12 503.4 1227.8 502.6 1227.67 501.64H1227.47C1227.01 502.92 1226.27 503.88 1225.23 504.52C1224.19 505.16 1222.95 505.48 1221.51 505.48C1219.32 505.48 1217.61 504.92 1216.39 503.8C1215.19 502.68 1214.59 501.16 1214.59 499.24C1214.59 497.293 1215.29 495.8 1216.71 494.76C1218.15 493.72 1220.37 493.2 1223.39 493.2H1227.47V491.16C1227.47 489.693 1227.07 488.573 1226.27 487.8C1225.47 487.027 1224.24 486.64 1222.59 486.64C1221.33 486.64 1220.28 486.92 1219.43 487.48C1218.6 488.04 1217.91 488.787 1217.35 489.72L1215.43 487.92C1215.99 486.8 1216.88 485.853 1218.11 485.08C1219.33 484.28 1220.88 483.88 1222.75 483.88C1225.25 483.88 1227.2 484.493 1228.59 485.72C1229.97 486.947 1230.67 488.653 1230.67 490.84V502.2H1233.03V505H1231.23ZM1222.03 502.76C1222.83 502.76 1223.56 502.667 1224.23 502.48C1224.89 502.293 1225.47 502.027 1225.95 501.68C1226.43 501.333 1226.8 500.933 1227.07 500.48C1227.33 500.027 1227.47 499.533 1227.47 499V495.6H1223.23C1221.39 495.6 1220.04 495.867 1219.19 496.4C1218.36 496.933 1217.95 497.707 1217.95 498.72V499.56C1217.95 500.573 1218.31 501.36 1219.03 501.92C1219.77 502.48 1220.77 502.76 1222.03 502.76ZM1254.24 505H1237.6V484.36H1240.8V502.2H1250.52V484.36H1253.72V502.2H1257.16V510.6H1254.24V505ZM1261.58 484.36H1264.7V495.8L1264.38 500.76H1264.54L1267.1 496.36L1275.34 484.36H1278.3V505H1275.18V493.56L1275.5 488.6H1275.34L1272.78 493L1264.54 505H1261.58V484.36ZM1283.26 502.2H1285.54L1286.86 499.16C1287.15 498.467 1287.51 497.947 1287.94 497.6C1288.36 497.227 1288.84 497 1289.38 496.92V496.76C1287.54 496.6 1286.15 496 1285.22 494.96C1284.28 493.92 1283.82 492.52 1283.82 490.76C1283.82 488.76 1284.42 487.2 1285.62 486.08C1286.82 484.933 1288.47 484.36 1290.58 484.36H1299.7V505L1296.5 505V497.08H1291.14L1288.98 502.16C1288.5 503.28 1287.96 504.04 1287.38 504.44C1286.82 504.813 1286.18 505 1285.46 505H1283.26V502.2ZM1296.5 494.36V487.16H1291.06C1289.86 487.16 1288.92 487.387 1288.26 487.84C1287.59 488.293 1287.26 489.053 1287.26 490.12V491.44C1287.26 492.507 1287.59 493.267 1288.26 493.72C1288.92 494.147 1289.86 494.36 1291.06 494.36H1296.5ZM1108.18 544.52C1108.18 542.6 1108.37 540.747 1108.74 538.96C1109.11 537.173 1109.62 535.52 1110.26 534C1110.93 532.453 1111.7 531.053 1112.58 529.8C1113.46 528.547 1114.41 527.48 1115.42 526.6H1118.46C1117.34 527.613 1116.33 528.76 1115.42 530.04C1114.54 531.32 1113.78 532.68 1113.14 534.12C1112.53 535.56 1112.05 537.027 1111.7 538.52C1111.35 540.013 1111.18 541.453 1111.18 542.84V546.28C1111.18 547.693 1111.35 549.147 1111.7 550.64C1112.05 552.133 1112.54 553.6 1113.18 555.04C1113.82 556.48 1114.58 557.84 1115.46 559.12C1116.37 560.4 1117.37 561.52 1118.46 562.48H1115.42C1114.43 561.653 1113.5 560.613 1112.62 559.36C1111.74 558.107 1110.97 556.707 1110.3 555.16C1109.66 553.613 1109.14 551.947 1108.74 550.16C1108.37 548.347 1108.18 546.467 1108.18 544.52ZM1129.46 557.48C1128.07 557.48 1126.8 557.227 1125.66 556.72C1124.51 556.213 1123.52 555.493 1122.7 554.56C1121.9 553.6 1121.27 552.467 1120.82 551.16C1120.36 549.827 1120.14 548.333 1120.14 546.68C1120.14 545.053 1120.36 543.573 1120.82 542.24C1121.27 540.907 1121.9 539.773 1122.7 538.84C1123.52 537.88 1124.51 537.147 1125.66 536.64C1126.8 536.133 1128.07 535.88 1129.46 535.88C1130.84 535.88 1132.1 536.133 1133.22 536.64C1134.36 537.147 1135.35 537.88 1136.18 538.84C1137 539.773 1137.64 540.907 1138.1 542.24C1138.55 543.573 1138.78 545.053 1138.78 546.68C1138.78 548.333 1138.55 549.827 1138.1 551.16C1137.64 552.467 1137 553.6 1136.18 554.56C1135.35 555.493 1134.36 556.213 1133.22 556.72C1132.1 557.227 1130.84 557.48 1129.46 557.48ZM1129.46 554.64C1131.19 554.64 1132.6 554.107 1133.7 553.04C1134.79 551.973 1135.34 550.347 1135.34 548.16V545.2C1135.34 543.013 1134.79 541.387 1133.7 540.32C1132.6 539.253 1131.19 538.72 1129.46 538.72C1127.72 538.72 1126.31 539.253 1125.22 540.32C1124.12 541.387 1123.58 543.013 1123.58 545.2V548.16C1123.58 550.347 1124.12 551.973 1125.22 553.04C1126.31 554.107 1127.72 554.64 1129.46 554.64ZM1147.97 539.16H1140.93V536.36H1158.21V539.16H1151.17V557H1147.97V539.16ZM1158.3 554.2H1161.02C1161.37 553.72 1161.68 553.147 1161.94 552.48C1162.21 551.813 1162.44 551.013 1162.62 550.08C1162.81 549.147 1162.96 548.04 1163.06 546.76C1163.17 545.48 1163.22 543.973 1163.22 542.24V536.36H1177.18V557H1173.98V539.16H1166.26V542.32C1166.26 544.32 1166.18 546.067 1166.02 547.56C1165.89 549.053 1165.69 550.333 1165.42 551.4C1165.18 552.467 1164.89 553.347 1164.54 554.04C1164.2 554.707 1163.82 555.24 1163.42 555.64C1162.92 556.147 1162.36 556.507 1161.74 556.72C1161.13 556.907 1160.4 557 1159.54 557H1158.3V554.2ZM1199 557C1197.8 557 1196.93 556.68 1196.4 556.04C1195.89 555.4 1195.57 554.6 1195.44 553.64H1195.24C1194.79 554.92 1194.04 555.88 1193 556.52C1191.96 557.16 1190.72 557.48 1189.28 557.48C1187.09 557.48 1185.39 556.92 1184.16 555.8C1182.96 554.68 1182.36 553.16 1182.36 551.24C1182.36 549.293 1183.07 547.8 1184.48 546.76C1185.92 545.72 1188.15 545.2 1191.16 545.2H1195.24V543.16C1195.24 541.693 1194.84 540.573 1194.04 539.8C1193.24 539.027 1192.01 538.64 1190.36 538.64C1189.11 538.64 1188.05 538.92 1187.2 539.48C1186.37 540.04 1185.68 540.787 1185.12 541.72L1183.2 539.92C1183.76 538.8 1184.65 537.853 1185.88 537.08C1187.11 536.28 1188.65 535.88 1190.52 535.88C1193.03 535.88 1194.97 536.493 1196.36 537.72C1197.75 538.947 1198.44 540.653 1198.44 542.84V554.2H1200.8V557H1199ZM1189.8 554.76C1190.6 554.76 1191.33 554.667 1192 554.48C1192.67 554.293 1193.24 554.027 1193.72 553.68C1194.2 553.333 1194.57 552.933 1194.84 552.48C1195.11 552.027 1195.24 551.533 1195.24 551V547.6H1191C1189.16 547.6 1187.81 547.867 1186.96 548.4C1186.13 548.933 1185.72 549.707 1185.72 550.72V551.56C1185.72 552.573 1186.08 553.36 1186.8 553.92C1187.55 554.48 1188.55 554.76 1189.8 554.76ZM1203.23 554.2H1205.59C1206.41 552.867 1207.08 551.2 1207.59 549.2C1208.09 547.2 1208.35 544.907 1208.35 542.32V536.36H1222.31V554.2H1225.75V562.6H1222.83V557H1206.15V562.6H1203.23V554.2ZM1219.11 554.2V539.16H1211.39V542.48C1211.39 545.227 1211.15 547.573 1210.67 549.52C1210.21 551.44 1209.67 553 1209.03 554.2H1219.11ZM1230.17 536.36H1233.37V545H1237.49L1241.49 538.68C1241.79 538.2 1242.07 537.813 1242.33 537.52C1242.6 537.2 1242.87 536.96 1243.13 536.8C1243.4 536.64 1243.68 536.533 1243.97 536.48C1244.27 536.4 1244.6 536.36 1244.97 536.36H1246.85V539.16H1244.37L1241.13 544.28C1240.92 544.627 1240.73 544.907 1240.57 545.12C1240.41 545.333 1240.25 545.52 1240.09 545.68C1239.93 545.813 1239.76 545.933 1239.57 546.04C1239.39 546.12 1239.16 546.2 1238.89 546.28V546.44C1239.45 546.52 1239.93 546.707 1240.33 547C1240.76 547.267 1241.2 547.8 1241.65 548.6L1244.81 554.2H1247.17V557H1244.85C1244.16 557 1243.52 556.827 1242.93 556.48C1242.37 556.107 1241.83 555.44 1241.29 554.48L1237.49 547.72H1233.37V557H1230.17V536.36ZM1266.78 557C1265.58 557 1264.71 556.68 1264.18 556.04C1263.67 555.4 1263.35 554.6 1263.22 553.64H1263.02C1262.56 554.92 1261.82 555.88 1260.78 556.52C1259.74 557.16 1258.5 557.48 1257.06 557.48C1254.87 557.48 1253.16 556.92 1251.94 555.8C1250.74 554.68 1250.14 553.16 1250.14 551.24C1250.14 549.293 1250.84 547.8 1252.26 546.76C1253.7 545.72 1255.92 545.2 1258.93 545.2H1263.02V543.16C1263.02 541.693 1262.62 540.573 1261.82 539.8C1261.02 539.027 1259.79 538.64 1258.14 538.64C1256.88 538.64 1255.83 538.92 1254.98 539.48C1254.15 540.04 1253.46 540.787 1252.9 541.72L1250.98 539.92C1251.54 538.8 1252.43 537.853 1253.65 537.08C1254.88 536.28 1256.43 535.88 1258.3 535.88C1260.8 535.88 1262.75 536.493 1264.14 537.72C1265.52 538.947 1266.22 540.653 1266.22 542.84V554.2H1268.57V557H1266.78ZM1257.58 554.76C1258.38 554.76 1259.11 554.667 1259.78 554.48C1260.44 554.293 1261.02 554.027 1261.5 553.68C1261.98 553.333 1262.35 552.933 1262.62 552.48C1262.88 552.027 1263.02 551.533 1263.02 551V547.6H1258.78C1256.94 547.6 1255.59 547.867 1254.74 548.4C1253.91 548.933 1253.5 549.707 1253.5 550.72V551.56C1253.5 552.573 1253.86 553.36 1254.58 553.92C1255.32 554.48 1256.32 554.76 1257.58 554.76ZM1279.82 544.52C1279.82 546.467 1279.62 548.347 1279.22 550.16C1278.85 551.947 1278.33 553.613 1277.66 555.16C1277.02 556.707 1276.26 558.107 1275.38 559.36C1274.5 560.613 1273.57 561.653 1272.58 562.48H1269.54C1270.64 561.52 1271.62 560.4 1272.5 559.12C1273.41 557.84 1274.18 556.48 1274.82 555.04C1275.46 553.6 1275.96 552.133 1276.3 550.64C1276.65 549.147 1276.82 547.693 1276.82 546.28V542.84C1276.82 541.453 1276.65 540.013 1276.3 538.52C1275.96 537.027 1275.46 535.56 1274.82 534.12C1274.21 532.68 1273.45 531.32 1272.54 530.04C1271.66 528.76 1270.66 527.613 1269.54 526.6H1272.58C1273.6 527.48 1274.54 528.547 1275.42 529.8C1276.3 531.053 1277.06 532.453 1277.7 534C1278.37 535.52 1278.89 537.173 1279.26 538.96C1279.64 540.747 1279.82 542.6 1279.82 544.52Z" fill="black"/>
</svg>
