<svg width="1269" height="214" viewBox="0 0 1269 214" fill="none" xmlns="http://www.w3.org/2000/svg">
<rect x="1.4925" y="2.98504" width="476.107" height="208.95" rx="16.4175" fill="#FFE2E1" stroke="#D59795" stroke-width="2.985"/>
<path d="M783.483 108.874C784.264 108.093 784.264 106.827 783.483 106.046L770.755 93.3177C769.974 92.5367 768.708 92.5367 767.927 93.3177C767.146 94.0988 767.146 95.3651 767.927 96.1462L779.24 107.46L767.927 118.774C767.146 119.555 767.146 120.821 767.927 121.602C768.708 122.383 769.974 122.383 770.755 121.602L783.483 108.874ZM479.092 109.46H782.069V105.46H479.092V109.46Z" fill="#D59795"/>
<path d="M139.59 89.1364H155.011C158.127 89.1364 160.563 90.014 162.318 91.7692C164.109 93.5244 165.004 95.8706 165.004 98.8078C165.004 100.205 164.807 101.387 164.413 102.354C164.019 103.321 163.518 104.127 162.909 104.772C162.3 105.381 161.637 105.846 160.921 106.169C160.205 106.455 159.542 106.652 158.933 106.76V107.082C159.614 107.118 160.366 107.297 161.19 107.62C162.049 107.942 162.855 108.461 163.608 109.178C164.36 109.858 164.987 110.754 165.488 111.864C166.025 112.939 166.294 114.246 166.294 115.786C166.294 117.327 166.043 118.76 165.542 120.085C165.076 121.41 164.413 122.556 163.554 123.524C162.694 124.491 161.673 125.261 160.491 125.834C159.309 126.371 158.02 126.64 156.623 126.64H139.59V89.1364ZM144.104 122.664H155.226C157.16 122.664 158.682 122.18 159.793 121.213C160.903 120.21 161.458 118.76 161.458 116.861V115.034C161.458 113.136 160.903 111.703 159.793 110.736C158.682 109.733 157.16 109.231 155.226 109.231H144.104V122.664ZM144.104 105.363H154.473C156.264 105.363 157.661 104.915 158.664 104.02C159.667 103.124 160.169 101.835 160.169 100.151V98.3243C160.169 96.6407 159.667 95.3512 158.664 94.4557C157.661 93.5602 156.264 93.1125 154.473 93.1125H144.104V105.363ZM194.412 126.64C192.8 126.64 191.636 126.21 190.92 125.35C190.239 124.491 189.809 123.416 189.63 122.127H189.361C188.752 123.846 187.749 125.135 186.352 125.995C184.955 126.855 183.29 127.285 181.356 127.285C178.418 127.285 176.126 126.532 174.478 125.028C172.866 123.524 172.06 121.482 172.06 118.903C172.06 116.288 173.01 114.282 174.908 112.885C176.842 111.488 179.833 110.79 183.881 110.79H189.361V108.049C189.361 106.079 188.824 104.575 187.749 103.536C186.675 102.497 185.027 101.978 182.806 101.978C181.123 101.978 179.708 102.354 178.562 103.106C177.451 103.858 176.52 104.861 175.768 106.115L173.189 103.697C173.941 102.193 175.141 100.921 176.789 99.8824C178.436 98.8078 180.514 98.2705 183.021 98.2705C186.388 98.2705 189.003 99.0944 190.866 100.742C192.728 102.39 193.66 104.682 193.66 107.62V122.879H196.83V126.64H194.412ZM182.054 123.631C183.129 123.631 184.114 123.506 185.009 123.255C185.905 123.004 186.675 122.646 187.32 122.18C187.964 121.715 188.466 121.177 188.824 120.568C189.182 119.96 189.361 119.297 189.361 118.58V114.013H183.666C181.194 114.013 179.385 114.372 178.239 115.088C177.129 115.804 176.574 116.843 176.574 118.204V119.333C176.574 120.694 177.057 121.751 178.024 122.503C179.027 123.255 180.371 123.631 182.054 123.631ZM213.281 127.285C211.347 127.285 209.609 126.944 208.069 126.264C206.529 125.583 205.221 124.616 204.147 123.362C203.108 122.109 202.302 120.586 201.729 118.795C201.192 117.004 200.923 114.998 200.923 112.778C200.923 110.557 201.192 108.551 201.729 106.76C202.302 104.969 203.108 103.447 204.147 102.193C205.221 100.939 206.529 99.972 208.069 99.2914C209.609 98.6108 211.347 98.2705 213.281 98.2705C216.039 98.2705 218.242 98.8795 219.89 100.097C221.573 101.279 222.827 102.838 223.651 104.772L220.051 106.599C219.549 105.166 218.725 104.055 217.579 103.267C216.433 102.479 215 102.085 213.281 102.085C211.991 102.085 210.863 102.3 209.896 102.73C208.929 103.124 208.123 103.697 207.478 104.449C206.833 105.166 206.35 106.043 206.027 107.082C205.705 108.085 205.544 109.196 205.544 110.413V115.142C205.544 117.577 206.188 119.583 207.478 121.159C208.803 122.7 210.738 123.47 213.281 123.47C216.755 123.47 219.263 121.858 220.803 118.634L223.919 120.73C223.024 122.736 221.681 124.33 219.89 125.512C218.134 126.694 215.931 127.285 213.281 127.285ZM229.987 86.8798H234.285V112.079H234.5L238.745 107.351L246.59 98.9153H251.801L241.539 109.876L252.822 126.64H247.61L238.423 112.509L234.285 116.754V126.64H229.987V86.8798ZM267.853 127.285C265.954 127.285 264.235 126.944 262.695 126.264C261.19 125.583 259.883 124.616 258.772 123.362C257.698 122.073 256.856 120.551 256.247 118.795C255.674 117.004 255.387 114.998 255.387 112.778C255.387 110.593 255.674 108.605 256.247 106.814C256.856 105.023 257.698 103.5 258.772 102.247C259.883 100.957 261.19 99.972 262.695 99.2914C264.235 98.6108 265.954 98.2705 267.853 98.2705C269.715 98.2705 271.381 98.6108 272.85 99.2914C274.318 99.972 275.572 100.921 276.611 102.139C277.65 103.321 278.438 104.736 278.975 106.384C279.548 108.031 279.835 109.84 279.835 111.81V113.852H259.901V115.142C259.901 116.324 260.08 117.434 260.438 118.473C260.832 119.476 261.369 120.354 262.05 121.106C262.766 121.858 263.626 122.449 264.629 122.879C265.668 123.309 266.832 123.524 268.121 123.524C269.877 123.524 271.399 123.112 272.688 122.288C274.014 121.464 275.035 120.282 275.751 118.742L278.814 120.945C277.918 122.843 276.521 124.383 274.623 125.565C272.724 126.712 270.468 127.285 267.853 127.285ZM267.853 101.87C266.671 101.87 265.596 102.085 264.629 102.515C263.662 102.909 262.82 103.482 262.104 104.235C261.423 104.987 260.886 105.882 260.492 106.921C260.098 107.924 259.901 109.034 259.901 110.252V110.628H275.214V110.037C275.214 107.566 274.533 105.596 273.172 104.127C271.847 102.623 270.074 101.87 267.853 101.87ZM286.918 126.64V98.9153H291.216V103.429H291.431C292.112 101.853 293.061 100.599 294.279 99.6675C295.532 98.7362 297.198 98.2705 299.276 98.2705C302.141 98.2705 304.398 99.2019 306.046 101.064C307.729 102.891 308.571 105.488 308.571 108.855V126.64H304.272V109.608C304.272 104.629 302.177 102.139 297.986 102.139C297.126 102.139 296.285 102.247 295.461 102.461C294.673 102.676 293.956 102.999 293.312 103.429C292.667 103.858 292.147 104.414 291.753 105.094C291.395 105.739 291.216 106.509 291.216 107.405V126.64H286.918ZM335.186 122.127H334.972C333.288 125.565 330.584 127.285 326.858 127.285C325.139 127.285 323.581 126.944 322.184 126.264C320.787 125.583 319.587 124.616 318.584 123.362C317.617 122.109 316.865 120.586 316.327 118.795C315.826 117.004 315.575 114.998 315.575 112.778C315.575 110.557 315.826 108.551 316.327 106.76C316.865 104.969 317.617 103.447 318.584 102.193C319.587 100.939 320.787 99.972 322.184 99.2914C323.581 98.6108 325.139 98.2705 326.858 98.2705C328.793 98.2705 330.44 98.7004 331.801 99.5601C333.198 100.384 334.255 101.673 334.972 103.429H335.186V86.8798H339.485V126.64H335.186V122.127ZM328.04 123.416C329.007 123.416 329.921 123.291 330.781 123.04C331.676 122.789 332.446 122.431 333.091 121.965C333.736 121.464 334.237 120.873 334.595 120.192C334.989 119.476 335.186 118.67 335.186 117.774V107.458C335.186 106.706 334.989 106.008 334.595 105.363C334.237 104.682 333.736 104.109 333.091 103.644C332.446 103.178 331.676 102.82 330.781 102.569C329.921 102.282 329.007 102.139 328.04 102.139C325.605 102.139 323.688 102.909 322.291 104.449C320.894 105.954 320.196 107.942 320.196 110.413V115.142C320.196 117.613 320.894 119.619 322.291 121.159C323.688 122.664 325.605 123.416 328.04 123.416Z" fill="black"/>
<rect x="1267.13" y="210.442" width="476.107" height="208.95" rx="16.4175" transform="rotate(-180 1267.13 210.442)" fill="#FFF2CC" stroke="#D5B555" stroke-width="2.985"/>
<path d="M924.448 126.64V89.1364H946.799V93.1125H928.961V105.685H945.241V109.661H928.961V126.64H924.448ZM952.982 126.64V98.9153H957.28L957.28 104.02H957.549C958.05 102.694 958.946 101.512 960.235 100.473C961.525 99.4347 963.298 98.9153 965.555 98.9153H967.22V103.214H964.695C962.367 103.214 960.54 103.661 959.214 104.557C957.925 105.417 957.28 106.509 957.28 107.834V126.64H952.982ZM982.926 127.285C981.063 127.285 979.362 126.944 977.821 126.264C976.281 125.583 974.956 124.616 973.845 123.362C972.771 122.073 971.929 120.551 971.32 118.795C970.711 117.004 970.407 114.998 970.407 112.778C970.407 110.593 970.711 108.605 971.32 106.814C971.929 105.023 972.771 103.5 973.845 102.247C974.956 100.957 976.281 99.972 977.821 99.2914C979.362 98.6108 981.063 98.2705 982.926 98.2705C984.788 98.2705 986.472 98.6108 987.976 99.2914C989.517 99.972 990.842 100.957 991.952 102.247C993.063 103.5 993.922 105.023 994.531 106.814C995.14 108.605 995.445 110.593 995.445 112.778C995.445 114.998 995.14 117.004 994.531 118.795C993.922 120.551 993.063 122.073 991.952 123.362C990.842 124.616 989.517 125.583 987.976 126.264C986.472 126.944 984.788 127.285 982.926 127.285ZM982.926 123.47C985.254 123.47 987.152 122.753 988.621 121.321C990.09 119.888 990.824 117.703 990.824 114.766V110.79C990.824 107.852 990.09 105.667 988.621 104.235C987.152 102.802 985.254 102.085 982.926 102.085C980.597 102.085 978.699 102.802 977.23 104.235C975.762 105.667 975.027 107.852 975.027 110.79V114.766C975.027 117.703 975.762 119.888 977.23 121.321C978.699 122.753 980.597 123.47 982.926 123.47ZM1002.51 126.64V98.9153H1006.81V103.429H1007.03C1007.71 101.853 1008.66 100.599 1009.88 99.6675C1011.13 98.7362 1012.79 98.2705 1014.87 98.2705C1017.74 98.2705 1019.99 99.2019 1021.64 101.064C1023.33 102.891 1024.17 105.488 1024.17 108.855V126.64H1019.87V109.608C1019.87 104.629 1017.77 102.139 1013.58 102.139C1012.72 102.139 1011.88 102.247 1011.06 102.461C1010.27 102.676 1009.55 102.999 1008.91 103.429C1008.26 103.858 1007.74 104.414 1007.35 105.094C1006.99 105.739 1006.81 106.509 1006.81 107.405V126.64L1002.51 126.64ZM1039.18 126.64C1037.67 126.64 1036.53 126.228 1035.74 125.404C1034.99 124.544 1034.61 123.434 1034.61 122.073V102.676H1030.04V98.9153H1032.62C1033.55 98.9153 1034.18 98.7362 1034.5 98.378C1034.86 97.984 1035.04 97.3213 1035.04 96.39V91.2319H1038.91V98.9153H1044.98V102.676H1038.91V122.879H1044.55V126.64H1039.18ZM1062.1 127.285C1060.2 127.285 1058.48 126.944 1056.94 126.264C1055.44 125.583 1054.13 124.616 1053.02 123.362C1051.95 122.073 1051.11 120.551 1050.5 118.795C1049.92 117.004 1049.64 114.998 1049.64 112.778C1049.64 110.593 1049.92 108.605 1050.5 106.814C1051.11 105.023 1051.95 103.5 1053.02 102.247C1054.13 100.957 1055.44 99.972 1056.94 99.2914C1058.48 98.6108 1060.2 98.2705 1062.1 98.2705C1063.97 98.2705 1065.63 98.6108 1067.1 99.2914C1068.57 99.972 1069.82 100.921 1070.86 102.139C1071.9 103.321 1072.69 104.736 1073.22 106.384C1073.8 108.031 1074.08 109.84 1074.08 111.81V113.852L1054.15 113.852V115.142C1054.15 116.324 1054.33 117.434 1054.69 118.473C1055.08 119.476 1055.62 120.354 1056.3 121.106C1057.02 121.858 1057.88 122.449 1058.88 122.879C1059.92 123.309 1061.08 123.524 1062.37 123.524C1064.13 123.524 1065.65 123.112 1066.94 122.288C1068.26 121.464 1069.28 120.282 1070 118.742L1073.06 120.945C1072.17 122.843 1070.77 124.383 1068.87 125.565C1066.97 126.712 1064.72 127.285 1062.1 127.285ZM1062.1 101.87C1060.92 101.87 1059.85 102.085 1058.88 102.515C1057.91 102.909 1057.07 103.482 1056.35 104.235C1055.67 104.987 1055.14 105.882 1054.74 106.921C1054.35 107.924 1054.15 109.034 1054.15 110.252V110.628L1069.46 110.628V110.037C1069.46 107.566 1068.78 105.596 1067.42 104.127C1066.1 102.623 1064.32 101.87 1062.1 101.87ZM1081.17 126.64V98.9153H1085.47V103.429H1085.68C1086.36 101.853 1087.31 100.599 1088.53 99.6675C1089.78 98.7362 1091.45 98.2705 1093.53 98.2705C1096.39 98.2705 1098.65 99.2019 1100.3 101.064C1101.98 102.891 1102.82 105.488 1102.82 108.855V126.64H1098.52V109.608C1098.52 104.629 1096.43 102.139 1092.24 102.139C1091.38 102.139 1090.53 102.247 1089.71 102.461C1088.92 102.676 1088.21 102.999 1087.56 103.429C1086.92 103.858 1086.4 104.414 1086 105.094C1085.64 105.739 1085.47 106.509 1085.47 107.405V126.64H1081.17ZM1129.44 122.127H1129.22C1127.54 125.565 1124.83 127.285 1121.11 127.285C1119.39 127.285 1117.83 126.944 1116.43 126.264C1115.04 125.583 1113.84 124.616 1112.83 123.362C1111.87 122.109 1111.11 120.586 1110.58 118.795C1110.08 117.004 1109.82 114.998 1109.82 112.778C1109.82 110.557 1110.08 108.551 1110.58 106.76C1111.11 104.969 1111.87 103.447 1112.83 102.193C1113.84 100.939 1115.04 99.972 1116.43 99.2914C1117.83 98.6108 1119.39 98.2705 1121.11 98.2705C1123.04 98.2705 1124.69 98.7004 1126.05 99.5601C1127.45 100.384 1128.5 101.673 1129.22 103.429H1129.44V86.8798H1133.73V126.64H1129.44V122.127ZM1122.29 123.416C1123.26 123.416 1124.17 123.291 1125.03 123.04C1125.93 122.789 1126.7 122.431 1127.34 121.965C1127.99 121.464 1128.49 120.873 1128.85 120.192C1129.24 119.476 1129.44 118.67 1129.44 117.774V107.458C1129.44 106.706 1129.24 106.008 1128.85 105.363C1128.49 104.682 1127.99 104.109 1127.34 103.644C1126.7 103.178 1125.93 102.82 1125.03 102.569C1124.17 102.282 1123.26 102.139 1122.29 102.139C1119.85 102.139 1117.94 102.909 1116.54 104.449C1115.14 105.954 1114.45 107.942 1114.45 110.413V115.142C1114.45 117.613 1115.14 119.619 1116.54 121.159C1117.94 122.664 1119.85 123.416 1122.29 123.416Z" fill="black"/>
</svg>
