<svg width="1353" height="856" viewBox="0 0 1353 856" fill="none" xmlns="http://www.w3.org/2000/svg">
<rect x="1.4925" y="137.492" width="956.015" height="332.015" rx="16.4175" fill="#FFE2E1" stroke="#D59795" stroke-width="2.985"/>
<path d="M1056.4 305.429C1057.19 304.656 1057.2 303.39 1056.43 302.601L1043.83 289.741C1043.06 288.952 1041.8 288.938 1041.01 289.711C1040.22 290.484 1040.2 291.75 1040.98 292.54L1052.17 303.971L1040.74 315.166C1039.95 315.939 1039.94 317.205 1040.71 317.994C1041.48 318.783 1042.75 318.796 1043.54 318.024L1056.4 305.429ZM958.979 305L1054.98 306L1055.02 302L959.021 301L958.979 305Z" fill="#D59795"/>
<path d="M1056.4 673.429C1057.19 672.656 1057.2 671.39 1056.43 670.601L1043.83 657.741C1043.06 656.952 1041.8 656.938 1041.01 657.711C1040.22 658.484 1040.2 659.75 1040.98 660.54L1052.17 671.971L1040.74 683.166C1039.95 683.939 1039.94 685.205 1040.71 685.994C1041.48 686.783 1042.75 686.796 1043.54 686.024L1056.4 673.429ZM958.979 673L1054.98 674L1055.02 670L959.021 669L958.979 673Z" fill="#D5B555"/>
<path d="M285.414 305.414C286.195 304.633 286.195 303.367 285.414 302.586L272.686 289.858C271.905 289.077 270.639 289.077 269.858 289.858C269.077 290.639 269.077 291.905 269.858 292.686L281.172 304L269.858 315.314C269.077 316.095 269.077 317.361 269.858 318.142C270.639 318.923 271.905 318.923 272.686 318.142L285.414 305.414ZM192 306H284V302H192V306Z" fill="#B0ADAD"/>
<path d="M492.414 304.414C493.195 303.633 493.195 302.367 492.414 301.586L479.686 288.858C478.905 288.077 477.639 288.077 476.858 288.858C476.077 289.639 476.077 290.905 476.858 291.686L488.172 303L476.858 314.314C476.077 315.095 476.077 316.361 476.858 317.142C477.639 317.923 478.905 317.923 479.686 317.142L492.414 304.414ZM399 305H491V301H399V305Z" fill="#B0ADAD"/>
<rect x="957.508" y="838.508" width="476.015" height="333.015" rx="16.4175" transform="rotate(-180 957.508 838.508)" fill="#FFF2CC" stroke="#D5B555" stroke-width="2.985"/>
<path d="M614.069 693V655.497H636.421V659.473H618.583V672.045H634.863V676.021H618.583V693H614.069ZM642.603 693V665.275H646.902L646.902 670.38H647.17C647.672 669.054 648.567 667.872 649.857 666.834C651.146 665.795 652.919 665.275 655.176 665.275H656.842V669.574H654.316C651.988 669.574 650.161 670.022 648.836 670.917C647.546 671.777 646.902 672.869 646.902 674.195V693H642.603ZM672.547 693.645C670.685 693.645 668.983 693.304 667.443 692.624C665.903 691.943 664.577 690.976 663.467 689.722C662.392 688.433 661.551 686.911 660.942 685.155C660.333 683.364 660.028 681.359 660.028 679.138C660.028 676.953 660.333 674.965 660.942 673.174C661.551 671.383 662.392 669.86 663.467 668.607C664.577 667.317 665.903 666.332 667.443 665.651C668.983 664.971 670.685 664.631 672.547 664.631C674.41 664.631 676.093 664.971 677.598 665.651C679.138 666.332 680.463 667.317 681.574 668.607C682.684 669.86 683.544 671.383 684.153 673.174C684.762 674.965 685.066 676.953 685.066 679.138C685.066 681.359 684.762 683.364 684.153 685.155C683.544 686.911 682.684 688.433 681.574 689.722C680.463 690.976 679.138 691.943 677.598 692.624C676.093 693.304 674.41 693.645 672.547 693.645ZM672.547 689.83C674.876 689.83 676.774 689.114 678.243 687.681C679.711 686.248 680.446 684.063 680.446 681.126V677.15C680.446 674.212 679.711 672.027 678.243 670.595C676.774 669.162 674.876 668.445 672.547 668.445C670.219 668.445 668.321 669.162 666.852 670.595C665.383 672.027 664.649 674.212 664.649 677.15V681.126C664.649 684.063 665.383 686.248 666.852 687.681C668.321 689.114 670.219 689.83 672.547 689.83ZM692.136 693V665.275H696.434V669.789H696.649C697.33 668.213 698.279 666.959 699.497 666.028C700.75 665.096 702.416 664.631 704.493 664.631C707.359 664.631 709.616 665.562 711.263 667.425C712.947 669.251 713.789 671.848 713.789 675.215V693H709.49V675.968C709.49 670.989 707.395 668.499 703.204 668.499C702.344 668.499 701.503 668.607 700.679 668.822C699.891 669.036 699.174 669.359 698.529 669.789C697.885 670.219 697.365 670.774 696.971 671.454C696.613 672.099 696.434 672.869 696.434 673.765V693H692.136ZM728.799 693C727.294 693 726.148 692.588 725.36 691.764C724.608 690.905 724.232 689.794 724.232 688.433V669.036H719.665V665.275H722.244C723.175 665.275 723.802 665.096 724.124 664.738C724.482 664.344 724.662 663.681 724.662 662.75V657.592H728.53V665.275H734.602V669.036H728.53V689.239H734.172V693H728.799ZM751.724 693.645C749.826 693.645 748.106 693.304 746.566 692.624C745.062 691.943 743.754 690.976 742.644 689.722C741.569 688.433 740.727 686.911 740.119 685.155C739.545 683.364 739.259 681.359 739.259 679.138C739.259 676.953 739.545 674.965 740.119 673.174C740.727 671.383 741.569 669.86 742.644 668.607C743.754 667.317 745.062 666.332 746.566 665.651C748.106 664.971 749.826 664.631 751.724 664.631C753.587 664.631 755.252 664.971 756.721 665.651C758.19 666.332 759.443 667.281 760.482 668.499C761.521 669.681 762.309 671.096 762.846 672.744C763.419 674.392 763.706 676.2 763.706 678.171V680.212H743.772V681.502C743.772 682.684 743.951 683.794 744.309 684.833C744.703 685.836 745.241 686.714 745.921 687.466C746.638 688.218 747.497 688.809 748.5 689.239C749.539 689.669 750.703 689.884 751.993 689.884C753.748 689.884 755.27 689.472 756.56 688.648C757.885 687.824 758.906 686.642 759.622 685.102L762.685 687.305C761.79 689.203 760.393 690.743 758.494 691.925C756.596 693.072 754.339 693.645 751.724 693.645ZM751.724 668.231C750.542 668.231 749.468 668.445 748.5 668.875C747.533 669.269 746.691 669.842 745.975 670.595C745.295 671.347 744.757 672.242 744.363 673.281C743.969 674.284 743.772 675.394 743.772 676.612V676.988H759.085V676.397C759.085 673.926 758.405 671.956 757.043 670.487C755.718 668.983 753.945 668.231 751.724 668.231ZM770.789 693V665.275H775.087V669.789H775.302C775.983 668.213 776.932 666.959 778.15 666.028C779.404 665.096 781.069 664.631 783.147 664.631C786.013 664.631 788.269 665.562 789.917 667.425C791.6 669.251 792.442 671.848 792.442 675.215V693H788.144V675.968C788.144 670.989 786.048 668.499 781.857 668.499C780.998 668.499 780.156 668.607 779.332 668.822C778.544 669.036 777.828 669.359 777.183 669.789C776.538 670.219 776.019 670.774 775.625 671.454C775.267 672.099 775.087 672.869 775.087 673.765V693H770.789ZM819.058 688.487H818.843C817.159 691.925 814.455 693.645 810.73 693.645C809.01 693.645 807.452 693.304 806.055 692.624C804.658 691.943 803.458 690.976 802.455 689.722C801.488 688.469 800.736 686.946 800.199 685.155C799.697 683.364 799.446 681.359 799.446 679.138C799.446 676.917 799.697 674.911 800.199 673.12C800.736 671.329 801.488 669.807 802.455 668.553C803.458 667.299 804.658 666.332 806.055 665.651C807.452 664.971 809.01 664.631 810.73 664.631C812.664 664.631 814.312 665.06 815.673 665.92C817.07 666.744 818.127 668.033 818.843 669.789H819.058V653.24H823.356V693H819.058V688.487ZM811.912 689.776C812.879 689.776 813.792 689.651 814.652 689.4C815.547 689.149 816.318 688.791 816.962 688.325C817.607 687.824 818.109 687.233 818.467 686.552C818.861 685.836 819.058 685.03 819.058 684.135V673.818C819.058 673.066 818.861 672.368 818.467 671.723C818.109 671.042 817.607 670.469 816.962 670.004C816.318 669.538 815.547 669.18 814.652 668.929C813.792 668.642 812.879 668.499 811.912 668.499C809.476 668.499 807.56 669.269 806.163 670.81C804.766 672.314 804.067 674.302 804.067 676.774V681.502C804.067 683.973 804.766 685.979 806.163 687.52C807.56 689.024 809.476 689.776 811.912 689.776Z" fill="black"/>
<rect x="25.5" y="161.5" width="166" height="284" rx="10.5" fill="#F2F3F2" stroke="#B0ADAD" stroke-width="3"/>
<rect x="495.5" y="161.5" width="438" height="284" rx="10.5" fill="#F2F3F2" stroke="#B0ADAD" stroke-width="3"/>
<rect x="288.5" y="161.5" width="109" height="284" rx="10.5" fill="#F2F3F2" stroke="#B0ADAD" stroke-width="3"/>
<path d="M76.3691 318.48C74.9291 318.48 73.6357 318.227 72.4891 317.72C71.3424 317.213 70.3691 316.493 69.5691 315.56C68.7957 314.627 68.1957 313.493 67.7691 312.16C67.3691 310.827 67.1691 309.333 67.1691 307.68C67.1691 306.027 67.3691 304.533 67.7691 303.2C68.1957 301.867 68.7957 300.733 69.5691 299.8C70.3691 298.867 71.3424 298.147 72.4891 297.64C73.6357 297.133 74.9291 296.88 76.3691 296.88C78.4224 296.88 80.0624 297.333 81.2891 298.24C82.5424 299.12 83.4757 300.28 84.0891 301.72L81.4091 303.08C81.0357 302.013 80.4224 301.187 79.5691 300.6C78.7157 300.013 77.6491 299.72 76.3691 299.72C75.4091 299.72 74.5691 299.88 73.8491 300.2C73.1291 300.493 72.5291 300.92 72.0491 301.48C71.5691 302.013 71.2091 302.667 70.9691 303.44C70.7291 304.187 70.6091 305.013 70.6091 305.92V309.44C70.6091 311.253 71.0891 312.747 72.0491 313.92C73.0357 315.067 74.4757 315.64 76.3691 315.64C78.9557 315.64 80.8224 314.44 81.9691 312.04L84.2891 313.6C83.6224 315.093 82.6224 316.28 81.2891 317.16C79.9824 318.04 78.3424 318.48 76.3691 318.48ZM96.3719 318.48C94.9852 318.48 93.7185 318.227 92.5719 317.72C91.4252 317.213 90.4385 316.493 89.6119 315.56C88.8119 314.6 88.1852 313.467 87.7319 312.16C87.2785 310.827 87.0519 309.333 87.0519 307.68C87.0519 306.053 87.2785 304.573 87.7319 303.24C88.1852 301.907 88.8119 300.773 89.6119 299.84C90.4385 298.88 91.4252 298.147 92.5719 297.64C93.7185 297.133 94.9852 296.88 96.3719 296.88C97.7585 296.88 99.0119 297.133 100.132 297.64C101.279 298.147 102.265 298.88 103.092 299.84C103.919 300.773 104.559 301.907 105.012 303.24C105.465 304.573 105.692 306.053 105.692 307.68C105.692 309.333 105.465 310.827 105.012 312.16C104.559 313.467 103.919 314.6 103.092 315.56C102.265 316.493 101.279 317.213 100.132 317.72C99.0119 318.227 97.7585 318.48 96.3719 318.48ZM96.3719 315.64C98.1052 315.64 99.5185 315.107 100.612 314.04C101.705 312.973 102.252 311.347 102.252 309.16V306.2C102.252 304.013 101.705 302.387 100.612 301.32C99.5185 300.253 98.1052 299.72 96.3719 299.72C94.6385 299.72 93.2252 300.253 92.1319 301.32C91.0385 302.387 90.4919 304.013 90.4919 306.2V309.16C90.4919 311.347 91.0385 312.973 92.1319 314.04C93.2252 315.107 94.6385 315.64 96.3719 315.64ZM124.155 314.64H123.995C122.741 317.2 120.728 318.48 117.955 318.48C116.675 318.48 115.515 318.227 114.475 317.72C113.435 317.213 112.541 316.493 111.795 315.56C111.075 314.627 110.515 313.493 110.115 312.16C109.741 310.827 109.555 309.333 109.555 307.68C109.555 306.027 109.741 304.533 110.115 303.2C110.515 301.867 111.075 300.733 111.795 299.8C112.541 298.867 113.435 298.147 114.475 297.64C115.515 297.133 116.675 296.88 117.955 296.88C119.395 296.88 120.621 297.2 121.635 297.84C122.675 298.453 123.461 299.413 123.995 300.72H124.155V288.4H127.355V318H124.155V314.64ZM118.835 315.6C119.555 315.6 120.235 315.507 120.875 315.32C121.541 315.133 122.115 314.867 122.595 314.52C123.075 314.147 123.448 313.707 123.715 313.2C124.008 312.667 124.155 312.067 124.155 311.4V303.72C124.155 303.16 124.008 302.64 123.715 302.16C123.448 301.653 123.075 301.227 122.595 300.88C122.115 300.533 121.541 300.267 120.875 300.08C120.235 299.867 119.555 299.76 118.835 299.76C117.021 299.76 115.595 300.333 114.555 301.48C113.515 302.6 112.995 304.08 112.995 305.92V309.44C112.995 311.28 113.515 312.773 114.555 313.92C115.595 315.04 117.021 315.6 118.835 315.6ZM141.918 318.48C140.504 318.48 139.224 318.227 138.078 317.72C136.958 317.213 135.984 316.493 135.158 315.56C134.358 314.6 133.731 313.467 133.278 312.16C132.851 310.827 132.638 309.333 132.638 307.68C132.638 306.053 132.851 304.573 133.278 303.24C133.731 301.907 134.358 300.773 135.158 299.84C135.984 298.88 136.958 298.147 138.078 297.64C139.224 297.133 140.504 296.88 141.918 296.88C143.304 296.88 144.544 297.133 145.638 297.64C146.731 298.147 147.664 298.853 148.438 299.76C149.211 300.64 149.798 301.693 150.198 302.92C150.624 304.147 150.838 305.493 150.838 306.96V308.48H135.998V309.44C135.998 310.32 136.131 311.147 136.398 311.92C136.691 312.667 137.091 313.32 137.598 313.88C138.131 314.44 138.771 314.88 139.518 315.2C140.291 315.52 141.158 315.68 142.118 315.68C143.424 315.68 144.558 315.373 145.518 314.76C146.504 314.147 147.264 313.267 147.798 312.12L150.078 313.76C149.411 315.173 148.371 316.32 146.958 317.2C145.544 318.053 143.864 318.48 141.918 318.48ZM141.918 299.56C141.038 299.56 140.238 299.72 139.518 300.04C138.798 300.333 138.171 300.76 137.638 301.32C137.131 301.88 136.731 302.547 136.438 303.32C136.144 304.067 135.998 304.893 135.998 305.8V306.08H147.398V305.64C147.398 303.8 146.891 302.333 145.878 301.24C144.891 300.12 143.571 299.56 141.918 299.56Z" fill="black"/>
<path d="M682.369 318.48C680.929 318.48 679.636 318.227 678.489 317.72C677.342 317.213 676.369 316.493 675.569 315.56C674.796 314.627 674.196 313.493 673.769 312.16C673.369 310.827 673.169 309.333 673.169 307.68C673.169 306.027 673.369 304.533 673.769 303.2C674.196 301.867 674.796 300.733 675.569 299.8C676.369 298.867 677.342 298.147 678.489 297.64C679.636 297.133 680.929 296.88 682.369 296.88C684.422 296.88 686.062 297.333 687.289 298.24C688.542 299.12 689.476 300.28 690.089 301.72L687.409 303.08C687.036 302.013 686.422 301.187 685.569 300.6C684.716 300.013 683.649 299.72 682.369 299.72C681.409 299.72 680.569 299.88 679.849 300.2C679.129 300.493 678.529 300.92 678.049 301.48C677.569 302.013 677.209 302.667 676.969 303.44C676.729 304.187 676.609 305.013 676.609 305.92V309.44C676.609 311.253 677.089 312.747 678.049 313.92C679.036 315.067 680.476 315.64 682.369 315.64C684.956 315.64 686.822 314.44 687.969 312.04L690.289 313.6C689.622 315.093 688.622 316.28 687.289 317.16C685.982 318.04 684.342 318.48 682.369 318.48ZM702.372 318.48C700.985 318.48 699.719 318.227 698.572 317.72C697.425 317.213 696.439 316.493 695.612 315.56C694.812 314.6 694.185 313.467 693.732 312.16C693.279 310.827 693.052 309.333 693.052 307.68C693.052 306.053 693.279 304.573 693.732 303.24C694.185 301.907 694.812 300.773 695.612 299.84C696.439 298.88 697.425 298.147 698.572 297.64C699.719 297.133 700.985 296.88 702.372 296.88C703.759 296.88 705.012 297.133 706.132 297.64C707.279 298.147 708.265 298.88 709.092 299.84C709.919 300.773 710.559 301.907 711.012 303.24C711.465 304.573 711.692 306.053 711.692 307.68C711.692 309.333 711.465 310.827 711.012 312.16C710.559 313.467 709.919 314.6 709.092 315.56C708.265 316.493 707.279 317.213 706.132 317.72C705.012 318.227 703.759 318.48 702.372 318.48ZM702.372 315.64C704.105 315.64 705.519 315.107 706.612 314.04C707.705 312.973 708.252 311.347 708.252 309.16V306.2C708.252 304.013 707.705 302.387 706.612 301.32C705.519 300.253 704.105 299.72 702.372 299.72C700.639 299.72 699.225 300.253 698.132 301.32C697.039 302.387 696.492 304.013 696.492 306.2V309.16C696.492 311.347 697.039 312.973 698.132 314.04C699.225 315.107 700.639 315.64 702.372 315.64ZM730.155 314.64H729.995C728.741 317.2 726.728 318.48 723.955 318.48C722.675 318.48 721.515 318.227 720.475 317.72C719.435 317.213 718.541 316.493 717.795 315.56C717.075 314.627 716.515 313.493 716.115 312.16C715.741 310.827 715.555 309.333 715.555 307.68C715.555 306.027 715.741 304.533 716.115 303.2C716.515 301.867 717.075 300.733 717.795 299.8C718.541 298.867 719.435 298.147 720.475 297.64C721.515 297.133 722.675 296.88 723.955 296.88C725.395 296.88 726.621 297.2 727.635 297.84C728.675 298.453 729.461 299.413 729.995 300.72H730.155V288.4H733.355V318H730.155V314.64ZM724.835 315.6C725.555 315.6 726.235 315.507 726.875 315.32C727.541 315.133 728.115 314.867 728.595 314.52C729.075 314.147 729.448 313.707 729.715 313.2C730.008 312.667 730.155 312.067 730.155 311.4V303.72C730.155 303.16 730.008 302.64 729.715 302.16C729.448 301.653 729.075 301.227 728.595 300.88C728.115 300.533 727.541 300.267 726.875 300.08C726.235 299.867 725.555 299.76 724.835 299.76C723.021 299.76 721.595 300.333 720.555 301.48C719.515 302.6 718.995 304.08 718.995 305.92V309.44C718.995 311.28 719.515 312.773 720.555 313.92C721.595 315.04 723.021 315.6 724.835 315.6ZM747.918 318.48C746.504 318.48 745.224 318.227 744.078 317.72C742.958 317.213 741.984 316.493 741.158 315.56C740.358 314.6 739.731 313.467 739.278 312.16C738.851 310.827 738.638 309.333 738.638 307.68C738.638 306.053 738.851 304.573 739.278 303.24C739.731 301.907 740.358 300.773 741.158 299.84C741.984 298.88 742.958 298.147 744.078 297.64C745.224 297.133 746.504 296.88 747.918 296.88C749.304 296.88 750.544 297.133 751.638 297.64C752.731 298.147 753.664 298.853 754.438 299.76C755.211 300.64 755.798 301.693 756.198 302.92C756.624 304.147 756.838 305.493 756.838 306.96V308.48H741.998V309.44C741.998 310.32 742.131 311.147 742.398 311.92C742.691 312.667 743.091 313.32 743.598 313.88C744.131 314.44 744.771 314.88 745.518 315.2C746.291 315.52 747.158 315.68 748.118 315.68C749.424 315.68 750.558 315.373 751.518 314.76C752.504 314.147 753.264 313.267 753.798 312.12L756.078 313.76C755.411 315.173 754.371 316.32 752.958 317.2C751.544 318.053 749.864 318.48 747.918 318.48ZM747.918 299.56C747.038 299.56 746.238 299.72 745.518 300.04C744.798 300.333 744.171 300.76 743.638 301.32C743.131 301.88 742.731 302.547 742.438 303.32C742.144 304.067 741.998 304.893 741.998 305.8V306.08H753.398V305.64C753.398 303.8 752.891 302.333 751.878 301.24C750.891 300.12 749.571 299.56 747.918 299.56Z" fill="black"/>
<path d="M355.48 415.451C355.48 416.891 355.227 418.185 354.72 419.331C354.213 420.478 353.493 421.451 352.56 422.251C351.627 423.025 350.493 423.625 349.16 424.051C347.827 424.451 346.333 424.651 344.68 424.651C343.027 424.651 341.533 424.451 340.2 424.051C338.867 423.625 337.733 423.025 336.8 422.251C335.867 421.451 335.147 420.478 334.64 419.331C334.133 418.185 333.88 416.891 333.88 415.451C333.88 413.398 334.333 411.758 335.24 410.531C336.12 409.278 337.28 408.345 338.72 407.731L340.08 410.411C339.013 410.785 338.187 411.398 337.6 412.251C337.013 413.105 336.72 414.171 336.72 415.451C336.72 416.411 336.88 417.251 337.2 417.971C337.493 418.691 337.92 419.291 338.48 419.771C339.013 420.251 339.667 420.611 340.44 420.851C341.187 421.091 342.013 421.211 342.92 421.211L346.44 421.211C348.253 421.211 349.747 420.731 350.92 419.771C352.067 418.785 352.64 417.345 352.64 415.451C352.64 412.865 351.44 410.998 349.04 409.851L350.6 407.531C352.093 408.198 353.28 409.198 354.16 410.531C355.04 411.838 355.48 413.478 355.48 415.451ZM355.48 395.448C355.48 396.835 355.227 398.102 354.72 399.248C354.213 400.395 353.493 401.382 352.56 402.208C351.6 403.008 350.467 403.635 349.16 404.088C347.827 404.542 346.333 404.768 344.68 404.768C343.053 404.768 341.573 404.542 340.24 404.088C338.907 403.635 337.773 403.008 336.84 402.208C335.88 401.382 335.147 400.395 334.64 399.248C334.133 398.102 333.88 396.835 333.88 395.448C333.88 394.062 334.133 392.808 334.64 391.688C335.147 390.542 335.88 389.555 336.84 388.728C337.773 387.902 338.907 387.262 340.24 386.808C341.573 386.355 343.053 386.128 344.68 386.128C346.333 386.128 347.827 386.355 349.16 386.808C350.467 387.262 351.6 387.902 352.56 388.728C353.493 389.555 354.213 390.542 354.72 391.688C355.227 392.808 355.48 394.062 355.48 395.448ZM352.64 395.448C352.64 393.715 352.107 392.302 351.04 391.208C349.973 390.115 348.347 389.568 346.16 389.568L343.2 389.568C341.013 389.568 339.387 390.115 338.32 391.208C337.253 392.302 336.72 393.715 336.72 395.448C336.72 397.182 337.253 398.595 338.32 399.688C339.387 400.782 341.013 401.328 343.2 401.328L346.16 401.328C348.347 401.328 349.973 400.782 351.04 399.688C352.107 398.595 352.64 397.182 352.64 395.448ZM355 380.866L334.36 380.866L334.36 377.666L337.72 377.666L337.72 377.506C336.547 376.999 335.613 376.292 334.92 375.386C334.227 374.452 333.88 373.212 333.88 371.666C333.88 369.532 334.573 367.852 335.96 366.626C337.32 365.372 339.253 364.746 341.76 364.746L355 364.746L355 367.946L342.32 367.946C338.613 367.946 336.76 369.506 336.76 372.626C336.76 373.266 336.84 373.892 337 374.506C337.16 375.092 337.4 375.626 337.72 376.106C338.04 376.586 338.453 376.972 338.96 377.266C339.44 377.532 340.013 377.666 340.68 377.666L355 377.666L355 380.866ZM355 353.571C355 354.691 354.693 355.545 354.08 356.131C353.44 356.691 352.613 356.971 351.6 356.971L337.16 356.971L337.16 360.371L334.36 360.371L334.36 358.451C334.36 357.758 334.227 357.291 333.96 357.051C333.667 356.785 333.173 356.651 332.48 356.651L328.64 356.651L328.64 353.771L334.36 353.771L334.36 349.251L337.16 349.251L337.16 353.771L352.2 353.771L352.2 349.571L355 349.571L355 353.571ZM355 344.108L334.36 344.108L334.36 340.908L338.16 340.908L338.16 340.708C337.173 340.334 336.293 339.668 335.52 338.708C334.747 337.748 334.36 336.428 334.36 334.748L334.36 333.508L337.56 333.508L337.56 335.388C337.56 337.121 337.893 338.481 338.56 339.468C339.2 340.428 340.013 340.908 341 340.908L355 340.908L355 344.108ZM355 314.577C355 315.777 354.68 316.643 354.04 317.177C353.4 317.683 352.6 318.003 351.64 318.137L351.64 318.337C352.92 318.79 353.88 319.537 354.52 320.577C355.16 321.617 355.48 322.857 355.48 324.297C355.48 326.483 354.92 328.19 353.8 329.417C352.68 330.617 351.16 331.217 349.24 331.217C347.293 331.217 345.8 330.51 344.76 329.097C343.72 327.657 343.2 325.43 343.2 322.417L343.2 318.337L341.16 318.337C339.693 318.337 338.573 318.737 337.8 319.537C337.027 320.337 336.64 321.563 336.64 323.217C336.64 324.47 336.92 325.523 337.48 326.377C338.04 327.203 338.787 327.897 339.72 328.457L337.92 330.377C336.8 329.817 335.853 328.923 335.08 327.697C334.28 326.47 333.88 324.923 333.88 323.057C333.88 320.55 334.493 318.603 335.72 317.217C336.947 315.83 338.653 315.137 340.84 315.137L352.2 315.137L352.2 312.777L355 312.777L355 314.577ZM352.76 323.777C352.76 322.977 352.667 322.243 352.48 321.577C352.293 320.91 352.027 320.337 351.68 319.857C351.333 319.377 350.933 319.003 350.48 318.737C350.027 318.47 349.533 318.337 349 318.337L345.6 318.337L345.6 322.577C345.6 324.417 345.867 325.763 346.4 326.617C346.933 327.443 347.707 327.857 348.72 327.857L349.56 327.857C350.573 327.857 351.36 327.497 351.92 326.777C352.48 326.03 352.76 325.03 352.76 323.777ZM355.48 300.529C355.48 301.969 355.227 303.263 354.72 304.409C354.213 305.556 353.493 306.529 352.56 307.329C351.627 308.103 350.493 308.703 349.16 309.129C347.827 309.529 346.333 309.729 344.68 309.729C343.027 309.729 341.533 309.529 340.2 309.129C338.867 308.703 337.733 308.103 336.8 307.329C335.867 306.529 335.147 305.556 334.64 304.409C334.133 303.263 333.88 301.969 333.88 300.529C333.88 298.476 334.333 296.836 335.24 295.609C336.12 294.356 337.28 293.423 338.72 292.809L340.08 295.489C339.013 295.863 338.187 296.476 337.6 297.329C337.013 298.183 336.72 299.249 336.72 300.529C336.72 301.489 336.88 302.329 337.2 303.049C337.493 303.769 337.92 304.369 338.48 304.849C339.013 305.329 339.667 305.689 340.44 305.929C341.187 306.169 342.013 306.289 342.92 306.289L346.44 306.289C348.253 306.289 349.747 305.809 350.92 304.849C352.067 303.863 352.64 302.423 352.64 300.529C352.64 297.943 351.44 296.076 349.04 294.929L350.6 292.609C352.093 293.276 353.28 294.276 354.16 295.609C355.04 296.916 355.48 298.556 355.48 300.529ZM355 283.532C355 284.652 354.693 285.506 354.08 286.092C353.44 286.652 352.613 286.932 351.6 286.932L337.16 286.932L337.16 290.332L334.36 290.332L334.36 288.412C334.36 287.719 334.227 287.252 333.96 287.012C333.667 286.746 333.173 286.612 332.48 286.612L328.64 286.612L328.64 283.732L334.36 283.732L334.36 279.212L337.16 279.212L337.16 283.732L352.2 283.732L352.2 279.532L355 279.532L355 283.532Z" fill="black"/>
<path d="M344.55 197H343.45C342.124 197 340.852 197.527 339.914 198.464C338.977 199.402 338.45 200.674 338.45 202V202.45C338.449 203.327 338.218 204.188 337.779 204.947C337.34 205.706 336.709 206.337 335.95 206.775L334.875 207.4C334.115 207.839 333.253 208.07 332.375 208.07C331.497 208.07 330.635 207.839 329.875 207.4L329.5 207.2C328.353 206.538 326.99 206.359 325.71 206.701C324.43 207.043 323.339 207.879 322.675 209.025L322.125 209.975C321.463 211.122 321.284 212.485 321.626 213.765C321.968 215.045 322.804 216.136 323.95 216.8L324.325 217.05C325.081 217.486 325.709 218.113 326.148 218.867C326.586 219.621 326.82 220.477 326.825 221.35V222.625C326.829 223.506 326.599 224.372 326.16 225.136C325.721 225.9 325.088 226.534 324.325 226.975L323.95 227.2C322.804 227.864 321.968 228.955 321.626 230.235C321.284 231.515 321.463 232.878 322.125 234.025L322.675 234.975C323.339 236.121 324.43 236.957 325.71 237.299C326.99 237.641 328.353 237.462 329.5 236.8L329.875 236.6C330.635 236.161 331.497 235.93 332.375 235.93C333.253 235.93 334.115 236.161 334.875 236.6L335.95 237.225C336.709 237.663 337.34 238.294 337.779 239.053C338.218 239.812 338.449 240.673 338.45 241.55V242C338.45 243.326 338.977 244.598 339.914 245.536C340.852 246.473 342.124 247 343.45 247H344.55C345.876 247 347.148 246.473 348.086 245.536C349.023 244.598 349.55 243.326 349.55 242V241.55C349.551 240.673 349.782 239.812 350.221 239.053C350.66 238.294 351.291 237.663 352.05 237.225L353.125 236.6C353.885 236.161 354.747 235.93 355.625 235.93C356.503 235.93 357.365 236.161 358.125 236.6L358.5 236.8C359.647 237.462 361.01 237.641 362.29 237.299C363.57 236.957 364.661 236.121 365.325 234.975L365.875 234C366.537 232.853 366.716 231.49 366.374 230.21C366.032 228.93 365.196 227.839 364.05 227.175L363.675 226.975C362.912 226.534 362.279 225.9 361.84 225.136C361.401 224.372 361.172 223.506 361.175 222.625V221.375C361.172 220.494 361.401 219.628 361.84 218.864C362.279 218.1 362.912 217.466 363.675 217.025L364.05 216.8C365.196 216.136 366.032 215.045 366.374 213.765C366.716 212.485 366.537 211.122 365.875 209.975L365.325 209.025C364.661 207.879 363.57 207.043 362.29 206.701C361.01 206.359 359.647 206.538 358.5 207.2L358.125 207.4C357.365 207.839 356.503 208.07 355.625 208.07C354.747 208.07 353.885 207.839 353.125 207.4L352.05 206.775C351.291 206.337 350.66 205.706 350.221 204.947C349.782 204.188 349.551 203.327 349.55 202.45V202C349.55 200.674 349.023 199.402 348.086 198.464C347.148 197.527 345.876 197 344.55 197Z" stroke="black" stroke-width="2" stroke-linecap="round" stroke-linejoin="round"/>
<path d="M344 229.5C348.142 229.5 351.5 226.142 351.5 222C351.5 217.858 348.142 214.5 344 214.5C339.858 214.5 336.5 217.858 336.5 222C336.5 226.142 339.858 229.5 344 229.5Z" stroke="black" stroke-width="2" stroke-linecap="round" stroke-linejoin="round"/>
<path d="M375.266 17.4965H390.686C393.802 17.4965 396.238 18.3741 397.993 20.1293C399.784 21.8845 400.68 24.2307 400.68 27.1679C400.68 28.5649 400.483 29.7469 400.089 30.7141C399.695 31.6812 399.193 32.4872 398.584 33.1319C397.975 33.7409 397.313 34.2065 396.596 34.5289C395.88 34.8155 395.217 35.0125 394.608 35.1199V35.4423C395.289 35.4781 396.041 35.6572 396.865 35.9796C397.725 36.302 398.531 36.8214 399.283 37.5378C400.035 38.2184 400.662 39.1139 401.163 40.2243C401.701 41.2989 401.969 42.6063 401.969 44.1466C401.969 45.6868 401.719 47.1196 401.217 48.4449C400.751 49.7703 400.089 50.9165 399.229 51.8837C398.369 52.8508 397.349 53.6209 396.166 54.1941C394.984 54.7314 393.695 55 392.298 55H375.266V17.4965ZM379.779 51.024H390.901C392.835 51.024 394.358 50.5404 395.468 49.5733C396.578 48.5703 397.134 47.1196 397.134 45.2212V43.3943C397.134 41.4959 396.578 40.0631 395.468 39.0959C394.358 38.093 392.835 37.5915 390.901 37.5915H379.779V51.024ZM379.779 33.723H390.149C391.94 33.723 393.337 33.2752 394.34 32.3797C395.343 31.4842 395.844 30.1947 395.844 28.5111V26.6843C395.844 25.0008 395.343 23.7113 394.34 22.8158C393.337 21.9203 391.94 21.4725 390.149 21.4725H379.779V33.723ZM430.087 55C428.475 55 427.311 54.5702 426.595 53.7105C425.914 52.8508 425.484 51.7762 425.305 50.4867H425.037C424.428 52.206 423.425 53.4956 422.028 54.3552C420.631 55.2149 418.965 55.6448 417.031 55.6448C414.094 55.6448 411.801 54.8925 410.153 53.3881C408.542 51.8837 407.736 49.8419 407.736 47.2629C407.736 44.648 408.685 42.6421 410.583 41.2451C412.518 39.8482 415.509 39.1497 419.556 39.1497H425.037V36.4094C425.037 34.4394 424.499 32.9349 423.425 31.8961C422.35 30.8574 420.702 30.338 418.482 30.338C416.798 30.338 415.383 30.7141 414.237 31.4663C413.127 32.2185 412.195 33.2215 411.443 34.4752L408.864 32.0573C409.616 30.5529 410.816 29.2813 412.464 28.2425C414.112 27.1679 416.189 26.6306 418.697 26.6306C422.064 26.6306 424.678 27.4545 426.541 29.1022C428.404 30.7499 429.335 33.0424 429.335 35.9796V51.2389H432.505V55H430.087ZM417.729 51.9911C418.804 51.9911 419.789 51.8658 420.685 51.615C421.58 51.3643 422.35 51.0061 422.995 50.5404C423.64 50.0748 424.141 49.5375 424.499 48.9285C424.858 48.3196 425.037 47.6569 425.037 46.9405V42.3735H419.341C416.87 42.3735 415.061 42.7317 413.915 43.4481C412.804 44.1645 412.249 45.2032 412.249 46.5644V47.6927C412.249 49.0539 412.732 50.1106 413.7 50.8628C414.703 51.615 416.046 51.9911 417.729 51.9911ZM448.956 55.6448C447.022 55.6448 445.285 55.3045 443.744 54.6239C442.204 53.9433 440.897 52.9762 439.822 51.7225C438.783 50.4688 437.977 48.9464 437.404 47.1554C436.867 45.3644 436.598 43.3585 436.598 41.1377C436.598 38.9168 436.867 36.9109 437.404 35.1199C437.977 33.3289 438.783 31.8066 439.822 30.5529C440.897 29.2992 442.204 28.3321 443.744 27.6515C445.285 26.9709 447.022 26.6306 448.956 26.6306C451.714 26.6306 453.917 27.2395 455.565 28.4574C457.248 29.6395 458.502 31.1976 459.326 33.1319L455.726 34.9587C455.225 33.5259 454.401 32.4155 453.254 31.6275C452.108 30.8394 450.675 30.4454 448.956 30.4454C447.667 30.4454 446.538 30.6603 445.571 31.0902C444.604 31.4842 443.798 32.0573 443.153 32.8095C442.509 33.5259 442.025 34.4035 441.703 35.4423C441.38 36.4453 441.219 37.5557 441.219 38.7736V43.5018C441.219 45.9376 441.864 47.9435 443.153 49.5195C444.479 51.0598 446.413 51.8299 448.956 51.8299C452.431 51.8299 454.938 50.218 456.478 46.9942L459.595 49.0897C458.699 51.0956 457.356 52.6896 455.565 53.8717C453.81 55.0537 451.607 55.6448 448.956 55.6448ZM465.662 15.2399H469.961V40.4392H470.176L474.42 35.711L482.265 27.2754H487.477L477.214 38.2363L488.498 55H483.286L474.098 40.869L469.961 45.1137V55H465.662V15.2399ZM503.528 55.6448C501.63 55.6448 499.91 55.3045 498.37 54.6239C496.866 53.9433 495.558 52.9762 494.448 51.7225C493.373 50.433 492.531 48.9106 491.922 47.1554C491.349 45.3644 491.063 43.3585 491.063 41.1377C491.063 38.9527 491.349 36.9647 491.922 35.1737C492.531 33.3827 493.373 31.8603 494.448 30.6066C495.558 29.3171 496.866 28.3321 498.37 27.6515C499.91 26.9709 501.63 26.6306 503.528 26.6306C505.391 26.6306 507.056 26.9709 508.525 27.6515C509.994 28.3321 511.247 29.2813 512.286 30.4992C513.325 31.6812 514.113 33.0961 514.65 34.7438C515.223 36.3915 515.51 38.2004 515.51 40.1705V42.2123H495.576V43.5018C495.576 44.6839 495.755 45.7943 496.113 46.8331C496.507 47.836 497.045 48.7136 497.725 49.4658C498.442 50.218 499.301 50.8091 500.304 51.2389C501.343 51.6687 502.507 51.8837 503.797 51.8837C505.552 51.8837 507.074 51.4717 508.364 50.6479C509.689 49.824 510.71 48.642 511.426 47.1017L514.489 49.3046C513.593 51.2031 512.196 52.7433 510.298 53.9254C508.4 55.0716 506.143 55.6448 503.528 55.6448ZM503.528 30.2305C502.346 30.2305 501.271 30.4454 500.304 30.8753C499.337 31.2693 498.495 31.8424 497.779 32.5946C497.098 33.3468 496.561 34.2423 496.167 35.2811C495.773 36.2841 495.576 37.3945 495.576 38.6124V38.9885H510.889V38.3975C510.889 35.9259 510.208 33.9558 508.847 32.4872C507.522 30.9827 505.749 30.2305 503.528 30.2305ZM522.593 55V27.2754H526.891V31.7887H527.106C527.787 30.2126 528.736 28.9589 529.954 28.0276C531.208 27.0963 532.873 26.6306 534.951 26.6306C537.816 26.6306 540.073 27.5619 541.721 29.4246C543.404 31.2514 544.246 33.8483 544.246 37.2154V55H539.948V37.9676C539.948 32.9886 537.852 30.4992 533.661 30.4992C532.802 30.4992 531.96 30.6066 531.136 30.8215C530.348 31.0365 529.632 31.3588 528.987 31.7887C528.342 32.2185 527.823 32.7737 527.429 33.4543C527.07 34.0991 526.891 34.8692 526.891 35.7647V55H522.593ZM570.862 50.4867H570.647C568.963 53.9254 566.259 55.6448 562.534 55.6448C560.814 55.6448 559.256 55.3045 557.859 54.6239C556.462 53.9433 555.262 52.9762 554.259 51.7225C553.292 50.4688 552.54 48.9464 552.003 47.1554C551.501 45.3644 551.25 43.3585 551.25 41.1377C551.25 38.9168 551.501 36.9109 552.003 35.1199C552.54 33.3289 553.292 31.8066 554.259 30.5529C555.262 29.2992 556.462 28.3321 557.859 27.6515C559.256 26.9709 560.814 26.6306 562.534 26.6306C564.468 26.6306 566.116 27.0604 567.477 27.9201C568.874 28.744 569.93 30.0335 570.647 31.7887H570.862V15.2399H575.16V55H570.862V50.4867ZM563.716 51.7762C564.683 51.7762 565.596 51.6508 566.456 51.4001C567.351 51.1494 568.122 50.7912 568.766 50.3255C569.411 49.824 569.912 49.233 570.271 48.5524C570.665 47.836 570.862 47.0301 570.862 46.1346V35.8184C570.862 35.0662 570.665 34.3677 570.271 33.723C569.912 33.0424 569.411 32.4693 568.766 32.0036C568.122 31.5379 567.351 31.1797 566.456 30.929C565.596 30.6424 564.683 30.4992 563.716 30.4992C561.28 30.4992 559.364 31.2693 557.967 32.8095C556.57 34.314 555.871 36.302 555.871 38.7736V43.5018C555.871 45.9734 556.57 47.9793 557.967 49.5195C559.364 51.024 561.28 51.7762 563.716 51.7762Z" fill="black"/>
<path d="M7 128V108C7 101.373 12.3726 96 19 96H468.576M468.576 96V66M468.576 96H947C953.627 96 959 101.373 959 108V128" stroke="black" stroke-width="3" stroke-linecap="round"/>
<path d="M401 356C399.895 356 399 356.895 399 358C399 359.105 399.895 360 401 360V356ZM478.414 671.414C479.195 670.633 479.195 669.367 478.414 668.586L465.686 655.858C464.905 655.077 463.639 655.077 462.858 655.858C462.077 656.639 462.077 657.905 462.858 658.686L474.172 670L462.858 681.314C462.077 682.095 462.077 683.361 462.858 684.142C463.639 684.923 464.905 684.923 465.686 684.142L478.414 671.414ZM401 360H416.077V356H401V360ZM434.077 378V650H438.077V378H434.077ZM456.077 672H477V668H456.077V672ZM434.077 650C434.077 662.15 443.927 672 456.077 672V668C446.136 668 438.077 659.941 438.077 650H434.077ZM416.077 360C426.018 360 434.077 368.059 434.077 378H438.077C438.077 365.85 428.227 356 416.077 356V360Z" fill="#B0ADAD"/>
<rect x="1062" y="88" width="267" height="767" rx="19.7568" fill="#E1F8E1" stroke="#209B1D" stroke-width="2"/>
<path d="M1090.3 425.36H1093.42V436.8L1093.1 441.76H1093.26L1095.82 437.36L1104.06 425.36H1107.02V446H1103.9V434.56L1104.22 429.6H1104.06L1101.5 434L1093.26 446H1090.3V425.36ZM1113.81 425.36H1117.01V433.96H1127.33V425.36H1130.53V446H1127.33V436.76H1117.01V446H1113.81V425.36ZM1141.77 428.16H1134.73V425.36H1152.01V428.16H1144.97V446H1141.77V428.16ZM1163.45 446.48C1162.04 446.48 1160.76 446.227 1159.61 445.72C1158.49 445.213 1157.52 444.493 1156.69 443.56C1155.89 442.6 1155.26 441.467 1154.81 440.16C1154.38 438.827 1154.17 437.333 1154.17 435.68C1154.17 434.053 1154.38 432.573 1154.81 431.24C1155.26 429.907 1155.89 428.773 1156.69 427.84C1157.52 426.88 1158.49 426.147 1159.61 425.64C1160.76 425.133 1162.04 424.88 1163.45 424.88C1164.84 424.88 1166.08 425.133 1167.17 425.64C1168.26 426.147 1169.2 426.853 1169.97 427.76C1170.74 428.64 1171.33 429.693 1171.73 430.92C1172.16 432.147 1172.37 433.493 1172.37 434.96V436.48H1157.53V437.44C1157.53 438.32 1157.66 439.147 1157.93 439.92C1158.22 440.667 1158.62 441.32 1159.13 441.88C1159.66 442.44 1160.3 442.88 1161.05 443.2C1161.82 443.52 1162.69 443.68 1163.65 443.68C1164.96 443.68 1166.09 443.373 1167.05 442.76C1168.04 442.147 1168.8 441.267 1169.33 440.12L1171.61 441.76C1170.94 443.173 1169.9 444.32 1168.49 445.2C1167.08 446.053 1165.4 446.48 1163.45 446.48ZM1163.45 427.56C1162.57 427.56 1161.77 427.72 1161.05 428.04C1160.33 428.333 1159.7 428.76 1159.17 429.32C1158.66 429.88 1158.26 430.547 1157.97 431.32C1157.68 432.067 1157.53 432.893 1157.53 433.8V434.08H1168.93V433.64C1168.93 431.8 1168.42 430.333 1167.41 429.24C1166.42 428.12 1165.1 427.56 1163.45 427.56ZM1177.64 425.36H1190.68V428.16H1180.84V446H1177.64V425.36ZM1195.03 425.36H1198.23V428.72H1198.39C1198.92 427.413 1199.69 426.453 1200.71 425.84C1201.75 425.2 1202.99 424.88 1204.43 424.88C1205.71 424.88 1206.87 425.133 1207.91 425.64C1208.95 426.147 1209.83 426.867 1210.55 427.8C1211.29 428.733 1211.85 429.867 1212.23 431.2C1212.63 432.533 1212.83 434.027 1212.83 435.68C1212.83 437.333 1212.63 438.827 1212.23 440.16C1211.85 441.493 1211.29 442.627 1210.55 443.56C1209.83 444.493 1208.95 445.213 1207.91 445.72C1206.87 446.227 1205.71 446.48 1204.43 446.48C1201.63 446.48 1199.61 445.2 1198.39 442.64H1198.23V454H1195.03V425.36ZM1203.55 443.6C1205.36 443.6 1206.79 443.04 1207.83 441.92C1208.87 440.773 1209.39 439.28 1209.39 437.44V433.92C1209.39 432.08 1208.87 430.6 1207.83 429.48C1206.79 428.333 1205.36 427.76 1203.55 427.76C1202.83 427.76 1202.13 427.867 1201.47 428.08C1200.83 428.267 1200.27 428.533 1199.79 428.88C1199.31 429.227 1198.92 429.653 1198.63 430.16C1198.36 430.64 1198.23 431.16 1198.23 431.72V439.4C1198.23 440.067 1198.36 440.667 1198.63 441.2C1198.92 441.707 1199.31 442.147 1199.79 442.52C1200.27 442.867 1200.83 443.133 1201.47 443.32C1202.13 443.507 1202.83 443.6 1203.55 443.6ZM1233.23 446C1232.03 446 1231.16 445.68 1230.63 445.04C1230.12 444.4 1229.8 443.6 1229.67 442.64H1229.47C1229.01 443.92 1228.27 444.88 1227.23 445.52C1226.19 446.16 1224.95 446.48 1223.51 446.48C1221.32 446.48 1219.61 445.92 1218.39 444.8C1217.19 443.68 1216.59 442.16 1216.59 440.24C1216.59 438.293 1217.29 436.8 1218.71 435.76C1220.15 434.72 1222.37 434.2 1225.39 434.2H1229.47V432.16C1229.47 430.693 1229.07 429.573 1228.27 428.8C1227.47 428.027 1226.24 427.64 1224.59 427.64C1223.33 427.64 1222.28 427.92 1221.43 428.48C1220.6 429.04 1219.91 429.787 1219.35 430.72L1217.43 428.92C1217.99 427.8 1218.88 426.853 1220.11 426.08C1221.33 425.28 1222.88 424.88 1224.75 424.88C1227.25 424.88 1229.2 425.493 1230.59 426.72C1231.97 427.947 1232.67 429.653 1232.67 431.84V443.2H1235.03V446H1233.23ZM1224.03 443.76C1224.83 443.76 1225.56 443.667 1226.23 443.48C1226.89 443.293 1227.47 443.027 1227.95 442.68C1228.43 442.333 1228.8 441.933 1229.07 441.48C1229.33 441.027 1229.47 440.533 1229.47 440V436.6H1225.23C1223.39 436.6 1222.04 436.867 1221.19 437.4C1220.36 437.933 1219.95 438.707 1219.95 439.72V440.56C1219.95 441.573 1220.31 442.36 1221.03 442.92C1221.77 443.48 1222.77 443.76 1224.03 443.76ZM1256.24 446H1239.6V425.36H1242.8V443.2H1252.52V425.36H1255.72V443.2H1259.16V451.6H1256.24V446ZM1263.58 425.36H1266.7V436.8L1266.38 441.76H1266.54L1269.1 437.36L1277.34 425.36H1280.3V446H1277.18V434.56L1277.5 429.6H1277.34L1274.78 434L1266.54 446H1263.58V425.36ZM1285.26 443.2H1287.54L1288.86 440.16C1289.15 439.467 1289.51 438.947 1289.94 438.6C1290.36 438.227 1290.84 438 1291.38 437.92V437.76C1289.54 437.6 1288.15 437 1287.22 435.96C1286.28 434.92 1285.82 433.52 1285.82 431.76C1285.82 429.76 1286.42 428.2 1287.62 427.08C1288.82 425.933 1290.47 425.36 1292.58 425.36H1301.7V446L1298.5 446V438.08H1293.14L1290.98 443.16C1290.5 444.28 1289.96 445.04 1289.38 445.44C1288.82 445.813 1288.18 446 1287.46 446H1285.26V443.2ZM1298.5 435.36V428.16H1293.06C1291.86 428.16 1290.92 428.387 1290.26 428.84C1289.59 429.293 1289.26 430.053 1289.26 431.12V432.44C1289.26 433.507 1289.59 434.267 1290.26 434.72C1290.92 435.147 1291.86 435.36 1293.06 435.36H1298.5ZM1110.18 485.52C1110.18 483.6 1110.37 481.747 1110.74 479.96C1111.11 478.173 1111.62 476.52 1112.26 475C1112.93 473.453 1113.7 472.053 1114.58 470.8C1115.46 469.547 1116.41 468.48 1117.42 467.6H1120.46C1119.34 468.613 1118.33 469.76 1117.42 471.04C1116.54 472.32 1115.78 473.68 1115.14 475.12C1114.53 476.56 1114.05 478.027 1113.7 479.52C1113.35 481.013 1113.18 482.453 1113.18 483.84V487.28C1113.18 488.693 1113.35 490.147 1113.7 491.64C1114.05 493.133 1114.54 494.6 1115.18 496.04C1115.82 497.48 1116.58 498.84 1117.46 500.12C1118.37 501.4 1119.37 502.52 1120.46 503.48H1117.42C1116.43 502.653 1115.5 501.613 1114.62 500.36C1113.74 499.107 1112.97 497.707 1112.3 496.16C1111.66 494.613 1111.14 492.947 1110.74 491.16C1110.37 489.347 1110.18 487.467 1110.18 485.52ZM1131.46 498.48C1130.07 498.48 1128.8 498.227 1127.66 497.72C1126.51 497.213 1125.52 496.493 1124.7 495.56C1123.9 494.6 1123.27 493.467 1122.82 492.16C1122.36 490.827 1122.14 489.333 1122.14 487.68C1122.14 486.053 1122.36 484.573 1122.82 483.24C1123.27 481.907 1123.9 480.773 1124.7 479.84C1125.52 478.88 1126.51 478.147 1127.66 477.64C1128.8 477.133 1130.07 476.88 1131.46 476.88C1132.84 476.88 1134.1 477.133 1135.22 477.64C1136.36 478.147 1137.35 478.88 1138.18 479.84C1139 480.773 1139.64 481.907 1140.1 483.24C1140.55 484.573 1140.78 486.053 1140.78 487.68C1140.78 489.333 1140.55 490.827 1140.1 492.16C1139.64 493.467 1139 494.6 1138.18 495.56C1137.35 496.493 1136.36 497.213 1135.22 497.72C1134.1 498.227 1132.84 498.48 1131.46 498.48ZM1131.46 495.64C1133.19 495.64 1134.6 495.107 1135.7 494.04C1136.79 492.973 1137.34 491.347 1137.34 489.16V486.2C1137.34 484.013 1136.79 482.387 1135.7 481.32C1134.6 480.253 1133.19 479.72 1131.46 479.72C1129.72 479.72 1128.31 480.253 1127.22 481.32C1126.12 482.387 1125.58 484.013 1125.58 486.2V489.16C1125.58 491.347 1126.12 492.973 1127.22 494.04C1128.31 495.107 1129.72 495.64 1131.46 495.64ZM1149.97 480.16H1142.93V477.36H1160.21V480.16H1153.17V498H1149.97V480.16ZM1160.3 495.2H1163.02C1163.37 494.72 1163.68 494.147 1163.94 493.48C1164.21 492.813 1164.44 492.013 1164.62 491.08C1164.81 490.147 1164.96 489.04 1165.06 487.76C1165.17 486.48 1165.22 484.973 1165.22 483.24V477.36H1179.18V498H1175.98V480.16H1168.26V483.32C1168.26 485.32 1168.18 487.067 1168.02 488.56C1167.89 490.053 1167.69 491.333 1167.42 492.4C1167.18 493.467 1166.89 494.347 1166.54 495.04C1166.2 495.707 1165.82 496.24 1165.42 496.64C1164.92 497.147 1164.36 497.507 1163.74 497.72C1163.13 497.907 1162.4 498 1161.54 498H1160.3V495.2ZM1201 498C1199.8 498 1198.93 497.68 1198.4 497.04C1197.89 496.4 1197.57 495.6 1197.44 494.64H1197.24C1196.79 495.92 1196.04 496.88 1195 497.52C1193.96 498.16 1192.72 498.48 1191.28 498.48C1189.09 498.48 1187.39 497.92 1186.16 496.8C1184.96 495.68 1184.36 494.16 1184.36 492.24C1184.36 490.293 1185.07 488.8 1186.48 487.76C1187.92 486.72 1190.15 486.2 1193.16 486.2H1197.24V484.16C1197.24 482.693 1196.84 481.573 1196.04 480.8C1195.24 480.027 1194.01 479.64 1192.36 479.64C1191.11 479.64 1190.05 479.92 1189.2 480.48C1188.37 481.04 1187.68 481.787 1187.12 482.72L1185.2 480.92C1185.76 479.8 1186.65 478.853 1187.88 478.08C1189.11 477.28 1190.65 476.88 1192.52 476.88C1195.03 476.88 1196.97 477.493 1198.36 478.72C1199.75 479.947 1200.44 481.653 1200.44 483.84V495.2H1202.8V498H1201ZM1191.8 495.76C1192.6 495.76 1193.33 495.667 1194 495.48C1194.67 495.293 1195.24 495.027 1195.72 494.68C1196.2 494.333 1196.57 493.933 1196.84 493.48C1197.11 493.027 1197.24 492.533 1197.24 492V488.6H1193C1191.16 488.6 1189.81 488.867 1188.96 489.4C1188.13 489.933 1187.72 490.707 1187.72 491.72V492.56C1187.72 493.573 1188.08 494.36 1188.8 494.92C1189.55 495.48 1190.55 495.76 1191.8 495.76ZM1205.23 495.2H1207.59C1208.41 493.867 1209.08 492.2 1209.59 490.2C1210.09 488.2 1210.35 485.907 1210.35 483.32V477.36H1224.31V495.2H1227.75V503.6H1224.83V498H1208.15V503.6H1205.23V495.2ZM1221.11 495.2V480.16H1213.39V483.48C1213.39 486.227 1213.15 488.573 1212.67 490.52C1212.21 492.44 1211.67 494 1211.03 495.2H1221.11ZM1232.17 477.36H1235.37V486H1239.49L1243.49 479.68C1243.79 479.2 1244.07 478.813 1244.33 478.52C1244.6 478.2 1244.87 477.96 1245.13 477.8C1245.4 477.64 1245.68 477.533 1245.97 477.48C1246.27 477.4 1246.6 477.36 1246.97 477.36H1248.85V480.16H1246.37L1243.13 485.28C1242.92 485.627 1242.73 485.907 1242.57 486.12C1242.41 486.333 1242.25 486.52 1242.09 486.68C1241.93 486.813 1241.76 486.933 1241.57 487.04C1241.39 487.12 1241.16 487.2 1240.89 487.28V487.44C1241.45 487.52 1241.93 487.707 1242.33 488C1242.76 488.267 1243.2 488.8 1243.65 489.6L1246.81 495.2H1249.17V498H1246.85C1246.16 498 1245.52 497.827 1244.93 497.48C1244.37 497.107 1243.83 496.44 1243.29 495.48L1239.49 488.72H1235.37V498H1232.17V477.36ZM1268.78 498C1267.58 498 1266.71 497.68 1266.18 497.04C1265.67 496.4 1265.35 495.6 1265.22 494.64H1265.02C1264.56 495.92 1263.82 496.88 1262.78 497.52C1261.74 498.16 1260.5 498.48 1259.06 498.48C1256.87 498.48 1255.16 497.92 1253.94 496.8C1252.74 495.68 1252.14 494.16 1252.14 492.24C1252.14 490.293 1252.84 488.8 1254.26 487.76C1255.7 486.72 1257.92 486.2 1260.93 486.2H1265.02V484.16C1265.02 482.693 1264.62 481.573 1263.82 480.8C1263.02 480.027 1261.79 479.64 1260.14 479.64C1258.88 479.64 1257.83 479.92 1256.98 480.48C1256.15 481.04 1255.46 481.787 1254.9 482.72L1252.98 480.92C1253.54 479.8 1254.43 478.853 1255.65 478.08C1256.88 477.28 1258.43 476.88 1260.3 476.88C1262.8 476.88 1264.75 477.493 1266.14 478.72C1267.52 479.947 1268.22 481.653 1268.22 483.84V495.2H1270.57V498H1268.78ZM1259.58 495.76C1260.38 495.76 1261.11 495.667 1261.78 495.48C1262.44 495.293 1263.02 495.027 1263.5 494.68C1263.98 494.333 1264.35 493.933 1264.62 493.48C1264.88 493.027 1265.02 492.533 1265.02 492V488.6H1260.78C1258.94 488.6 1257.59 488.867 1256.74 489.4C1255.91 489.933 1255.5 490.707 1255.5 491.72V492.56C1255.5 493.573 1255.86 494.36 1256.58 494.92C1257.32 495.48 1258.32 495.76 1259.58 495.76ZM1281.82 485.52C1281.82 487.467 1281.62 489.347 1281.22 491.16C1280.85 492.947 1280.33 494.613 1279.66 496.16C1279.02 497.707 1278.26 499.107 1277.38 500.36C1276.5 501.613 1275.57 502.653 1274.58 503.48H1271.54C1272.64 502.52 1273.62 501.4 1274.5 500.12C1275.41 498.84 1276.18 497.48 1276.82 496.04C1277.46 494.6 1277.96 493.133 1278.3 491.64C1278.65 490.147 1278.82 488.693 1278.82 487.28V483.84C1278.82 482.453 1278.65 481.013 1278.3 479.52C1277.96 478.027 1277.46 476.56 1276.82 475.12C1276.21 473.68 1275.45 472.32 1274.54 471.04C1273.66 469.76 1272.66 468.613 1271.54 467.6H1274.58C1275.6 468.48 1276.54 469.547 1277.42 470.8C1278.3 472.053 1279.06 473.453 1279.7 475C1280.37 476.52 1280.89 478.173 1281.26 479.96C1281.64 481.747 1281.82 483.6 1281.82 485.52Z" fill="black"/>
</svg>
