<svg width="925" height="731" viewBox="0 0 925 731" fill="none" xmlns="http://www.w3.org/2000/svg">
<rect x="923.5" y="729.5" width="318" height="263" rx="10.5" transform="rotate(-180 923.5 729.5)" fill="#F2F3F2" stroke="#B0ADAD" stroke-width="3"/>
<path d="M432.061 8.43438L347.304 100.254C343.894 103.949 342 108.792 342 113.82V298C342 309.046 350.954 318 362 318H546C557.046 318 566 309.046 566 298V22C566 10.9543 557.046 2 546 2H446.757C441.175 2 435.847 4.33274 432.061 8.43438Z" stroke="black" stroke-width="3"/>
<rect x="1.5" y="466.5" width="318" height="263" rx="10.5" fill="#FFE0C6" stroke="#BC6010" stroke-width="3"/>
<rect x="320.5" y="466.5" width="71" height="263" rx="10.5" fill="#D1E5FF" stroke="#1E5295" stroke-width="3"/>
<rect x="533.5" y="466.5" width="71" height="263" rx="10.5" fill="#D1E5FF" stroke="#1E5295" stroke-width="3"/>
<path d="M126.095 611.432C124.799 611.432 123.635 611.204 122.603 610.748C121.571 610.292 120.695 609.644 119.975 608.804C119.279 607.964 118.739 606.944 118.355 605.744C117.995 604.544 117.815 603.2 117.815 601.712C117.815 600.224 117.995 598.88 118.355 597.68C118.739 596.48 119.279 595.46 119.975 594.62C120.695 593.78 121.571 593.132 122.603 592.676C123.635 592.22 124.799 591.992 126.095 591.992C127.943 591.992 129.419 592.4 130.523 593.216C131.651 594.008 132.491 595.052 133.043 596.348L130.631 597.572C130.295 596.612 129.743 595.868 128.975 595.34C128.207 594.812 127.247 594.548 126.095 594.548C125.231 594.548 124.475 594.692 123.827 594.98C123.179 595.244 122.639 595.628 122.207 596.132C121.775 596.612 121.451 597.2 121.235 597.896C121.019 598.568 120.911 599.312 120.911 600.128V603.296C120.911 604.928 121.343 606.272 122.207 607.328C123.095 608.36 124.391 608.876 126.095 608.876C128.423 608.876 130.103 607.796 131.135 605.636L133.223 607.04C132.623 608.384 131.723 609.452 130.523 610.244C129.347 611.036 127.871 611.432 126.095 611.432ZM140.349 611C139.341 611 138.573 610.724 138.045 610.172C137.541 609.596 137.289 608.876 137.289 608.012V584.36H140.169V608.48H142.905V611H140.349ZM148.537 588.068C147.913 588.068 147.457 587.924 147.169 587.636C146.905 587.324 146.773 586.928 146.773 586.448V585.98C146.773 585.5 146.905 585.116 147.169 584.828C147.457 584.516 147.913 584.36 148.537 584.36C149.161 584.36 149.605 584.516 149.869 584.828C150.157 585.116 150.301 585.5 150.301 585.98V586.448C150.301 586.928 150.157 587.324 149.869 587.636C149.605 587.924 149.161 588.068 148.537 588.068ZM147.097 592.424H149.977V611H147.097V592.424ZM163.081 611.432C161.809 611.432 160.657 611.204 159.625 610.748C158.617 610.292 157.741 609.644 156.997 608.804C156.277 607.94 155.713 606.92 155.305 605.744C154.921 604.544 154.729 603.2 154.729 601.712C154.729 600.248 154.921 598.916 155.305 597.716C155.713 596.516 156.277 595.496 156.997 594.656C157.741 593.792 158.617 593.132 159.625 592.676C160.657 592.22 161.809 591.992 163.081 591.992C164.329 591.992 165.445 592.22 166.429 592.676C167.413 593.132 168.253 593.768 168.949 594.584C169.645 595.376 170.173 596.324 170.533 597.428C170.917 598.532 171.109 599.744 171.109 601.064V602.432H157.753V603.296C157.753 604.088 157.873 604.832 158.113 605.528C158.377 606.2 158.737 606.788 159.193 607.292C159.673 607.796 160.249 608.192 160.921 608.48C161.617 608.768 162.397 608.912 163.261 608.912C164.437 608.912 165.457 608.636 166.321 608.084C167.209 607.532 167.893 606.74 168.373 605.708L170.425 607.184C169.825 608.456 168.889 609.488 167.617 610.28C166.345 611.048 164.833 611.432 163.081 611.432ZM163.081 594.404C162.289 594.404 161.569 594.548 160.921 594.836C160.273 595.1 159.709 595.484 159.229 595.988C158.773 596.492 158.413 597.092 158.149 597.788C157.885 598.46 157.753 599.204 157.753 600.02V600.272H168.013V599.876C168.013 598.22 167.557 596.9 166.645 595.916C165.757 594.908 164.569 594.404 163.081 594.404ZM175.855 611V592.424H178.735V595.448H178.879C179.335 594.392 179.971 593.552 180.787 592.928C181.627 592.304 182.743 591.992 184.135 591.992C186.055 591.992 187.567 592.616 188.671 593.864C189.799 595.088 190.363 596.828 190.363 599.084V611H187.483V599.588C187.483 596.252 186.079 594.584 183.271 594.584C182.695 594.584 182.131 594.656 181.579 594.8C181.051 594.944 180.571 595.16 180.139 595.448C179.707 595.736 179.359 596.108 179.095 596.564C178.855 596.996 178.735 597.512 178.735 598.112V611H175.855ZM200.42 611C199.412 611 198.644 610.724 198.116 610.172C197.612 609.596 197.36 608.852 197.36 607.94V594.944H194.3V592.424H196.028C196.652 592.424 197.072 592.304 197.288 592.064C197.528 591.8 197.648 591.356 197.648 590.732V587.276H200.24V592.424H204.308V594.944H200.24V608.48H204.02V611H200.42Z" fill="black"/>
<path d="M721.997 611.432C720.269 611.432 718.817 611.108 717.641 610.46C716.489 609.788 715.493 608.9 714.653 607.796L716.705 606.14C717.425 607.052 718.229 607.76 719.117 608.264C720.005 608.744 721.037 608.984 722.213 608.984C723.437 608.984 724.385 608.72 725.057 608.192C725.753 607.664 726.101 606.92 726.101 605.96C726.101 605.24 725.861 604.628 725.381 604.124C724.925 603.596 724.085 603.236 722.861 603.044L721.385 602.828C720.521 602.708 719.729 602.528 719.009 602.288C718.289 602.024 717.653 601.688 717.101 601.28C716.573 600.848 716.153 600.32 715.841 599.696C715.553 599.072 715.409 598.328 715.409 597.464C715.409 596.552 715.577 595.76 715.913 595.088C716.249 594.392 716.705 593.816 717.281 593.36C717.881 592.904 718.589 592.568 719.405 592.352C720.221 592.112 721.097 591.992 722.033 591.992C723.545 591.992 724.805 592.256 725.813 592.784C726.845 593.312 727.745 594.044 728.513 594.98L726.605 596.708C726.197 596.132 725.597 595.616 724.805 595.16C724.013 594.68 723.017 594.44 721.817 594.44C720.617 594.44 719.705 594.704 719.081 595.232C718.481 595.736 718.181 596.432 718.181 597.32C718.181 598.232 718.481 598.892 719.081 599.3C719.705 599.708 720.593 600.008 721.745 600.2L723.185 600.416C725.249 600.728 726.713 601.328 727.577 602.216C728.441 603.08 728.873 604.22 728.873 605.636C728.873 607.436 728.261 608.852 727.037 609.884C725.813 610.916 724.133 611.432 721.997 611.432ZM740.944 611.432C739.672 611.432 738.52 611.204 737.488 610.748C736.48 610.292 735.604 609.644 734.86 608.804C734.14 607.94 733.576 606.92 733.168 605.744C732.784 604.544 732.592 603.2 732.592 601.712C732.592 600.248 732.784 598.916 733.168 597.716C733.576 596.516 734.14 595.496 734.86 594.656C735.604 593.792 736.48 593.132 737.488 592.676C738.52 592.22 739.672 591.992 740.944 591.992C742.192 591.992 743.308 592.22 744.292 592.676C745.276 593.132 746.116 593.768 746.812 594.584C747.508 595.376 748.036 596.324 748.396 597.428C748.78 598.532 748.972 599.744 748.972 601.064V602.432H735.616V603.296C735.616 604.088 735.736 604.832 735.976 605.528C736.24 606.2 736.6 606.788 737.056 607.292C737.536 607.796 738.112 608.192 738.784 608.48C739.48 608.768 740.26 608.912 741.124 608.912C742.3 608.912 743.32 608.636 744.184 608.084C745.072 607.532 745.756 606.74 746.236 605.708L748.288 607.184C747.688 608.456 746.752 609.488 745.48 610.28C744.208 611.048 742.696 611.432 740.944 611.432ZM740.944 594.404C740.152 594.404 739.432 594.548 738.784 594.836C738.136 595.1 737.572 595.484 737.092 595.988C736.636 596.492 736.276 597.092 736.012 597.788C735.748 598.46 735.616 599.204 735.616 600.02V600.272H745.876V599.876C745.876 598.22 745.42 596.9 744.508 595.916C743.62 594.908 742.432 594.404 740.944 594.404ZM753.718 611V592.424H756.598V595.844H756.778C757.114 594.956 757.714 594.164 758.578 593.468C759.442 592.772 760.63 592.424 762.142 592.424H763.258V595.304H761.566C760.006 595.304 758.782 595.604 757.894 596.204C757.03 596.78 756.598 597.512 756.598 598.4V611H753.718ZM771.393 611L764.877 592.424H767.757L770.997 601.64L773.013 607.976H773.193L775.209 601.64L778.521 592.424H781.293L774.741 611H771.393ZM791.71 611.432C790.438 611.432 789.286 611.204 788.254 610.748C787.246 610.292 786.37 609.644 785.626 608.804C784.906 607.94 784.342 606.92 783.934 605.744C783.55 604.544 783.358 603.2 783.358 601.712C783.358 600.248 783.55 598.916 783.934 597.716C784.342 596.516 784.906 595.496 785.626 594.656C786.37 593.792 787.246 593.132 788.254 592.676C789.286 592.22 790.438 591.992 791.71 591.992C792.958 591.992 794.074 592.22 795.058 592.676C796.042 593.132 796.882 593.768 797.578 594.584C798.274 595.376 798.802 596.324 799.162 597.428C799.546 598.532 799.738 599.744 799.738 601.064V602.432H786.382V603.296C786.382 604.088 786.502 604.832 786.742 605.528C787.006 606.2 787.366 606.788 787.822 607.292C788.302 607.796 788.878 608.192 789.55 608.48C790.246 608.768 791.026 608.912 791.89 608.912C793.066 608.912 794.086 608.636 794.95 608.084C795.838 607.532 796.522 606.74 797.002 605.708L799.054 607.184C798.454 608.456 797.518 609.488 796.246 610.28C794.974 611.048 793.462 611.432 791.71 611.432ZM791.71 594.404C790.918 594.404 790.198 594.548 789.55 594.836C788.902 595.1 788.338 595.484 787.858 595.988C787.402 596.492 787.042 597.092 786.778 597.788C786.514 598.46 786.382 599.204 786.382 600.02V600.272H796.642V599.876C796.642 598.22 796.186 596.9 795.274 595.916C794.386 594.908 793.198 594.404 791.71 594.404ZM804.484 611V592.424H807.364V595.844H807.544C807.88 594.956 808.48 594.164 809.344 593.468C810.208 592.772 811.396 592.424 812.908 592.424H814.024V595.304H812.332C810.772 595.304 809.548 595.604 808.66 596.204C807.796 596.78 807.364 597.512 807.364 598.4V611H804.484Z" fill="black"/>
<path d="M369 661.535L350.424 668.051L350.424 665.171L359.64 661.931L365.976 659.915L365.976 659.735L359.64 657.719L350.424 654.407L350.424 651.635L369 658.187L369 661.535ZM369 634.737C369 635.817 368.712 636.597 368.136 637.077C367.56 637.533 366.84 637.821 365.976 637.941L365.976 638.121C367.128 638.529 367.992 639.201 368.568 640.137C369.144 641.073 369.432 642.189 369.432 643.485C369.432 645.453 368.928 646.989 367.92 648.093C366.912 649.173 365.544 649.713 363.816 649.713C362.064 649.713 360.72 649.077 359.784 647.805C358.848 646.509 358.38 644.505 358.38 641.793L358.38 638.121L356.544 638.121C355.224 638.121 354.216 638.481 353.52 639.201C352.824 639.921 352.476 641.025 352.476 642.513C352.476 643.641 352.728 644.589 353.232 645.357C353.736 646.101 354.408 646.725 355.248 647.229L353.628 648.957C352.62 648.453 351.768 647.649 351.072 646.545C350.352 645.441 349.992 644.049 349.992 642.369C349.992 640.113 350.544 638.361 351.648 637.113C352.752 635.865 354.288 635.241 356.256 635.241L366.48 635.241L366.48 633.117L369 633.117L369 634.737ZM366.984 643.017C366.984 642.297 366.9 641.637 366.732 641.037C366.564 640.437 366.324 639.921 366.012 639.489C365.7 639.057 365.34 638.721 364.932 638.481C364.524 638.241 364.08 638.121 363.6 638.121L360.54 638.121L360.54 641.937C360.54 643.593 360.78 644.805 361.26 645.573C361.74 646.317 362.436 646.689 363.348 646.689L364.104 646.689C365.016 646.689 365.724 646.365 366.228 645.717C366.732 645.045 366.984 644.145 366.984 643.017ZM369 625.946C369 626.954 368.724 627.722 368.172 628.25C367.596 628.754 366.876 629.006 366.012 629.006L342.36 629.006L342.36 626.126L366.48 626.126L366.48 623.39L369 623.39L369 625.946ZM346.068 617.758C346.068 618.382 345.924 618.838 345.636 619.126C345.324 619.39 344.928 619.522 344.448 619.522L343.98 619.522C343.5 619.522 343.116 619.39 342.828 619.126C342.516 618.838 342.36 618.382 342.36 617.758C342.36 617.134 342.516 616.69 342.828 616.426C343.116 616.138 343.5 615.994 343.98 615.994L344.448 615.994C344.928 615.994 345.324 616.138 345.636 616.426C345.924 616.69 346.068 617.134 346.068 617.758ZM350.424 619.198L350.424 616.318L369 616.318L369 619.198L350.424 619.198ZM365.976 598.318L365.976 598.462C368.28 599.59 369.432 601.402 369.432 603.898C369.432 605.05 369.204 606.094 368.748 607.03C368.292 607.966 367.644 608.77 366.804 609.442C365.964 610.09 364.944 610.594 363.744 610.954C362.544 611.29 361.2 611.458 359.712 611.458C358.224 611.458 356.88 611.29 355.68 610.954C354.48 610.594 353.46 610.09 352.62 609.442C351.78 608.77 351.132 607.966 350.676 607.03C350.22 606.094 349.992 605.05 349.992 603.898C349.992 602.602 350.28 601.498 350.856 600.586C351.408 599.65 352.272 598.942 353.448 598.462L353.448 598.318L342.36 598.318L342.36 595.438L369 595.438L369 598.318L365.976 598.318ZM366.84 603.106C366.84 602.458 366.756 601.846 366.588 601.27C366.42 600.67 366.18 600.154 365.868 599.722C365.532 599.29 365.136 598.954 364.68 598.714C364.2 598.45 363.66 598.318 363.06 598.318L356.148 598.318C355.644 598.318 355.176 598.45 354.744 598.714C354.288 598.954 353.904 599.29 353.592 599.722C353.28 600.154 353.04 600.67 352.872 601.27C352.68 601.846 352.584 602.458 352.584 603.106C352.584 604.738 353.1 606.022 354.132 606.958C355.14 607.894 356.472 608.362 358.128 608.362L361.296 608.362C362.952 608.362 364.296 607.894 365.328 606.958C366.336 606.022 366.84 604.738 366.84 603.106ZM369 575.815C369 576.895 368.712 577.675 368.136 578.155C367.56 578.611 366.84 578.899 365.976 579.019L365.976 579.199C367.128 579.607 367.992 580.279 368.568 581.215C369.144 582.151 369.432 583.267 369.432 584.563C369.432 586.531 368.928 588.067 367.92 589.171C366.912 590.251 365.544 590.791 363.816 590.791C362.064 590.791 360.72 590.155 359.784 588.883C358.848 587.587 358.38 585.583 358.38 582.871L358.38 579.199L356.544 579.199C355.224 579.199 354.216 579.559 353.52 580.279C352.824 580.999 352.476 582.103 352.476 583.591C352.476 584.719 352.728 585.667 353.232 586.435C353.736 587.179 354.408 587.803 355.248 588.307L353.628 590.035C352.62 589.531 351.768 588.727 351.072 587.623C350.352 586.519 349.992 585.127 349.992 583.447C349.992 581.191 350.544 579.439 351.648 578.191C352.752 576.943 354.288 576.319 356.256 576.319L366.48 576.319L366.48 574.195L369 574.195L369 575.815ZM366.984 584.095C366.984 583.375 366.9 582.715 366.732 582.115C366.564 581.515 366.324 580.999 366.012 580.567C365.7 580.135 365.34 579.799 364.932 579.559C364.524 579.319 364.08 579.199 363.6 579.199L360.54 579.199L360.54 583.015C360.54 584.671 360.78 585.883 361.26 586.651C361.74 587.395 362.436 587.767 363.348 587.767L364.104 587.767C365.016 587.767 365.724 587.443 366.228 586.795C366.732 586.123 366.984 585.223 366.984 584.095ZM369 565.981C369 566.989 368.724 567.757 368.172 568.285C367.596 568.789 366.852 569.041 365.94 569.041L352.944 569.041L352.944 572.101L350.424 572.101L350.424 570.373C350.424 569.749 350.304 569.329 350.064 569.113C349.8 568.873 349.356 568.753 348.732 568.753L345.276 568.753L345.276 566.161L350.424 566.161L350.424 562.093L352.944 562.093L352.944 566.161L366.48 566.161L366.48 562.381L369 562.381L369 565.981ZM369.432 550.584C369.432 551.832 369.204 552.972 368.748 554.004C368.292 555.036 367.644 555.924 366.804 556.668C365.94 557.388 364.92 557.952 363.744 558.36C362.544 558.768 361.2 558.972 359.712 558.972C358.248 558.972 356.916 558.768 355.716 558.36C354.516 557.952 353.496 557.388 352.656 556.668C351.792 555.924 351.132 555.036 350.676 554.004C350.22 552.972 349.992 551.832 349.992 550.584C349.992 549.336 350.22 548.208 350.676 547.2C351.132 546.168 351.792 545.28 352.656 544.536C353.496 543.792 354.516 543.216 355.716 542.808C356.916 542.4 358.248 542.196 359.712 542.196C361.2 542.196 362.544 542.4 363.744 542.808C364.92 543.216 365.94 543.792 366.804 544.536C367.644 545.28 368.292 546.168 368.748 547.2C369.204 548.208 369.432 549.336 369.432 550.584ZM366.876 550.584C366.876 549.024 366.396 547.752 365.436 546.768C364.476 545.784 363.012 545.292 361.044 545.292L358.38 545.292C356.412 545.292 354.948 545.784 353.988 546.768C353.028 547.752 352.548 549.024 352.548 550.584C352.548 552.144 353.028 553.416 353.988 554.4C354.948 555.384 356.412 555.876 358.38 555.876L361.044 555.876C363.012 555.876 364.476 555.384 365.436 554.4C366.396 553.416 366.876 552.144 366.876 550.584ZM369 537.46L350.424 537.46L350.424 534.58L353.844 534.58L353.844 534.4C352.956 534.064 352.164 533.464 351.468 532.6C350.772 531.736 350.424 530.548 350.424 529.036L350.424 527.92L353.304 527.92L353.304 529.612C353.304 531.172 353.604 532.396 354.204 533.284C354.78 534.148 355.512 534.58 356.4 534.58L369 534.58L369 537.46Z" fill="black"/>
<path d="M582 661.535L563.424 668.051L563.424 665.171L572.64 661.931L578.976 659.915L578.976 659.735L572.64 657.719L563.424 654.407L563.424 651.635L582 658.187L582 661.535ZM582 634.737C582 635.817 581.712 636.597 581.136 637.077C580.56 637.533 579.84 637.821 578.976 637.941L578.976 638.121C580.128 638.529 580.992 639.201 581.568 640.137C582.144 641.073 582.432 642.189 582.432 643.485C582.432 645.453 581.928 646.989 580.92 648.093C579.912 649.173 578.544 649.713 576.816 649.713C575.064 649.713 573.72 649.077 572.784 647.805C571.848 646.509 571.38 644.505 571.38 641.793L571.38 638.121L569.544 638.121C568.224 638.121 567.216 638.481 566.52 639.201C565.824 639.921 565.476 641.025 565.476 642.513C565.476 643.641 565.728 644.589 566.232 645.357C566.736 646.101 567.408 646.725 568.248 647.229L566.628 648.957C565.62 648.453 564.768 647.649 564.072 646.545C563.352 645.441 562.992 644.049 562.992 642.369C562.992 640.113 563.544 638.361 564.648 637.113C565.752 635.865 567.288 635.241 569.256 635.241L579.48 635.241L579.48 633.117L582 633.117L582 634.737ZM579.984 643.017C579.984 642.297 579.9 641.637 579.732 641.037C579.564 640.437 579.324 639.921 579.012 639.489C578.7 639.057 578.34 638.721 577.932 638.481C577.524 638.241 577.08 638.121 576.6 638.121L573.54 638.121L573.54 641.937C573.54 643.593 573.78 644.805 574.26 645.573C574.74 646.317 575.436 646.689 576.348 646.689L577.104 646.689C578.016 646.689 578.724 646.365 579.228 645.717C579.732 645.045 579.984 644.145 579.984 643.017ZM582 625.946C582 626.954 581.724 627.722 581.172 628.25C580.596 628.754 579.876 629.006 579.012 629.006L555.36 629.006L555.36 626.126L579.48 626.126L579.48 623.39L582 623.39L582 625.946ZM559.068 617.758C559.068 618.382 558.924 618.838 558.636 619.126C558.324 619.39 557.928 619.522 557.448 619.522L556.98 619.522C556.5 619.522 556.116 619.39 555.828 619.126C555.516 618.838 555.36 618.382 555.36 617.758C555.36 617.134 555.516 616.69 555.828 616.426C556.116 616.138 556.5 615.994 556.98 615.994L557.448 615.994C557.928 615.994 558.324 616.138 558.636 616.426C558.924 616.69 559.068 617.134 559.068 617.758ZM563.424 619.198L563.424 616.318L582 616.318L582 619.198L563.424 619.198ZM578.976 598.318L578.976 598.462C581.28 599.59 582.432 601.402 582.432 603.898C582.432 605.05 582.204 606.094 581.748 607.03C581.292 607.966 580.644 608.77 579.804 609.442C578.964 610.09 577.944 610.594 576.744 610.954C575.544 611.29 574.2 611.458 572.712 611.458C571.224 611.458 569.88 611.29 568.68 610.954C567.48 610.594 566.46 610.09 565.62 609.442C564.78 608.77 564.132 607.966 563.676 607.03C563.22 606.094 562.992 605.05 562.992 603.898C562.992 602.602 563.28 601.498 563.856 600.586C564.408 599.65 565.272 598.942 566.448 598.462L566.448 598.318L555.36 598.318L555.36 595.438L582 595.438L582 598.318L578.976 598.318ZM579.84 603.106C579.84 602.458 579.756 601.846 579.588 601.27C579.42 600.67 579.18 600.154 578.868 599.722C578.532 599.29 578.136 598.954 577.68 598.714C577.2 598.45 576.66 598.318 576.06 598.318L569.148 598.318C568.644 598.318 568.176 598.45 567.744 598.714C567.288 598.954 566.904 599.29 566.592 599.722C566.28 600.154 566.04 600.67 565.872 601.27C565.68 601.846 565.584 602.458 565.584 603.106C565.584 604.738 566.1 606.022 567.132 606.958C568.14 607.894 569.472 608.362 571.128 608.362L574.296 608.362C575.952 608.362 577.296 607.894 578.328 606.958C579.336 606.022 579.84 604.738 579.84 603.106ZM582 575.815C582 576.895 581.712 577.675 581.136 578.155C580.56 578.611 579.84 578.899 578.976 579.019L578.976 579.199C580.128 579.607 580.992 580.279 581.568 581.215C582.144 582.151 582.432 583.267 582.432 584.563C582.432 586.531 581.928 588.067 580.92 589.171C579.912 590.251 578.544 590.791 576.816 590.791C575.064 590.791 573.72 590.155 572.784 588.883C571.848 587.587 571.38 585.583 571.38 582.871L571.38 579.199L569.544 579.199C568.224 579.199 567.216 579.559 566.52 580.279C565.824 580.999 565.476 582.103 565.476 583.591C565.476 584.719 565.728 585.667 566.232 586.435C566.736 587.179 567.408 587.803 568.248 588.307L566.628 590.035C565.62 589.531 564.768 588.727 564.072 587.623C563.352 586.519 562.992 585.127 562.992 583.447C562.992 581.191 563.544 579.439 564.648 578.191C565.752 576.943 567.288 576.319 569.256 576.319L579.48 576.319L579.48 574.195L582 574.195L582 575.815ZM579.984 584.095C579.984 583.375 579.9 582.715 579.732 582.115C579.564 581.515 579.324 580.999 579.012 580.567C578.7 580.135 578.34 579.799 577.932 579.559C577.524 579.319 577.08 579.199 576.6 579.199L573.54 579.199L573.54 583.015C573.54 584.671 573.78 585.883 574.26 586.651C574.74 587.395 575.436 587.767 576.348 587.767L577.104 587.767C578.016 587.767 578.724 587.443 579.228 586.795C579.732 586.123 579.984 585.223 579.984 584.095ZM582 565.981C582 566.989 581.724 567.757 581.172 568.285C580.596 568.789 579.852 569.041 578.94 569.041L565.944 569.041L565.944 572.101L563.424 572.101L563.424 570.373C563.424 569.749 563.304 569.329 563.064 569.113C562.8 568.873 562.356 568.753 561.732 568.753L558.276 568.753L558.276 566.161L563.424 566.161L563.424 562.093L565.944 562.093L565.944 566.161L579.48 566.161L579.48 562.381L582 562.381L582 565.981ZM582.432 550.584C582.432 551.832 582.204 552.972 581.748 554.004C581.292 555.036 580.644 555.924 579.804 556.668C578.94 557.388 577.92 557.952 576.744 558.36C575.544 558.768 574.2 558.972 572.712 558.972C571.248 558.972 569.916 558.768 568.716 558.36C567.516 557.952 566.496 557.388 565.656 556.668C564.792 555.924 564.132 555.036 563.676 554.004C563.22 552.972 562.992 551.832 562.992 550.584C562.992 549.336 563.22 548.208 563.676 547.2C564.132 546.168 564.792 545.28 565.656 544.536C566.496 543.792 567.516 543.216 568.716 542.808C569.916 542.4 571.248 542.196 572.712 542.196C574.2 542.196 575.544 542.4 576.744 542.808C577.92 543.216 578.94 543.792 579.804 544.536C580.644 545.28 581.292 546.168 581.748 547.2C582.204 548.208 582.432 549.336 582.432 550.584ZM579.876 550.584C579.876 549.024 579.396 547.752 578.436 546.768C577.476 545.784 576.012 545.292 574.044 545.292L571.38 545.292C569.412 545.292 567.948 545.784 566.988 546.768C566.028 547.752 565.548 549.024 565.548 550.584C565.548 552.144 566.028 553.416 566.988 554.4C567.948 555.384 569.412 555.876 571.38 555.876L574.044 555.876C576.012 555.876 577.476 555.384 578.436 554.4C579.396 553.416 579.876 552.144 579.876 550.584ZM582 537.46L563.424 537.46L563.424 534.58L566.844 534.58L566.844 534.4C565.956 534.064 565.164 533.464 564.468 532.6C563.772 531.736 563.424 530.548 563.424 529.036L563.424 527.92L566.304 527.92L566.304 529.612C566.304 531.172 566.604 532.396 567.204 533.284C567.78 534.148 568.512 534.58 569.4 534.58L582 534.58L582 537.46Z" fill="black"/>
<path d="M533.414 599.414C534.195 598.633 534.195 597.367 533.414 596.586L520.686 583.858C519.905 583.077 518.639 583.077 517.858 583.858C517.077 584.639 517.077 585.905 517.858 586.686L529.172 598L517.858 609.314C517.077 610.095 517.077 611.361 517.858 612.142C518.639 612.923 519.905 612.923 520.686 612.142L533.414 599.414ZM394 600H532V596H394V600Z" fill="#1E5295"/>
<g clip-path="url(#clip0_113_874)">
<path d="M374.59 173.803H374.539H361.336C361.339 173.867 361.34 173.933 361.344 173.997C361.349 174.122 361.358 174.247 361.366 174.372C361.37 174.426 361.372 174.479 361.376 174.532C361.386 174.677 361.399 174.821 361.412 174.965C361.415 174.997 361.418 175.03 361.421 175.061C361.436 175.221 361.453 175.382 361.472 175.54C361.473 175.556 361.475 175.571 361.477 175.587C361.498 175.758 361.52 175.93 361.545 176.101C361.545 176.103 361.545 176.105 361.546 176.107C361.698 177.167 361.927 178.216 362.231 179.248C362.232 179.252 362.234 179.256 362.235 179.261C362.283 179.423 362.333 179.585 362.384 179.745C362.388 179.754 362.391 179.764 362.393 179.773C362.396 179.783 362.399 179.792 362.402 179.802C362.449 179.947 362.499 180.092 362.548 180.237C362.561 180.273 362.573 180.31 362.587 180.347C362.631 180.472 362.676 180.598 362.723 180.723C362.744 180.78 362.766 180.836 362.787 180.893C362.827 180.997 362.867 181.1 362.908 181.204C362.939 181.282 362.971 181.359 363.004 181.437C363.037 181.518 363.071 181.599 363.105 181.68C363.147 181.779 363.191 181.877 363.235 181.976C363.261 182.035 363.287 182.093 363.313 182.152C363.367 182.27 363.422 182.388 363.478 182.506C363.496 182.543 363.514 182.581 363.533 182.619C363.598 182.754 363.664 182.888 363.731 183.021C363.743 183.042 363.752 183.062 363.763 183.083C363.839 183.23 363.916 183.378 363.995 183.524C363.999 183.53 364.002 183.537 364.005 183.544C364.022 183.574 364.04 183.604 364.057 183.634L375.376 176.796L375.418 176.771C374.971 175.827 374.693 174.823 374.59 173.803Z" fill="#93D500"/>
<path d="M361.962 179.898L361.966 179.909L362.394 179.774L361.962 179.898Z" fill="#93D500"/>
<path d="M377.847 179.904L377.815 179.936L368.48 189.298C368.528 189.343 368.575 189.389 368.625 189.432C368.712 189.511 368.801 189.59 368.889 189.667C368.935 189.708 368.98 189.749 369.025 189.788C369.131 189.88 369.238 189.97 369.344 190.059C369.373 190.083 369.401 190.107 369.43 190.131C369.55 190.23 369.672 190.328 369.794 190.425C369.81 190.437 369.826 190.45 369.841 190.462C369.974 190.567 370.107 190.668 370.242 190.771C370.248 190.774 370.253 190.778 370.257 190.782C370.82 191.203 371.403 191.598 372.004 191.966C372.025 191.979 372.045 191.991 372.066 192.004C372.181 192.073 372.295 192.141 372.41 192.208C372.481 192.248 372.551 192.289 372.622 192.329C372.688 192.367 372.754 192.404 372.822 192.441C372.943 192.508 373.065 192.574 373.187 192.639C373.203 192.648 373.22 192.657 373.237 192.666C373.577 192.844 373.922 193.009 374.27 193.168L374.601 192.362L379.297 180.927L379.314 180.885C378.801 180.61 378.31 180.284 377.847 179.904Z" fill="#4D5A31"/>
<path d="M376.875 178.972C376.774 178.859 376.678 178.744 376.584 178.628C376.501 178.524 376.42 178.42 376.342 178.314C376.253 178.193 376.165 178.071 376.083 177.946C375.999 177.821 375.918 177.696 375.84 177.567L364.507 184.414C364.681 184.704 364.862 184.986 365.048 185.266C365.054 185.275 365.06 185.285 365.066 185.295C365.068 185.298 365.07 185.302 365.073 185.305C365.079 185.314 365.084 185.324 365.091 185.334C365.091 185.334 365.092 185.335 365.092 185.336C365.107 185.359 365.123 185.38 365.138 185.403C365.139 185.404 365.14 185.405 365.14 185.407L365.142 185.409C365.339 185.7 365.541 185.988 365.749 186.267C365.754 186.273 365.759 186.28 365.763 186.285C365.768 186.291 365.772 186.297 365.777 186.303C365.867 186.424 365.958 186.544 366.052 186.663C366.064 186.678 366.076 186.694 366.089 186.709C366.185 186.832 366.283 186.954 366.383 187.074C366.406 187.103 366.43 187.131 366.453 187.16C366.543 187.268 366.633 187.375 366.724 187.481C366.763 187.526 366.804 187.572 366.844 187.616C366.922 187.706 366.999 187.794 367.078 187.882C367.122 187.93 367.167 187.978 367.212 188.027C367.232 188.049 367.252 188.07 367.272 188.092C367.33 188.155 367.388 188.218 367.447 188.281C367.47 188.305 367.495 188.33 367.519 188.354C367.622 188.462 367.726 188.57 367.832 188.676L377.182 179.301C377.074 179.193 376.974 179.083 376.875 178.972Z" fill="#6BA43A"/>
<path d="M389.268 179.899C389.165 179.983 389.061 180.064 388.956 180.142L388.979 180.181L395.796 191.529C396.111 191.322 396.423 191.109 396.728 190.885C397.388 190.397 398.027 189.868 398.642 189.299L389.305 179.936L389.268 179.899Z" fill="#4D5A31"/>
<path d="M394.934 192.07C394.939 192.067 394.944 192.064 394.949 192.061L394.949 192.061C394.944 192.063 394.939 192.066 394.934 192.07Z" fill="#93D500"/>
<path d="M394.928 192.073V192.072H394.927L394.928 192.073Z" fill="#93D500"/>
<path d="M394.949 192.06L394.949 192.061C394.979 192.044 395.009 192.028 395.038 192.011L395.037 192.008C395.007 192.025 394.978 192.043 394.949 192.06Z" fill="#93D500"/>
<path d="M394.93 192.071L394.934 192.069V192.068L394.93 192.071Z" fill="#93D500"/>
<path d="M394.927 192.072H394.928L394.911 192.044L394.927 192.072Z" fill="#93D500"/>
<path d="M394.934 192.069C394.939 192.066 394.944 192.063 394.949 192.061C394.944 192.063 394.939 192.065 394.934 192.069Z" fill="#93D500"/>
<path d="M394.921 192.075L394.925 192.073L394.921 192.075Z" fill="#93D500"/>
<path d="M394.927 192.072L394.925 192.074L394.928 192.073L394.927 192.072Z" fill="#93D500"/>
<path d="M394.93 192.071C394.929 192.072 394.928 192.072 394.927 192.072C394.929 192.071 394.932 192.07 394.934 192.069V192.068C394.933 192.07 394.931 192.071 394.93 192.071Z" fill="#93D500"/>
<path d="M394.949 192.06C394.979 192.043 395.009 192.028 395.038 192.01C395.009 192.028 394.979 192.043 394.949 192.06Z" fill="#93D500"/>
<path d="M395.039 192.011L395.037 192.008H395.036L395.039 192.011Z" fill="#93D500"/>
<path d="M394.922 192.076L394.919 192.078L394.922 192.076Z" fill="#93D500"/>
<path d="M394.805 191.621L394.573 191.236L388.21 180.645C388.082 180.722 387.95 180.792 387.818 180.864C387.686 180.935 387.552 181.002 387.417 181.066C386.194 181.648 384.871 181.945 383.546 181.945C382.678 181.945 381.81 181.819 380.971 181.568C380.828 181.525 380.689 181.469 380.547 181.418C380.406 181.368 380.263 181.325 380.124 181.268L375.432 192.695L375.248 193.143L375.091 193.526L375.09 193.528C375.102 193.533 375.115 193.537 375.127 193.542C375.14 193.547 375.152 193.551 375.165 193.557C375.166 193.557 375.167 193.557 375.167 193.557C375.17 193.558 375.173 193.559 375.175 193.561C375.286 193.606 375.398 193.645 375.509 193.689C375.649 193.743 375.788 193.799 375.928 193.85C375.999 193.876 376.07 193.906 376.141 193.932C377.611 194.452 379.133 194.817 380.679 195.021C380.74 195.028 380.8 195.036 380.86 195.045C380.924 195.052 380.987 195.059 381.051 195.066C381.17 195.079 381.289 195.093 381.408 195.105C381.438 195.107 381.468 195.11 381.497 195.112C381.644 195.126 381.79 195.139 381.936 195.149C381.986 195.153 382.036 195.155 382.086 195.159C382.214 195.167 382.342 195.175 382.47 195.181C382.549 195.186 382.627 195.188 382.706 195.191C382.808 195.194 382.909 195.198 383.012 195.202C383.159 195.205 383.307 195.206 383.454 195.207C383.489 195.207 383.524 195.208 383.558 195.208C384.793 195.208 386.028 195.105 387.25 194.9C387.271 194.897 387.291 194.893 387.312 194.89C387.441 194.868 387.57 194.844 387.699 194.82C387.773 194.805 387.847 194.791 387.919 194.777C387.995 194.761 388.07 194.746 388.146 194.729C388.272 194.703 388.397 194.675 388.523 194.646C388.546 194.641 388.569 194.637 388.592 194.63C390.448 194.197 392.242 193.525 393.926 192.636L393.927 192.635C394.037 192.577 394.145 192.51 394.255 192.45C394.385 192.379 394.516 192.304 394.646 192.23C394.736 192.178 394.827 192.13 394.916 192.077L394.916 192.076C394.917 192.076 394.918 192.075 394.919 192.075C394.92 192.074 394.922 192.073 394.924 192.072C394.924 192.072 394.925 192.071 394.925 192.071C394.926 192.071 394.927 192.07 394.928 192.07C394.929 192.069 394.931 192.068 394.932 192.067C394.937 192.064 394.942 192.062 394.947 192.058C394.976 192.041 395.005 192.023 395.034 192.006L394.805 191.621Z" fill="#93D500"/>
<path d="M377.853 165.908C377.956 165.824 378.06 165.743 378.165 165.665L378.142 165.626L371.326 154.278C371.009 154.486 370.696 154.699 370.391 154.924C369.731 155.411 369.093 155.939 368.479 156.508L377.816 165.87L377.853 165.908Z" fill="#93D500"/>
<path d="M367.832 157.131C367.726 157.237 367.625 157.348 367.522 157.456C367.418 157.563 367.313 157.671 367.211 157.781C366.522 158.529 365.891 159.314 365.323 160.128C365.295 160.166 365.268 160.206 365.241 160.245C365.177 160.339 365.114 160.432 365.051 160.526C364.986 160.624 364.922 160.723 364.859 160.821C364.835 160.857 364.812 160.894 364.789 160.93C362.641 164.308 361.491 168.14 361.336 172.004C361.33 172.153 361.327 172.303 361.324 172.453C361.321 172.603 361.316 172.753 361.316 172.903H374.539C374.539 172.753 374.553 172.603 374.561 172.453C374.568 172.303 374.571 172.153 374.585 172.004C374.756 170.277 375.421 168.591 376.579 167.175C376.674 167.059 376.78 166.952 376.881 166.84C376.981 166.729 377.075 166.614 377.182 166.507L367.832 157.131Z" fill="#4D5A31"/>
<path d="M395.115 153.84C395.097 153.829 395.078 153.818 395.06 153.808C394.944 153.736 394.827 153.667 394.709 153.599C394.641 153.559 394.573 153.521 394.504 153.482C394.435 153.443 394.367 153.404 394.297 153.367C394.178 153.301 394.058 153.236 393.938 153.172C393.919 153.163 393.901 153.152 393.882 153.143C393.106 152.736 392.31 152.378 391.497 152.067C391.476 152.059 391.455 152.051 391.434 152.043C391.257 151.977 391.079 151.91 390.9 151.848C389.456 151.343 387.962 150.988 386.445 150.788C386.383 150.78 386.321 150.771 386.259 150.763C386.196 150.755 386.135 150.749 386.073 150.742C385.953 150.728 385.834 150.715 385.713 150.703C385.68 150.7 385.647 150.698 385.613 150.694C385.471 150.681 385.328 150.669 385.186 150.658C385.131 150.654 385.074 150.651 385.019 150.648C384.897 150.64 384.774 150.631 384.652 150.626C384.587 150.622 384.522 150.62 384.457 150.618L384.457 163.858V163.91C385.137 163.98 385.811 164.126 386.465 164.348L396.22 154.566C395.858 154.314 395.492 154.07 395.115 153.84Z" fill="#4D5A31"/>
<path d="M372.316 154.185L372.084 153.8L372.316 154.185Z" fill="#6BA43A"/>
<path d="M372.083 153.797L372.085 153.8L372.083 153.797Z" fill="#6BA43A"/>
<path d="M383.112 150.608C382.963 150.611 382.813 150.611 382.664 150.617C381.728 150.655 380.795 150.751 379.869 150.906C379.849 150.91 379.828 150.913 379.808 150.917C379.678 150.939 379.549 150.963 379.42 150.987C379.347 151.001 379.273 151.015 379.2 151.029C379.124 151.045 379.048 151.06 378.972 151.077C378.847 151.103 378.721 151.131 378.596 151.16C378.573 151.165 378.551 151.17 378.527 151.175C376.67 151.609 374.876 152.282 373.192 153.171C373.082 153.229 372.974 153.295 372.865 153.356C372.734 153.427 372.604 153.502 372.474 153.576C372.378 153.632 372.279 153.683 372.183 153.741C372.183 153.741 372.181 153.742 372.18 153.743H372.18C372.173 153.747 372.166 153.75 372.16 153.754C372.135 153.77 372.109 153.782 372.083 153.798L372.085 153.8L372.316 154.185L378.91 165.162C379.039 165.085 379.171 165.014 379.302 164.943C379.434 164.872 379.568 164.805 379.703 164.741C380.645 164.291 381.646 164.012 382.663 163.909C382.813 163.893 382.962 163.881 383.112 163.873C383.261 163.866 383.41 163.858 383.56 163.858L383.561 150.599C383.411 150.599 383.262 150.605 383.112 150.608Z" fill="#6BA43A"/>
<path d="M405.777 171.807C405.77 171.688 405.763 171.569 405.755 171.449C405.751 171.39 405.748 171.331 405.743 171.271C405.733 171.131 405.722 170.991 405.709 170.851C405.706 170.815 405.703 170.779 405.699 170.742C405.684 170.586 405.668 170.429 405.65 170.273C405.648 170.261 405.646 170.248 405.645 170.235C405.644 170.23 405.644 170.223 405.643 170.217C405.622 170.049 405.6 169.88 405.576 169.712C405.576 169.707 405.575 169.701 405.574 169.696C405.422 168.639 405.194 167.591 404.89 166.561C404.888 166.554 404.886 166.548 404.884 166.541C404.836 166.381 404.787 166.222 404.737 166.063C404.73 166.043 404.723 166.022 404.717 166C404.67 165.857 404.622 165.714 404.573 165.571C404.559 165.533 404.546 165.495 404.532 165.455C404.489 165.332 404.444 165.209 404.398 165.085C404.376 165.026 404.354 164.968 404.331 164.91C404.292 164.807 404.252 164.705 404.212 164.605C404.18 164.524 404.147 164.444 404.114 164.365C404.082 164.285 404.049 164.207 404.016 164.128C403.972 164.027 403.928 163.927 403.884 163.826C403.859 163.77 403.834 163.713 403.808 163.656C403.753 163.537 403.697 163.417 403.64 163.298C403.623 163.262 403.606 163.225 403.588 163.189C403.522 163.053 403.456 162.917 403.387 162.782C403.378 162.763 403.368 162.744 403.358 162.726C403.282 162.577 403.204 162.427 403.125 162.28C403.121 162.275 403.119 162.27 403.116 162.265C402.731 161.554 402.308 160.867 401.851 160.206L392.093 169.992C392.315 170.648 392.459 171.323 392.53 172.005H392.582H405.785C405.781 171.938 405.78 171.872 405.777 171.807Z" fill="#4D5A31"/>
<path d="M392.581 172.903C392.581 173.053 392.567 173.202 392.559 173.352C392.552 173.503 392.549 173.653 392.534 173.802C392.363 175.529 391.699 177.215 390.541 178.632C390.447 178.747 390.34 178.855 390.239 178.966C390.139 179.077 390.046 179.192 389.938 179.299L399.288 188.675C399.395 188.568 399.495 188.458 399.598 188.35C399.702 188.241 399.807 188.134 399.908 188.025C400.6 187.273 401.232 186.487 401.802 185.67C401.825 185.638 401.847 185.606 401.868 185.574C401.938 185.474 402.006 185.372 402.074 185.271C402.134 185.181 402.193 185.091 402.251 184.999C402.28 184.956 402.308 184.91 402.336 184.867C404.48 181.49 405.628 177.662 405.782 173.802C405.788 173.652 405.791 173.502 405.794 173.352C405.797 173.202 405.802 173.053 405.802 172.902H392.581V172.903Z" fill="#6BA43A"/>
<path d="M409.731 146.659C407.312 144.233 403.389 144.233 400.971 146.659C399.041 148.594 398.655 151.487 399.804 153.81L386.311 167.341C383.995 166.189 381.11 166.575 379.18 168.51C376.761 170.936 376.761 174.869 379.18 177.295C381.6 179.721 385.522 179.72 387.941 177.295C389.871 175.36 390.256 172.467 389.106 170.144L402.6 156.613C404.917 157.765 407.801 157.379 409.73 155.443C412.149 153.019 412.149 149.085 409.731 146.659Z" fill="#424143"/>
<path d="M467.397 193.305V185.952H468.683V193.305H467.397Z" fill="#6BA43A"/>
<path d="M478.488 193.305L474.662 188.046V193.305H473.376V185.952H474.695L478.444 191.045V185.952H479.73V193.305H478.488Z" fill="#6BA43A"/>
<path d="M484.424 193.305V185.952H485.71V193.305H484.424Z" fill="#6BA43A"/>
<path d="M492.152 193.305V187.088H489.931V185.952H495.658V187.088H493.438V193.305H492.152Z" fill="#6BA43A"/>
<path d="M499.878 193.305V185.952H501.165V193.305H499.878Z" fill="#6BA43A"/>
<path d="M511.003 193.305L510.464 191.883H507.1L506.561 193.305H505.099L507.98 185.952H509.584L512.464 193.305H511.003ZM508.783 187.242L507.463 190.747H510.102L508.783 187.242Z" fill="#6BA43A"/>
<path d="M517.422 193.305V187.088H515.201V185.952H520.929V187.088H518.708V193.305H517.422Z" fill="#6BA43A"/>
<path d="M525.149 193.305V185.952H526.436V193.305H525.149Z" fill="#6BA43A"/>
<path d="M533.251 193.305L530.37 185.952H531.832L534.053 191.894L536.274 185.952H537.736L534.856 193.305H533.251Z" fill="#6BA43A"/>
<path d="M541.66 193.305V185.952H546.683V187.088H542.946V188.983H546.606V190.119H542.946V192.169H546.683V193.305H541.66Z" fill="#6BA43A"/>
<path d="M412.606 168.101C412.606 161.454 417.454 156.691 424.116 156.691C430.745 156.691 435.593 161.454 435.593 168.101C435.593 174.748 430.745 179.511 424.116 179.511C417.455 179.511 412.606 174.749 412.606 168.101ZM430.778 168.101C430.778 163.967 428.173 160.858 424.117 160.858C420.027 160.858 417.422 163.967 417.422 168.101C417.422 172.202 420.027 175.344 424.117 175.344C428.173 175.344 430.778 172.202 430.778 168.101Z" fill="#424143"/>
<path d="M438.064 179.113V157.055H448.354C453.136 157.055 455.741 160.295 455.741 164.165C455.741 168.001 453.102 171.243 448.354 171.243H442.747V179.113H438.064ZM450.959 164.165C450.959 162.313 449.542 161.189 447.694 161.189H442.748V167.109H447.694C449.542 167.108 450.959 165.984 450.959 164.165Z" fill="#424143"/>
<path d="M457.851 179.113V157.055H473.417V161.188H462.534V165.819H473.187V169.953H462.534V174.98H473.417V179.114L457.851 179.113Z" fill="#424143"/>
<path d="M491.422 179.113L480.935 164.727V179.113H476.251V157.055H481.066L491.257 170.912V157.055H495.94V179.113H491.422Z" fill="#424143"/>
<path d="M515.686 179.113L514.3 175.376H504.869L503.483 179.113H498.173L506.649 157.055H512.521L520.995 179.113H515.686ZM509.584 161.751L506.155 171.243H513.015L509.584 161.751Z" fill="#424143"/>
<path d="M522.214 179.113V157.055H532.504C537.285 157.055 539.891 160.295 539.891 164.165C539.891 168.001 537.251 171.243 532.504 171.243H526.897V179.113H522.214ZM535.109 164.165C535.109 162.313 533.691 161.189 531.844 161.189H526.897V167.109H531.844C533.691 167.108 535.109 165.984 535.109 164.165Z" fill="#424143"/>
<path d="M542 179.113V157.055H546.683V179.113H542Z" fill="#424143"/>
</g>
<path d="M162.586 463.414C163.367 464.195 164.633 464.195 165.414 463.414L178.142 450.686C178.923 449.905 178.923 448.639 178.142 447.858C177.361 447.077 176.095 447.077 175.314 447.858L164 459.172L152.686 447.858C151.905 447.077 150.639 447.077 149.858 447.858C149.077 448.639 149.077 449.905 149.858 450.686L162.586 463.414ZM424 320V342H428V320H424ZM406 360H184V364H406V360ZM162 382V462H166V382H162ZM184 360C171.85 360 162 369.85 162 382H166C166 372.059 174.059 364 184 364V360ZM424 342C424 351.941 415.941 360 406 360V364C418.15 364 428 354.15 428 342H424Z" fill="black"/>
<path d="M745.414 461.414C744.633 462.195 743.367 462.195 742.586 461.414L729.858 448.686C729.077 447.905 729.077 446.639 729.858 445.858C730.639 445.077 731.905 445.077 732.686 445.858L744 457.172L755.314 445.858C756.095 445.077 757.361 445.077 758.142 445.858C758.923 446.639 758.923 447.905 758.142 448.686L745.414 461.414ZM484 318V340H480V318H484ZM502 358H724V362H502V358ZM746 380V460H742V380H746ZM724 358C736.15 358 746 367.85 746 380H742C742 370.059 733.941 362 724 362V358ZM484 340C484 349.941 492.059 358 502 358V362C489.85 362 480 352.15 480 340H484Z" fill="black"/>
<path d="M355.586 463.414C356.367 464.195 357.633 464.195 358.414 463.414L371.142 450.686C371.923 449.905 371.923 448.639 371.142 447.858C370.361 447.077 369.095 447.077 368.314 447.858L357 459.172L345.686 447.858C344.905 447.077 343.639 447.077 342.858 447.858C342.077 448.639 342.077 449.905 342.858 450.686L355.586 463.414ZM457 318V386.457H461V318H457ZM439 404.457H377V408.457H439V404.457ZM355 426.457V462H359V426.457H355ZM377 404.457C364.85 404.457 355 414.307 355 426.457H359C359 416.516 367.059 408.457 377 408.457V404.457ZM457 386.457C457 396.398 448.941 404.457 439 404.457V408.457C451.15 408.457 461 398.607 461 386.457H457Z" fill="black"/>
<path d="M562.414 463.414C561.633 464.195 560.367 464.195 559.586 463.414L546.858 450.686C546.077 449.905 546.077 448.639 546.858 447.858C547.639 447.077 548.905 447.077 549.686 447.858L561 459.172L572.314 447.858C573.095 447.077 574.361 447.077 575.142 447.858C575.923 448.639 575.923 449.905 575.142 450.686L562.414 463.414ZM461 318V386.457H457V318H461ZM479 404.457H541V408.457H479V404.457ZM563 426.457V462H559V426.457H563ZM541 404.457C553.15 404.457 563 414.307 563 426.457H559C559 416.516 550.941 408.457 541 408.457V404.457ZM461 386.457C461 396.398 469.059 404.457 479 404.457V408.457C466.85 408.457 457 398.607 457 386.457H461Z" fill="black"/>
<defs>
<clipPath id="clip0_113_874">
<rect width="226" height="67" fill="white" transform="translate(341 136)"/>
</clipPath>
</defs>
</svg>
