<svg width="1634" height="1028" viewBox="0 0 1634 1028" fill="none" xmlns="http://www.w3.org/2000/svg">
<rect x="316.492" y="137.492" width="956.015" height="332.015" rx="16.4175" fill="#FFE2E1" stroke="#D59795" stroke-width="2.985"/>
<path d="M1361.41 305.414C1362.2 304.633 1362.2 303.367 1361.41 302.586L1348.69 289.858C1347.91 289.077 1346.64 289.077 1345.86 289.858C1345.08 290.639 1345.08 291.905 1345.86 292.686L1357.17 304L1345.86 315.314C1345.08 316.095 1345.08 317.361 1345.86 318.142C1346.64 318.923 1347.91 318.923 1348.69 318.142L1361.41 305.414ZM1274 306H1360V302H1274V306Z" fill="#D59795"/>
<path d="M1361.41 792.414C1362.2 791.633 1362.2 790.367 1361.41 789.586L1348.69 776.858C1347.91 776.077 1346.64 776.077 1345.86 776.858C1345.08 777.639 1345.08 778.905 1345.86 779.686L1357.17 791L1345.86 802.314C1345.08 803.095 1345.08 804.361 1345.86 805.142C1346.64 805.923 1347.91 805.923 1348.69 805.142L1361.41 792.414ZM1274 793H1360V789H1274V793Z" fill="#D5B555"/>
<rect x="1272.51" y="901.508" width="956.015" height="227.015" rx="16.4175" transform="rotate(-180 1272.51 901.508)" fill="#FFF2CC" stroke="#D5B555" stroke-width="2.985"/>
<rect x="340.5" y="161.5" width="908" height="284" rx="10.5" fill="#F2F3F2" stroke="#B0ADAD" stroke-width="3"/>
<rect x="736.5" y="698.5" width="512" height="179" rx="10.5" fill="#F2F3F2" stroke="#B0ADAD" stroke-width="3"/>
<rect x="340.5" y="698.5" width="205" height="90" rx="10.5" fill="#F2F3F2" stroke="#B0ADAD" stroke-width="3"/>
<rect x="545.5" y="698.5" width="112" height="179" rx="10.5" fill="#F2F3F2" stroke="#B0ADAD" stroke-width="3"/>
<rect x="340.5" y="788.5" width="205" height="89" rx="10.5" fill="#F2F3F2" stroke="#B0ADAD" stroke-width="3"/>
<rect x="635.5" y="515.5" width="324" height="114" rx="10.5" fill="#CBE1FF" stroke="#3276CF" stroke-width="3" stroke-dasharray="12 12"/>
<path d="M746.369 311.48C744.929 311.48 743.636 311.227 742.489 310.72C741.342 310.213 740.369 309.493 739.569 308.56C738.796 307.627 738.196 306.493 737.769 305.16C737.369 303.827 737.169 302.333 737.169 300.68C737.169 299.027 737.369 297.533 737.769 296.2C738.196 294.867 738.796 293.733 739.569 292.8C740.369 291.867 741.342 291.147 742.489 290.64C743.636 290.133 744.929 289.88 746.369 289.88C748.422 289.88 750.062 290.333 751.289 291.24C752.542 292.12 753.476 293.28 754.089 294.72L751.409 296.08C751.036 295.013 750.422 294.187 749.569 293.6C748.716 293.013 747.649 292.72 746.369 292.72C745.409 292.72 744.569 292.88 743.849 293.2C743.129 293.493 742.529 293.92 742.049 294.48C741.569 295.013 741.209 295.667 740.969 296.44C740.729 297.187 740.609 298.013 740.609 298.92V302.44C740.609 304.253 741.089 305.747 742.049 306.92C743.036 308.067 744.476 308.64 746.369 308.64C748.956 308.64 750.822 307.44 751.969 305.04L754.289 306.6C753.622 308.093 752.622 309.28 751.289 310.16C749.982 311.04 748.342 311.48 746.369 311.48ZM766.372 311.48C764.985 311.48 763.719 311.227 762.572 310.72C761.425 310.213 760.439 309.493 759.612 308.56C758.812 307.6 758.185 306.467 757.732 305.16C757.279 303.827 757.052 302.333 757.052 300.68C757.052 299.053 757.279 297.573 757.732 296.24C758.185 294.907 758.812 293.773 759.612 292.84C760.439 291.88 761.425 291.147 762.572 290.64C763.719 290.133 764.985 289.88 766.372 289.88C767.759 289.88 769.012 290.133 770.132 290.64C771.279 291.147 772.265 291.88 773.092 292.84C773.919 293.773 774.559 294.907 775.012 296.24C775.465 297.573 775.692 299.053 775.692 300.68C775.692 302.333 775.465 303.827 775.012 305.16C774.559 306.467 773.919 307.6 773.092 308.56C772.265 309.493 771.279 310.213 770.132 310.72C769.012 311.227 767.759 311.48 766.372 311.48ZM766.372 308.64C768.105 308.64 769.519 308.107 770.612 307.04C771.705 305.973 772.252 304.347 772.252 302.16V299.2C772.252 297.013 771.705 295.387 770.612 294.32C769.519 293.253 768.105 292.72 766.372 292.72C764.639 292.72 763.225 293.253 762.132 294.32C761.039 295.387 760.492 297.013 760.492 299.2V302.16C760.492 304.347 761.039 305.973 762.132 307.04C763.225 308.107 764.639 308.64 766.372 308.64ZM794.155 307.64H793.995C792.741 310.2 790.728 311.48 787.955 311.48C786.675 311.48 785.515 311.227 784.475 310.72C783.435 310.213 782.541 309.493 781.795 308.56C781.075 307.627 780.515 306.493 780.115 305.16C779.741 303.827 779.555 302.333 779.555 300.68C779.555 299.027 779.741 297.533 780.115 296.2C780.515 294.867 781.075 293.733 781.795 292.8C782.541 291.867 783.435 291.147 784.475 290.64C785.515 290.133 786.675 289.88 787.955 289.88C789.395 289.88 790.621 290.2 791.635 290.84C792.675 291.453 793.461 292.413 793.995 293.72H794.155V281.4H797.355V311H794.155V307.64ZM788.835 308.6C789.555 308.6 790.235 308.507 790.875 308.32C791.541 308.133 792.115 307.867 792.595 307.52C793.075 307.147 793.448 306.707 793.715 306.2C794.008 305.667 794.155 305.067 794.155 304.4V296.72C794.155 296.16 794.008 295.64 793.715 295.16C793.448 294.653 793.075 294.227 792.595 293.88C792.115 293.533 791.541 293.267 790.875 293.08C790.235 292.867 789.555 292.76 788.835 292.76C787.021 292.76 785.595 293.333 784.555 294.48C783.515 295.6 782.995 297.08 782.995 298.92V302.44C782.995 304.28 783.515 305.773 784.555 306.92C785.595 308.04 787.021 308.6 788.835 308.6ZM811.918 311.48C810.504 311.48 809.224 311.227 808.078 310.72C806.958 310.213 805.984 309.493 805.158 308.56C804.358 307.6 803.731 306.467 803.278 305.16C802.851 303.827 802.638 302.333 802.638 300.68C802.638 299.053 802.851 297.573 803.278 296.24C803.731 294.907 804.358 293.773 805.158 292.84C805.984 291.88 806.958 291.147 808.078 290.64C809.224 290.133 810.504 289.88 811.918 289.88C813.304 289.88 814.544 290.133 815.638 290.64C816.731 291.147 817.664 291.853 818.438 292.76C819.211 293.64 819.798 294.693 820.198 295.92C820.624 297.147 820.838 298.493 820.838 299.96V301.48H805.998V302.44C805.998 303.32 806.131 304.147 806.398 304.92C806.691 305.667 807.091 306.32 807.598 306.88C808.131 307.44 808.771 307.88 809.518 308.2C810.291 308.52 811.158 308.68 812.118 308.68C813.424 308.68 814.558 308.373 815.518 307.76C816.504 307.147 817.264 306.267 817.798 305.12L820.078 306.76C819.411 308.173 818.371 309.32 816.958 310.2C815.544 311.053 813.864 311.48 811.918 311.48ZM811.918 292.56C811.038 292.56 810.238 292.72 809.518 293.04C808.798 293.333 808.171 293.76 807.638 294.32C807.131 294.88 806.731 295.547 806.438 296.32C806.144 297.067 805.998 297.893 805.998 298.8V299.08H817.398V298.64C817.398 296.8 816.891 295.333 815.878 294.24C814.891 293.12 813.571 292.56 811.918 292.56Z" fill="black"/>
<path d="M960.369 800.48C958.929 800.48 957.636 800.227 956.489 799.72C955.342 799.213 954.369 798.493 953.569 797.56C952.796 796.627 952.196 795.493 951.769 794.16C951.369 792.827 951.169 791.333 951.169 789.68C951.169 788.027 951.369 786.533 951.769 785.2C952.196 783.867 952.796 782.733 953.569 781.8C954.369 780.867 955.342 780.147 956.489 779.64C957.636 779.133 958.929 778.88 960.369 778.88C962.422 778.88 964.062 779.333 965.289 780.24C966.542 781.12 967.476 782.28 968.089 783.72L965.409 785.08C965.036 784.013 964.422 783.187 963.569 782.6C962.716 782.013 961.649 781.72 960.369 781.72C959.409 781.72 958.569 781.88 957.849 782.2C957.129 782.493 956.529 782.92 956.049 783.48C955.569 784.013 955.209 784.667 954.969 785.44C954.729 786.187 954.609 787.013 954.609 787.92V791.44C954.609 793.253 955.089 794.747 956.049 795.92C957.036 797.067 958.476 797.64 960.369 797.64C962.956 797.64 964.822 796.44 965.969 794.04L968.289 795.6C967.622 797.093 966.622 798.28 965.289 799.16C963.982 800.04 962.342 800.48 960.369 800.48ZM980.372 800.48C978.985 800.48 977.719 800.227 976.572 799.72C975.425 799.213 974.439 798.493 973.612 797.56C972.812 796.6 972.185 795.467 971.732 794.16C971.279 792.827 971.052 791.333 971.052 789.68C971.052 788.053 971.279 786.573 971.732 785.24C972.185 783.907 972.812 782.773 973.612 781.84C974.439 780.88 975.425 780.147 976.572 779.64C977.719 779.133 978.985 778.88 980.372 778.88C981.759 778.88 983.012 779.133 984.132 779.64C985.279 780.147 986.265 780.88 987.092 781.84C987.919 782.773 988.559 783.907 989.012 785.24C989.465 786.573 989.692 788.053 989.692 789.68C989.692 791.333 989.465 792.827 989.012 794.16C988.559 795.467 987.919 796.6 987.092 797.56C986.265 798.493 985.279 799.213 984.132 799.72C983.012 800.227 981.759 800.48 980.372 800.48ZM980.372 797.64C982.105 797.64 983.519 797.107 984.612 796.04C985.705 794.973 986.252 793.347 986.252 791.16V788.2C986.252 786.013 985.705 784.387 984.612 783.32C983.519 782.253 982.105 781.72 980.372 781.72C978.639 781.72 977.225 782.253 976.132 783.32C975.039 784.387 974.492 786.013 974.492 788.2V791.16C974.492 793.347 975.039 794.973 976.132 796.04C977.225 797.107 978.639 797.64 980.372 797.64ZM1008.15 796.64H1007.99C1006.74 799.2 1004.73 800.48 1001.95 800.48C1000.67 800.48 999.515 800.227 998.475 799.72C997.435 799.213 996.541 798.493 995.795 797.56C995.075 796.627 994.515 795.493 994.115 794.16C993.741 792.827 993.555 791.333 993.555 789.68C993.555 788.027 993.741 786.533 994.115 785.2C994.515 783.867 995.075 782.733 995.795 781.8C996.541 780.867 997.435 780.147 998.475 779.64C999.515 779.133 1000.67 778.88 1001.95 778.88C1003.39 778.88 1004.62 779.2 1005.63 779.84C1006.67 780.453 1007.46 781.413 1007.99 782.72H1008.15V770.4H1011.35V800H1008.15V796.64ZM1002.83 797.6C1003.55 797.6 1004.23 797.507 1004.87 797.32C1005.54 797.133 1006.11 796.867 1006.59 796.52C1007.07 796.147 1007.45 795.707 1007.71 795.2C1008.01 794.667 1008.15 794.067 1008.15 793.4V785.72C1008.15 785.16 1008.01 784.64 1007.71 784.16C1007.45 783.653 1007.07 783.227 1006.59 782.88C1006.11 782.533 1005.54 782.267 1004.87 782.08C1004.23 781.867 1003.55 781.76 1002.83 781.76C1001.02 781.76 999.595 782.333 998.555 783.48C997.515 784.6 996.995 786.08 996.995 787.92V791.44C996.995 793.28 997.515 794.773 998.555 795.92C999.595 797.04 1001.02 797.6 1002.83 797.6ZM1025.92 800.48C1024.5 800.48 1023.22 800.227 1022.08 799.72C1020.96 799.213 1019.98 798.493 1019.16 797.56C1018.36 796.6 1017.73 795.467 1017.28 794.16C1016.85 792.827 1016.64 791.333 1016.64 789.68C1016.64 788.053 1016.85 786.573 1017.28 785.24C1017.73 783.907 1018.36 782.773 1019.16 781.84C1019.98 780.88 1020.96 780.147 1022.08 779.64C1023.22 779.133 1024.5 778.88 1025.92 778.88C1027.3 778.88 1028.54 779.133 1029.64 779.64C1030.73 780.147 1031.66 780.853 1032.44 781.76C1033.21 782.64 1033.8 783.693 1034.2 784.92C1034.62 786.147 1034.84 787.493 1034.84 788.96V790.48H1020V791.44C1020 792.32 1020.13 793.147 1020.4 793.92C1020.69 794.667 1021.09 795.32 1021.6 795.88C1022.13 796.44 1022.77 796.88 1023.52 797.2C1024.29 797.52 1025.16 797.68 1026.12 797.68C1027.42 797.68 1028.56 797.373 1029.52 796.76C1030.5 796.147 1031.26 795.267 1031.8 794.12L1034.08 795.76C1033.41 797.173 1032.37 798.32 1030.96 799.2C1029.54 800.053 1027.86 800.48 1025.92 800.48ZM1025.92 781.56C1025.04 781.56 1024.24 781.72 1023.52 782.04C1022.8 782.333 1022.17 782.76 1021.64 783.32C1021.13 783.88 1020.73 784.547 1020.44 785.32C1020.14 786.067 1020 786.893 1020 787.8V788.08H1031.4V787.64C1031.4 785.8 1030.89 784.333 1029.88 783.24C1028.89 782.12 1027.57 781.56 1025.92 781.56Z" fill="black"/>
<path d="M433.144 755C432.024 755 431.17 754.693 430.584 754.08C430.024 753.44 429.744 752.613 429.744 751.6V737.16H426.344V734.36H428.264C428.957 734.36 429.424 734.227 429.664 733.96C429.93 733.667 430.064 733.173 430.064 732.48V728.64H432.944V734.36H437.464V737.16H432.944V752.2H437.144V755H433.144ZM455.327 734.36H458.487L449.247 759.8C449.007 760.413 448.767 760.92 448.527 761.32C448.287 761.747 447.994 762.08 447.647 762.32C447.3 762.56 446.86 762.733 446.327 762.84C445.82 762.947 445.194 763 444.447 763H442.807V760.2H446.047L447.607 755.8L439.887 734.36H443.087L448.047 748.4L449.007 751.76H449.207L450.327 748.4L455.327 734.36ZM462.568 734.36H465.768V737.72H465.928C466.461 736.413 467.235 735.453 468.248 734.84C469.288 734.2 470.528 733.88 471.968 733.88C473.248 733.88 474.408 734.133 475.448 734.64C476.488 735.147 477.368 735.867 478.088 736.8C478.835 737.733 479.395 738.867 479.768 740.2C480.168 741.533 480.368 743.027 480.368 744.68C480.368 746.333 480.168 747.827 479.768 749.16C479.395 750.493 478.835 751.627 478.088 752.56C477.368 753.493 476.488 754.213 475.448 754.72C474.408 755.227 473.248 755.48 471.968 755.48C469.168 755.48 467.155 754.2 465.928 751.64H465.768V763H462.568V734.36ZM471.088 752.6C472.901 752.6 474.328 752.04 475.368 750.92C476.408 749.773 476.928 748.28 476.928 746.44V742.92C476.928 741.08 476.408 739.6 475.368 738.48C474.328 737.333 472.901 736.76 471.088 736.76C470.368 736.76 469.675 736.867 469.008 737.08C468.368 737.267 467.808 737.533 467.328 737.88C466.848 738.227 466.461 738.653 466.168 739.16C465.901 739.64 465.768 740.16 465.768 740.72V748.4C465.768 749.067 465.901 749.667 466.168 750.2C466.461 750.707 466.848 751.147 467.328 751.52C467.808 751.867 468.368 752.133 469.008 752.32C469.675 752.507 470.368 752.6 471.088 752.6ZM493.531 755.48C492.118 755.48 490.838 755.227 489.691 754.72C488.571 754.213 487.598 753.493 486.771 752.56C485.971 751.6 485.344 750.467 484.891 749.16C484.464 747.827 484.251 746.333 484.251 744.68C484.251 743.053 484.464 741.573 484.891 740.24C485.344 738.907 485.971 737.773 486.771 736.84C487.598 735.88 488.571 735.147 489.691 734.64C490.838 734.133 492.118 733.88 493.531 733.88C494.918 733.88 496.158 734.133 497.251 734.64C498.344 735.147 499.278 735.853 500.051 736.76C500.824 737.64 501.411 738.693 501.811 739.92C502.238 741.147 502.451 742.493 502.451 743.96V745.48H487.611V746.44C487.611 747.32 487.744 748.147 488.011 748.92C488.304 749.667 488.704 750.32 489.211 750.88C489.744 751.44 490.384 751.88 491.131 752.2C491.904 752.52 492.771 752.68 493.731 752.68C495.038 752.68 496.171 752.373 497.131 751.76C498.118 751.147 498.878 750.267 499.411 749.12L501.691 750.76C501.024 752.173 499.984 753.32 498.571 754.2C497.158 755.053 495.478 755.48 493.531 755.48ZM493.531 736.56C492.651 736.56 491.851 736.72 491.131 737.04C490.411 737.333 489.784 737.76 489.251 738.32C488.744 738.88 488.344 739.547 488.051 740.32C487.758 741.067 487.611 741.893 487.611 742.8V743.08H499.011V742.64C499.011 740.8 498.504 739.333 497.491 738.24C496.504 737.12 495.184 736.56 493.531 736.56ZM513.924 755.48C512.004 755.48 510.391 755.12 509.084 754.4C507.804 753.653 506.698 752.667 505.764 751.44L508.044 749.6C508.844 750.613 509.738 751.4 510.724 751.96C511.711 752.493 512.858 752.76 514.164 752.76C515.524 752.76 516.578 752.467 517.324 751.88C518.098 751.293 518.484 750.467 518.484 749.4C518.484 748.6 518.218 747.92 517.684 747.36C517.178 746.773 516.244 746.373 514.884 746.16L513.244 745.92C512.284 745.787 511.404 745.587 510.604 745.32C509.804 745.027 509.098 744.653 508.484 744.2C507.898 743.72 507.431 743.133 507.084 742.44C506.764 741.747 506.604 740.92 506.604 739.96C506.604 738.947 506.791 738.067 507.164 737.32C507.538 736.547 508.044 735.907 508.684 735.4C509.351 734.893 510.138 734.52 511.044 734.28C511.951 734.013 512.924 733.88 513.964 733.88C515.644 733.88 517.044 734.173 518.164 734.76C519.311 735.347 520.311 736.16 521.164 737.2L519.044 739.12C518.591 738.48 517.924 737.907 517.044 737.4C516.164 736.867 515.058 736.6 513.724 736.6C512.391 736.6 511.378 736.893 510.684 737.48C510.018 738.04 509.684 738.813 509.684 739.8C509.684 740.813 510.018 741.547 510.684 742C511.378 742.453 512.364 742.787 513.644 743L515.244 743.24C517.538 743.587 519.164 744.253 520.124 745.24C521.084 746.2 521.564 747.467 521.564 749.04C521.564 751.04 520.884 752.613 519.524 753.76C518.164 754.907 516.298 755.48 513.924 755.48Z" fill="black"/>
<path d="M435.217 844.48C433.777 844.48 432.483 844.227 431.337 843.72C430.19 843.213 429.217 842.493 428.417 841.56C427.643 840.627 427.043 839.493 426.617 838.16C426.217 836.827 426.017 835.333 426.017 833.68C426.017 832.027 426.217 830.533 426.617 829.2C427.043 827.867 427.643 826.733 428.417 825.8C429.217 824.867 430.19 824.147 431.337 823.64C432.483 823.133 433.777 822.88 435.217 822.88C437.27 822.88 438.91 823.333 440.137 824.24C441.39 825.12 442.323 826.28 442.937 827.72L440.257 829.08C439.883 828.013 439.27 827.187 438.417 826.6C437.563 826.013 436.497 825.72 435.217 825.72C434.257 825.72 433.417 825.88 432.697 826.2C431.977 826.493 431.377 826.92 430.897 827.48C430.417 828.013 430.057 828.667 429.817 829.44C429.577 830.187 429.457 831.013 429.457 831.92V835.44C429.457 837.253 429.937 838.747 430.897 839.92C431.883 841.067 433.323 841.64 435.217 841.64C437.803 841.64 439.67 840.44 440.817 838.04L443.137 839.6C442.47 841.093 441.47 842.28 440.137 843.16C438.83 844.04 437.19 844.48 435.217 844.48ZM451.054 844C449.934 844 449.081 843.693 448.494 843.08C447.934 842.44 447.654 841.64 447.654 840.68V814.4H450.854V841.2H453.894V844H451.054ZM460.152 818.52C459.459 818.52 458.952 818.36 458.632 818.04C458.339 817.693 458.192 817.253 458.192 816.72V816.2C458.192 815.667 458.339 815.24 458.632 814.92C458.952 814.573 459.459 814.4 460.152 814.4C460.846 814.4 461.339 814.573 461.632 814.92C461.952 815.24 462.112 815.667 462.112 816.2V816.72C462.112 817.253 461.952 817.693 461.632 818.04C461.339 818.36 460.846 818.52 460.152 818.52ZM458.552 823.36H461.752V844H458.552V823.36ZM476.312 844.48C474.899 844.48 473.619 844.227 472.472 843.72C471.352 843.213 470.379 842.493 469.552 841.56C468.752 840.6 468.126 839.467 467.672 838.16C467.246 836.827 467.032 835.333 467.032 833.68C467.032 832.053 467.246 830.573 467.672 829.24C468.126 827.907 468.752 826.773 469.552 825.84C470.379 824.88 471.352 824.147 472.472 823.64C473.619 823.133 474.899 822.88 476.312 822.88C477.699 822.88 478.939 823.133 480.032 823.64C481.126 824.147 482.059 824.853 482.832 825.76C483.606 826.64 484.192 827.693 484.592 828.92C485.019 830.147 485.232 831.493 485.232 832.96V834.48H470.392V835.44C470.392 836.32 470.526 837.147 470.792 837.92C471.086 838.667 471.486 839.32 471.992 839.88C472.526 840.44 473.166 840.88 473.912 841.2C474.686 841.52 475.552 841.68 476.512 841.68C477.819 841.68 478.952 841.373 479.912 840.76C480.899 840.147 481.659 839.267 482.192 838.12L484.472 839.76C483.806 841.173 482.766 842.32 481.352 843.2C479.939 844.053 478.259 844.48 476.312 844.48ZM476.312 825.56C475.432 825.56 474.632 825.72 473.912 826.04C473.192 826.333 472.566 826.76 472.032 827.32C471.526 827.88 471.126 828.547 470.832 829.32C470.539 830.067 470.392 830.893 470.392 831.8V832.08H481.792V831.64C481.792 829.8 481.286 828.333 480.272 827.24C479.286 826.12 477.966 825.56 476.312 825.56ZM490.505 844V823.36H493.705V826.72H493.865C494.372 825.547 495.079 824.613 495.985 823.92C496.919 823.227 498.159 822.88 499.705 822.88C501.839 822.88 503.519 823.573 504.745 824.96C505.999 826.32 506.625 828.253 506.625 830.76V844H503.425V831.32C503.425 827.613 501.865 825.76 498.745 825.76C498.105 825.76 497.479 825.84 496.865 826C496.279 826.16 495.745 826.4 495.265 826.72C494.785 827.04 494.399 827.453 494.105 827.96C493.839 828.44 493.705 829.013 493.705 829.68V844H490.505ZM517.8 844C516.68 844 515.827 843.693 515.24 843.08C514.68 842.44 514.4 841.613 514.4 840.6V826.16H511V823.36H512.92C513.613 823.36 514.08 823.227 514.32 822.96C514.587 822.667 514.72 822.173 514.72 821.48V817.64H517.6V823.36H522.12V826.16H517.6V841.2H521.8V844H517.8Z" fill="black"/>
<path d="M575.485 817V804.616H577.405V806.632H577.501C577.645 806.312 577.805 806.016 577.981 805.744C578.173 805.456 578.397 805.208 578.653 805C578.925 804.792 579.237 804.632 579.589 804.52C579.941 804.392 580.357 804.328 580.837 804.328C581.653 804.328 582.405 804.528 583.093 804.928C583.781 805.312 584.293 805.952 584.629 806.848H584.677C584.901 806.176 585.317 805.592 585.925 805.096C586.549 804.584 587.389 804.328 588.445 804.328C589.709 804.328 590.693 804.744 591.397 805.576C592.117 806.392 592.477 807.552 592.477 809.056V817H590.557V809.392C590.557 808.288 590.341 807.456 589.909 806.896C589.477 806.336 588.789 806.056 587.845 806.056C587.461 806.056 587.093 806.104 586.741 806.2C586.405 806.296 586.101 806.44 585.829 806.632C585.557 806.824 585.341 807.072 585.181 807.376C585.021 807.664 584.941 808.008 584.941 808.408V817H583.021V809.392C583.021 808.288 582.805 807.456 582.373 806.896C581.941 806.336 581.269 806.056 580.357 806.056C579.973 806.056 579.605 806.104 579.253 806.2C578.901 806.296 578.589 806.44 578.317 806.632C578.045 806.824 577.821 807.072 577.645 807.376C577.485 807.664 577.405 808.008 577.405 808.408V817H575.485ZM601.118 817.288C600.286 817.288 599.526 817.136 598.838 816.832C598.15 816.528 597.558 816.096 597.062 815.536C596.582 814.96 596.206 814.28 595.934 813.496C595.662 812.696 595.526 811.8 595.526 810.808C595.526 809.832 595.662 808.944 595.934 808.144C596.206 807.344 596.582 806.664 597.062 806.104C597.558 805.528 598.15 805.088 598.838 804.784C599.526 804.48 600.286 804.328 601.118 804.328C601.95 804.328 602.702 804.48 603.374 804.784C604.062 805.088 604.654 805.528 605.15 806.104C605.646 806.664 606.03 807.344 606.302 808.144C606.574 808.944 606.71 809.832 606.71 810.808C606.71 811.8 606.574 812.696 606.302 813.496C606.03 814.28 605.646 814.96 605.15 815.536C604.654 816.096 604.062 816.528 603.374 816.832C602.702 817.136 601.95 817.288 601.118 817.288ZM601.118 815.584C602.158 815.584 603.006 815.264 603.662 814.624C604.318 813.984 604.646 813.008 604.646 811.696V809.92C604.646 808.608 604.318 807.632 603.662 806.992C603.006 806.352 602.158 806.032 601.118 806.032C600.078 806.032 599.23 806.352 598.574 806.992C597.918 807.632 597.59 808.608 597.59 809.92V811.696C597.59 813.008 597.918 813.984 598.574 814.624C599.23 815.264 600.078 815.584 601.118 815.584ZM614.476 817.288C613.612 817.288 612.836 817.136 612.148 816.832C611.46 816.528 610.876 816.096 610.396 815.536C609.932 814.976 609.572 814.296 609.316 813.496C609.076 812.696 608.956 811.8 608.956 810.808C608.956 809.816 609.076 808.92 609.316 808.12C609.572 807.32 609.932 806.64 610.396 806.08C610.876 805.52 611.46 805.088 612.148 804.784C612.836 804.48 613.612 804.328 614.476 804.328C615.708 804.328 616.692 804.6 617.428 805.144C618.18 805.672 618.74 806.368 619.108 807.232L617.5 808.048C617.276 807.408 616.908 806.912 616.396 806.56C615.884 806.208 615.244 806.032 614.476 806.032C613.9 806.032 613.396 806.128 612.964 806.32C612.532 806.496 612.172 806.752 611.884 807.088C611.596 807.408 611.38 807.8 611.236 808.264C611.092 808.712 611.02 809.208 611.02 809.752V811.864C611.02 812.952 611.308 813.848 611.884 814.552C612.476 815.24 613.34 815.584 614.476 815.584C616.028 815.584 617.148 814.864 617.836 813.424L619.228 814.36C618.828 815.256 618.228 815.968 617.428 816.496C616.644 817.024 615.66 817.288 614.476 817.288ZM621.938 799.24H623.858V810.496H623.954L625.85 808.384L629.354 804.616H631.682L627.098 809.512L632.138 817H629.81L625.706 810.688L623.858 812.584V817H621.938V799.24ZM574.998 841.288C573.846 841.288 572.878 841.072 572.094 840.64C571.326 840.192 570.662 839.6 570.102 838.864L571.47 837.76C571.95 838.368 572.486 838.84 573.078 839.176C573.67 839.496 574.358 839.656 575.142 839.656C575.958 839.656 576.59 839.48 577.038 839.128C577.502 838.776 577.734 838.28 577.734 837.64C577.734 837.16 577.574 836.752 577.254 836.416C576.95 836.064 576.39 835.824 575.574 835.696L574.59 835.552C574.014 835.472 573.486 835.352 573.006 835.192C572.526 835.016 572.102 834.792 571.734 834.52C571.382 834.232 571.102 833.88 570.894 833.464C570.702 833.048 570.606 832.552 570.606 831.976C570.606 831.368 570.718 830.84 570.942 830.392C571.166 829.928 571.47 829.544 571.854 829.24C572.254 828.936 572.726 828.712 573.27 828.568C573.814 828.408 574.398 828.328 575.022 828.328C576.03 828.328 576.87 828.504 577.542 828.856C578.23 829.208 578.83 829.696 579.342 830.32L578.07 831.472C577.798 831.088 577.398 830.744 576.87 830.44C576.342 830.12 575.678 829.96 574.878 829.96C574.078 829.96 573.47 830.136 573.054 830.488C572.654 830.824 572.454 831.288 572.454 831.88C572.454 832.488 572.654 832.928 573.054 833.2C573.47 833.472 574.062 833.672 574.83 833.8L575.79 833.944C577.166 834.152 578.142 834.552 578.718 835.144C579.294 835.72 579.582 836.48 579.582 837.424C579.582 838.624 579.174 839.568 578.358 840.256C577.542 840.944 576.422 841.288 574.998 841.288ZM587.63 841.288C586.782 841.288 586.014 841.136 585.326 840.832C584.654 840.528 584.07 840.096 583.574 839.536C583.094 838.96 582.718 838.28 582.446 837.496C582.19 836.696 582.062 835.8 582.062 834.808C582.062 833.832 582.19 832.944 582.446 832.144C582.718 831.344 583.094 830.664 583.574 830.104C584.07 829.528 584.654 829.088 585.326 828.784C586.014 828.48 586.782 828.328 587.63 828.328C588.462 828.328 589.206 828.48 589.862 828.784C590.518 829.088 591.078 829.512 591.542 830.056C592.006 830.584 592.358 831.216 592.598 831.952C592.854 832.688 592.982 833.496 592.982 834.376V835.288H584.078V835.864C584.078 836.392 584.158 836.888 584.318 837.352C584.494 837.8 584.734 838.192 585.038 838.528C585.358 838.864 585.742 839.128 586.19 839.32C586.654 839.512 587.174 839.608 587.75 839.608C588.534 839.608 589.214 839.424 589.79 839.056C590.382 838.688 590.838 838.16 591.158 837.472L592.526 838.456C592.126 839.304 591.502 839.992 590.654 840.52C589.806 841.032 588.798 841.288 587.63 841.288ZM587.63 829.936C587.102 829.936 586.622 830.032 586.19 830.224C585.758 830.4 585.382 830.656 585.062 830.992C584.758 831.328 584.518 831.728 584.342 832.192C584.166 832.64 584.078 833.136 584.078 833.68V833.848H590.918V833.584C590.918 832.48 590.614 831.6 590.006 830.944C589.414 830.272 588.622 829.936 587.63 829.936ZM596.145 841V828.616H598.065V830.896H598.185C598.409 830.304 598.809 829.776 599.385 829.312C599.961 828.848 600.753 828.616 601.761 828.616H602.505V830.536H601.377C600.337 830.536 599.521 830.736 598.929 831.136C598.353 831.52 598.065 832.008 598.065 832.6V841H596.145ZM607.928 841L603.584 828.616H605.504L607.664 834.76L609.008 838.984H609.128L610.472 834.76L612.68 828.616H614.528L610.16 841H607.928ZM621.473 841.288C620.625 841.288 619.857 841.136 619.169 840.832C618.497 840.528 617.913 840.096 617.417 839.536C616.937 838.96 616.561 838.28 616.289 837.496C616.033 836.696 615.905 835.8 615.905 834.808C615.905 833.832 616.033 832.944 616.289 832.144C616.561 831.344 616.937 830.664 617.417 830.104C617.913 829.528 618.497 829.088 619.169 828.784C619.857 828.48 620.625 828.328 621.473 828.328C622.305 828.328 623.049 828.48 623.705 828.784C624.361 829.088 624.921 829.512 625.385 830.056C625.849 830.584 626.201 831.216 626.441 831.952C626.697 832.688 626.825 833.496 626.825 834.376V835.288H617.921V835.864C617.921 836.392 618.001 836.888 618.161 837.352C618.337 837.8 618.577 838.192 618.881 838.528C619.201 838.864 619.585 839.128 620.033 839.32C620.497 839.512 621.017 839.608 621.593 839.608C622.377 839.608 623.057 839.424 623.633 839.056C624.225 838.688 624.681 838.16 625.001 837.472L626.369 838.456C625.969 839.304 625.345 839.992 624.497 840.52C623.649 841.032 622.641 841.288 621.473 841.288ZM621.473 829.936C620.945 829.936 620.465 830.032 620.033 830.224C619.601 830.4 619.225 830.656 618.905 830.992C618.601 831.328 618.361 831.728 618.185 832.192C618.009 832.64 617.921 833.136 617.921 833.68V833.848H624.761V833.584C624.761 832.48 624.457 831.6 623.849 830.944C623.257 830.272 622.465 829.936 621.473 829.936ZM629.989 841V828.616H631.909V830.896H632.029C632.253 830.304 632.653 829.776 633.229 829.312C633.805 828.848 634.597 828.616 635.605 828.616H636.349V830.536H635.221C634.181 830.536 633.365 830.736 632.773 831.136C632.197 831.52 631.909 832.008 631.909 832.6V841H629.989Z" fill="black"/>
<path d="M712.433 586C711.313 586 710.459 585.693 709.873 585.08C709.313 584.44 709.033 583.613 709.033 582.6V568.16H705.633V565.36H707.553C708.246 565.36 708.713 565.227 708.953 564.96C709.219 564.667 709.353 564.173 709.353 563.48V559.64H712.233V565.36H716.753V568.16H712.233V583.2H716.433V586H712.433ZM729.5 586.48C728.087 586.48 726.807 586.227 725.66 585.72C724.54 585.213 723.567 584.493 722.74 583.56C721.94 582.6 721.313 581.467 720.86 580.16C720.433 578.827 720.22 577.333 720.22 575.68C720.22 574.053 720.433 572.573 720.86 571.24C721.313 569.907 721.94 568.773 722.74 567.84C723.567 566.88 724.54 566.147 725.66 565.64C726.807 565.133 728.087 564.88 729.5 564.88C730.887 564.88 732.127 565.133 733.22 565.64C734.313 566.147 735.247 566.853 736.02 567.76C736.793 568.64 737.38 569.693 737.78 570.92C738.207 572.147 738.42 573.493 738.42 574.96V576.48H723.58V577.44C723.58 578.32 723.713 579.147 723.98 579.92C724.273 580.667 724.673 581.32 725.18 581.88C725.713 582.44 726.353 582.88 727.1 583.2C727.873 583.52 728.74 583.68 729.7 583.68C731.007 583.68 732.14 583.373 733.1 582.76C734.087 582.147 734.847 581.267 735.38 580.12L737.66 581.76C736.993 583.173 735.953 584.32 734.54 585.2C733.127 586.053 731.447 586.48 729.5 586.48ZM729.5 567.56C728.62 567.56 727.82 567.72 727.1 568.04C726.38 568.333 725.753 568.76 725.22 569.32C724.713 569.88 724.313 570.547 724.02 571.32C723.727 572.067 723.58 572.893 723.58 573.8V574.08H734.98V573.64C734.98 571.8 734.473 570.333 733.46 569.24C732.473 568.12 731.153 567.56 729.5 567.56ZM749.893 586.48C747.973 586.48 746.36 586.12 745.053 585.4C743.773 584.653 742.666 583.667 741.733 582.44L744.013 580.6C744.813 581.613 745.706 582.4 746.693 582.96C747.68 583.493 748.826 583.76 750.133 583.76C751.493 583.76 752.546 583.467 753.293 582.88C754.066 582.293 754.453 581.467 754.453 580.4C754.453 579.6 754.186 578.92 753.653 578.36C753.146 577.773 752.213 577.373 750.853 577.16L749.213 576.92C748.253 576.787 747.373 576.587 746.573 576.32C745.773 576.027 745.066 575.653 744.453 575.2C743.866 574.72 743.4 574.133 743.053 573.44C742.733 572.747 742.573 571.92 742.573 570.96C742.573 569.947 742.76 569.067 743.133 568.32C743.506 567.547 744.013 566.907 744.653 566.4C745.32 565.893 746.106 565.52 747.013 565.28C747.92 565.013 748.893 564.88 749.933 564.88C751.613 564.88 753.013 565.173 754.133 565.76C755.28 566.347 756.28 567.16 757.133 568.2L755.013 570.12C754.56 569.48 753.893 568.907 753.013 568.4C752.133 567.867 751.026 567.6 749.693 567.6C748.36 567.6 747.346 567.893 746.653 568.48C745.986 569.04 745.653 569.813 745.653 570.8C745.653 571.813 745.986 572.547 746.653 573C747.346 573.453 748.333 573.787 749.613 574L751.213 574.24C753.506 574.587 755.133 575.253 756.093 576.24C757.053 577.2 757.533 578.467 757.533 580.04C757.533 582.04 756.853 583.613 755.493 584.76C754.133 585.907 752.266 586.48 749.893 586.48ZM767.472 586C766.352 586 765.498 585.693 764.912 585.08C764.352 584.44 764.072 583.613 764.072 582.6V568.16H760.672V565.36H762.592C763.285 565.36 763.752 565.227 763.992 564.96C764.258 564.667 764.392 564.173 764.392 563.48V559.64H767.272V565.36H771.792V568.16H767.272V583.2H771.472V586H767.472ZM792.588 586.48C790.668 586.48 789.055 586.12 787.748 585.4C786.468 584.653 785.362 583.667 784.428 582.44L786.708 580.6C787.508 581.613 788.402 582.4 789.388 582.96C790.375 583.493 791.522 583.76 792.828 583.76C794.188 583.76 795.242 583.467 795.988 582.88C796.762 582.293 797.148 581.467 797.148 580.4C797.148 579.6 796.882 578.92 796.348 578.36C795.842 577.773 794.908 577.373 793.548 577.16L791.908 576.92C790.948 576.787 790.068 576.587 789.268 576.32C788.468 576.027 787.762 575.653 787.148 575.2C786.562 574.72 786.095 574.133 785.748 573.44C785.428 572.747 785.268 571.92 785.268 570.96C785.268 569.947 785.455 569.067 785.828 568.32C786.202 567.547 786.708 566.907 787.348 566.4C788.015 565.893 788.802 565.52 789.708 565.28C790.615 565.013 791.588 564.88 792.628 564.88C794.308 564.88 795.708 565.173 796.828 565.76C797.975 566.347 798.975 567.16 799.828 568.2L797.708 570.12C797.255 569.48 796.588 568.907 795.708 568.4C794.828 567.867 793.722 567.6 792.388 567.6C791.055 567.6 790.042 567.893 789.348 568.48C788.682 569.04 788.348 569.813 788.348 570.8C788.348 571.813 788.682 572.547 789.348 573C790.042 573.453 791.028 573.787 792.308 574L793.908 574.24C796.202 574.587 797.828 575.253 798.788 576.24C799.748 577.2 800.228 578.467 800.228 580.04C800.228 582.04 799.548 583.613 798.188 584.76C796.828 585.907 794.962 586.48 792.588 586.48ZM813.64 586.48C812.227 586.48 810.947 586.227 809.8 585.72C808.68 585.213 807.707 584.493 806.88 583.56C806.08 582.6 805.454 581.467 805 580.16C804.574 578.827 804.36 577.333 804.36 575.68C804.36 574.053 804.574 572.573 805 571.24C805.454 569.907 806.08 568.773 806.88 567.84C807.707 566.88 808.68 566.147 809.8 565.64C810.947 565.133 812.227 564.88 813.64 564.88C815.027 564.88 816.267 565.133 817.36 565.64C818.454 566.147 819.387 566.853 820.16 567.76C820.934 568.64 821.52 569.693 821.92 570.92C822.347 572.147 822.56 573.493 822.56 574.96V576.48H807.72V577.44C807.72 578.32 807.854 579.147 808.12 579.92C808.414 580.667 808.814 581.32 809.32 581.88C809.854 582.44 810.494 582.88 811.24 583.2C812.014 583.52 812.88 583.68 813.84 583.68C815.147 583.68 816.28 583.373 817.24 582.76C818.227 582.147 818.987 581.267 819.52 580.12L821.8 581.76C821.134 583.173 820.094 584.32 818.68 585.2C817.267 586.053 815.587 586.48 813.64 586.48ZM813.64 567.56C812.76 567.56 811.96 567.72 811.24 568.04C810.52 568.333 809.894 568.76 809.36 569.32C808.854 569.88 808.454 570.547 808.16 571.32C807.867 572.067 807.72 572.893 807.72 573.8V574.08H819.12V573.64C819.12 571.8 818.614 570.333 817.6 569.24C816.614 568.12 815.294 567.56 813.64 567.56ZM827.834 586V565.36H831.034V569.16H831.234C831.607 568.173 832.274 567.293 833.234 566.52C834.194 565.747 835.514 565.36 837.194 565.36H838.434V568.56H836.554C834.82 568.56 833.46 568.893 832.474 569.56C831.514 570.2 831.034 571.013 831.034 572V586H827.834ZM847.472 586L840.232 565.36H843.432L847.032 575.6L849.272 582.64H849.472L851.712 575.6L855.392 565.36H858.472L851.192 586H847.472ZM870.047 586.48C868.633 586.48 867.353 586.227 866.207 585.72C865.087 585.213 864.113 584.493 863.287 583.56C862.487 582.6 861.86 581.467 861.407 580.16C860.98 578.827 860.767 577.333 860.767 575.68C860.767 574.053 860.98 572.573 861.407 571.24C861.86 569.907 862.487 568.773 863.287 567.84C864.113 566.88 865.087 566.147 866.207 565.64C867.353 565.133 868.633 564.88 870.047 564.88C871.433 564.88 872.673 565.133 873.767 565.64C874.86 566.147 875.793 566.853 876.567 567.76C877.34 568.64 877.927 569.693 878.327 570.92C878.753 572.147 878.967 573.493 878.967 574.96V576.48H864.127V577.44C864.127 578.32 864.26 579.147 864.527 579.92C864.82 580.667 865.22 581.32 865.727 581.88C866.26 582.44 866.9 582.88 867.647 583.2C868.42 583.52 869.287 583.68 870.247 583.68C871.553 583.68 872.687 583.373 873.647 582.76C874.633 582.147 875.393 581.267 875.927 580.12L878.207 581.76C877.54 583.173 876.5 584.32 875.087 585.2C873.673 586.053 871.993 586.48 870.047 586.48ZM870.047 567.56C869.167 567.56 868.367 567.72 867.647 568.04C866.927 568.333 866.3 568.76 865.767 569.32C865.26 569.88 864.86 570.547 864.567 571.32C864.273 572.067 864.127 572.893 864.127 573.8V574.08H875.527V573.64C875.527 571.8 875.02 570.333 874.007 569.24C873.02 568.12 871.7 567.56 870.047 567.56ZM884.24 586V565.36H887.44V569.16H887.64C888.013 568.173 888.68 567.293 889.64 566.52C890.6 565.747 891.92 565.36 893.6 565.36H894.84V568.56H892.96C891.227 568.56 889.867 568.893 888.88 569.56C887.92 570.2 887.44 571.013 887.44 572V586H884.24Z" fill="black"/>
<path d="M385.55 719H384.45C383.124 719 381.852 719.527 380.914 720.464C379.977 721.402 379.45 722.674 379.45 724V724.45C379.449 725.327 379.218 726.188 378.779 726.947C378.34 727.706 377.709 728.337 376.95 728.775L375.875 729.4C375.115 729.839 374.253 730.07 373.375 730.07C372.497 730.07 371.635 729.839 370.875 729.4L370.5 729.2C369.353 728.538 367.99 728.359 366.71 728.701C365.43 729.043 364.339 729.879 363.675 731.025L363.125 731.975C362.463 733.122 362.284 734.485 362.626 735.765C362.968 737.045 363.804 738.136 364.95 738.8L365.325 739.05C366.081 739.486 366.709 740.113 367.148 740.867C367.586 741.621 367.82 742.477 367.825 743.35V744.625C367.829 745.506 367.599 746.372 367.16 747.136C366.721 747.9 366.088 748.534 365.325 748.975L364.95 749.2C363.804 749.864 362.968 750.955 362.626 752.235C362.284 753.515 362.463 754.878 363.125 756.025L363.675 756.975C364.339 758.121 365.43 758.957 366.71 759.299C367.99 759.641 369.353 759.462 370.5 758.8L370.875 758.6C371.635 758.161 372.497 757.93 373.375 757.93C374.253 757.93 375.115 758.161 375.875 758.6L376.95 759.225C377.709 759.663 378.34 760.294 378.779 761.053C379.218 761.812 379.449 762.673 379.45 763.55V764C379.45 765.326 379.977 766.598 380.914 767.536C381.852 768.473 383.124 769 384.45 769H385.55C386.876 769 388.148 768.473 389.086 767.536C390.023 766.598 390.55 765.326 390.55 764V763.55C390.551 762.673 390.782 761.812 391.221 761.053C391.66 760.294 392.291 759.663 393.05 759.225L394.125 758.6C394.885 758.161 395.747 757.93 396.625 757.93C397.503 757.93 398.365 758.161 399.125 758.6L399.5 758.8C400.647 759.462 402.01 759.641 403.29 759.299C404.57 758.957 405.661 758.121 406.325 756.975L406.875 756C407.537 754.853 407.716 753.49 407.374 752.21C407.032 750.93 406.196 749.839 405.05 749.175L404.675 748.975C403.912 748.534 403.279 747.9 402.84 747.136C402.401 746.372 402.172 745.506 402.175 744.625V743.375C402.172 742.494 402.401 741.628 402.84 740.864C403.279 740.1 403.912 739.466 404.675 739.025L405.05 738.8C406.196 738.136 407.032 737.045 407.374 735.765C407.716 734.485 407.537 733.122 406.875 731.975L406.325 731.025C405.661 729.879 404.57 729.043 403.29 728.701C402.01 728.359 400.647 728.538 399.5 729.2L399.125 729.4C398.365 729.839 397.503 730.07 396.625 730.07C395.747 730.07 394.885 729.839 394.125 729.4L393.05 728.775C392.291 728.337 391.66 727.706 391.221 726.947C390.782 726.188 390.551 725.327 390.55 724.45V724C390.55 722.674 390.023 721.402 389.086 720.464C388.148 719.527 386.876 719 385.55 719Z" stroke="black" stroke-width="2" stroke-linecap="round" stroke-linejoin="round"/>
<path d="M385 751.5C389.142 751.5 392.5 748.142 392.5 744C392.5 739.858 389.142 736.5 385 736.5C380.858 736.5 377.5 739.858 377.5 744C377.5 748.142 380.858 751.5 385 751.5Z" stroke="black" stroke-width="2" stroke-linecap="round" stroke-linejoin="round"/>
<path d="M602.55 730H601.45C600.124 730 598.852 730.527 597.914 731.464C596.977 732.402 596.45 733.674 596.45 735V735.45C596.449 736.327 596.218 737.188 595.779 737.947C595.34 738.706 594.709 739.337 593.95 739.775L592.875 740.4C592.115 740.839 591.253 741.07 590.375 741.07C589.497 741.07 588.635 740.839 587.875 740.4L587.5 740.2C586.353 739.538 584.99 739.359 583.71 739.701C582.43 740.043 581.339 740.879 580.675 742.025L580.125 742.975C579.463 744.122 579.284 745.485 579.626 746.765C579.968 748.045 580.804 749.136 581.95 749.8L582.325 750.05C583.081 750.486 583.709 751.113 584.148 751.867C584.586 752.621 584.82 753.477 584.825 754.35V755.625C584.829 756.506 584.599 757.372 584.16 758.136C583.721 758.9 583.088 759.534 582.325 759.975L581.95 760.2C580.804 760.864 579.968 761.955 579.626 763.235C579.284 764.515 579.463 765.878 580.125 767.025L580.675 767.975C581.339 769.121 582.43 769.957 583.71 770.299C584.99 770.641 586.353 770.462 587.5 769.8L587.875 769.6C588.635 769.161 589.497 768.93 590.375 768.93C591.253 768.93 592.115 769.161 592.875 769.6L593.95 770.225C594.709 770.663 595.34 771.294 595.779 772.053C596.218 772.812 596.449 773.673 596.45 774.55V775C596.45 776.326 596.977 777.598 597.914 778.536C598.852 779.473 600.124 780 601.45 780H602.55C603.876 780 605.148 779.473 606.086 778.536C607.023 777.598 607.55 776.326 607.55 775V774.55C607.551 773.673 607.782 772.812 608.221 772.053C608.66 771.294 609.291 770.663 610.05 770.225L611.125 769.6C611.885 769.161 612.747 768.93 613.625 768.93C614.503 768.93 615.365 769.161 616.125 769.6L616.5 769.8C617.647 770.462 619.01 770.641 620.29 770.299C621.57 769.957 622.661 769.121 623.325 767.975L623.875 767C624.537 765.853 624.716 764.49 624.374 763.21C624.032 761.93 623.196 760.839 622.05 760.175L621.675 759.975C620.912 759.534 620.279 758.9 619.84 758.136C619.401 757.372 619.172 756.506 619.175 755.625V754.375C619.172 753.494 619.401 752.628 619.84 751.864C620.279 751.1 620.912 750.466 621.675 750.025L622.05 749.8C623.196 749.136 624.032 748.045 624.374 746.765C624.716 745.485 624.537 744.122 623.875 742.975L623.325 742.025C622.661 740.879 621.57 740.043 620.29 739.701C619.01 739.359 617.647 739.538 616.5 740.2L616.125 740.4C615.365 740.839 614.503 741.07 613.625 741.07C612.747 741.07 611.885 740.839 611.125 740.4L610.05 739.775C609.291 739.337 608.66 738.706 608.221 737.947C607.782 737.188 607.551 736.327 607.55 735.45V735C607.55 733.674 607.023 732.402 606.086 731.464C605.148 730.527 603.876 730 602.55 730Z" stroke="black" stroke-width="2" stroke-linecap="round" stroke-linejoin="round"/>
<path d="M602 762.5C606.142 762.5 609.5 759.142 609.5 755C609.5 750.858 606.142 747.5 602 747.5C597.858 747.5 594.5 750.858 594.5 755C594.5 759.142 597.858 762.5 602 762.5Z" stroke="black" stroke-width="2" stroke-linecap="round" stroke-linejoin="round"/>
<path d="M385.55 808H384.45C383.124 808 381.852 808.527 380.914 809.464C379.977 810.402 379.45 811.674 379.45 813V813.45C379.449 814.327 379.218 815.188 378.779 815.947C378.34 816.706 377.709 817.337 376.95 817.775L375.875 818.4C375.115 818.839 374.253 819.07 373.375 819.07C372.497 819.07 371.635 818.839 370.875 818.4L370.5 818.2C369.353 817.538 367.99 817.359 366.71 817.701C365.43 818.043 364.339 818.879 363.675 820.025L363.125 820.975C362.463 822.122 362.284 823.485 362.626 824.765C362.968 826.045 363.804 827.136 364.95 827.8L365.325 828.05C366.081 828.486 366.709 829.113 367.148 829.867C367.586 830.621 367.82 831.477 367.825 832.35V833.625C367.829 834.506 367.599 835.372 367.16 836.136C366.721 836.9 366.088 837.534 365.325 837.975L364.95 838.2C363.804 838.864 362.968 839.955 362.626 841.235C362.284 842.515 362.463 843.878 363.125 845.025L363.675 845.975C364.339 847.121 365.43 847.957 366.71 848.299C367.99 848.641 369.353 848.462 370.5 847.8L370.875 847.6C371.635 847.161 372.497 846.93 373.375 846.93C374.253 846.93 375.115 847.161 375.875 847.6L376.95 848.225C377.709 848.663 378.34 849.294 378.779 850.053C379.218 850.812 379.449 851.673 379.45 852.55V853C379.45 854.326 379.977 855.598 380.914 856.536C381.852 857.473 383.124 858 384.45 858H385.55C386.876 858 388.148 857.473 389.086 856.536C390.023 855.598 390.55 854.326 390.55 853V852.55C390.551 851.673 390.782 850.812 391.221 850.053C391.66 849.294 392.291 848.663 393.05 848.225L394.125 847.6C394.885 847.161 395.747 846.93 396.625 846.93C397.503 846.93 398.365 847.161 399.125 847.6L399.5 847.8C400.647 848.462 402.01 848.641 403.29 848.299C404.57 847.957 405.661 847.121 406.325 845.975L406.875 845C407.537 843.853 407.716 842.49 407.374 841.21C407.032 839.93 406.196 838.839 405.05 838.175L404.675 837.975C403.912 837.534 403.279 836.9 402.84 836.136C402.401 835.372 402.172 834.506 402.175 833.625V832.375C402.172 831.494 402.401 830.628 402.84 829.864C403.279 829.1 403.912 828.466 404.675 828.025L405.05 827.8C406.196 827.136 407.032 826.045 407.374 824.765C407.716 823.485 407.537 822.122 406.875 820.975L406.325 820.025C405.661 818.879 404.57 818.043 403.29 817.701C402.01 817.359 400.647 817.538 399.5 818.2L399.125 818.4C398.365 818.839 397.503 819.07 396.625 819.07C395.747 819.07 394.885 818.839 394.125 818.4L393.05 817.775C392.291 817.337 391.66 816.706 391.221 815.947C390.782 815.188 390.551 814.327 390.55 813.45V813C390.55 811.674 390.023 810.402 389.086 809.464C388.148 808.527 386.876 808 385.55 808Z" stroke="black" stroke-width="2" stroke-linecap="round" stroke-linejoin="round"/>
<path d="M385 840.5C389.142 840.5 392.5 837.142 392.5 833C392.5 828.858 389.142 825.5 385 825.5C380.858 825.5 377.5 828.858 377.5 833C377.5 837.142 380.858 840.5 385 840.5Z" stroke="black" stroke-width="2" stroke-linecap="round" stroke-linejoin="round"/>
<path d="M690.266 17.4965H705.686C708.802 17.4965 711.238 18.3741 712.993 20.1293C714.784 21.8845 715.68 24.2307 715.68 27.1679C715.68 28.5649 715.483 29.7469 715.089 30.7141C714.695 31.6812 714.193 32.4872 713.584 33.1319C712.975 33.7409 712.313 34.2065 711.596 34.5289C710.88 34.8155 710.217 35.0125 709.608 35.1199V35.4423C710.289 35.4781 711.041 35.6572 711.865 35.9796C712.725 36.302 713.531 36.8214 714.283 37.5378C715.035 38.2184 715.662 39.1139 716.163 40.2243C716.701 41.2989 716.969 42.6063 716.969 44.1466C716.969 45.6868 716.719 47.1196 716.217 48.4449C715.751 49.7703 715.089 50.9165 714.229 51.8837C713.369 52.8508 712.349 53.6209 711.166 54.1941C709.984 54.7314 708.695 55 707.298 55H690.266V17.4965ZM694.779 51.024H705.901C707.835 51.024 709.358 50.5404 710.468 49.5733C711.578 48.5703 712.134 47.1196 712.134 45.2212V43.3943C712.134 41.4959 711.578 40.0631 710.468 39.0959C709.358 38.093 707.835 37.5915 705.901 37.5915H694.779V51.024ZM694.779 33.723H705.149C706.94 33.723 708.337 33.2752 709.34 32.3797C710.343 31.4842 710.844 30.1947 710.844 28.5111V26.6843C710.844 25.0008 710.343 23.7113 709.34 22.8158C708.337 21.9203 706.94 21.4725 705.149 21.4725H694.779V33.723ZM745.087 55C743.475 55 742.311 54.5702 741.595 53.7105C740.914 52.8508 740.484 51.7762 740.305 50.4867H740.037C739.428 52.206 738.425 53.4956 737.028 54.3552C735.631 55.2149 733.965 55.6448 732.031 55.6448C729.094 55.6448 726.801 54.8925 725.153 53.3881C723.542 51.8837 722.736 49.8419 722.736 47.2629C722.736 44.648 723.685 42.6421 725.583 41.2451C727.518 39.8482 730.509 39.1497 734.556 39.1497H740.037V36.4094C740.037 34.4394 739.499 32.9349 738.425 31.8961C737.35 30.8574 735.702 30.338 733.482 30.338C731.798 30.338 730.383 30.7141 729.237 31.4663C728.127 32.2185 727.195 33.2215 726.443 34.4752L723.864 32.0573C724.616 30.5529 725.816 29.2813 727.464 28.2425C729.112 27.1679 731.189 26.6306 733.697 26.6306C737.064 26.6306 739.678 27.4545 741.541 29.1022C743.404 30.7499 744.335 33.0424 744.335 35.9796V51.2389H747.505V55H745.087ZM732.729 51.9911C733.804 51.9911 734.789 51.8658 735.685 51.615C736.58 51.3643 737.35 51.0061 737.995 50.5404C738.64 50.0748 739.141 49.5375 739.499 48.9285C739.858 48.3196 740.037 47.6569 740.037 46.9405V42.3735H734.341C731.87 42.3735 730.061 42.7317 728.915 43.4481C727.804 44.1645 727.249 45.2032 727.249 46.5644V47.6927C727.249 49.0539 727.732 50.1106 728.7 50.8628C729.703 51.615 731.046 51.9911 732.729 51.9911ZM763.956 55.6448C762.022 55.6448 760.285 55.3045 758.744 54.6239C757.204 53.9433 755.897 52.9762 754.822 51.7225C753.783 50.4688 752.977 48.9464 752.404 47.1554C751.867 45.3644 751.598 43.3585 751.598 41.1377C751.598 38.9168 751.867 36.9109 752.404 35.1199C752.977 33.3289 753.783 31.8066 754.822 30.5529C755.897 29.2992 757.204 28.3321 758.744 27.6515C760.285 26.9709 762.022 26.6306 763.956 26.6306C766.714 26.6306 768.917 27.2395 770.565 28.4574C772.248 29.6395 773.502 31.1976 774.326 33.1319L770.726 34.9587C770.225 33.5259 769.401 32.4155 768.254 31.6275C767.108 30.8394 765.675 30.4454 763.956 30.4454C762.667 30.4454 761.538 30.6603 760.571 31.0902C759.604 31.4842 758.798 32.0573 758.153 32.8095C757.509 33.5259 757.025 34.4035 756.703 35.4423C756.38 36.4453 756.219 37.5557 756.219 38.7736V43.5018C756.219 45.9376 756.864 47.9435 758.153 49.5195C759.479 51.0598 761.413 51.8299 763.956 51.8299C767.431 51.8299 769.938 50.218 771.478 46.9942L774.595 49.0897C773.699 51.0956 772.356 52.6896 770.565 53.8717C768.81 55.0537 766.607 55.6448 763.956 55.6448ZM780.662 15.2399H784.961V40.4392H785.176L789.42 35.711L797.265 27.2754H802.477L792.214 38.2363L803.498 55H798.286L789.098 40.869L784.961 45.1137V55H780.662V15.2399ZM818.528 55.6448C816.63 55.6448 814.91 55.3045 813.37 54.6239C811.866 53.9433 810.558 52.9762 809.448 51.7225C808.373 50.433 807.531 48.9106 806.922 47.1554C806.349 45.3644 806.063 43.3585 806.063 41.1377C806.063 38.9527 806.349 36.9647 806.922 35.1737C807.531 33.3827 808.373 31.8603 809.448 30.6066C810.558 29.3171 811.866 28.3321 813.37 27.6515C814.91 26.9709 816.63 26.6306 818.528 26.6306C820.391 26.6306 822.056 26.9709 823.525 27.6515C824.994 28.3321 826.247 29.2813 827.286 30.4992C828.325 31.6812 829.113 33.0961 829.65 34.7438C830.223 36.3915 830.51 38.2004 830.51 40.1705V42.2123H810.576V43.5018C810.576 44.6839 810.755 45.7943 811.113 46.8331C811.507 47.836 812.045 48.7136 812.725 49.4658C813.442 50.218 814.301 50.8091 815.304 51.2389C816.343 51.6687 817.507 51.8837 818.797 51.8837C820.552 51.8837 822.074 51.4717 823.364 50.6479C824.689 49.824 825.71 48.642 826.426 47.1017L829.489 49.3046C828.593 51.2031 827.196 52.7433 825.298 53.9254C823.4 55.0716 821.143 55.6448 818.528 55.6448ZM818.528 30.2305C817.346 30.2305 816.271 30.4454 815.304 30.8753C814.337 31.2693 813.495 31.8424 812.779 32.5946C812.098 33.3468 811.561 34.2423 811.167 35.2811C810.773 36.2841 810.576 37.3945 810.576 38.6124V38.9885H825.889V38.3975C825.889 35.9259 825.208 33.9558 823.847 32.4872C822.522 30.9827 820.749 30.2305 818.528 30.2305ZM837.593 55V27.2754H841.891V31.7887H842.106C842.787 30.2126 843.736 28.9589 844.954 28.0276C846.208 27.0963 847.873 26.6306 849.951 26.6306C852.816 26.6306 855.073 27.5619 856.721 29.4246C858.404 31.2514 859.246 33.8483 859.246 37.2154V55H854.948V37.9676C854.948 32.9886 852.852 30.4992 848.661 30.4992C847.802 30.4992 846.96 30.6066 846.136 30.8215C845.348 31.0365 844.632 31.3588 843.987 31.7887C843.342 32.2185 842.823 32.7737 842.429 33.4543C842.07 34.0991 841.891 34.8692 841.891 35.7647V55H837.593ZM885.862 50.4867H885.647C883.963 53.9254 881.259 55.6448 877.534 55.6448C875.814 55.6448 874.256 55.3045 872.859 54.6239C871.462 53.9433 870.262 52.9762 869.259 51.7225C868.292 50.4688 867.54 48.9464 867.003 47.1554C866.501 45.3644 866.25 43.3585 866.25 41.1377C866.25 38.9168 866.501 36.9109 867.003 35.1199C867.54 33.3289 868.292 31.8066 869.259 30.5529C870.262 29.2992 871.462 28.3321 872.859 27.6515C874.256 26.9709 875.814 26.6306 877.534 26.6306C879.468 26.6306 881.116 27.0604 882.477 27.9201C883.874 28.744 884.93 30.0335 885.647 31.7887H885.862V15.2399H890.16V55H885.862V50.4867ZM878.716 51.7762C879.683 51.7762 880.596 51.6508 881.456 51.4001C882.351 51.1494 883.122 50.7912 883.766 50.3255C884.411 49.824 884.912 49.233 885.271 48.5524C885.665 47.836 885.862 47.0301 885.862 46.1346V35.8184C885.862 35.0662 885.665 34.3677 885.271 33.723C884.912 33.0424 884.411 32.4693 883.766 32.0036C883.122 31.5379 882.351 31.1797 881.456 30.929C880.596 30.6424 879.683 30.4992 878.716 30.4992C876.28 30.4992 874.364 31.2693 872.967 32.8095C871.57 34.314 870.871 36.302 870.871 38.7736V43.5018C870.871 45.9734 871.57 47.9793 872.967 49.5195C874.364 51.024 876.28 51.7762 878.716 51.7762Z" fill="black"/>
<path d="M322 128V108C322 101.373 327.373 96 334 96H783.576M783.576 96V66M783.576 96H1262C1268.63 96 1274 101.373 1274 108V128" stroke="black" stroke-width="3" stroke-linecap="round"/>
<path d="M1271 904L1271 924C1271 930.627 1265.63 936 1259 936L809.424 936M809.424 936L809.424 966M809.424 936L331 936C324.373 936 319 930.627 319 924L319 904" stroke="black" stroke-width="3" stroke-linecap="round"/>
<path d="M704.069 1013V975.497H726.421V979.473H708.583V992.045H724.863V996.021H708.583V1013H704.069ZM732.603 1013V985.275H736.902L736.902 990.38H737.17C737.672 989.054 738.567 987.872 739.857 986.834C741.146 985.795 742.919 985.275 745.176 985.275H746.842V989.574H744.316C741.988 989.574 740.161 990.022 738.836 990.917C737.546 991.777 736.902 992.869 736.902 994.195V1013H732.603ZM762.547 1013.64C760.685 1013.64 758.983 1013.3 757.443 1012.62C755.903 1011.94 754.577 1010.98 753.467 1009.72C752.392 1008.43 751.551 1006.91 750.942 1005.16C750.333 1003.36 750.028 1001.36 750.028 999.138C750.028 996.953 750.333 994.965 750.942 993.174C751.551 991.383 752.392 989.86 753.467 988.607C754.577 987.317 755.903 986.332 757.443 985.651C758.983 984.971 760.685 984.631 762.547 984.631C764.41 984.631 766.093 984.971 767.598 985.651C769.138 986.332 770.463 987.317 771.574 988.607C772.684 989.86 773.544 991.383 774.153 993.174C774.762 994.965 775.066 996.953 775.066 999.138C775.066 1001.36 774.762 1003.36 774.153 1005.16C773.544 1006.91 772.684 1008.43 771.574 1009.72C770.463 1010.98 769.138 1011.94 767.598 1012.62C766.093 1013.3 764.41 1013.64 762.547 1013.64ZM762.547 1009.83C764.876 1009.83 766.774 1009.11 768.243 1007.68C769.711 1006.25 770.446 1004.06 770.446 1001.13V997.15C770.446 994.212 769.711 992.027 768.243 990.595C766.774 989.162 764.876 988.445 762.547 988.445C760.219 988.445 758.321 989.162 756.852 990.595C755.383 992.027 754.649 994.212 754.649 997.15V1001.13C754.649 1004.06 755.383 1006.25 756.852 1007.68C758.321 1009.11 760.219 1009.83 762.547 1009.83ZM782.136 1013V985.275H786.434V989.789H786.649C787.33 988.213 788.279 986.959 789.497 986.028C790.75 985.096 792.416 984.631 794.493 984.631C797.359 984.631 799.616 985.562 801.263 987.425C802.947 989.251 803.789 991.848 803.789 995.215V1013H799.49V995.968C799.49 990.989 797.395 988.499 793.204 988.499C792.344 988.499 791.503 988.607 790.679 988.822C789.891 989.036 789.174 989.359 788.529 989.789C787.885 990.219 787.365 990.774 786.971 991.454C786.613 992.099 786.434 992.869 786.434 993.765V1013H782.136ZM818.799 1013C817.294 1013 816.148 1012.59 815.36 1011.76C814.608 1010.9 814.232 1009.79 814.232 1008.43V989.036H809.665V985.275H812.244C813.175 985.275 813.802 985.096 814.124 984.738C814.482 984.344 814.662 983.681 814.662 982.75V977.592H818.53V985.275H824.602V989.036H818.53V1009.24H824.172V1013H818.799ZM841.724 1013.64C839.826 1013.64 838.106 1013.3 836.566 1012.62C835.062 1011.94 833.754 1010.98 832.644 1009.72C831.569 1008.43 830.727 1006.91 830.119 1005.16C829.545 1003.36 829.259 1001.36 829.259 999.138C829.259 996.953 829.545 994.965 830.119 993.174C830.727 991.383 831.569 989.86 832.644 988.607C833.754 987.317 835.062 986.332 836.566 985.651C838.106 984.971 839.826 984.631 841.724 984.631C843.587 984.631 845.252 984.971 846.721 985.651C848.19 986.332 849.443 987.281 850.482 988.499C851.521 989.681 852.309 991.096 852.846 992.744C853.419 994.392 853.706 996.2 853.706 998.171V1000.21H833.772V1001.5C833.772 1002.68 833.951 1003.79 834.309 1004.83C834.703 1005.84 835.241 1006.71 835.921 1007.47C836.638 1008.22 837.497 1008.81 838.5 1009.24C839.539 1009.67 840.703 1009.88 841.993 1009.88C843.748 1009.88 845.27 1009.47 846.56 1008.65C847.885 1007.82 848.906 1006.64 849.622 1005.1L852.685 1007.3C851.79 1009.2 850.393 1010.74 848.494 1011.93C846.596 1013.07 844.339 1013.64 841.724 1013.64ZM841.724 988.231C840.542 988.231 839.468 988.445 838.5 988.875C837.533 989.269 836.691 989.842 835.975 990.595C835.295 991.347 834.757 992.242 834.363 993.281C833.969 994.284 833.772 995.394 833.772 996.612V996.988H849.085V996.397C849.085 993.926 848.405 991.956 847.043 990.487C845.718 988.983 843.945 988.231 841.724 988.231ZM860.789 1013V985.275H865.087V989.789H865.302C865.983 988.213 866.932 986.959 868.15 986.028C869.404 985.096 871.069 984.631 873.147 984.631C876.013 984.631 878.269 985.562 879.917 987.425C881.6 989.251 882.442 991.848 882.442 995.215V1013H878.144V995.968C878.144 990.989 876.048 988.499 871.857 988.499C870.998 988.499 870.156 988.607 869.332 988.822C868.544 989.036 867.828 989.359 867.183 989.789C866.538 990.219 866.019 990.774 865.625 991.454C865.267 992.099 865.087 992.869 865.087 993.765V1013H860.789ZM909.058 1008.49H908.843C907.159 1011.93 904.455 1013.64 900.73 1013.64C899.01 1013.64 897.452 1013.3 896.055 1012.62C894.658 1011.94 893.458 1010.98 892.455 1009.72C891.488 1008.47 890.736 1006.95 890.199 1005.16C889.697 1003.36 889.446 1001.36 889.446 999.138C889.446 996.917 889.697 994.911 890.199 993.12C890.736 991.329 891.488 989.807 892.455 988.553C893.458 987.299 894.658 986.332 896.055 985.651C897.452 984.971 899.01 984.631 900.73 984.631C902.664 984.631 904.312 985.06 905.673 985.92C907.07 986.744 908.127 988.033 908.843 989.789H909.058V973.24H913.356V1013H909.058V1008.49ZM901.912 1009.78C902.879 1009.78 903.792 1009.65 904.652 1009.4C905.547 1009.15 906.318 1008.79 906.962 1008.33C907.607 1007.82 908.109 1007.23 908.467 1006.55C908.861 1005.84 909.058 1005.03 909.058 1004.13V993.818C909.058 993.066 908.861 992.368 908.467 991.723C908.109 991.042 907.607 990.469 906.962 990.004C906.318 989.538 905.547 989.18 904.652 988.929C903.792 988.642 902.879 988.499 901.912 988.499C899.476 988.499 897.56 989.269 896.163 990.81C894.766 992.314 894.067 994.302 894.067 996.774V1001.5C894.067 1003.97 894.766 1005.98 896.163 1007.52C897.56 1009.02 899.476 1009.78 901.912 1009.78Z" fill="black"/>
<path d="M736.414 791.414C737.195 790.633 737.195 789.367 736.414 788.586L723.686 775.858C722.905 775.077 721.639 775.077 720.858 775.858C720.077 776.639 720.077 777.905 720.858 778.686L732.172 790L720.858 801.314C720.077 802.095 720.077 803.361 720.858 804.142C721.639 804.923 722.905 804.923 723.686 804.142L736.414 791.414ZM658 792H735V788H658V792Z" fill="#B0ADAD"/>
<path d="M807.586 509.414C808.367 510.195 809.633 510.195 810.414 509.414L823.142 496.686C823.923 495.905 823.923 494.639 823.142 493.858C822.361 493.077 821.095 493.077 820.314 493.858L809 505.172L797.686 493.858C796.905 493.077 795.639 493.077 794.858 493.858C794.077 494.639 794.077 495.905 794.858 496.686L807.586 509.414ZM807 445L807 508L811 508L811 445L807 445Z" fill="#B0ADAD"/>
<path d="M967.586 569.586C966.805 570.367 966.805 571.633 967.586 572.414L980.314 585.142C981.095 585.923 982.361 585.923 983.142 585.142C983.923 584.361 983.923 583.095 983.142 582.314L971.828 571L983.142 559.686C983.923 558.905 983.923 557.639 983.142 556.858C982.361 556.077 981.095 556.077 980.314 556.858L967.586 569.586ZM969 573H1023V569H969V573ZM1041 591V700H1045V591H1041ZM1023 573C1032.94 573 1041 581.059 1041 591H1045C1045 578.85 1035.15 569 1023 569V573Z" fill="#B0ADAD"/>
<path d="M340.414 305.414C341.195 304.633 341.195 303.367 340.414 302.586L327.686 289.858C326.905 289.077 325.639 289.077 324.858 289.858C324.077 290.639 324.077 291.905 324.858 292.686L336.172 304L324.858 315.314C324.077 316.095 324.077 317.361 324.858 318.142C325.639 318.923 326.905 318.923 327.686 318.142L340.414 305.414ZM269 306H339V302H269V306Z" fill="#966BED"/>
<path d="M341.414 789.414C342.195 788.633 342.195 787.367 341.414 786.586L328.686 773.858C327.905 773.077 326.639 773.077 325.858 773.858C325.077 774.639 325.077 775.905 325.858 776.686L337.172 788L325.858 799.314C325.077 800.095 325.077 801.361 325.858 802.142C326.639 802.923 327.905 802.923 328.686 802.142L341.414 789.414ZM270 790H340V786H270V790Z" fill="#966BED"/>
<rect x="1366" y="137" width="267" height="767" rx="19.7568" fill="#E1F8E1" stroke="#209B1D" stroke-width="2"/>
<path d="M1394.3 474.36H1397.42V485.8L1397.1 490.76H1397.26L1399.82 486.36L1408.06 474.36H1411.02V495H1407.9V483.56L1408.22 478.6H1408.06L1405.5 483L1397.26 495H1394.3V474.36ZM1417.81 474.36H1421.01V482.96H1431.33V474.36H1434.53V495H1431.33V485.76H1421.01V495H1417.81V474.36ZM1445.77 477.16H1438.73V474.36H1456.01V477.16H1448.97V495H1445.77V477.16ZM1467.45 495.48C1466.04 495.48 1464.76 495.227 1463.61 494.72C1462.49 494.213 1461.52 493.493 1460.69 492.56C1459.89 491.6 1459.26 490.467 1458.81 489.16C1458.38 487.827 1458.17 486.333 1458.17 484.68C1458.17 483.053 1458.38 481.573 1458.81 480.24C1459.26 478.907 1459.89 477.773 1460.69 476.84C1461.52 475.88 1462.49 475.147 1463.61 474.64C1464.76 474.133 1466.04 473.88 1467.45 473.88C1468.84 473.88 1470.08 474.133 1471.17 474.64C1472.26 475.147 1473.2 475.853 1473.97 476.76C1474.74 477.64 1475.33 478.693 1475.73 479.92C1476.16 481.147 1476.37 482.493 1476.37 483.96V485.48H1461.53V486.44C1461.53 487.32 1461.66 488.147 1461.93 488.92C1462.22 489.667 1462.62 490.32 1463.13 490.88C1463.66 491.44 1464.3 491.88 1465.05 492.2C1465.82 492.52 1466.69 492.68 1467.65 492.68C1468.96 492.68 1470.09 492.373 1471.05 491.76C1472.04 491.147 1472.8 490.267 1473.33 489.12L1475.61 490.76C1474.94 492.173 1473.9 493.32 1472.49 494.2C1471.08 495.053 1469.4 495.48 1467.45 495.48ZM1467.45 476.56C1466.57 476.56 1465.77 476.72 1465.05 477.04C1464.33 477.333 1463.7 477.76 1463.17 478.32C1462.66 478.88 1462.26 479.547 1461.97 480.32C1461.68 481.067 1461.53 481.893 1461.53 482.8V483.08H1472.93V482.64C1472.93 480.8 1472.42 479.333 1471.41 478.24C1470.42 477.12 1469.1 476.56 1467.45 476.56ZM1481.64 474.36H1494.68V477.16H1484.84V495H1481.64V474.36ZM1499.03 474.36H1502.23V477.72H1502.39C1502.92 476.413 1503.69 475.453 1504.71 474.84C1505.75 474.2 1506.99 473.88 1508.43 473.88C1509.71 473.88 1510.87 474.133 1511.91 474.64C1512.95 475.147 1513.83 475.867 1514.55 476.8C1515.29 477.733 1515.85 478.867 1516.23 480.2C1516.63 481.533 1516.83 483.027 1516.83 484.68C1516.83 486.333 1516.63 487.827 1516.23 489.16C1515.85 490.493 1515.29 491.627 1514.55 492.56C1513.83 493.493 1512.95 494.213 1511.91 494.72C1510.87 495.227 1509.71 495.48 1508.43 495.48C1505.63 495.48 1503.61 494.2 1502.39 491.64H1502.23V503H1499.03V474.36ZM1507.55 492.6C1509.36 492.6 1510.79 492.04 1511.83 490.92C1512.87 489.773 1513.39 488.28 1513.39 486.44V482.92C1513.39 481.08 1512.87 479.6 1511.83 478.48C1510.79 477.333 1509.36 476.76 1507.55 476.76C1506.83 476.76 1506.13 476.867 1505.47 477.08C1504.83 477.267 1504.27 477.533 1503.79 477.88C1503.31 478.227 1502.92 478.653 1502.63 479.16C1502.36 479.64 1502.23 480.16 1502.23 480.72V488.4C1502.23 489.067 1502.36 489.667 1502.63 490.2C1502.92 490.707 1503.31 491.147 1503.79 491.52C1504.27 491.867 1504.83 492.133 1505.47 492.32C1506.13 492.507 1506.83 492.6 1507.55 492.6ZM1537.23 495C1536.03 495 1535.16 494.68 1534.63 494.04C1534.12 493.4 1533.8 492.6 1533.67 491.64H1533.47C1533.01 492.92 1532.27 493.88 1531.23 494.52C1530.19 495.16 1528.95 495.48 1527.51 495.48C1525.32 495.48 1523.61 494.92 1522.39 493.8C1521.19 492.68 1520.59 491.16 1520.59 489.24C1520.59 487.293 1521.29 485.8 1522.71 484.76C1524.15 483.72 1526.37 483.2 1529.39 483.2H1533.47V481.16C1533.47 479.693 1533.07 478.573 1532.27 477.8C1531.47 477.027 1530.24 476.64 1528.59 476.64C1527.33 476.64 1526.28 476.92 1525.43 477.48C1524.6 478.04 1523.91 478.787 1523.35 479.72L1521.43 477.92C1521.99 476.8 1522.88 475.853 1524.11 475.08C1525.33 474.28 1526.88 473.88 1528.75 473.88C1531.25 473.88 1533.2 474.493 1534.59 475.72C1535.97 476.947 1536.67 478.653 1536.67 480.84V492.2H1539.03V495H1537.23ZM1528.03 492.76C1528.83 492.76 1529.56 492.667 1530.23 492.48C1530.89 492.293 1531.47 492.027 1531.95 491.68C1532.43 491.333 1532.8 490.933 1533.07 490.48C1533.33 490.027 1533.47 489.533 1533.47 489V485.6H1529.23C1527.39 485.6 1526.04 485.867 1525.19 486.4C1524.36 486.933 1523.95 487.707 1523.95 488.72V489.56C1523.95 490.573 1524.31 491.36 1525.03 491.92C1525.77 492.48 1526.77 492.76 1528.03 492.76ZM1560.24 495H1543.6V474.36H1546.8V492.2H1556.52V474.36H1559.72V492.2H1563.16V500.6H1560.24V495ZM1567.58 474.36H1570.7V485.8L1570.38 490.76H1570.54L1573.1 486.36L1581.34 474.36H1584.3V495H1581.18V483.56L1581.5 478.6H1581.34L1578.78 483L1570.54 495H1567.58V474.36ZM1589.26 492.2H1591.54L1592.86 489.16C1593.15 488.467 1593.51 487.947 1593.94 487.6C1594.36 487.227 1594.84 487 1595.38 486.92V486.76C1593.54 486.6 1592.15 486 1591.22 484.96C1590.28 483.92 1589.82 482.52 1589.82 480.76C1589.82 478.76 1590.42 477.2 1591.62 476.08C1592.82 474.933 1594.47 474.36 1596.58 474.36H1605.7V495L1602.5 495V487.08H1597.14L1594.98 492.16C1594.5 493.28 1593.96 494.04 1593.38 494.44C1592.82 494.813 1592.18 495 1591.46 495H1589.26V492.2ZM1602.5 484.36V477.16H1597.06C1595.86 477.16 1594.92 477.387 1594.26 477.84C1593.59 478.293 1593.26 479.053 1593.26 480.12V481.44C1593.26 482.507 1593.59 483.267 1594.26 483.72C1594.92 484.147 1595.86 484.36 1597.06 484.36H1602.5ZM1414.18 534.52C1414.18 532.6 1414.37 530.747 1414.74 528.96C1415.11 527.173 1415.62 525.52 1416.26 524C1416.93 522.453 1417.7 521.053 1418.58 519.8C1419.46 518.547 1420.41 517.48 1421.42 516.6H1424.46C1423.34 517.613 1422.33 518.76 1421.42 520.04C1420.54 521.32 1419.78 522.68 1419.14 524.12C1418.53 525.56 1418.05 527.027 1417.7 528.52C1417.35 530.013 1417.18 531.453 1417.18 532.84V536.28C1417.18 537.693 1417.35 539.147 1417.7 540.64C1418.05 542.133 1418.54 543.6 1419.18 545.04C1419.82 546.48 1420.58 547.84 1421.46 549.12C1422.37 550.4 1423.37 551.52 1424.46 552.48H1421.42C1420.43 551.653 1419.5 550.613 1418.62 549.36C1417.74 548.107 1416.97 546.707 1416.3 545.16C1415.66 543.613 1415.14 541.947 1414.74 540.16C1414.37 538.347 1414.18 536.467 1414.18 534.52ZM1435.46 547.48C1434.07 547.48 1432.8 547.227 1431.66 546.72C1430.51 546.213 1429.52 545.493 1428.7 544.56C1427.9 543.6 1427.27 542.467 1426.82 541.16C1426.36 539.827 1426.14 538.333 1426.14 536.68C1426.14 535.053 1426.36 533.573 1426.82 532.24C1427.27 530.907 1427.9 529.773 1428.7 528.84C1429.52 527.88 1430.51 527.147 1431.66 526.64C1432.8 526.133 1434.07 525.88 1435.46 525.88C1436.84 525.88 1438.1 526.133 1439.22 526.64C1440.36 527.147 1441.35 527.88 1442.18 528.84C1443 529.773 1443.64 530.907 1444.1 532.24C1444.55 533.573 1444.78 535.053 1444.78 536.68C1444.78 538.333 1444.55 539.827 1444.1 541.16C1443.64 542.467 1443 543.6 1442.18 544.56C1441.35 545.493 1440.36 546.213 1439.22 546.72C1438.1 547.227 1436.84 547.48 1435.46 547.48ZM1435.46 544.64C1437.19 544.64 1438.6 544.107 1439.7 543.04C1440.79 541.973 1441.34 540.347 1441.34 538.16V535.2C1441.34 533.013 1440.79 531.387 1439.7 530.32C1438.6 529.253 1437.19 528.72 1435.46 528.72C1433.72 528.72 1432.31 529.253 1431.22 530.32C1430.12 531.387 1429.58 533.013 1429.58 535.2V538.16C1429.58 540.347 1430.12 541.973 1431.22 543.04C1432.31 544.107 1433.72 544.64 1435.46 544.64ZM1453.97 529.16H1446.93V526.36H1464.21V529.16H1457.17V547H1453.97V529.16ZM1464.3 544.2H1467.02C1467.37 543.72 1467.68 543.147 1467.94 542.48C1468.21 541.813 1468.44 541.013 1468.62 540.08C1468.81 539.147 1468.96 538.04 1469.06 536.76C1469.17 535.48 1469.22 533.973 1469.22 532.24V526.36H1483.18V547H1479.98V529.16H1472.26V532.32C1472.26 534.32 1472.18 536.067 1472.02 537.56C1471.89 539.053 1471.69 540.333 1471.42 541.4C1471.18 542.467 1470.89 543.347 1470.54 544.04C1470.2 544.707 1469.82 545.24 1469.42 545.64C1468.92 546.147 1468.36 546.507 1467.74 546.72C1467.13 546.907 1466.4 547 1465.54 547H1464.3V544.2ZM1505 547C1503.8 547 1502.93 546.68 1502.4 546.04C1501.89 545.4 1501.57 544.6 1501.44 543.64H1501.24C1500.79 544.92 1500.04 545.88 1499 546.52C1497.96 547.16 1496.72 547.48 1495.28 547.48C1493.09 547.48 1491.39 546.92 1490.16 545.8C1488.96 544.68 1488.36 543.16 1488.36 541.24C1488.36 539.293 1489.07 537.8 1490.48 536.76C1491.92 535.72 1494.15 535.2 1497.16 535.2H1501.24V533.16C1501.24 531.693 1500.84 530.573 1500.04 529.8C1499.24 529.027 1498.01 528.64 1496.36 528.64C1495.11 528.64 1494.05 528.92 1493.2 529.48C1492.37 530.04 1491.68 530.787 1491.12 531.72L1489.2 529.92C1489.76 528.8 1490.65 527.853 1491.88 527.08C1493.11 526.28 1494.65 525.88 1496.52 525.88C1499.03 525.88 1500.97 526.493 1502.36 527.72C1503.75 528.947 1504.44 530.653 1504.44 532.84V544.2H1506.8V547H1505ZM1495.8 544.76C1496.6 544.76 1497.33 544.667 1498 544.48C1498.67 544.293 1499.24 544.027 1499.72 543.68C1500.2 543.333 1500.57 542.933 1500.84 542.48C1501.11 542.027 1501.24 541.533 1501.24 541V537.6H1497C1495.16 537.6 1493.81 537.867 1492.96 538.4C1492.13 538.933 1491.72 539.707 1491.72 540.72V541.56C1491.72 542.573 1492.08 543.36 1492.8 543.92C1493.55 544.48 1494.55 544.76 1495.8 544.76ZM1509.23 544.2H1511.59C1512.41 542.867 1513.08 541.2 1513.59 539.2C1514.09 537.2 1514.35 534.907 1514.35 532.32V526.36H1528.31V544.2H1531.75V552.6H1528.83V547H1512.15V552.6H1509.23V544.2ZM1525.11 544.2V529.16H1517.39V532.48C1517.39 535.227 1517.15 537.573 1516.67 539.52C1516.21 541.44 1515.67 543 1515.03 544.2H1525.11ZM1536.17 526.36H1539.37V535H1543.49L1547.49 528.68C1547.79 528.2 1548.07 527.813 1548.33 527.52C1548.6 527.2 1548.87 526.96 1549.13 526.8C1549.4 526.64 1549.68 526.533 1549.97 526.48C1550.27 526.4 1550.6 526.36 1550.97 526.36H1552.85V529.16H1550.37L1547.13 534.28C1546.92 534.627 1546.73 534.907 1546.57 535.12C1546.41 535.333 1546.25 535.52 1546.09 535.68C1545.93 535.813 1545.76 535.933 1545.57 536.04C1545.39 536.12 1545.16 536.2 1544.89 536.28V536.44C1545.45 536.52 1545.93 536.707 1546.33 537C1546.76 537.267 1547.2 537.8 1547.65 538.6L1550.81 544.2H1553.17V547H1550.85C1550.16 547 1549.52 546.827 1548.93 546.48C1548.37 546.107 1547.83 545.44 1547.29 544.48L1543.49 537.72H1539.37V547H1536.17V526.36ZM1572.78 547C1571.58 547 1570.71 546.68 1570.18 546.04C1569.67 545.4 1569.35 544.6 1569.22 543.64H1569.02C1568.56 544.92 1567.82 545.88 1566.78 546.52C1565.74 547.16 1564.5 547.48 1563.06 547.48C1560.87 547.48 1559.16 546.92 1557.94 545.8C1556.74 544.68 1556.14 543.16 1556.14 541.24C1556.14 539.293 1556.84 537.8 1558.26 536.76C1559.7 535.72 1561.92 535.2 1564.93 535.2H1569.02V533.16C1569.02 531.693 1568.62 530.573 1567.82 529.8C1567.02 529.027 1565.79 528.64 1564.14 528.64C1562.88 528.64 1561.83 528.92 1560.98 529.48C1560.15 530.04 1559.46 530.787 1558.9 531.72L1556.98 529.92C1557.54 528.8 1558.43 527.853 1559.65 527.08C1560.88 526.28 1562.43 525.88 1564.3 525.88C1566.8 525.88 1568.75 526.493 1570.14 527.72C1571.52 528.947 1572.22 530.653 1572.22 532.84V544.2H1574.57V547H1572.78ZM1563.58 544.76C1564.38 544.76 1565.11 544.667 1565.78 544.48C1566.44 544.293 1567.02 544.027 1567.5 543.68C1567.98 543.333 1568.35 542.933 1568.62 542.48C1568.88 542.027 1569.02 541.533 1569.02 541V537.6H1564.78C1562.94 537.6 1561.59 537.867 1560.74 538.4C1559.91 538.933 1559.5 539.707 1559.5 540.72V541.56C1559.5 542.573 1559.86 543.36 1560.58 543.92C1561.32 544.48 1562.32 544.76 1563.58 544.76ZM1585.82 534.52C1585.82 536.467 1585.62 538.347 1585.22 540.16C1584.85 541.947 1584.33 543.613 1583.66 545.16C1583.02 546.707 1582.26 548.107 1581.38 549.36C1580.5 550.613 1579.57 551.653 1578.58 552.48H1575.54C1576.64 551.52 1577.62 550.4 1578.5 549.12C1579.41 547.84 1580.18 546.48 1580.82 545.04C1581.46 543.6 1581.96 542.133 1582.3 540.64C1582.65 539.147 1582.82 537.693 1582.82 536.28V532.84C1582.82 531.453 1582.65 530.013 1582.3 528.52C1581.96 527.027 1581.46 525.56 1580.82 524.12C1580.21 522.68 1579.45 521.32 1578.54 520.04C1577.66 518.76 1576.66 517.613 1575.54 516.6H1578.58C1579.6 517.48 1580.54 518.547 1581.42 519.8C1582.3 521.053 1583.06 522.453 1583.7 524C1584.37 525.52 1584.89 527.173 1585.26 528.96C1585.64 530.747 1585.82 532.6 1585.82 534.52Z" fill="black"/>
<rect x="1.5" y="137.5" width="266" height="766" rx="19.2568" fill="#DFDBE8" stroke="#966BED" stroke-width="3"/>
<path d="M71.5488 545.48C70.1088 545.48 68.8154 545.227 67.6688 544.72C66.5221 544.213 65.5488 543.493 64.7488 542.56C63.9754 541.627 63.3754 540.493 62.9488 539.16C62.5488 537.827 62.3488 536.333 62.3488 534.68C62.3488 533.027 62.5488 531.533 62.9488 530.2C63.3754 528.867 63.9754 527.733 64.7488 526.8C65.5488 525.867 66.5221 525.147 67.6688 524.64C68.8154 524.133 70.1088 523.88 71.5488 523.88C73.6021 523.88 75.2421 524.333 76.4688 525.24C77.7221 526.12 78.6554 527.28 79.2688 528.72L76.5888 530.08C76.2154 529.013 75.6021 528.187 74.7488 527.6C73.8954 527.013 72.8288 526.72 71.5488 526.72C70.5888 526.72 69.7488 526.88 69.0288 527.2C68.3088 527.493 67.7088 527.92 67.2288 528.48C66.7488 529.013 66.3888 529.667 66.1488 530.44C65.9088 531.187 65.7888 532.013 65.7888 532.92V536.44C65.7888 538.253 66.2688 539.747 67.2288 540.92C68.2154 542.067 69.6554 542.64 71.5488 542.64C74.1354 542.64 76.0021 541.44 77.1488 539.04L79.4688 540.6C78.8021 542.093 77.8021 543.28 76.4688 544.16C75.1621 545.04 73.5221 545.48 71.5488 545.48ZM91.5516 545.48C90.1649 545.48 88.8982 545.227 87.7516 544.72C86.6049 544.213 85.6182 543.493 84.7916 542.56C83.9916 541.6 83.3649 540.467 82.9116 539.16C82.4582 537.827 82.2316 536.333 82.2316 534.68C82.2316 533.053 82.4582 531.573 82.9116 530.24C83.3649 528.907 83.9916 527.773 84.7916 526.84C85.6182 525.88 86.6049 525.147 87.7516 524.64C88.8982 524.133 90.1649 523.88 91.5516 523.88C92.9382 523.88 94.1916 524.133 95.3116 524.64C96.4582 525.147 97.4449 525.88 98.2716 526.84C99.0982 527.773 99.7382 528.907 100.192 530.24C100.645 531.573 100.872 533.053 100.872 534.68C100.872 536.333 100.645 537.827 100.192 539.16C99.7382 540.467 99.0982 541.6 98.2716 542.56C97.4449 543.493 96.4582 544.213 95.3116 544.72C94.1916 545.227 92.9382 545.48 91.5516 545.48ZM91.5516 542.64C93.2849 542.64 94.6982 542.107 95.7916 541.04C96.8849 539.973 97.4316 538.347 97.4316 536.16V533.2C97.4316 531.013 96.8849 529.387 95.7916 528.32C94.6982 527.253 93.2849 526.72 91.5516 526.72C89.8182 526.72 88.4049 527.253 87.3116 528.32C86.2182 529.387 85.6716 531.013 85.6716 533.2V536.16C85.6716 538.347 86.2182 539.973 87.3116 541.04C88.4049 542.107 89.8182 542.64 91.5516 542.64ZM106.134 545V524.36H109.334V527.72H109.494C110.001 526.547 110.708 525.613 111.614 524.92C112.548 524.227 113.788 523.88 115.334 523.88C117.468 523.88 119.148 524.573 120.374 525.96C121.628 527.32 122.254 529.253 122.254 531.76V545H119.054V532.32C119.054 528.613 117.494 526.76 114.374 526.76C113.734 526.76 113.108 526.84 112.494 527C111.908 527.16 111.374 527.4 110.894 527.72C110.414 528.04 110.028 528.453 109.734 528.96C109.468 529.44 109.334 530.013 109.334 530.68V545H106.134ZM133.429 545C132.309 545 131.455 544.693 130.869 544.08C130.309 543.44 130.029 542.613 130.029 541.6V527.16H126.629V524.36H128.549C129.242 524.36 129.709 524.227 129.949 523.96C130.215 523.667 130.349 523.173 130.349 522.48V518.64H133.229V524.36H137.749V527.16H133.229V542.2H137.429V545H133.429ZM142.892 545V524.36H146.092V528.16H146.292C146.666 527.173 147.332 526.293 148.292 525.52C149.252 524.747 150.572 524.36 152.252 524.36H153.492V527.56H151.612C149.879 527.56 148.519 527.893 147.532 528.56C146.572 529.2 146.092 530.013 146.092 531V545H142.892ZM172.423 545C171.223 545 170.357 544.68 169.823 544.04C169.317 543.4 168.997 542.6 168.863 541.64H168.663C168.21 542.92 167.463 543.88 166.423 544.52C165.383 545.16 164.143 545.48 162.703 545.48C160.517 545.48 158.81 544.92 157.583 543.8C156.383 542.68 155.783 541.16 155.783 539.24C155.783 537.293 156.49 535.8 157.903 534.76C159.343 533.72 161.57 533.2 164.583 533.2H168.663V531.16C168.663 529.693 168.263 528.573 167.463 527.8C166.663 527.027 165.437 526.64 163.783 526.64C162.53 526.64 161.477 526.92 160.623 527.48C159.797 528.04 159.103 528.787 158.543 529.72L156.623 527.92C157.183 526.8 158.077 525.853 159.303 525.08C160.53 524.28 162.077 523.88 163.943 523.88C166.45 523.88 168.397 524.493 169.783 525.72C171.17 526.947 171.863 528.653 171.863 530.84V542.2H174.223V545H172.423ZM163.223 542.76C164.023 542.76 164.757 542.667 165.423 542.48C166.09 542.293 166.663 542.027 167.143 541.68C167.623 541.333 167.997 540.933 168.263 540.48C168.53 540.027 168.663 539.533 168.663 539V535.6H164.423C162.583 535.6 161.237 535.867 160.383 536.4C159.557 536.933 159.143 537.707 159.143 538.72V539.56C159.143 540.573 159.503 541.36 160.223 541.92C160.97 542.48 161.97 542.76 163.223 542.76ZM186.471 545.48C185.031 545.48 183.737 545.227 182.591 544.72C181.444 544.213 180.471 543.493 179.671 542.56C178.897 541.627 178.297 540.493 177.871 539.16C177.471 537.827 177.271 536.333 177.271 534.68C177.271 533.027 177.471 531.533 177.871 530.2C178.297 528.867 178.897 527.733 179.671 526.8C180.471 525.867 181.444 525.147 182.591 524.64C183.737 524.133 185.031 523.88 186.471 523.88C188.524 523.88 190.164 524.333 191.391 525.24C192.644 526.12 193.577 527.28 194.191 528.72L191.511 530.08C191.137 529.013 190.524 528.187 189.671 527.6C188.817 527.013 187.751 526.72 186.471 526.72C185.511 526.72 184.671 526.88 183.951 527.2C183.231 527.493 182.631 527.92 182.151 528.48C181.671 529.013 181.311 529.667 181.071 530.44C180.831 531.187 180.711 532.013 180.711 532.92V536.44C180.711 538.253 181.191 539.747 182.151 540.92C183.137 542.067 184.577 542.64 186.471 542.64C189.057 542.64 190.924 541.44 192.071 539.04L194.391 540.6C193.724 542.093 192.724 543.28 191.391 544.16C190.084 545.04 188.444 545.48 186.471 545.48ZM203.468 545C202.348 545 201.494 544.693 200.908 544.08C200.348 543.44 200.068 542.613 200.068 541.6V527.16H196.668V524.36H198.588C199.281 524.36 199.748 524.227 199.988 523.96C200.254 523.667 200.388 523.173 200.388 522.48V518.64H203.268V524.36H207.788V527.16H203.268V542.2H207.468V545H203.468Z" fill="black"/>
</svg>
