<svg width="1920" height="1080" viewBox="0 0 1920 1080" fill="none" xmlns="http://www.w3.org/2000/svg">
<g clip-path="url(#clip0_12561_334)">
<rect width="1920" height="1080" fill="#0F1257"/>
<path d="M1293.9 -242.857L1347.43 -212.694C1347.43 -212.694 1242.32 -51.1252 1315.82 129.385C1383.92 296.548 1562.44 374.774 1562.44 374.774L1551.91 393.486C1551.91 393.486 1357.11 321.572 1275.68 149.878C1177.61 -56.8214 1293.9 -242.857 1293.9 -242.857Z" fill="white"/>
<path d="M1347.36 -212.542C1347.36 -212.542 1242.35 -51.0865 1315.85 129.342C1383.96 296.43 1562.41 374.654 1562.41 374.654L1576.18 350.168C1576.18 350.168 1430 290.027 1365.22 121.557C1301.73 -43.6404 1400.88 -182.393 1400.88 -182.393L1347.36 -212.542Z" fill="#E53412"/>
<path d="M1400.54 -181.898C1394.68 -173.448 1303.65 -38.2674 1365.05 121.65C1429.71 290.062 1575.88 350.172 1575.88 350.172L1573.7 354.062L1582.66 338.131C1582.66 338.131 1433.18 250.453 1405.58 122.321C1370.45 -40.9191 1469.09 -140.052 1469.09 -140.052L1400.54 -181.898Z" fill="#010101"/>
<path d="M1532.01 -27.9445C1491.9 -17.8221 1454.88 1.97828 1424.2 29.7236C1393.51 57.4689 1370.1 92.3131 1356 131.206C1341.9 170.098 1337.55 211.854 1343.34 252.816C1349.12 293.779 1364.85 332.7 1389.16 366.172L1531.16 288.317L1797.85 67.4495C1768.03 26.9357 1726.82 -3.77581 1679.47 -20.7663C1632.12 -37.7567 1580.79 -40.2558 1532.01 -27.9445Z" fill="#FF0000"/>
<path d="M1530.68 286.399L1408.23 387.952C1448.32 431.131 1502.24 458.958 1560.66 466.632C1619.08 474.306 1678.35 461.344 1728.24 429.984C1778.12 398.624 1815.5 350.833 1833.91 294.859C1852.32 238.885 1850.62 178.239 1829.09 123.388L1530.68 286.399Z" fill="#00B0FF"/>
<path d="M1737.8 106.522C1711.54 77.1273 1677.94 55.2419 1640.44 43.1076C1602.93 30.9733 1562.88 29.0261 1524.37 37.4656C1485.87 45.9052 1450.3 64.428 1421.31 91.1368C1392.32 117.846 1370.96 151.78 1359.4 189.465C1347.84 227.15 1346.5 267.23 1355.53 305.599C1364.56 343.969 1383.62 379.249 1410.77 407.827C1437.92 436.404 1472.18 457.25 1510.04 468.231C1547.89 479.212 1587.99 479.932 1626.22 470.318L1916.93 397.001C1925.32 394.894 1933.01 390.614 1939.22 384.591C1945.44 378.568 1949.95 371.015 1952.32 362.693C1954.68 354.371 1954.81 345.572 1952.69 337.183C1950.58 328.794 1946.29 321.111 1940.26 314.906L1737.8 106.522Z" fill="#010101"/>
<path d="M1372.71 375.176L1505.55 498.799L1531.1 288.524L1372.71 375.176Z" fill="#00B0FF"/>
<path d="M1883.39 364.029C1887.61 362.972 1891.42 360.685 1894.33 357.459C1897.25 354.233 1899.14 350.213 1899.77 345.91C1900.41 341.618 1899.75 337.232 1897.89 333.312C1896 329.448 1893.03 326.213 1889.35 324C1885.62 321.777 1881.31 320.709 1876.97 320.933C1872.63 321.156 1868.46 322.66 1864.97 325.255C1861.49 327.843 1858.85 331.408 1857.39 335.498C1855.93 339.587 1855.72 344.018 1856.78 348.228C1857.48 351.026 1858.72 353.658 1860.44 355.974C1862.16 358.291 1864.32 360.245 1866.8 361.726C1869.27 363.207 1872.01 364.185 1874.87 364.605C1877.72 365.025 1880.63 364.878 1883.43 364.173L1883.39 364.029Z" fill="white"/>
<path d="M1616.74 608.127L1611.82 259.182L1833.19 538.193L1616.74 608.127Z" fill="#07A13D" stroke="black" stroke-width="4"/>
<path d="M1609.74 253.338L1922.51 647.875" stroke="#010101" stroke-width="4" stroke-miterlimit="10"/>
<path d="M1812.88 544.617L1891.07 643.251" stroke="#010101" stroke-width="4" stroke-miterlimit="10"/>
<path d="M1783.61 554.29L1864.72 657.128" stroke="#010101" stroke-width="4" stroke-miterlimit="10"/>
<path d="M1756.14 563.394L1840.17 669.247" stroke="#010101" stroke-width="4" stroke-miterlimit="10"/>
<path d="M1700.7 719.866L1922.3 648.08L1900.84 621.934L1690.96 689.939L1700.7 719.866Z" fill="white" stroke="black" stroke-width="4"/>
<path d="M1751.44 208.972C1781.6 201.006 1799.6 170.096 1791.63 139.932C1783.66 109.769 1752.75 91.7742 1722.59 99.7402C1692.43 107.706 1674.43 138.616 1682.4 168.779C1690.36 198.943 1721.27 216.937 1751.44 208.972Z" fill="#F49500"/>
<path d="M1551.62 144.306L1642.93 144.662C1637.72 137.44 1630.88 131.553 1622.96 127.481C1615.04 123.409 1606.27 121.269 1597.37 121.234C1588.46 121.199 1579.68 123.271 1571.72 127.281C1563.77 131.291 1556.89 137.125 1551.62 144.306Z" fill="#F49500"/>
<path d="M1642.93 144.663L1706.61 144.886C1702.97 139.849 1698.2 135.743 1692.68 132.904C1687.15 130.065 1681.03 128.573 1674.82 128.552C1668.61 128.53 1662.48 129.979 1656.94 132.779C1651.4 135.579 1646.59 139.651 1642.93 144.663Z" fill="#FF0000"/>
<path d="M1706.57 144.845L1776.57 145.092C1772.58 139.557 1767.33 135.046 1761.26 131.927C1755.18 128.808 1748.46 127.169 1741.63 127.144C1734.81 127.12 1728.07 128.711 1721.98 131.788C1715.88 134.864 1710.6 139.338 1706.57 144.845Z" fill="#FF0000"/>
<path d="M1776.57 145.093L1811.58 145.225C1809.58 142.458 1806.95 140.204 1803.92 138.644C1800.88 137.085 1797.52 136.265 1794.11 136.252C1790.69 136.239 1787.33 137.034 1784.28 138.57C1781.23 140.107 1778.59 142.342 1776.57 145.093Z" fill="#FF0000"/>
<path d="M1751.99 -13.6044L1707.19 140.361L1788.23 3.38956L1751.99 -13.6044Z" fill="#00B0FF"/>
<path d="M1742.44 351.405C1742.44 351.405 2017.66 521.84 2049.36 539.309C2081.06 556.778 2092.89 532.6 2067.36 515.021C2041.84 497.442 1742.44 351.405 1742.44 351.405Z" fill="white"/>
<path d="M1583 516.086C1583 516.086 1558.29 679.653 1556.46 698.058C1554.63 716.463 1568.37 717.156 1571.49 701.631C1574.62 686.106 1583 516.086 1583 516.086Z" fill="white"/>
<path d="M1564.1 494.459C1564.1 494.459 1521.27 595.846 1517.07 607.41C1512.86 618.975 1521.6 621.681 1526.17 612.186C1530.74 602.691 1564.1 494.459 1564.1 494.459Z" fill="white"/>
<path d="M1785.91 277.929C1785.91 277.929 1999.93 293.939 2023.92 294.519C2047.9 295.099 2047.51 277.179 2027.12 274.666C2006.72 272.153 1785.91 277.929 1785.91 277.929Z" fill="white"/>
<path d="M1697.16 55.01C1697.16 55.01 1736.66 -57.4476 1740.44 -70.2254C1744.22 -83.0031 1734.54 -85.3561 1730.25 -74.7798C1725.96 -64.2035 1697.16 55.01 1697.16 55.01Z" fill="white"/>
<ellipse cx="1487.23" cy="203.63" rx="62.65" ry="62.2814" transform="rotate(-14.1546 1487.23 203.63)" fill="white"/>
<path d="M1426.09 879.792L1367.78 837.434C1371.97 849.628 1379.82 860.235 1390.25 867.813C1400.68 875.392 1413.19 879.574 1426.09 879.792Z" fill="#08C5C8"/>
<path d="M1360.84 956.908C1347.87 956.892 1335.22 960.907 1324.63 968.398H1397.08C1386.49 960.9 1373.82 956.884 1360.84 956.908Z" fill="#08C5C8"/>
<path d="M1316.37 941.94C1316.38 932.184 1314.1 922.562 1309.73 913.84C1305.36 905.119 1299.01 897.541 1291.19 891.71L1313.55 960.543C1315.43 954.52 1316.37 948.247 1316.37 941.94Z" fill="#08C5C8"/>
<path d="M1353.81 837.434L1295.5 879.792C1308.39 879.574 1320.91 875.392 1331.34 867.813C1341.77 860.235 1349.62 849.628 1353.81 837.434Z" fill="#FDB913"/>
<path d="M1404.4 942.841C1404.4 949.147 1405.34 955.418 1407.2 961.443L1429.58 892.595C1421.76 898.43 1415.41 906.011 1411.04 914.735C1406.67 923.458 1404.39 933.083 1404.4 942.841Z" fill="#FDB913"/>
<path d="M1360.86 902.237C1349.49 902.237 1320.02 897.922 1320.02 897.922L1360.86 916.051L1401.71 897.922C1401.71 897.922 1372.22 902.237 1360.86 902.237Z" fill="white"/>
<path d="M1331.67 950.996L1360.86 931.872L1390.05 950.996L1360.86 916.051L1331.67 950.996Z" fill="white"/>
<path d="M1346.17 875.113H1338.6V869.045H1361.06V875.113H1353.49V892.627H1346.17V875.113Z" fill="white"/>
<path d="M1369.89 886.559H1382.55V892.627H1362.55V869.045H1369.89V886.559Z" fill="white"/>
<path d="M1476.86 874.604H1461.89V862.723H1506.32V874.604H1491.35V908.894H1476.86V874.604Z" fill="white"/>
<path d="M1540.96 892.409L1540.77 894.373H1515.3C1515.35 896.541 1515.83 898.129 1516.75 899.138C1517.7 900.147 1519.17 900.651 1521.16 900.651C1522.26 900.651 1523.24 900.415 1524.09 899.943C1524.95 899.471 1525.52 898.955 1525.8 898.397L1526.19 897.689H1540.22C1540.22 898.226 1540.03 898.998 1539.64 900.007C1538.92 901.853 1537.81 903.474 1536.33 904.869C1535.3 905.856 1534.14 906.672 1532.85 907.316C1531.58 907.96 1529.98 908.486 1528.02 908.894C1525.92 909.323 1523.63 909.537 1521.16 909.537C1515.15 909.537 1510.36 908.099 1506.77 905.223C1503.19 902.347 1501.39 898.075 1501.39 892.409C1501.39 886.785 1503.19 882.524 1506.77 879.627C1510.33 876.729 1515.14 875.28 1521.2 875.28C1527.23 875.28 1532.02 876.729 1535.59 879.627C1539.17 882.524 1540.96 886.785 1540.96 892.409ZM1521.16 883.844C1519.49 883.844 1518.16 884.295 1517.17 885.197C1516.18 886.098 1515.69 887.182 1515.69 888.448H1526.44C1526.44 887.246 1525.97 886.173 1525.03 885.229C1524.1 884.306 1522.82 883.844 1521.16 883.844Z" fill="white"/>
<path d="M1548.63 905.191C1545.05 902.293 1543.25 898.032 1543.25 892.409C1543.25 886.785 1545.05 882.524 1548.63 879.627C1552.21 876.729 1557.01 875.28 1563.02 875.28C1568.67 875.28 1573.35 876.514 1577.06 878.983C1580.77 881.472 1582.63 885.068 1582.63 889.769H1568.3C1567.62 887.794 1565.86 886.806 1563.02 886.806C1561.22 886.806 1559.78 887.322 1558.71 888.352C1557.63 889.382 1557.1 890.734 1557.1 892.409C1557.1 894.083 1557.63 895.435 1558.71 896.466C1559.78 897.496 1561.22 898.011 1563.02 898.011C1565.86 898.011 1567.62 897.024 1568.3 895.049H1582.63C1582.63 899.728 1580.77 903.313 1577.06 905.803C1573.3 908.293 1568.62 909.537 1563.02 909.537C1557.01 909.537 1552.21 908.089 1548.63 905.191Z" fill="white"/>
<path d="M1625.45 908.894H1612.29V892.988C1612.29 891.121 1611.73 889.629 1610.61 888.513C1609.5 887.375 1607.96 886.806 1606.01 886.806C1604.01 886.806 1602.47 887.365 1601.37 888.481C1600.3 889.575 1599.76 891.078 1599.76 892.988V908.894H1586.56V862.723H1599.76V881.848H1600.41C1600.56 881.333 1601.05 880.56 1601.89 879.53C1602.47 878.822 1603.17 878.167 1604.01 877.566C1604.93 876.943 1606.14 876.407 1607.62 875.956C1609.1 875.505 1610.65 875.28 1612.29 875.28C1616.36 875.28 1619.58 876.428 1621.95 878.725C1624.28 881.043 1625.45 884.51 1625.45 889.125V908.894Z" fill="white"/>
<path d="M1645.9 897.013H1670.95V908.894H1631.38V862.723H1645.9V897.013Z" fill="white"/>
<path d="M1709.17 892.409L1708.98 894.373H1683.51C1683.55 896.541 1684.04 898.129 1684.96 899.138C1685.9 900.147 1687.37 900.651 1689.37 900.651C1690.47 900.651 1691.44 900.415 1692.3 899.943C1693.16 899.471 1693.73 898.955 1694.01 898.397L1694.39 897.689H1708.43C1708.43 898.226 1708.24 898.998 1707.85 900.007C1707.12 901.853 1706.02 903.474 1704.54 904.869C1703.51 905.856 1702.35 906.672 1701.06 907.316C1699.79 907.96 1698.18 908.486 1696.23 908.894C1694.13 909.323 1691.84 909.537 1689.37 909.537C1683.36 909.537 1678.56 908.099 1674.98 905.223C1671.39 902.347 1669.6 898.075 1669.6 892.409C1669.6 886.785 1671.39 882.524 1674.98 879.627C1678.54 876.729 1683.35 875.28 1689.4 875.28C1695.43 875.28 1700.23 876.729 1703.8 879.627C1707.38 882.524 1709.17 886.785 1709.17 892.409ZM1689.37 883.844C1687.7 883.844 1686.37 884.295 1685.38 885.197C1684.39 886.098 1683.9 887.182 1683.9 888.448H1694.65C1694.65 887.246 1694.18 886.173 1693.23 885.229C1692.31 884.306 1691.02 883.844 1689.37 883.844Z" fill="white"/>
<path d="M1711.78 899.331C1711.78 895.854 1713.12 893.278 1715.81 891.604C1718.49 889.951 1721.99 889.125 1726.3 889.125C1728.47 889.125 1730.4 889.307 1732.1 889.672C1733.73 890.015 1734.8 890.402 1735.32 890.831L1736.06 891.346V887.128C1736.06 886.141 1735.74 885.401 1735.09 884.907C1734.47 884.413 1733.37 884.166 1731.78 884.166C1728.88 884.166 1727.43 885.154 1727.43 887.128H1713.55C1713.55 883.243 1715.11 880.303 1718.22 878.306C1721.36 876.289 1725.87 875.28 1731.78 875.28C1737.7 875.28 1742.09 876.235 1744.95 878.145C1747.8 880.056 1749.23 883.05 1749.23 887.128V895.371C1749.23 896.401 1749.35 897.12 1749.58 897.528C1749.84 897.936 1750.28 898.14 1750.9 898.14L1751.87 898.011V908.894C1750.88 909.323 1749.13 909.537 1746.62 909.537C1743.87 909.537 1741.74 908.926 1740.21 907.702C1738.95 906.715 1738.07 905.749 1737.57 904.805L1737.38 904.289H1736.7C1736.49 904.847 1736.09 905.459 1735.51 906.125C1734.95 906.747 1734.29 907.284 1733.52 907.734C1732.68 908.228 1731.49 908.647 1729.94 908.99C1728.42 909.355 1726.76 909.537 1724.98 909.537C1721.14 909.537 1717.98 908.679 1715.49 906.962C1713.02 905.266 1711.78 902.722 1711.78 899.331ZM1724.98 898.397C1724.98 899.814 1726.83 900.522 1730.52 900.522C1734.21 900.522 1736.06 899.814 1736.06 898.397C1736.06 897.002 1734.21 896.305 1730.52 896.305C1726.83 896.305 1724.98 897.002 1724.98 898.397Z" fill="white"/>
<path d="M1769.06 909.537C1764.83 909.537 1761.3 908.056 1758.47 905.094C1755.64 902.132 1754.22 897.904 1754.22 892.409C1754.22 886.914 1755.64 882.685 1758.47 879.723C1761.3 876.761 1764.83 875.28 1769.06 875.28C1771.38 875.28 1773.46 875.602 1775.31 876.246C1777.13 876.933 1778.37 877.598 1779.01 878.242L1780.01 879.208H1780.59V862.723H1793.79V908.894H1780.59V902.969H1779.95C1779.6 903.721 1779.13 904.483 1778.53 905.255C1777.86 906.049 1777.19 906.704 1776.5 907.219C1775.66 907.863 1774.57 908.411 1773.22 908.861C1771.89 909.312 1770.5 909.537 1769.06 909.537ZM1769.71 888.32C1768.61 889.329 1768.07 890.692 1768.07 892.409C1768.07 894.126 1768.6 895.489 1769.68 896.498C1770.75 897.507 1772.3 898.011 1774.34 898.011C1776.34 898.011 1777.87 897.517 1778.95 896.53C1780.04 895.521 1780.59 894.147 1780.59 892.409C1780.59 890.649 1780.04 889.275 1778.95 888.287C1777.85 887.3 1776.32 886.806 1774.34 886.806C1772.33 886.806 1770.78 887.311 1769.71 888.32Z" fill="white"/>
<path d="M1471.71 959.58C1467.56 955.18 1465.49 949.492 1465.49 942.516C1465.49 935.562 1467.56 929.873 1471.71 925.452C1475.83 921.009 1481.34 918.787 1488.26 918.787C1492.08 918.787 1495.5 919.495 1498.53 920.912C1501.57 922.372 1503.88 924.132 1505.45 926.192C1506.99 928.231 1508.18 930.238 1508.99 932.213C1509.81 934.166 1510.21 935.916 1510.21 937.461H1505.87C1505.87 936.109 1505.16 934.177 1503.74 931.666C1502.88 930.185 1501.85 928.811 1500.65 927.545C1499.43 926.3 1497.73 925.205 1495.56 924.26C1493.4 923.337 1490.96 922.876 1488.26 922.876C1482.61 922.876 1478.17 924.722 1474.93 928.414C1471.64 932.127 1470 936.828 1470 942.516C1470 948.204 1471.64 952.905 1474.93 956.618C1478.19 960.332 1482.63 962.188 1488.26 962.188C1490.92 962.188 1493.35 961.716 1495.56 960.772C1497.73 959.827 1499.43 958.733 1500.65 957.488C1501.85 956.243 1502.88 954.869 1503.74 953.366C1505.16 950.855 1505.87 948.934 1505.87 947.603H1510.21C1510.21 949.149 1509.81 950.909 1508.99 952.884C1508.18 954.837 1506.99 956.822 1505.45 958.84C1503.86 960.901 1501.55 962.65 1498.53 964.088C1495.52 965.526 1492.1 966.245 1488.26 966.245C1481.34 966.245 1475.83 964.024 1471.71 959.58Z" fill="white"/>
<path d="M1521.07 961.577C1517.8 958.443 1516.17 954.397 1516.17 949.438C1516.17 944.48 1517.8 940.434 1521.07 937.3C1524.31 934.188 1528.44 932.632 1533.46 932.632C1538.49 932.632 1542.62 934.188 1545.86 937.3C1549.1 940.413 1550.72 944.459 1550.72 949.438C1550.72 954.418 1549.1 958.464 1545.86 961.577C1542.62 964.689 1538.49 966.245 1533.46 966.245C1528.44 966.245 1524.31 964.689 1521.07 961.577ZM1533.46 962.317C1537.35 962.317 1540.49 961.083 1542.9 958.615C1545.3 956.146 1546.5 953.087 1546.5 949.438C1546.5 945.789 1545.3 942.731 1542.9 940.262C1540.49 937.815 1537.35 936.592 1533.46 936.592C1529.6 936.592 1526.45 937.815 1524.03 940.262C1521.6 942.752 1520.39 945.811 1520.39 949.438C1520.39 953.066 1521.6 956.125 1524.03 958.615C1526.43 961.083 1529.58 962.317 1533.46 962.317Z" fill="white"/>
<path d="M1589.01 965.601H1584.92V948.312C1584.92 944.212 1583.88 941.218 1581.79 939.329C1579.69 937.418 1576.92 936.463 1573.49 936.463C1569.79 936.463 1566.97 937.569 1565.02 939.779C1563.07 941.99 1562.09 944.888 1562.09 948.473V965.601H1558V933.276H1562.09V938.363H1562.35C1562.56 937.89 1563.11 937.225 1563.99 936.367C1564.68 935.701 1565.43 935.122 1566.24 934.628C1567.17 934.07 1568.38 933.598 1569.88 933.211C1571.38 932.825 1572.94 932.632 1574.55 932.632C1578.73 932.632 1582.19 933.866 1584.92 936.334C1587.64 938.803 1589.01 942.538 1589.01 947.539V965.601Z" fill="white"/>
<path d="M1602.95 931.634V933.276H1613.45V937.107H1602.95V965.601H1598.86V937.107H1593.26V933.276H1598.86V931.312C1598.86 927.083 1599.9 923.938 1601.98 921.878C1604.04 919.817 1606.74 918.787 1610.06 918.787C1611.2 918.787 1612.33 918.894 1613.45 919.109C1614.56 919.324 1615.4 919.57 1615.96 919.849L1616.67 920.236V924.196C1615.23 923.144 1613.14 922.618 1610.42 922.618C1607.93 922.597 1606.06 923.348 1604.82 924.872C1603.57 926.375 1602.95 928.629 1602.95 931.634Z" fill="white"/>
<path d="M1653.41 965.94H1630.33V960.926C1630.33 959.75 1630.6 958.707 1631.15 957.799C1631.7 956.878 1632.44 956.139 1633.37 955.58C1634.96 954.625 1637.04 953.798 1639.59 953.099C1640.32 952.901 1640.94 952.726 1641.44 952.575C1641.95 952.412 1642.49 952.208 1643.05 951.963C1643.62 951.718 1644.07 951.468 1644.41 951.212C1644.75 950.956 1645.03 950.647 1645.25 950.286C1645.47 949.925 1645.58 949.535 1645.58 949.115C1645.58 947.613 1644.46 946.861 1642.23 946.861C1639.98 946.861 1638.85 947.851 1638.85 949.832V951.159H1630.98V949.832C1630.98 946.593 1631.9 944.229 1633.74 942.738C1635.56 941.27 1638.39 940.537 1642.21 940.537C1645.99 940.537 1648.81 941.241 1650.67 942.651C1652.52 944.06 1653.44 946.215 1653.44 949.115C1653.44 950.734 1652.97 952.161 1652.01 953.396C1651.07 954.619 1649.9 955.556 1648.5 956.209C1647.19 956.814 1645.83 957.35 1644.41 957.816C1643.21 958.2 1642.05 958.567 1640.92 958.917C1639.95 959.231 1639.47 959.546 1639.47 959.86H1653.41V965.94Z" fill="#08C5C8"/>
<path d="M1676.85 943.996C1679.03 946.314 1680.12 949.453 1680.12 953.413C1680.12 957.385 1679.03 960.518 1676.85 962.813C1674.67 965.131 1671.64 966.29 1667.76 966.29C1663.9 966.29 1660.87 965.131 1658.7 962.813C1656.51 960.495 1655.41 957.362 1655.41 953.413C1655.41 949.465 1656.51 946.326 1658.7 943.996C1660.89 941.69 1663.91 940.537 1667.76 940.537C1671.64 940.537 1674.67 941.69 1676.85 943.996ZM1667.76 947.228C1665.01 947.228 1663.64 949.29 1663.64 953.413C1663.64 957.548 1665.01 959.616 1667.76 959.616C1670.5 959.616 1671.87 957.548 1671.87 953.413C1671.87 949.29 1670.5 947.228 1667.76 947.228Z" fill="#08C5C8"/>
<path d="M1704.97 965.94H1681.89V960.926C1681.89 959.75 1682.16 958.707 1682.71 957.799C1683.26 956.878 1684 956.139 1684.93 955.58C1686.53 954.625 1688.6 953.798 1691.15 953.099C1691.88 952.901 1692.5 952.726 1693 952.575C1693.52 952.412 1694.05 952.208 1694.61 951.963C1695.18 951.718 1695.64 951.468 1695.97 951.212C1696.31 950.956 1696.59 950.647 1696.81 950.286C1697.03 949.925 1697.14 949.535 1697.14 949.115C1697.14 947.613 1696.03 946.861 1693.79 946.861C1691.54 946.861 1690.42 947.851 1690.42 949.832V951.159H1682.54V949.832C1682.54 946.593 1683.46 944.229 1685.3 942.738C1687.13 941.27 1689.95 940.537 1693.77 940.537C1697.56 940.537 1700.38 941.241 1702.23 942.651C1704.08 944.06 1705.01 946.215 1705.01 949.115C1705.01 950.734 1704.53 952.161 1703.57 953.396C1702.63 954.619 1701.46 955.556 1700.06 956.209C1698.76 956.814 1697.39 957.35 1695.97 957.816C1694.77 958.2 1693.61 958.567 1692.48 958.917C1691.51 959.231 1691.03 959.546 1691.03 959.86H1704.97V965.94Z" fill="#08C5C8"/>
<path d="M1726.65 965.94H1718.78V961.293H1705V955.213L1716.27 940.886H1726.65V955.213H1729.88V961.293H1726.65V965.94ZM1719.31 945.551L1717.77 948.486L1712.37 955.143V955.318H1718.89V948.486L1720.09 945.551H1719.31Z" fill="#08C5C8"/>
</g>
<defs>
<clipPath id="clip0_12561_334">
<rect width="1920" height="1080" fill="white"/>
</clipPath>
</defs>
</svg>
