<svg width="960" height="540" viewBox="0 0 960 540" fill="none" xmlns="http://www.w3.org/2000/svg">
<rect width="960" height="540" fill="#0F1257"/>
<path d="M31.9699 60.0103V26.4103H62.5939V60.0103H54.8659V30.9703L56.6419 32.7463H37.9219L39.6979 30.9703V60.0103H31.9699ZM82.4431 60.3943C79.6911 60.3943 77.2431 59.8183 75.0991 58.6663C72.9871 57.5143 71.3071 55.9463 70.0591 53.9623C68.8431 51.9463 68.2351 49.6583 68.2351 47.0983C68.2351 44.5063 68.8431 42.2183 70.0591 40.2343C71.3071 38.2183 72.9871 36.6503 75.0991 35.5303C77.2431 34.3783 79.6911 33.8023 82.4431 33.8023C85.1631 33.8023 87.5951 34.3783 89.7391 35.5303C91.8831 36.6503 93.5631 38.2023 94.7791 40.1863C95.9951 42.1703 96.6031 44.4743 96.6031 47.0983C96.6031 49.6583 95.9951 51.9463 94.7791 53.9623C93.5631 55.9463 91.8831 57.5143 89.7391 58.6663C87.5951 59.8183 85.1631 60.3943 82.4431 60.3943ZM82.4431 54.2503C83.6911 54.2503 84.8111 53.9623 85.8031 53.3863C86.7951 52.8103 87.5791 51.9943 88.1551 50.9383C88.7311 49.8503 89.0191 48.5703 89.0191 47.0983C89.0191 45.5943 88.7311 44.3143 88.1551 43.2583C87.5791 42.2023 86.7951 41.3863 85.8031 40.8103C84.8111 40.2343 83.6911 39.9463 82.4431 39.9463C81.1951 39.9463 80.0751 40.2343 79.0831 40.8103C78.0911 41.3863 77.2911 42.2023 76.6831 43.2583C76.1071 44.3143 75.8191 45.5943 75.8191 47.0983C75.8191 48.5703 76.1071 49.8503 76.6831 50.9383C77.2911 51.9943 78.0911 52.8103 79.0831 53.3863C80.0751 53.9623 81.1951 54.2503 82.4431 54.2503ZM132.012 60.0103L125.148 47.7703L131.196 44.1703L140.892 60.0103H132.012ZM120.732 50.2183V44.2183H129.708V50.2183H120.732ZM131.964 47.9623L124.908 47.1943L132.348 34.1863H140.268L131.964 47.9623ZM106.476 60.0103H97.6444L107.292 44.1703L113.34 47.7703L106.476 60.0103ZM122.94 60.0103H115.548V34.1863H122.94V60.0103ZM117.756 50.2183H108.828V44.2183H117.756V50.2183ZM106.524 47.9623L98.2204 34.1863H106.14L113.532 47.1943L106.524 47.9623ZM159.772 60.0103V54.9703L159.292 53.8663V44.8423C159.292 43.2423 158.796 41.9943 157.804 41.0983C156.844 40.2023 155.356 39.7543 153.34 39.7543C151.964 39.7543 150.604 39.9783 149.26 40.4263C147.948 40.8423 146.828 41.4183 145.9 42.1543L143.212 36.9223C144.62 35.9303 146.316 35.1623 148.3 34.6183C150.284 34.0743 152.3 33.8023 154.348 33.8023C158.284 33.8023 161.34 34.7303 163.516 36.5863C165.692 38.4423 166.78 41.3383 166.78 45.2743V60.0103H159.772ZM151.9 60.3943C149.884 60.3943 148.156 60.0583 146.716 59.3863C145.276 58.6823 144.172 57.7383 143.404 56.5543C142.636 55.3703 142.252 54.0423 142.252 52.5703C142.252 51.0343 142.62 49.6903 143.356 48.5383C144.124 47.3863 145.324 46.4903 146.956 45.8503C148.588 45.1783 150.716 44.8423 153.34 44.8423H160.204V49.2103H154.156C152.396 49.2103 151.18 49.4983 150.508 50.0743C149.868 50.6503 149.548 51.3703 149.548 52.2343C149.548 53.1943 149.916 53.9623 150.652 54.5383C151.42 55.0823 152.46 55.3543 153.772 55.3543C155.02 55.3543 156.14 55.0663 157.132 54.4903C158.124 53.8823 158.844 53.0023 159.292 51.8503L160.444 55.3063C159.9 56.9703 158.908 58.2343 157.468 59.0983C156.028 59.9623 154.172 60.3943 151.9 60.3943ZM170.021 59.9623L170.405 53.8183C170.597 53.8503 170.789 53.8823 170.981 53.9143C171.173 53.9143 171.349 53.9143 171.509 53.9143C172.405 53.9143 173.109 53.6583 173.621 53.1463C174.133 52.6343 174.517 51.9463 174.773 51.0823C175.029 50.1863 175.205 49.1783 175.301 48.0583C175.429 46.9383 175.525 45.7703 175.589 44.5543L175.973 34.1863H198.053V60.0103H190.565V38.5063L192.245 40.3303H180.917L182.501 38.4103L182.165 44.8903C182.069 47.1943 181.877 49.3063 181.589 51.2263C181.333 53.1463 180.901 54.8103 180.293 56.2183C179.685 57.5943 178.869 58.6663 177.845 59.4343C176.821 60.1703 175.509 60.5383 173.909 60.5383C173.333 60.5383 172.725 60.4903 172.085 60.3943C171.445 60.2983 170.757 60.1543 170.021 59.9623ZM208.757 69.7063C207.413 69.7063 206.085 69.4983 204.773 69.0823C203.461 68.6663 202.389 68.0903 201.557 67.3543L204.293 62.0263C204.869 62.5383 205.525 62.9383 206.261 63.2263C207.029 63.5143 207.781 63.6583 208.517 63.6583C209.573 63.6583 210.405 63.4023 211.013 62.8903C211.653 62.4103 212.229 61.5943 212.741 60.4423L214.085 57.2743L214.661 56.4583L223.925 34.1863H231.125L219.461 61.5943C218.629 63.6743 217.669 65.3063 216.581 66.4903C215.525 67.6743 214.341 68.5063 213.029 68.9863C211.749 69.4663 210.325 69.7063 208.757 69.7063ZM213.173 61.0183L201.653 34.1863H209.381L218.309 55.7863L213.173 61.0183ZM234.738 60.0103V34.1863H242.178V49.5463L254.754 34.1863H261.618V60.0103H254.178V44.6503L241.65 60.0103H234.738ZM247.698 31.4023C244.882 31.4023 242.77 30.7943 241.362 29.5783C239.954 28.3303 239.234 26.4583 239.202 23.9623H244.098C244.13 25.0503 244.434 25.9143 245.01 26.5543C245.586 27.1943 246.466 27.5143 247.65 27.5143C248.802 27.5143 249.682 27.1943 250.29 26.5543C250.93 25.9143 251.25 25.0503 251.25 23.9623H256.242C256.242 26.4583 255.522 28.3303 254.082 29.5783C252.642 30.7943 250.514 31.4023 247.698 31.4023ZM281.104 60.3943C278.32 60.3943 275.84 59.8343 273.664 58.7143C271.488 57.5623 269.776 55.9783 268.528 53.9623C267.312 51.9463 266.704 49.6583 266.704 47.0983C266.704 44.5063 267.312 42.2183 268.528 40.2343C269.776 38.2183 271.488 36.6503 273.664 35.5303C275.84 34.3783 278.32 33.8023 281.104 33.8023C283.824 33.8023 286.192 34.3783 288.208 35.5303C290.224 36.6503 291.712 38.2663 292.672 40.3783L286.864 43.4983C286.192 42.2823 285.344 41.3863 284.32 40.8103C283.328 40.2343 282.24 39.9463 281.056 39.9463C279.776 39.9463 278.624 40.2343 277.6 40.8103C276.576 41.3863 275.76 42.2023 275.152 43.2583C274.576 44.3143 274.288 45.5943 274.288 47.0983C274.288 48.6023 274.576 49.8823 275.152 50.9383C275.76 51.9943 276.576 52.8103 277.6 53.3863C278.624 53.9623 279.776 54.2503 281.056 54.2503C282.24 54.2503 283.328 53.9783 284.32 53.4343C285.344 52.8583 286.192 51.9463 286.864 50.6983L292.672 53.8663C291.712 55.9463 290.224 57.5623 288.208 58.7143C286.192 59.8343 283.824 60.3943 281.104 60.3943ZM302.648 60.0103V38.6023L304.328 40.3303H293.912V34.1863H318.824V40.3303H308.408L310.088 38.6023V60.0103H302.648ZM338.272 60.0103V54.9703L337.792 53.8663V44.8423C337.792 43.2423 337.296 41.9943 336.304 41.0983C335.344 40.2023 333.856 39.7543 331.84 39.7543C330.464 39.7543 329.104 39.9783 327.76 40.4263C326.448 40.8423 325.328 41.4183 324.4 42.1543L321.712 36.9223C323.12 35.9303 324.816 35.1623 326.8 34.6183C328.784 34.0743 330.8 33.8023 332.848 33.8023C336.784 33.8023 339.84 34.7303 342.016 36.5863C344.192 38.4423 345.28 41.3383 345.28 45.2743V60.0103H338.272ZM330.4 60.3943C328.384 60.3943 326.656 60.0583 325.216 59.3863C323.776 58.6823 322.672 57.7383 321.904 56.5543C321.136 55.3703 320.752 54.0423 320.752 52.5703C320.752 51.0343 321.12 49.6903 321.856 48.5383C322.624 47.3863 323.824 46.4903 325.456 45.8503C327.088 45.1783 329.216 44.8423 331.84 44.8423H338.704V49.2103H332.656C330.896 49.2103 329.68 49.4983 329.008 50.0743C328.368 50.6503 328.048 51.3703 328.048 52.2343C328.048 53.1943 328.416 53.9623 329.152 54.5383C329.92 55.0823 330.96 55.3543 332.272 55.3543C333.52 55.3543 334.64 55.0663 335.632 54.4903C336.624 53.8823 337.344 53.0023 337.792 51.8503L338.944 55.3063C338.4 56.9703 337.408 58.2343 335.968 59.0983C334.528 59.9623 332.672 60.3943 330.4 60.3943ZM350.345 67.4023L353.513 55.8823L354.569 60.2023C353.193 60.2023 352.057 59.8023 351.161 59.0023C350.297 58.2023 349.865 57.0983 349.865 55.6903C349.865 54.2823 350.313 53.1623 351.209 52.3303C352.105 51.4983 353.209 51.0823 354.521 51.0823C355.865 51.0823 356.969 51.5143 357.833 52.3783C358.697 53.2103 359.129 54.3143 359.129 55.6903C359.129 56.1063 359.097 56.5223 359.033 56.9383C358.969 57.3223 358.841 57.8023 358.649 58.3783C358.489 58.9223 358.217 59.6263 357.833 60.4903L355.097 67.4023H350.345ZM390.037 60.3943C387.285 60.3943 384.837 59.8183 382.693 58.6663C380.581 57.5143 378.901 55.9463 377.653 53.9623C376.437 51.9463 375.829 49.6583 375.829 47.0983C375.829 44.5063 376.437 42.2183 377.653 40.2343C378.901 38.2183 380.581 36.6503 382.693 35.5303C384.837 34.3783 387.285 33.8023 390.037 33.8023C392.757 33.8023 395.189 34.3783 397.333 35.5303C399.477 36.6503 401.157 38.2023 402.373 40.1863C403.589 42.1703 404.197 44.4743 404.197 47.0983C404.197 49.6583 403.589 51.9463 402.373 53.9623C401.157 55.9463 399.477 57.5143 397.333 58.6663C395.189 59.8183 392.757 60.3943 390.037 60.3943ZM390.037 54.2503C391.285 54.2503 392.405 53.9623 393.397 53.3863C394.389 52.8103 395.173 51.9943 395.749 50.9383C396.325 49.8503 396.613 48.5703 396.613 47.0983C396.613 45.5943 396.325 44.3143 395.749 43.2583C395.173 42.2023 394.389 41.3863 393.397 40.8103C392.405 40.2343 391.285 39.9463 390.037 39.9463C388.789 39.9463 387.669 40.2343 386.677 40.8103C385.685 41.3863 384.885 42.2023 384.277 43.2583C383.701 44.3143 383.413 45.5943 383.413 47.0983C383.413 48.5703 383.701 49.8503 384.277 50.9383C384.885 51.9943 385.685 52.8103 386.677 53.3863C387.669 53.9623 388.789 54.2503 390.037 54.2503ZM421.635 60.3943C418.851 60.3943 416.371 59.8343 414.195 58.7143C412.019 57.5623 410.307 55.9783 409.059 53.9623C407.843 51.9463 407.235 49.6583 407.235 47.0983C407.235 44.5063 407.843 42.2183 409.059 40.2343C410.307 38.2183 412.019 36.6503 414.195 35.5303C416.371 34.3783 418.851 33.8023 421.635 33.8023C424.355 33.8023 426.723 34.3783 428.739 35.5303C430.755 36.6503 432.243 38.2663 433.203 40.3783L427.395 43.4983C426.723 42.2823 425.875 41.3863 424.851 40.8103C423.859 40.2343 422.771 39.9463 421.587 39.9463C420.307 39.9463 419.155 40.2343 418.131 40.8103C417.107 41.3863 416.291 42.2023 415.683 43.2583C415.107 44.3143 414.819 45.5943 414.819 47.0983C414.819 48.6023 415.107 49.8823 415.683 50.9383C416.291 51.9943 417.107 52.8103 418.131 53.3863C419.155 53.9623 420.307 54.2503 421.587 54.2503C422.771 54.2503 423.859 53.9783 424.851 53.4343C425.875 52.8583 426.723 51.9463 427.395 50.6983L433.203 53.8663C432.243 55.9463 430.755 57.5623 428.739 58.7143C426.723 59.8343 424.355 60.3943 421.635 60.3943ZM443.18 60.0103V38.6023L444.86 40.3303H434.444V34.1863H459.356V40.3303H448.94L450.62 38.6023V60.0103H443.18ZM478.803 60.0103V54.9703L478.323 53.8663V44.8423C478.323 43.2423 477.827 41.9943 476.835 41.0983C475.875 40.2023 474.387 39.7543 472.371 39.7543C470.995 39.7543 469.635 39.9783 468.291 40.4263C466.979 40.8423 465.859 41.4183 464.931 42.1543L462.243 36.9223C463.651 35.9303 465.347 35.1623 467.331 34.6183C469.315 34.0743 471.331 33.8023 473.379 33.8023C477.315 33.8023 480.371 34.7303 482.547 36.5863C484.723 38.4423 485.811 41.3383 485.811 45.2743V60.0103H478.803ZM470.931 60.3943C468.915 60.3943 467.187 60.0583 465.747 59.3863C464.307 58.6823 463.203 57.7383 462.435 56.5543C461.667 55.3703 461.283 54.0423 461.283 52.5703C461.283 51.0343 461.651 49.6903 462.387 48.5383C463.155 47.3863 464.355 46.4903 465.987 45.8503C467.619 45.1783 469.747 44.8423 472.371 44.8423H479.235V49.2103H473.187C471.427 49.2103 470.211 49.4983 469.539 50.0743C468.899 50.6503 468.579 51.3703 468.579 52.2343C468.579 53.1943 468.947 53.9623 469.683 54.5383C470.451 55.0823 471.491 55.3543 472.803 55.3543C474.051 55.3543 475.171 55.0663 476.163 54.4903C477.155 53.8823 477.875 53.0023 478.323 51.8503L479.475 55.3063C478.931 56.9703 477.939 58.2343 476.499 59.0983C475.059 59.9623 473.203 60.3943 470.931 60.3943ZM492.316 60.0103V34.1863H505.516C508.748 34.1863 511.276 34.7783 513.1 35.9623C514.924 37.1143 515.836 38.7463 515.836 40.8583C515.836 42.9703 514.972 44.6343 513.244 45.8503C511.548 47.0343 509.292 47.6263 506.476 47.6263L507.244 45.8983C510.38 45.8983 512.716 46.4743 514.252 47.6263C515.82 48.7783 516.604 50.4583 516.604 52.6663C516.604 54.9383 515.74 56.7303 514.012 58.0423C512.284 59.3543 509.644 60.0103 506.092 60.0103H492.316ZM499.18 54.9223H505.468C506.844 54.9223 507.868 54.6983 508.54 54.2503C509.244 53.7703 509.596 53.0503 509.596 52.0903C509.596 51.0983 509.276 50.3783 508.636 49.9303C507.996 49.4503 506.988 49.2103 505.612 49.2103H499.18V54.9223ZM499.18 44.7943H504.844C506.156 44.7943 507.132 44.5543 507.772 44.0743C508.444 43.5943 508.78 42.9063 508.78 42.0103C508.78 41.0823 508.444 40.3943 507.772 39.9463C507.132 39.4983 506.156 39.2743 504.844 39.2743H499.18V44.7943ZM536.143 42.4423C539.535 42.4743 542.111 43.2423 543.871 44.7463C545.663 46.2183 546.559 48.3143 546.559 51.0343C546.559 53.8823 545.551 56.1063 543.535 57.7063C541.519 59.2743 538.719 60.0583 535.135 60.0583L522.175 60.0103V34.1863H529.615V42.4423H536.143ZM534.463 54.7303C535.903 54.7623 537.007 54.4583 537.775 53.8183C538.543 53.1783 538.927 52.2183 538.927 50.9383C538.927 49.6583 538.543 48.7463 537.775 48.2023C537.007 47.6263 535.903 47.3223 534.463 47.2903L529.615 47.2423V54.7303H534.463ZM554.414 60.0103V38.6023L556.094 40.3303H545.678V34.1863H570.59V40.3303H560.174L561.854 38.6023V60.0103H554.414ZM586.127 60.3943C583.183 60.3943 580.591 59.8183 578.351 58.6663C576.143 57.5143 574.431 55.9463 573.215 53.9623C571.999 51.9463 571.391 49.6583 571.391 47.0983C571.391 44.5063 571.983 42.2183 573.167 40.2343C574.383 38.2183 576.031 36.6503 578.111 35.5303C580.191 34.3783 582.543 33.8023 585.167 33.8023C587.695 33.8023 589.967 34.3463 591.983 35.4343C594.031 36.4903 595.647 38.0263 596.831 40.0423C598.015 42.0263 598.607 44.4103 598.607 47.1943C598.607 47.4823 598.591 47.8183 598.559 48.2023C598.527 48.5543 598.495 48.8903 598.463 49.2103H577.487V44.8423H594.527L591.647 46.1383C591.647 44.7943 591.375 43.6263 590.831 42.6343C590.287 41.6423 589.535 40.8743 588.575 40.3303C587.615 39.7543 586.495 39.4663 585.215 39.4663C583.935 39.4663 582.799 39.7543 581.807 40.3303C580.847 40.8743 580.095 41.6583 579.551 42.6823C579.007 43.6743 578.735 44.8583 578.735 46.2343V47.3863C578.735 48.7943 579.039 50.0423 579.647 51.1303C580.287 52.1863 581.167 53.0023 582.287 53.5783C583.439 54.1223 584.783 54.3943 586.319 54.3943C587.695 54.3943 588.895 54.1863 589.919 53.7703C590.975 53.3543 591.935 52.7303 592.799 51.8983L596.783 56.2183C595.599 57.5623 594.111 58.6023 592.319 59.3383C590.527 60.0423 588.463 60.3943 586.127 60.3943ZM43.6819 113.394C40.8979 113.394 38.4179 112.834 36.2419 111.714C34.0659 110.562 32.3539 108.978 31.1059 106.962C29.8899 104.946 29.2819 102.658 29.2819 100.098C29.2819 97.5063 29.8899 95.2183 31.1059 93.2343C32.3539 91.2183 34.0659 89.6503 36.2419 88.5303C38.4179 87.3783 40.8979 86.8023 43.6819 86.8023C46.4019 86.8023 48.7699 87.3783 50.7859 88.5303C52.8019 89.6503 54.2899 91.2663 55.2499 93.3783L49.4419 96.4983C48.7699 95.2823 47.9219 94.3863 46.8979 93.8103C45.9059 93.2343 44.8179 92.9463 43.6339 92.9463C42.3539 92.9463 41.2019 93.2343 40.1779 93.8103C39.1539 94.3863 38.3379 95.2023 37.7299 96.2583C37.1539 97.3143 36.8659 98.5943 36.8659 100.098C36.8659 101.602 37.1539 102.882 37.7299 103.938C38.3379 104.994 39.1539 105.81 40.1779 106.386C41.2019 106.962 42.3539 107.25 43.6339 107.25C44.8179 107.25 45.9059 106.978 46.8979 106.434C47.9219 105.858 48.7699 104.946 49.4419 103.698L55.2499 106.866C54.2899 108.946 52.8019 110.562 50.7859 111.714C48.7699 112.834 46.4019 113.394 43.6819 113.394ZM59.8002 113.01V87.1863H73.0002C76.2322 87.1863 78.7602 87.7783 80.5842 88.9623C82.4082 90.1143 83.3202 91.7463 83.3202 93.8583C83.3202 95.9703 82.4562 97.6343 80.7282 98.8503C79.0322 100.034 76.7762 100.626 73.9602 100.626L74.7282 98.8983C77.8642 98.8983 80.2002 99.4743 81.7362 100.626C83.3042 101.778 84.0882 103.458 84.0882 105.666C84.0882 107.938 83.2242 109.73 81.4962 111.042C79.7682 112.354 77.1282 113.01 73.5762 113.01H59.8002ZM66.6642 107.922H72.9522C74.3282 107.922 75.3522 107.698 76.0242 107.25C76.7282 106.77 77.0802 106.05 77.0802 105.09C77.0802 104.098 76.7602 103.378 76.1202 102.93C75.4802 102.45 74.4722 102.21 73.0962 102.21H66.6642V107.922ZM66.6642 97.7943H72.3282C73.6402 97.7943 74.6162 97.5543 75.2562 97.0743C75.9282 96.5943 76.2642 95.9063 76.2642 95.0103C76.2642 94.0823 75.9282 93.3943 75.2562 92.9463C74.6162 92.4983 73.6402 92.2743 72.3282 92.2743H66.6642V97.7943ZM101.756 113.394C99.0036 113.394 96.5556 112.818 94.4116 111.666C92.2996 110.514 90.6196 108.946 89.3716 106.962C88.1556 104.946 87.5476 102.658 87.5476 100.098C87.5476 97.5063 88.1556 95.2183 89.3716 93.2343C90.6196 91.2183 92.2996 89.6503 94.4116 88.5303C96.5556 87.3783 99.0036 86.8023 101.756 86.8023C104.476 86.8023 106.908 87.3783 109.052 88.5303C111.196 89.6503 112.876 91.2023 114.092 93.1863C115.308 95.1703 115.916 97.4743 115.916 100.098C115.916 102.658 115.308 104.946 114.092 106.962C112.876 108.946 111.196 110.514 109.052 111.666C106.908 112.818 104.476 113.394 101.756 113.394ZM101.756 107.25C103.004 107.25 104.124 106.962 105.116 106.386C106.108 105.81 106.892 104.994 107.468 103.938C108.044 102.85 108.332 101.57 108.332 100.098C108.332 98.5943 108.044 97.3143 107.468 96.2583C106.892 95.2023 106.108 94.3863 105.116 93.8103C104.124 93.2343 103.004 92.9463 101.756 92.9463C100.508 92.9463 99.3876 93.2343 98.3956 93.8103C97.4036 94.3863 96.6036 95.2023 95.9956 96.2583C95.4196 97.3143 95.1316 98.5943 95.1316 100.098C95.1316 101.57 95.4196 102.85 95.9956 103.938C96.6036 104.994 97.4036 105.81 98.3956 106.386C99.3876 106.962 100.508 107.25 101.756 107.25ZM121.066 113.01V87.1863H128.506V102.546L141.082 87.1863H147.946V113.01H140.506V97.6503L127.978 113.01H121.066ZM134.026 84.4023C131.21 84.4023 129.098 83.7943 127.69 82.5783C126.282 81.3303 125.562 79.4583 125.53 76.9623H130.426C130.458 78.0503 130.762 78.9143 131.338 79.5543C131.914 80.1943 132.794 80.5143 133.978 80.5143C135.13 80.5143 136.01 80.1943 136.618 79.5543C137.258 78.9143 137.578 78.0503 137.578 76.9623H142.57C142.57 79.4583 141.85 81.3303 140.41 82.5783C138.97 83.7943 136.842 84.4023 134.026 84.4023ZM180.834 113.394C178.082 113.394 175.634 112.818 173.49 111.666C171.378 110.514 169.698 108.946 168.45 106.962C167.234 104.946 166.626 102.658 166.626 100.098C166.626 97.5063 167.234 95.2183 168.45 93.2343C169.698 91.2183 171.378 89.6503 173.49 88.5303C175.634 87.3783 178.082 86.8023 180.834 86.8023C183.554 86.8023 185.986 87.3783 188.13 88.5303C190.274 89.6503 191.954 91.2023 193.17 93.1863C194.386 95.1703 194.994 97.4743 194.994 100.098C194.994 102.658 194.386 104.946 193.17 106.962C191.954 108.946 190.274 110.514 188.13 111.666C185.986 112.818 183.554 113.394 180.834 113.394ZM180.834 107.25C182.082 107.25 183.202 106.962 184.194 106.386C185.186 105.81 185.97 104.994 186.546 103.938C187.122 102.85 187.41 101.57 187.41 100.098C187.41 98.5943 187.122 97.3143 186.546 96.2583C185.97 95.2023 185.186 94.3863 184.194 93.8103C183.202 93.2343 182.082 92.9463 180.834 92.9463C179.586 92.9463 178.466 93.2343 177.474 93.8103C176.482 94.3863 175.682 95.2023 175.074 96.2583C174.498 97.3143 174.21 98.5943 174.21 100.098C174.21 101.57 174.498 102.85 175.074 103.938C175.682 104.994 176.482 105.81 177.474 106.386C178.466 106.962 179.586 107.25 180.834 107.25ZM204.726 113.01V91.6023L206.406 93.3303H195.99V87.1863H220.902V93.3303H210.486L212.166 91.6023V113.01H204.726ZM233.302 113.49C231.318 113.49 229.334 113.282 227.35 112.866C225.398 112.45 223.59 111.826 221.926 110.994L223.942 105.762C225.254 106.402 226.678 106.898 228.214 107.25C229.782 107.57 231.366 107.73 232.966 107.73C234.118 107.73 235.11 107.618 235.942 107.394C236.806 107.138 237.462 106.786 237.91 106.338C238.358 105.89 238.582 105.346 238.582 104.706C238.582 103.874 238.23 103.25 237.526 102.834C236.822 102.386 235.798 102.162 234.454 102.162H229.174V97.5063H233.83C234.694 97.5063 235.43 97.4103 236.038 97.2183C236.646 97.0263 237.094 96.7543 237.382 96.4023C237.702 96.0183 237.862 95.5703 237.862 95.0583C237.862 94.5143 237.67 94.0503 237.286 93.6663C236.902 93.2823 236.342 92.9943 235.606 92.8023C234.87 92.5783 233.942 92.4663 232.822 92.4663C231.542 92.4663 230.214 92.6263 228.838 92.9463C227.462 93.2343 226.054 93.6663 224.614 94.2423L222.79 89.0583C224.486 88.3543 226.166 87.7943 227.83 87.3783C229.494 86.9623 231.142 86.7383 232.774 86.7063C235.174 86.6423 237.334 86.8983 239.254 87.4743C241.174 88.0503 242.678 88.8823 243.766 89.9703C244.886 91.0583 245.446 92.3863 245.446 93.9543C245.446 95.2023 245.062 96.3223 244.294 97.3143C243.558 98.3063 242.534 99.0903 241.222 99.6663C239.91 100.21 238.438 100.482 236.806 100.482L236.998 98.9943C239.846 98.9943 242.086 99.5703 243.718 100.722C245.35 101.842 246.166 103.378 246.166 105.33C246.166 106.994 245.59 108.45 244.438 109.698C243.318 110.914 241.782 111.858 239.83 112.53C237.91 113.17 235.734 113.49 233.302 113.49ZM278.111 113.01V87.1863H285.551V113.01H278.111ZM265.103 95.4423C268.495 95.4743 271.039 96.2423 272.735 97.7463C274.463 99.2183 275.327 101.314 275.327 104.034C275.327 106.882 274.351 109.106 272.399 110.706C270.447 112.274 267.679 113.058 264.095 113.058L251.519 113.01V87.1863H258.959V95.4423H265.103ZM263.423 107.73C264.863 107.762 265.967 107.458 266.735 106.818C267.503 106.178 267.887 105.218 267.887 103.938C267.887 102.658 267.503 101.746 266.735 101.202C265.967 100.626 264.863 100.322 263.423 100.29L258.959 100.242V107.73H263.423ZM292.769 113.01V87.1863H305.969C309.201 87.1863 311.729 87.7783 313.553 88.9623C315.377 90.1143 316.289 91.7463 316.289 93.8583C316.289 95.9703 315.425 97.6343 313.697 98.8503C312.001 100.034 309.745 100.626 306.929 100.626L307.697 98.8983C310.833 98.8983 313.169 99.4743 314.705 100.626C316.273 101.778 317.057 103.458 317.057 105.666C317.057 107.938 316.193 109.73 314.465 111.042C312.737 112.354 310.097 113.01 306.545 113.01H292.769ZM299.633 107.922H305.921C307.297 107.922 308.321 107.698 308.993 107.25C309.697 106.77 310.049 106.05 310.049 105.09C310.049 104.098 309.729 103.378 309.089 102.93C308.449 102.45 307.441 102.21 306.065 102.21H299.633V107.922ZM299.633 97.7943H305.297C306.609 97.7943 307.585 97.5543 308.225 97.0743C308.897 96.5943 309.233 95.9063 309.233 95.0103C309.233 94.0823 308.897 93.3943 308.225 92.9463C307.585 92.4983 306.609 92.2743 305.297 92.2743H299.633V97.7943Z" fill="white"/>
<path d="M30.9259 237.893V212.693H53.8939V237.893H48.0979V216.113L49.4299 217.445H35.3899L36.7219 216.113V237.893H30.9259ZM68.7808 238.181C66.7168 238.181 64.8808 237.749 63.2728 236.885C61.6888 236.021 60.4288 234.845 59.4928 233.357C58.5808 231.845 58.1248 230.129 58.1248 228.209C58.1248 226.265 58.5808 224.549 59.4928 223.061C60.4288 221.549 61.6888 220.373 63.2728 219.533C64.8808 218.669 66.7168 218.237 68.7808 218.237C70.8208 218.237 72.6448 218.669 74.2528 219.533C75.8608 220.373 77.1208 221.537 78.0328 223.025C78.9448 224.513 79.4008 226.241 79.4008 228.209C79.4008 230.129 78.9448 231.845 78.0328 233.357C77.1208 234.845 75.8608 236.021 74.2528 236.885C72.6448 237.749 70.8208 238.181 68.7808 238.181ZM68.7808 233.573C69.7168 233.573 70.5568 233.357 71.3008 232.925C72.0448 232.493 72.6328 231.881 73.0648 231.089C73.4968 230.273 73.7128 229.313 73.7128 228.209C73.7128 227.081 73.4968 226.121 73.0648 225.329C72.6328 224.537 72.0448 223.925 71.3008 223.493C70.5568 223.061 69.7168 222.845 68.7808 222.845C67.8448 222.845 67.0048 223.061 66.2608 223.493C65.5168 223.925 64.9168 224.537 64.4608 225.329C64.0288 226.121 63.8128 227.081 63.8128 228.209C63.8128 229.313 64.0288 230.273 64.4608 231.089C64.9168 231.881 65.5168 232.493 66.2608 232.925C67.0048 233.357 67.8448 233.573 68.7808 233.573ZM96.3022 235.373V223.133H89.9662L89.8582 225.617C89.8102 226.649 89.7502 227.633 89.6782 228.569C89.6062 229.505 89.4622 230.357 89.2462 231.125C89.0542 231.869 88.7662 232.505 88.3822 233.033C87.9982 233.537 87.4822 233.885 86.8342 234.077L81.2902 233.285C81.9862 233.285 82.5502 233.081 82.9822 232.673C83.4142 232.241 83.7502 231.653 83.9902 230.909C84.2302 230.141 84.4102 229.277 84.5302 228.317C84.6502 227.333 84.7342 226.301 84.7822 225.221L85.0342 218.525H101.918V235.373H96.3022ZM80.6422 242.069V233.285H104.69V242.069H99.4702V237.893H85.8622V242.069H80.6422ZM121.544 235.373V223.133H115.208L115.1 225.617C115.052 226.649 114.992 227.633 114.92 228.569C114.848 229.505 114.704 230.357 114.488 231.125C114.296 231.869 114.008 232.505 113.624 233.033C113.24 233.537 112.724 233.885 112.076 234.077L106.532 233.285C107.228 233.285 107.792 233.081 108.224 232.673C108.656 232.241 108.992 231.653 109.232 230.909C109.472 230.141 109.652 229.277 109.772 228.317C109.892 227.333 109.976 226.301 110.024 225.221L110.276 218.525H127.16V235.373H121.544ZM105.884 242.069V233.285H129.932V242.069H124.712V237.893H111.104V242.069H105.884ZM136.095 245.165C135.087 245.165 134.091 245.009 133.107 244.697C132.123 244.385 131.319 243.953 130.695 243.401L132.747 239.405C133.179 239.789 133.671 240.089 134.223 240.305C134.799 240.521 135.363 240.629 135.915 240.629C136.707 240.629 137.331 240.437 137.787 240.053C138.267 239.693 138.699 239.081 139.083 238.217L140.091 235.841L140.523 235.229L147.471 218.525H152.871L144.123 239.081C143.499 240.641 142.779 241.865 141.963 242.753C141.171 243.641 140.283 244.265 139.299 244.625C138.339 244.985 137.271 245.165 136.095 245.165ZM139.407 238.649L130.767 218.525H136.563L143.259 234.725L139.407 238.649ZM165.086 238.325C163.502 238.325 162.062 238.097 160.766 237.641C159.47 237.161 158.342 236.429 157.382 235.445C156.446 234.437 155.714 233.153 155.186 231.593C154.682 230.033 154.43 228.173 154.43 226.013C154.43 224.477 154.562 223.073 154.826 221.801C155.09 220.529 155.486 219.377 156.014 218.345C156.542 217.289 157.214 216.365 158.03 215.573C158.87 214.757 159.842 214.085 160.946 213.557C162.074 213.005 163.346 212.585 164.762 212.297L173.978 210.461L174.734 215.285L166.598 216.905C166.118 217.001 165.566 217.133 164.942 217.301C164.342 217.445 163.73 217.673 163.106 217.985C162.506 218.297 161.942 218.741 161.414 219.317C160.91 219.869 160.502 220.601 160.19 221.513C159.878 222.401 159.722 223.505 159.722 224.825C159.722 225.233 159.734 225.545 159.758 225.761C159.806 225.977 159.842 226.205 159.866 226.445C159.914 226.685 159.938 227.057 159.938 227.561L158.138 225.797C158.666 224.669 159.338 223.709 160.154 222.917C160.994 222.125 161.954 221.525 163.034 221.117C164.138 220.685 165.362 220.469 166.706 220.469C168.53 220.469 170.126 220.841 171.494 221.585C172.886 222.305 173.966 223.325 174.734 224.645C175.502 225.965 175.886 227.465 175.886 229.145C175.886 230.969 175.43 232.577 174.518 233.969C173.606 235.337 172.334 236.405 170.702 237.173C169.094 237.941 167.222 238.325 165.086 238.325ZM165.374 233.969C166.31 233.969 167.138 233.765 167.858 233.357C168.578 232.925 169.13 232.361 169.514 231.665C169.922 230.945 170.126 230.141 170.126 229.253C170.126 228.389 169.922 227.621 169.514 226.949C169.13 226.277 168.578 225.749 167.858 225.365C167.138 224.981 166.298 224.789 165.338 224.789C164.402 224.789 163.562 224.981 162.818 225.365C162.074 225.725 161.498 226.229 161.09 226.877C160.682 227.525 160.478 228.281 160.478 229.145C160.478 230.033 160.682 230.849 161.09 231.593C161.522 232.313 162.098 232.889 162.818 233.321C163.562 233.753 164.414 233.969 165.374 233.969ZM179.697 237.893V218.525H185.277V226.085H193.701V218.525H199.317V237.893H193.701V230.657H185.277V237.893H179.697ZM224.637 237.893V218.525H230.217V237.893H224.637ZM214.881 224.717C217.425 224.741 219.333 225.317 220.605 226.445C221.901 227.549 222.549 229.121 222.549 231.161C222.549 233.297 221.817 234.965 220.353 236.165C218.889 237.341 216.813 237.929 214.125 237.929L204.693 237.893V218.525H210.273V224.717H214.881ZM213.621 233.933C214.701 233.957 215.529 233.729 216.105 233.249C216.681 232.769 216.969 232.049 216.969 231.089C216.969 230.129 216.681 229.445 216.105 229.037C215.529 228.605 214.701 228.377 213.621 228.353L210.273 228.317V233.933H213.621ZM235.631 237.893V218.525H241.211V230.045L250.643 218.525H255.791V237.893H250.211V226.373L240.815 237.893H235.631ZM245.351 216.437C243.239 216.437 241.655 215.981 240.599 215.069C239.543 214.133 239.003 212.729 238.979 210.857H242.651C242.675 211.673 242.903 212.321 243.335 212.801C243.767 213.281 244.427 213.521 245.315 213.521C246.179 213.521 246.839 213.281 247.295 212.801C247.775 212.321 248.015 211.673 248.015 210.857H251.759C251.759 212.729 251.219 214.133 250.139 215.069C249.059 215.981 247.463 216.437 245.351 216.437ZM271.817 237.893V212.693H277.613V229.109L289.637 212.693H295.109V237.893H289.349V221.513L277.325 237.893H271.817ZM300.951 237.893V218.525H310.851C313.275 218.525 315.171 218.969 316.539 219.857C317.907 220.721 318.591 221.945 318.591 223.529C318.591 225.113 317.943 226.361 316.647 227.273C315.375 228.161 313.683 228.605 311.571 228.605L312.147 227.309C314.499 227.309 316.251 227.741 317.403 228.605C318.579 229.469 319.167 230.729 319.167 232.385C319.167 234.089 318.519 235.433 317.223 236.417C315.927 237.401 313.947 237.893 311.283 237.893H300.951ZM306.099 234.077H310.815C311.847 234.077 312.615 233.909 313.119 233.573C313.647 233.213 313.911 232.673 313.911 231.953C313.911 231.209 313.671 230.669 313.191 230.333C312.711 229.973 311.955 229.793 310.923 229.793H306.099V234.077ZM306.099 226.481H310.347C311.331 226.481 312.063 226.301 312.543 225.941C313.047 225.581 313.299 225.065 313.299 224.393C313.299 223.697 313.047 223.181 312.543 222.845C312.063 222.509 311.331 222.341 310.347 222.341H306.099V226.481ZM334.938 237.893V234.113L334.578 233.285V226.517C334.578 225.317 334.206 224.381 333.462 223.709C332.742 223.037 331.626 222.701 330.114 222.701C329.082 222.701 328.062 222.869 327.054 223.205C326.07 223.517 325.23 223.949 324.534 224.501L322.518 220.577C323.574 219.833 324.846 219.257 326.334 218.849C327.822 218.441 329.334 218.237 330.87 218.237C333.822 218.237 336.114 218.933 337.746 220.325C339.378 221.717 340.194 223.889 340.194 226.841V237.893H334.938ZM329.034 238.181C327.522 238.181 326.226 237.929 325.146 237.425C324.066 236.897 323.238 236.189 322.662 235.301C322.086 234.413 321.798 233.417 321.798 232.313C321.798 231.161 322.074 230.153 322.626 229.289C323.202 228.425 324.102 227.753 325.326 227.273C326.55 226.769 328.146 226.517 330.114 226.517H335.262V229.793H330.726C329.406 229.793 328.494 230.009 327.99 230.441C327.51 230.873 327.27 231.413 327.27 232.061C327.27 232.781 327.546 233.357 328.098 233.789C328.674 234.197 329.454 234.401 330.438 234.401C331.374 234.401 332.214 234.185 332.958 233.753C333.702 233.297 334.242 232.637 334.578 231.773L335.442 234.365C335.034 235.613 334.29 236.561 333.21 237.209C332.13 237.857 330.738 238.181 329.034 238.181ZM345.072 237.893V218.525H350.652V226.085H359.076V218.525H364.692V237.893H359.076V230.657H350.652V237.893H345.072ZM42.8419 285.109C40.9459 285.109 39.1939 284.797 37.5859 284.173C35.9779 283.525 34.5859 282.625 33.4099 281.473C32.2339 280.321 31.3099 278.965 30.6379 277.405C29.9899 275.845 29.6659 274.141 29.6659 272.293C29.6659 270.445 29.9899 268.741 30.6379 267.181C31.3099 265.621 32.2339 264.265 33.4099 263.113C34.6099 261.961 36.0139 261.073 37.6219 260.449C39.2299 259.801 40.9819 259.477 42.8779 259.477C44.7019 259.477 46.4179 259.789 48.0259 260.413C49.6339 261.013 50.9899 261.925 52.0939 263.149L50.4019 264.841C49.3699 263.785 48.2299 263.029 46.9819 262.573C45.7339 262.093 44.3899 261.853 42.9499 261.853C41.4379 261.853 40.0339 262.117 38.7379 262.645C37.4419 263.149 36.3139 263.881 35.3539 264.841C34.3939 265.777 33.6379 266.881 33.0859 268.153C32.5579 269.401 32.2939 270.781 32.2939 272.293C32.2939 273.805 32.5579 275.197 33.0859 276.469C33.6379 277.717 34.3939 278.821 35.3539 279.781C36.3139 280.717 37.4419 281.449 38.7379 281.977C40.0339 282.481 41.4379 282.733 42.9499 282.733C44.3899 282.733 45.7339 282.493 46.9819 282.013C48.2299 281.533 49.3699 280.765 50.4019 279.709L52.0939 281.401C50.9899 282.625 49.6339 283.549 48.0259 284.173C46.4179 284.797 44.6899 285.109 42.8419 285.109ZM62.3525 284.893V261.997H53.4965V259.693H73.8725V261.997H65.0165V284.893H62.3525ZM88.7929 285.109C86.8969 285.109 85.1329 284.797 83.5009 284.173C81.8929 283.525 80.4889 282.625 79.2889 281.473C78.1129 280.297 77.1889 278.941 76.5169 277.405C75.8689 275.845 75.5449 274.141 75.5449 272.293C75.5449 270.445 75.8689 268.753 76.5169 267.217C77.1889 265.657 78.1129 264.301 79.2889 263.149C80.4889 261.973 81.8929 261.073 83.5009 260.449C85.1089 259.801 86.8729 259.477 88.7929 259.477C90.6889 259.477 92.4409 259.801 94.0489 260.449C95.6569 261.073 97.0489 261.961 98.2249 263.113C99.4249 264.265 100.349 265.621 100.997 267.181C101.669 268.741 102.005 270.445 102.005 272.293C102.005 274.141 101.669 275.845 100.997 277.405C100.349 278.965 99.4249 280.321 98.2249 281.473C97.0489 282.625 95.6569 283.525 94.0489 284.173C92.4409 284.797 90.6889 285.109 88.7929 285.109ZM88.7929 282.733C90.3049 282.733 91.6969 282.481 92.9689 281.977C94.2649 281.449 95.3809 280.717 96.3169 279.781C97.2769 278.821 98.0209 277.717 98.5489 276.469C99.0769 275.197 99.3409 273.805 99.3409 272.293C99.3409 270.781 99.0769 269.401 98.5489 268.153C98.0209 266.881 97.2769 265.777 96.3169 264.841C95.3809 263.881 94.2649 263.149 92.9689 262.645C91.6969 262.117 90.3049 261.853 88.7929 261.853C87.2809 261.853 85.8769 262.117 84.5809 262.645C83.2849 263.149 82.1569 263.881 81.1969 264.841C80.2609 265.777 79.5169 266.881 78.9649 268.153C78.4369 269.401 78.1729 270.781 78.1729 272.293C78.1729 273.781 78.4369 275.161 78.9649 276.433C79.5169 277.705 80.2609 278.821 81.1969 279.781C82.1569 280.717 83.2849 281.449 84.5809 281.977C85.8769 282.481 87.2809 282.733 88.7929 282.733ZM117.542 284.893V259.693H128.018C130.682 259.693 132.77 260.245 134.282 261.349C135.818 262.429 136.586 264.025 136.586 266.137C136.586 268.225 135.854 269.809 134.39 270.889C132.926 271.945 131.006 272.473 128.63 272.473L129.242 271.573C132.05 271.573 134.186 272.125 135.65 273.229C137.114 274.333 137.846 275.953 137.846 278.089C137.846 280.249 137.078 281.929 135.542 283.129C134.03 284.305 131.75 284.893 128.702 284.893H117.542ZM120.17 282.769H128.702C130.838 282.769 132.458 282.373 133.562 281.581C134.666 280.789 135.218 279.565 135.218 277.909C135.218 276.277 134.666 275.077 133.562 274.309C132.458 273.541 130.838 273.157 128.702 273.157H120.17V282.769ZM120.17 271.105H127.874C129.818 271.105 131.306 270.721 132.338 269.953C133.394 269.161 133.922 267.997 133.922 266.461C133.922 264.925 133.394 263.773 132.338 263.005C131.306 262.213 129.818 261.817 127.874 261.817H120.17V271.105ZM151.995 285.073C150.027 285.073 148.299 284.665 146.811 283.849C145.323 283.009 144.159 281.869 143.319 280.429C142.479 278.965 142.059 277.297 142.059 275.425C142.059 273.553 142.455 271.897 143.247 270.457C144.063 269.017 145.167 267.889 146.559 267.073C147.975 266.233 149.559 265.813 151.311 265.813C153.087 265.813 154.659 266.221 156.027 267.037C157.419 267.829 158.511 268.957 159.303 270.421C160.095 271.861 160.491 273.529 160.491 275.425C160.491 275.545 160.479 275.677 160.455 275.821C160.455 275.941 160.455 276.073 160.455 276.217H144.003V274.309H159.087L158.079 275.065C158.079 273.697 157.779 272.485 157.179 271.429C156.603 270.349 155.811 269.509 154.803 268.909C153.795 268.309 152.631 268.009 151.311 268.009C150.015 268.009 148.851 268.309 147.819 268.909C146.787 269.509 145.983 270.349 145.407 271.429C144.831 272.509 144.543 273.745 144.543 275.137V275.533C144.543 276.973 144.855 278.245 145.479 279.349C146.127 280.429 147.015 281.281 148.143 281.905C149.295 282.505 150.603 282.805 152.067 282.805C153.219 282.805 154.287 282.601 155.271 282.193C156.279 281.785 157.143 281.161 157.863 280.321L159.303 281.977C158.463 282.985 157.407 283.753 156.135 284.281C154.887 284.809 153.507 285.073 151.995 285.073ZM174.645 285.109C173.109 285.109 171.741 284.857 170.541 284.353C169.365 283.849 168.357 283.081 167.517 282.049C166.677 281.017 166.041 279.745 165.609 278.233C165.177 276.697 164.961 274.921 164.961 272.905C164.961 271.105 165.129 269.533 165.465 268.189C165.801 266.821 166.269 265.645 166.869 264.661C167.469 263.677 168.165 262.849 168.957 262.177C169.773 261.481 170.649 260.929 171.585 260.521C172.545 260.089 173.529 259.765 174.537 259.549L183.033 257.569L183.465 259.945L175.473 261.745C174.969 261.865 174.357 262.033 173.637 262.249C172.941 262.465 172.221 262.789 171.477 263.221C170.757 263.653 170.085 264.253 169.461 265.021C168.837 265.789 168.333 266.785 167.949 268.009C167.589 269.209 167.409 270.709 167.409 272.509C167.409 272.893 167.421 273.205 167.445 273.445C167.469 273.661 167.493 273.901 167.517 274.165C167.565 274.405 167.601 274.765 167.625 275.245L166.509 274.309C166.773 272.845 167.313 271.573 168.129 270.493C168.945 269.389 169.965 268.537 171.189 267.937C172.437 267.313 173.817 267.001 175.329 267.001C177.081 267.001 178.641 267.385 180.009 268.153C181.377 268.897 182.445 269.941 183.213 271.285C184.005 272.629 184.401 274.189 184.401 275.965C184.401 277.717 183.993 279.289 183.177 280.681C182.385 282.073 181.257 283.165 179.793 283.957C178.329 284.725 176.613 285.109 174.645 285.109ZM174.933 282.985C176.277 282.985 177.465 282.685 178.497 282.085C179.529 281.461 180.333 280.621 180.909 279.565C181.509 278.509 181.809 277.321 181.809 276.001C181.809 274.705 181.509 273.553 180.909 272.545C180.333 271.537 179.529 270.745 178.497 270.169C177.465 269.569 176.265 269.269 174.897 269.269C173.553 269.269 172.365 269.557 171.333 270.133C170.301 270.685 169.485 271.465 168.885 272.473C168.309 273.481 168.021 274.645 168.021 275.965C168.021 277.285 168.309 278.473 168.885 279.529C169.485 280.585 170.301 281.425 171.333 282.049C172.389 282.673 173.589 282.985 174.933 282.985ZM189.879 284.893V265.993H206.871V284.893H204.315V267.541L204.963 268.225H191.787L192.435 267.541V284.893H189.879ZM223.893 285.073C222.261 285.073 220.785 284.701 219.465 283.957C218.145 283.189 217.089 282.097 216.297 280.681C215.529 279.241 215.145 277.489 215.145 275.425C215.145 273.361 215.529 271.621 216.297 270.205C217.065 268.765 218.109 267.673 219.429 266.929C220.749 266.185 222.237 265.813 223.893 265.813C225.693 265.813 227.301 266.221 228.717 267.037C230.157 267.829 231.285 268.957 232.101 270.421C232.917 271.861 233.325 273.529 233.325 275.425C233.325 277.345 232.917 279.025 232.101 280.465C231.285 281.905 230.157 283.033 228.717 283.849C227.301 284.665 225.693 285.073 223.893 285.073ZM214.137 291.877V265.993H216.585V271.681L216.333 275.461L216.693 279.277V291.877H214.137ZM223.713 282.805C225.057 282.805 226.257 282.505 227.313 281.905C228.369 281.281 229.209 280.417 229.833 279.313C230.457 278.185 230.769 276.889 230.769 275.425C230.769 273.961 230.457 272.677 229.833 271.573C229.209 270.469 228.369 269.605 227.313 268.981C226.257 268.357 225.057 268.045 223.713 268.045C222.369 268.045 221.157 268.357 220.077 268.981C219.021 269.605 218.181 270.469 217.557 271.573C216.957 272.677 216.657 273.961 216.657 275.425C216.657 276.889 216.957 278.185 217.557 279.313C218.181 280.417 219.021 281.281 220.077 281.905C221.157 282.505 222.369 282.805 223.713 282.805ZM250.447 284.893V280.717L250.339 280.033V273.049C250.339 271.441 249.883 270.205 248.971 269.341C248.083 268.477 246.751 268.045 244.975 268.045C243.751 268.045 242.587 268.249 241.483 268.657C240.379 269.065 239.443 269.605 238.675 270.277L237.523 268.369C238.483 267.553 239.635 266.929 240.979 266.497C242.323 266.041 243.739 265.813 245.227 265.813C247.675 265.813 249.559 266.425 250.879 267.649C252.223 268.849 252.895 270.685 252.895 273.157V284.893H250.447ZM243.931 285.073C242.515 285.073 241.279 284.845 240.223 284.389C239.191 283.909 238.399 283.261 237.847 282.445C237.295 281.605 237.019 280.645 237.019 279.565C237.019 278.581 237.247 277.693 237.703 276.901C238.183 276.085 238.951 275.437 240.007 274.957C241.087 274.453 242.527 274.201 244.327 274.201H250.843V276.109H244.399C242.575 276.109 241.303 276.433 240.583 277.081C239.887 277.729 239.539 278.533 239.539 279.493C239.539 280.573 239.959 281.437 240.799 282.085C241.639 282.733 242.815 283.057 244.327 283.057C245.767 283.057 247.003 282.733 248.035 282.085C249.091 281.413 249.859 280.453 250.339 279.205L250.915 280.969C250.435 282.217 249.595 283.213 248.395 283.957C247.219 284.701 245.731 285.073 243.931 285.073ZM273.559 284.893L265.783 275.533L267.907 274.273L276.583 284.893H273.559ZM259.699 284.893V265.993H262.255V284.893H259.699ZM261.463 276.469V274.273H267.547V276.469H261.463ZM268.123 275.713L265.747 275.353L273.271 265.993H276.043L268.123 275.713ZM283.831 284.893V267.541L284.479 268.225H276.667V265.993H293.551V268.225H285.739L286.387 267.541V284.893H283.831ZM297.246 284.893V265.993H299.802V281.005L312.438 265.993H314.706V284.893H312.15V269.845L299.55 284.893H297.246ZM335.892 284.893L328.116 275.533L330.24 274.273L338.916 284.893H335.892ZM322.032 284.893V265.993H324.588V284.893H322.032ZM323.796 276.469V274.273H329.88V276.469H323.796ZM330.456 275.713L328.08 275.353L335.604 265.993H338.376L330.456 275.713Z" fill="white"/>
<path d="M649.626 112.864C650.212 112.278 650.212 111.328 649.626 110.742L640.08 101.196C639.494 100.611 638.545 100.611 637.959 101.196C637.373 101.782 637.373 102.732 637.959 103.318L646.444 111.803L637.959 120.288C637.373 120.874 637.373 121.824 637.959 122.41C638.545 122.995 639.494 122.995 640.08 122.41L649.626 112.864ZM648.565 110.303L342.656 110.305V113.305L648.565 113.303L648.565 110.303Z" fill="white"/>
<rect x="688.838" y="28" width="243.162" height="243.162" rx="5" fill="#D5D5D5"/>
<path d="M112.663 483.944C110.935 483.944 109.367 483.664 107.959 483.104C106.551 482.56 105.335 481.792 104.311 480.8C103.303 479.808 102.519 478.64 101.959 477.296C101.415 475.952 101.143 474.488 101.143 472.904C101.143 471.336 101.415 469.888 101.959 468.56C102.519 467.232 103.311 466.072 104.335 465.08C105.359 464.088 106.583 463.32 108.007 462.776C109.431 462.232 111.015 461.96 112.759 461.96C114.439 461.96 115.975 462.224 117.367 462.752C118.759 463.264 119.959 463.992 120.967 464.936C121.975 465.88 122.751 466.992 123.295 468.272C123.839 469.536 124.111 470.92 124.111 472.424C124.111 473.848 123.903 475.064 123.487 476.072C123.087 477.08 122.519 477.848 121.783 478.376C121.047 478.904 120.183 479.168 119.191 479.168C118.103 479.168 117.239 478.848 116.599 478.208C115.959 477.568 115.639 476.632 115.639 475.4V474.296L115.711 473L115.495 469.52V467.216H118.759V474.992C118.759 475.568 118.871 475.968 119.095 476.192C119.319 476.416 119.591 476.528 119.911 476.528C120.279 476.528 120.591 476.384 120.847 476.096C121.119 475.808 121.327 475.368 121.471 474.776C121.615 474.168 121.687 473.4 121.687 472.472C121.687 471.256 121.471 470.144 121.039 469.136C120.623 468.128 120.015 467.256 119.215 466.52C118.431 465.784 117.487 465.224 116.383 464.84C115.295 464.44 114.087 464.24 112.759 464.24C111.431 464.24 110.215 464.456 109.111 464.888C108.007 465.32 107.063 465.928 106.279 466.712C105.495 467.48 104.887 468.392 104.455 469.448C104.039 470.504 103.831 471.656 103.831 472.904C103.831 474.184 104.039 475.36 104.455 476.432C104.871 477.488 105.463 478.4 106.231 479.168C107.015 479.952 107.951 480.56 109.039 480.992C110.127 481.424 111.335 481.64 112.663 481.64C113.431 481.64 114.223 481.552 115.039 481.376C115.855 481.216 116.639 480.952 117.391 480.584L118.159 482.792C117.423 483.16 116.559 483.44 115.567 483.632C114.591 483.84 113.623 483.944 112.663 483.944ZM111.799 479.168C110.775 479.168 109.839 478.92 108.991 478.424C108.159 477.912 107.495 477.2 106.999 476.288C106.503 475.36 106.255 474.296 106.255 473.096C106.255 471.896 106.495 470.84 106.975 469.928C107.471 469.016 108.135 468.312 108.967 467.816C109.815 467.304 110.759 467.048 111.799 467.048C112.855 467.048 113.759 467.288 114.511 467.768C115.263 468.248 115.839 468.936 116.239 469.832C116.639 470.728 116.839 471.816 116.839 473.096C116.839 474.36 116.647 475.448 116.263 476.36C115.879 477.272 115.311 477.968 114.559 478.448C113.823 478.928 112.903 479.168 111.799 479.168ZM112.543 476.408C113.119 476.408 113.631 476.28 114.079 476.024C114.543 475.752 114.903 475.368 115.159 474.872C115.415 474.376 115.543 473.784 115.543 473.096C115.543 472.392 115.415 471.8 115.159 471.32C114.903 470.84 114.543 470.472 114.079 470.216C113.631 469.96 113.119 469.832 112.543 469.832C111.967 469.832 111.455 469.96 111.007 470.216C110.559 470.472 110.207 470.848 109.951 471.344C109.695 471.824 109.567 472.408 109.567 473.096C109.567 473.784 109.695 474.376 109.951 474.872C110.207 475.352 110.559 475.728 111.007 476C111.455 476.272 111.967 476.408 112.543 476.408ZM134.627 465.896C135.651 465.896 136.563 466.104 137.363 466.52C138.179 466.92 138.819 467.544 139.283 468.392C139.747 469.224 139.979 470.296 139.979 471.608V479H136.235V472.184C136.235 471.144 136.003 470.376 135.539 469.88C135.091 469.384 134.451 469.136 133.619 469.136C133.027 469.136 132.491 469.264 132.011 469.52C131.547 469.76 131.179 470.136 130.907 470.648C130.651 471.16 130.523 471.816 130.523 472.616V479H126.779V466.088H130.355V469.664L129.683 468.584C130.147 467.72 130.811 467.056 131.675 466.592C132.539 466.128 133.523 465.896 134.627 465.896ZM149.61 479.192C148.234 479.192 147.01 478.904 145.938 478.328C144.882 477.752 144.042 476.968 143.418 475.976C142.81 474.968 142.506 473.824 142.506 472.544C142.506 471.248 142.81 470.104 143.418 469.112C144.042 468.104 144.882 467.32 145.938 466.76C147.01 466.184 148.234 465.896 149.61 465.896C150.97 465.896 152.186 466.184 153.258 466.76C154.33 467.32 155.17 468.096 155.778 469.088C156.386 470.08 156.69 471.232 156.69 472.544C156.69 473.824 156.386 474.968 155.778 475.976C155.17 476.968 154.33 477.752 153.258 478.328C152.186 478.904 150.97 479.192 149.61 479.192ZM149.61 476.12C150.234 476.12 150.794 475.976 151.29 475.688C151.786 475.4 152.178 474.992 152.466 474.464C152.754 473.92 152.898 473.28 152.898 472.544C152.898 471.792 152.754 471.152 152.466 470.624C152.178 470.096 151.786 469.688 151.29 469.4C150.794 469.112 150.234 468.968 149.61 468.968C148.986 468.968 148.426 469.112 147.93 469.4C147.434 469.688 147.034 470.096 146.73 470.624C146.442 471.152 146.298 471.792 146.298 472.544C146.298 473.28 146.442 473.92 146.73 474.464C147.034 474.992 147.434 475.4 147.93 475.688C148.426 475.976 148.986 476.12 149.61 476.12ZM159.193 479V466.088H162.769V469.736L162.265 468.68C162.649 467.768 163.265 467.08 164.113 466.616C164.961 466.136 165.993 465.896 167.209 465.896V469.352C167.049 469.336 166.905 469.328 166.777 469.328C166.649 469.312 166.513 469.304 166.369 469.304C165.345 469.304 164.513 469.6 163.873 470.192C163.249 470.768 162.937 471.672 162.937 472.904V479H159.193ZM175.16 479.192C173.64 479.192 172.456 478.808 171.608 478.04C170.76 477.256 170.336 476.096 170.336 474.56V463.232H174.08V474.512C174.08 475.056 174.224 475.48 174.512 475.784C174.8 476.072 175.192 476.216 175.688 476.216C176.28 476.216 176.784 476.056 177.2 475.736L178.208 478.376C177.824 478.648 177.36 478.856 176.816 479C176.288 479.128 175.736 479.192 175.16 479.192ZM168.344 469.256V466.376H177.296V469.256H168.344ZM188.158 465.896C189.182 465.896 190.094 466.104 190.894 466.52C191.71 466.92 192.35 467.544 192.814 468.392C193.278 469.224 193.51 470.296 193.51 471.608V479H189.766V472.184C189.766 471.144 189.534 470.376 189.07 469.88C188.622 469.384 187.982 469.136 187.15 469.136C186.558 469.136 186.022 469.264 185.542 469.52C185.078 469.76 184.71 470.136 184.438 470.648C184.182 471.16 184.054 471.816 184.054 472.616V479H180.31V461.192H184.054V469.664L183.214 468.584C183.678 467.72 184.342 467.056 185.206 466.592C186.07 466.128 187.054 465.896 188.158 465.896ZM196.904 479V461.192H200.648V479H196.904ZM210.531 479.192C209.059 479.192 207.763 478.904 206.643 478.328C205.539 477.752 204.683 476.968 204.075 475.976C203.467 474.968 203.163 473.824 203.163 472.544C203.163 471.248 203.459 470.104 204.051 469.112C204.659 468.104 205.483 467.32 206.523 466.76C207.563 466.184 208.739 465.896 210.051 465.896C211.315 465.896 212.451 466.168 213.459 466.712C214.483 467.24 215.291 468.008 215.883 469.016C216.475 470.008 216.771 471.2 216.771 472.592C216.771 472.736 216.763 472.904 216.747 473.096C216.731 473.272 216.715 473.44 216.699 473.6H206.211V471.416H214.731L213.291 472.064C213.291 471.392 213.155 470.808 212.883 470.312C212.611 469.816 212.235 469.432 211.755 469.16C211.275 468.872 210.715 468.728 210.075 468.728C209.435 468.728 208.867 468.872 208.371 469.16C207.891 469.432 207.515 469.824 207.243 470.336C206.971 470.832 206.835 471.424 206.835 472.112V472.688C206.835 473.392 206.987 474.016 207.291 474.56C207.611 475.088 208.051 475.496 208.611 475.784C209.187 476.056 209.859 476.192 210.627 476.192C211.315 476.192 211.915 476.088 212.427 475.88C212.955 475.672 213.435 475.36 213.867 474.944L215.859 477.104C215.267 477.776 214.523 478.296 213.627 478.664C212.731 479.016 211.699 479.192 210.531 479.192ZM223.607 479.192C222.503 479.192 221.439 479.064 220.415 478.808C219.407 478.536 218.607 478.2 218.015 477.8L219.263 475.112C219.855 475.48 220.551 475.784 221.351 476.024C222.167 476.248 222.967 476.36 223.751 476.36C224.615 476.36 225.223 476.256 225.575 476.048C225.943 475.84 226.127 475.552 226.127 475.184C226.127 474.88 225.983 474.656 225.695 474.512C225.423 474.352 225.055 474.232 224.591 474.152C224.127 474.072 223.615 473.992 223.055 473.912C222.511 473.832 221.959 473.728 221.399 473.6C220.839 473.456 220.327 473.248 219.863 472.976C219.399 472.704 219.023 472.336 218.735 471.872C218.463 471.408 218.327 470.808 218.327 470.072C218.327 469.256 218.559 468.536 219.023 467.912C219.503 467.288 220.191 466.8 221.087 466.448C221.983 466.08 223.055 465.896 224.303 465.896C225.183 465.896 226.079 465.992 226.991 466.184C227.903 466.376 228.663 466.656 229.271 467.024L228.023 469.688C227.399 469.32 226.767 469.072 226.127 468.944C225.503 468.8 224.895 468.728 224.303 468.728C223.471 468.728 222.863 468.84 222.479 469.064C222.095 469.288 221.903 469.576 221.903 469.928C221.903 470.248 222.039 470.488 222.311 470.648C222.599 470.808 222.975 470.936 223.439 471.032C223.903 471.128 224.407 471.216 224.951 471.296C225.511 471.36 226.071 471.464 226.631 471.608C227.191 471.752 227.695 471.96 228.143 472.232C228.607 472.488 228.983 472.848 229.271 473.312C229.559 473.76 229.703 474.352 229.703 475.088C229.703 475.888 229.463 476.6 228.983 477.224C228.503 477.832 227.807 478.312 226.895 478.664C225.999 479.016 224.903 479.192 223.607 479.192ZM239.861 465.896C240.885 465.896 241.797 466.104 242.597 466.52C243.413 466.92 244.053 467.544 244.517 468.392C244.981 469.224 245.213 470.296 245.213 471.608V479H241.469V472.184C241.469 471.144 241.237 470.376 240.773 469.88C240.325 469.384 239.685 469.136 238.853 469.136C238.261 469.136 237.725 469.264 237.245 469.52C236.781 469.76 236.413 470.136 236.141 470.648C235.885 471.16 235.757 471.816 235.757 472.616V479H232.013V461.192H235.757V469.664L234.917 468.584C235.381 467.72 236.045 467.056 236.909 466.592C237.773 466.128 238.757 465.896 239.861 465.896ZM248.607 479V466.088H252.351V479H248.607ZM250.479 464.288C249.791 464.288 249.231 464.088 248.799 463.688C248.367 463.288 248.151 462.792 248.151 462.2C248.151 461.608 248.367 461.112 248.799 460.712C249.231 460.312 249.791 460.112 250.479 460.112C251.167 460.112 251.727 460.304 252.159 460.688C252.591 461.056 252.807 461.536 252.807 462.128C252.807 462.752 252.591 463.272 252.159 463.688C251.743 464.088 251.183 464.288 250.479 464.288ZM257.458 483.848C256.786 483.848 256.122 483.744 255.466 483.536C254.81 483.328 254.274 483.04 253.858 482.672L255.226 480.008C255.514 480.264 255.842 480.464 256.21 480.608C256.594 480.752 256.97 480.824 257.338 480.824C257.866 480.824 258.282 480.696 258.586 480.44C258.906 480.2 259.194 479.792 259.45 479.216L260.122 477.632L260.41 477.224L265.042 466.088H268.642L262.81 479.792C262.394 480.832 261.914 481.648 261.37 482.24C260.842 482.832 260.25 483.248 259.594 483.488C258.954 483.728 258.242 483.848 257.458 483.848ZM259.666 479.504L253.906 466.088H257.77L262.234 476.888L259.666 479.504Z" fill="white"/>
<g clip-path="url(#clip0_4824_430)">
<path d="M49.6803 476.174L53.6513 486.119L58.8193 480.94L67.6778 488L73.918 459.887L42 473.213L49.6803 476.174ZM64.7977 467.952L55.029 476.886L53.8134 481.484L51.5629 475.849L64.7977 467.952Z" fill="white"/>
</g>
<path d="M748.147 439.896L718.994 418.717C721.09 424.814 725.013 430.117 730.229 433.907C735.445 437.696 741.701 439.787 748.147 439.896Z" fill="#08C5C8"/>
<path d="M715.525 478.454C709.04 478.446 702.713 480.454 697.42 484.199H733.646C728.348 480.45 722.015 478.442 715.525 478.454Z" fill="#08C5C8"/>
<path d="M693.287 470.97C693.292 466.092 692.156 461.281 689.97 456.92C687.784 452.56 684.609 448.77 680.698 445.855L691.881 480.271C692.817 477.26 693.291 474.124 693.287 470.97Z" fill="#08C5C8"/>
<path d="M712.008 418.717L682.855 439.896C689.302 439.787 695.558 437.696 700.774 433.907C705.99 430.117 709.912 424.814 712.008 418.717Z" fill="#FDB913"/>
<path d="M737.305 471.42C737.302 474.573 737.773 477.709 738.703 480.722L749.894 446.298C745.983 449.215 742.808 453.006 740.623 457.367C738.437 461.729 737.301 466.541 737.305 471.42Z" fill="#FDB913"/>
<path d="M715.533 451.118C709.851 451.118 695.112 448.961 695.112 448.961L715.533 458.025L735.961 448.961C735.961 448.961 721.215 451.118 715.533 451.118Z" fill="white"/>
<path d="M700.938 475.498L715.534 465.936L730.13 475.498L715.534 458.025L700.938 475.498Z" fill="white"/>
<path d="M708.189 437.557H704.406V434.523H715.633V437.557H711.85V446.314H708.189V437.557Z" fill="white"/>
<path d="M720.051 443.279H726.38V446.314H716.382V434.523H720.051V443.279Z" fill="white"/>
<path d="M773.534 437.302H766.048V431.362H788.264V437.302H780.778V454.447H773.534V437.302Z" fill="white"/>
<path d="M805.587 446.204L805.49 447.186H792.756C792.778 448.27 793.019 449.065 793.481 449.569C793.953 450.073 794.688 450.326 795.686 450.326C796.234 450.326 796.722 450.208 797.151 449.971C797.581 449.735 797.865 449.478 798.005 449.199L798.198 448.844H805.217C805.217 449.113 805.12 449.499 804.927 450.004C804.562 450.927 804.009 451.737 803.269 452.434C802.754 452.928 802.174 453.336 801.53 453.658C800.897 453.98 800.092 454.243 799.115 454.447C798.064 454.661 796.921 454.769 795.686 454.769C792.681 454.769 790.283 454.05 788.49 452.612C786.698 451.173 785.802 449.038 785.802 446.204C785.802 443.392 786.698 441.262 788.49 439.813C790.272 438.364 792.676 437.64 795.703 437.64C798.718 437.64 801.117 438.364 802.899 439.813C804.691 441.262 805.587 443.392 805.587 446.204ZM795.686 441.922C794.849 441.922 794.184 442.148 793.69 442.598C793.197 443.049 792.95 443.591 792.95 444.224H798.327C798.327 443.623 798.09 443.087 797.618 442.614C797.157 442.153 796.513 441.922 795.686 441.922Z" fill="white"/>
<path d="M809.42 452.595C807.627 451.147 806.731 449.016 806.731 446.204C806.731 443.392 807.627 441.262 809.42 439.813C811.212 438.364 813.611 437.64 816.616 437.64C819.438 437.64 821.778 438.257 823.635 439.491C825.491 440.736 826.42 442.534 826.42 444.884H819.256C818.912 443.897 818.032 443.403 816.616 443.403C815.714 443.403 814.995 443.661 814.458 444.176C813.922 444.691 813.654 445.367 813.654 446.204C813.654 447.041 813.922 447.718 814.458 448.233C814.995 448.748 815.714 449.005 816.616 449.005C818.032 449.005 818.912 448.512 819.256 447.524H826.42C826.42 449.864 825.491 451.656 823.635 452.901C821.756 454.146 819.417 454.769 816.616 454.769C813.611 454.769 811.212 454.044 809.42 452.595Z" fill="white"/>
<path d="M847.832 454.447H841.248V446.494C841.248 445.56 840.969 444.815 840.411 444.256C839.852 443.688 839.085 443.403 838.108 443.403C837.11 443.403 836.338 443.682 835.79 444.24C835.254 444.788 834.985 445.539 834.985 446.494V454.447H828.385V431.362H834.985V440.924H835.307C835.382 440.666 835.629 440.28 836.048 439.765C836.338 439.411 836.692 439.083 837.11 438.783C837.572 438.472 838.173 438.203 838.913 437.978C839.654 437.753 840.432 437.64 841.248 437.64C843.287 437.64 844.897 438.214 846.077 439.363C847.247 440.522 847.832 442.255 847.832 444.562V454.447Z" fill="white"/>
<path d="M858.056 448.506H870.58V454.447H850.795V431.362H858.056V448.506Z" fill="white"/>
<path d="M889.69 446.204L889.594 447.186H876.86C876.881 448.27 877.123 449.065 877.584 449.569C878.057 450.073 878.792 450.326 879.79 450.326C880.337 450.326 880.826 450.208 881.255 449.971C881.684 449.735 881.969 449.478 882.108 449.199L882.301 448.844H889.32C889.32 449.113 889.224 449.499 889.03 450.004C888.666 450.927 888.113 451.737 887.372 452.434C886.857 452.928 886.278 453.336 885.634 453.658C885 453.98 884.196 454.243 883.219 454.447C882.167 454.661 881.024 454.769 879.79 454.769C876.785 454.769 874.386 454.05 872.594 452.612C870.802 451.173 869.905 449.038 869.905 446.204C869.905 443.392 870.802 441.262 872.594 439.813C874.375 438.364 876.78 437.64 879.806 437.64C882.822 437.64 885.22 438.364 887.002 439.813C888.794 441.262 889.69 443.392 889.69 446.204ZM879.79 441.922C878.953 441.922 878.287 442.148 877.794 442.598C877.3 443.049 877.053 443.591 877.053 444.224H882.43C882.43 443.623 882.194 443.087 881.722 442.614C881.26 442.153 880.616 441.922 879.79 441.922Z" fill="white"/>
<path d="M890.996 449.666C890.996 447.927 891.667 446.639 893.008 445.802C894.35 444.976 896.099 444.562 898.256 444.562C899.34 444.562 900.306 444.654 901.154 444.836C901.97 445.008 902.506 445.201 902.764 445.416L903.134 445.673V443.564C903.134 443.071 902.973 442.7 902.651 442.453C902.34 442.207 901.787 442.083 900.993 442.083C899.544 442.083 898.82 442.577 898.82 443.564H891.881C891.881 441.622 892.659 440.151 894.215 439.153C895.782 438.144 898.041 437.64 900.993 437.64C903.955 437.64 906.15 438.118 907.577 439.073C909.005 440.028 909.718 441.525 909.718 443.564V447.685C909.718 448.201 909.777 448.56 909.895 448.764C910.024 448.968 910.244 449.07 910.555 449.07L911.038 449.005V454.447C910.545 454.661 909.67 454.769 908.414 454.769C907.041 454.769 905.973 454.463 905.211 453.851C904.577 453.357 904.137 452.874 903.891 452.402L903.794 452.145H903.456C903.349 452.424 903.15 452.73 902.86 453.062C902.581 453.374 902.249 453.642 901.862 453.867C901.444 454.114 900.848 454.323 900.075 454.495C899.313 454.678 898.487 454.769 897.596 454.769C895.675 454.769 894.092 454.339 892.847 453.481C891.613 452.633 890.996 451.361 890.996 449.666ZM897.596 449.199C897.596 449.907 898.519 450.261 900.365 450.261C902.211 450.261 903.134 449.907 903.134 449.199C903.134 448.501 902.211 448.152 900.365 448.152C898.519 448.152 897.596 448.501 897.596 449.199Z" fill="white"/>
<path d="M919.636 454.769C917.522 454.769 915.756 454.028 914.34 452.547C912.923 451.066 912.215 448.952 912.215 446.204C912.215 443.457 912.923 441.343 914.34 439.862C915.756 438.38 917.522 437.64 919.636 437.64C920.795 437.64 921.836 437.801 922.759 438.123C923.672 438.466 924.289 438.799 924.611 439.121L925.11 439.604H925.399V431.362H932V454.447H925.399V451.485H925.077C924.906 451.86 924.67 452.241 924.369 452.628C924.036 453.025 923.698 453.352 923.355 453.61C922.936 453.932 922.389 454.205 921.713 454.431C921.047 454.656 920.355 454.769 919.636 454.769ZM919.958 444.16C919.411 444.664 919.137 445.346 919.137 446.204C919.137 447.063 919.405 447.744 919.942 448.249C920.479 448.753 921.257 449.005 922.276 449.005C923.274 449.005 924.042 448.759 924.578 448.265C925.126 447.761 925.399 447.074 925.399 446.204C925.399 445.324 925.126 444.637 924.578 444.144C924.031 443.65 923.264 443.403 922.276 443.403C921.267 443.403 920.495 443.655 919.958 444.16Z" fill="white"/>
<path d="M770.958 479.79C768.887 477.59 767.851 474.746 767.851 471.258C767.851 467.781 768.887 464.937 770.958 462.726C773.018 460.504 775.777 459.393 779.232 459.393C781.143 459.393 782.855 459.748 784.368 460.456C785.892 461.186 787.046 462.066 787.829 463.096C788.602 464.116 789.192 465.119 789.6 466.107C790.008 467.083 790.212 467.958 790.212 468.731H788.038C788.038 468.054 787.684 467.089 786.976 465.833C786.547 465.092 786.031 464.405 785.43 463.772C784.819 463.15 783.971 462.602 782.887 462.13C781.803 461.669 780.585 461.438 779.232 461.438C776.41 461.438 774.188 462.361 772.568 464.207C770.926 466.064 770.105 468.414 770.105 471.258C770.105 474.102 770.926 476.452 772.568 478.309C774.199 480.166 776.421 481.094 779.232 481.094C780.563 481.094 781.781 480.858 782.887 480.386C783.971 479.914 784.819 479.366 785.43 478.744C786.031 478.121 786.547 477.435 786.976 476.683C787.684 475.428 788.038 474.467 788.038 473.802H790.212C790.212 474.574 790.008 475.454 789.6 476.442C789.192 477.418 788.602 478.411 787.829 479.42C787.035 480.45 785.881 481.325 784.368 482.044C782.865 482.763 781.154 483.123 779.232 483.123C775.777 483.123 773.018 482.012 770.958 479.79Z" fill="white"/>
<path d="M795.638 480.788C794.007 479.221 793.191 477.198 793.191 474.719C793.191 472.24 794.007 470.217 795.638 468.65C797.259 467.094 799.325 466.316 801.836 466.316C804.347 466.316 806.413 467.094 808.034 468.65C809.655 470.206 810.465 472.229 810.465 474.719C810.465 477.209 809.655 479.232 808.034 480.788C806.413 482.345 804.347 483.123 801.836 483.123C799.325 483.123 797.259 482.345 795.638 480.788ZM801.836 481.159C803.779 481.159 805.351 480.542 806.553 479.307C807.755 478.073 808.356 476.544 808.356 474.719C808.356 472.895 807.755 471.365 806.553 470.131C805.351 468.908 803.779 468.296 801.836 468.296C799.904 468.296 798.332 468.908 797.119 470.131C795.906 471.376 795.3 472.905 795.3 474.719C795.3 476.533 795.906 478.062 797.119 479.307C798.321 480.542 799.893 481.159 801.836 481.159Z" fill="white"/>
<path d="M829.607 482.801H827.563V474.156C827.563 472.106 827.042 470.609 826.001 469.664C824.949 468.709 823.565 468.232 821.848 468.232C820.002 468.232 818.59 468.784 817.614 469.89C816.637 470.995 816.149 472.444 816.149 474.236V482.801H814.104V466.638H816.149V469.181H816.278C816.385 468.945 816.659 468.613 817.099 468.183C817.442 467.851 817.818 467.561 818.226 467.314C818.687 467.035 819.293 466.799 820.045 466.606C820.796 466.412 821.574 466.316 822.379 466.316C824.472 466.316 826.2 466.933 827.563 468.167C828.926 469.401 829.607 471.269 829.607 473.769V482.801Z" fill="white"/>
<path d="M836.579 465.817V466.638H841.827V468.554H836.579V482.801H834.535V468.554H831.733V466.638H834.535V465.656C834.535 463.542 835.055 461.969 836.096 460.939C837.126 459.909 838.473 459.393 840.137 459.393C840.706 459.393 841.269 459.447 841.827 459.554C842.385 459.662 842.804 459.785 843.083 459.925L843.437 460.118V462.098C842.718 461.572 841.677 461.309 840.314 461.309C839.069 461.298 838.135 461.674 837.513 462.436C836.89 463.187 836.579 464.314 836.579 465.817Z" fill="white"/>
<path d="M861.809 482.97H850.269V480.463C850.269 479.875 850.405 479.354 850.679 478.899C850.953 478.439 851.323 478.069 851.789 477.79C852.586 477.312 853.623 476.899 854.899 476.549C855.265 476.45 855.574 476.363 855.825 476.287C856.081 476.206 856.349 476.104 856.628 475.982C856.914 475.859 857.141 475.734 857.31 475.606C857.479 475.478 857.618 475.323 857.729 475.143C857.84 474.962 857.895 474.767 857.895 474.558C857.895 473.806 857.336 473.431 856.218 473.431C855.094 473.431 854.532 473.926 854.532 474.916V475.58H850.592V474.916C850.592 473.297 851.052 472.114 851.972 471.369C852.886 470.635 854.299 470.268 856.209 470.268C858.102 470.268 859.511 470.621 860.437 471.325C861.363 472.03 861.826 473.107 861.826 474.558C861.826 475.367 861.587 476.081 861.11 476.698C860.638 477.309 860.053 477.778 859.354 478.104C858.702 478.407 858.02 478.675 857.31 478.908C856.71 479.1 856.127 479.284 855.562 479.458C855.079 479.616 854.837 479.773 854.837 479.93H861.809V482.97Z" fill="#08C5C8"/>
<path d="M873.529 471.998C874.618 473.157 875.162 474.726 875.162 476.707C875.162 478.693 874.618 480.259 873.529 481.406C872.44 482.565 870.925 483.145 868.986 483.145C867.052 483.145 865.541 482.565 864.452 481.406C863.357 480.248 862.81 478.681 862.81 476.707C862.81 474.732 863.357 473.163 864.452 471.998C865.547 470.845 867.058 470.268 868.986 470.268C870.925 470.268 872.44 470.845 873.529 471.998ZM868.986 473.614C867.612 473.614 866.924 474.645 866.924 476.707C866.924 478.774 867.612 479.808 868.986 479.808C870.355 479.808 871.039 478.774 871.039 476.707C871.039 474.645 870.355 473.614 868.986 473.614Z" fill="#08C5C8"/>
<path d="M887.59 482.97H876.05V480.463C876.05 479.875 876.187 479.354 876.46 478.899C876.734 478.439 877.104 478.069 877.57 477.79C878.368 477.312 879.404 476.899 880.68 476.549C881.047 476.45 881.355 476.363 881.606 476.287C881.862 476.206 882.13 476.104 882.409 475.982C882.695 475.859 882.922 475.734 883.091 475.606C883.26 475.478 883.399 475.323 883.51 475.143C883.621 474.962 883.676 474.767 883.676 474.558C883.676 473.806 883.117 473.431 881.999 473.431C880.875 473.431 880.313 473.926 880.313 474.916V475.58H876.373V474.916C876.373 473.297 876.833 472.114 877.753 471.369C878.668 470.635 880.08 470.268 881.99 470.268C883.883 470.268 885.292 470.621 886.218 471.325C887.144 472.03 887.607 473.107 887.607 474.558C887.607 475.367 887.368 476.081 886.891 476.698C886.419 477.309 885.834 477.778 885.135 478.104C884.483 478.407 883.801 478.675 883.091 478.908C882.491 479.1 881.909 479.284 881.344 479.458C880.86 479.616 880.619 479.773 880.619 479.93H887.59V482.97Z" fill="#08C5C8"/>
<path d="M898.427 482.97H894.496V480.646H887.604V477.606L893.238 470.443H898.427V477.606H900.044V480.646H898.427V482.97ZM894.758 472.775L893.99 474.243L891.29 477.571V477.659H894.549V474.243L895.152 472.775H894.758Z" fill="#08C5C8"/>
<defs>
<clipPath id="clip0_4824_430">
<rect width="31.918" height="28.113" fill="white" transform="translate(42 459.887)"/>
</clipPath>
</defs>
</svg>
