<svg width="1920" height="1080" viewBox="0 0 1920 1080" fill="none" xmlns="http://www.w3.org/2000/svg">
<rect width="1920" height="1080" fill="black"/>
<rect width="1920" height="1080" fill="#05100E"/>
<g clip-path="url(#paint0_diamond_1_286_clip_path)" data-figma-skip-parse="true"><g transform="matrix(1.94362 -1.92735 5.41521 1.29501 -301.846 1210.85)"><rect x="0" y="0" width="728.811" height="311.241" fill="url(#paint0_diamond_1_286)" opacity="1" shape-rendering="crispEdges"/><rect x="0" y="0" width="728.811" height="311.241" transform="scale(1 -1)" fill="url(#paint0_diamond_1_286)" opacity="1" shape-rendering="crispEdges"/><rect x="0" y="0" width="728.811" height="311.241" transform="scale(-1 1)" fill="url(#paint0_diamond_1_286)" opacity="1" shape-rendering="crispEdges"/><rect x="0" y="0" width="728.811" height="311.241" transform="scale(-1)" fill="url(#paint0_diamond_1_286)" opacity="1" shape-rendering="crispEdges"/></g></g><rect width="1920" height="1080" data-figma-gradient-fill="{&#34;type&#34;:&#34;GRADIENT_DIAMOND&#34;,&#34;stops&#34;:[{&#34;color&#34;:{&#34;r&#34;:0.043137256056070328,&#34;g&#34;:0.51372551918029785,&#34;b&#34;:0.32941177487373352,&#34;a&#34;:1.0},&#34;position&#34;:0.0},{&#34;color&#34;:{&#34;r&#34;:0.019607843831181526,&#34;g&#34;:0.062745101749897003,&#34;b&#34;:0.054901961237192154,&#34;a&#34;:1.0},&#34;position&#34;:1.0}],&#34;stopsVar&#34;:[{&#34;color&#34;:{&#34;r&#34;:0.043137256056070328,&#34;g&#34;:0.51372551918029785,&#34;b&#34;:0.32941177487373352,&#34;a&#34;:1.0},&#34;position&#34;:0.0},{&#34;color&#34;:{&#34;r&#34;:0.019607843831181526,&#34;g&#34;:0.062745101749897003,&#34;b&#34;:0.054901961237192154,&#34;a&#34;:1.0},&#34;position&#34;:1.0}],&#34;transform&#34;:{&#34;m00&#34;:3887.2478027343750,&#34;m01&#34;:10830.41406250,&#34;m02&#34;:-7660.677246093750,&#34;m10&#34;:-3854.69238281250,&#34;m11&#34;:2590.0280761718750,&#34;m12&#34;:1843.178222656250},&#34;opacity&#34;:1.0,&#34;blendMode&#34;:&#34;NORMAL&#34;,&#34;visible&#34;:true}"/>
<rect x="20" y="20" width="1880" height="185" rx="35" fill="url(#paint1_radial_1_286)"/>
<rect x="20" y="20" width="1880" height="185" rx="35" fill="#05100E"/>
<rect x="1693" y="80" width="171.559" height="68" rx="22.34" fill="#0B8354"/>
<path fill-rule="evenodd" clip-rule="evenodd" d="M1733.05 99.917C1735 99.917 1736.82 100.676 1738.2 102.054C1739.57 103.432 1740.33 105.265 1740.33 107.215C1740.33 108.53 1739.98 109.821 1739.31 110.946C1739.08 111.325 1738.82 111.683 1738.53 112.014C1739.13 112.588 1739.64 113.24 1740.07 113.955C1740.93 115.4 1741.38 117.056 1741.38 118.746C1741.38 120.009 1741.14 121.235 1740.65 122.389C1740.18 123.504 1739.51 124.505 1738.65 125.364C1737.79 126.222 1736.8 126.897 1735.68 127.369C1734.53 127.857 1733.31 128.105 1732.05 128.105H1713L1718 109.383H1729.62V109.387H1732.05C1732.13 109.387 1732.22 109.388 1732.32 109.391H1733.03C1734.24 109.391 1735.22 108.406 1735.22 107.195C1735.22 105.984 1734.24 104.998 1733.03 104.998H1719.17L1720.52 99.917H1733.05ZM1719.66 122.984H1732.05C1734.38 122.984 1736.28 121.083 1736.28 118.746C1736.28 116.462 1734.5 114.603 1732.22 114.511H1721.93L1719.66 122.984Z" fill="white"/>
<path d="M1826.69 128.083H1821.08L1826.5 107.471H1832.12L1826.69 128.083Z" fill="white"/>
<path fill-rule="evenodd" clip-rule="evenodd" d="M1759.78 99.895C1760.69 99.8954 1763.09 100.05 1765.57 101.468C1767.84 102.76 1769.6 104.738 1770.82 107.353C1772.82 104.74 1775.18 102.763 1777.83 101.474C1780.74 100.058 1783.18 99.9057 1784.09 99.906C1784.26 99.9064 1784.38 99.9112 1784.45 99.9153C1784.58 99.9143 1784.74 99.9179 1784.95 99.9266C1788.45 100.088 1791.52 101.589 1793.59 104.154C1795.63 106.688 1796.52 110.034 1796.1 113.582L1796.1 113.594L1796.1 113.595L1796.04 114.002C1794.91 121.556 1788.19 127.733 1780.75 128.063C1780.55 128.072 1780.38 128.076 1780.25 128.074C1780.15 128.08 1780.02 128.083 1779.89 128.083C1778.97 128.083 1776.58 127.928 1774.09 126.509C1771.83 125.217 1770.06 123.239 1768.84 120.624C1766.84 123.237 1764.49 125.214 1761.84 126.503C1758.93 127.92 1756.49 128.072 1755.57 128.071C1755.44 128.071 1755.31 128.068 1755.21 128.062C1755.05 128.064 1754.85 128.056 1754.72 128.051C1751.19 127.889 1748.11 126.37 1746.04 123.774C1743.97 121.191 1743.11 117.786 1743.59 114.183L1743.6 114.137L1743.62 113.977C1744.75 106.422 1751.47 100.246 1758.91 99.9146C1759.13 99.9055 1759.29 99.9023 1759.41 99.9036C1759.52 99.8982 1759.65 99.895 1759.78 99.895ZM1783.4 105.346C1783.22 105.333 1781.65 105.251 1779.58 106.251C1776.81 107.588 1774.47 110.192 1772.63 113.99C1773.34 117.789 1774.9 120.395 1777.27 121.736C1779.04 122.735 1780.64 122.656 1780.81 122.643L1780.94 122.639C1781.07 122.639 1781.2 122.636 1781.32 122.631C1785.89 122.427 1790.01 118.636 1790.71 113.999C1791.4 109.362 1788.41 105.568 1783.9 105.36C1783.78 105.354 1783.65 105.351 1783.52 105.351L1783.4 105.346ZM1762.39 106.242C1760.62 105.239 1759.03 105.322 1758.85 105.335L1758.73 105.339C1758.6 105.339 1758.47 105.342 1758.35 105.347C1753.77 105.551 1749.65 109.342 1748.96 113.979C1748.27 118.616 1751.25 122.41 1755.76 122.618C1755.89 122.624 1756.02 122.627 1756.14 122.627L1756.27 122.632C1756.44 122.645 1758.01 122.729 1760.08 121.727C1762.85 120.39 1765.19 117.786 1767.03 113.988L1767.03 113.987C1766.32 110.188 1764.76 107.582 1762.39 106.242Z" fill="white"/>
<path d="M1844.56 99.895L1843.09 105.444H1807.91C1807.84 105.442 1807.77 105.442 1807.71 105.442C1806.67 105.442 1805.85 105.675 1805.27 106.137C1804.7 106.592 1804.42 107.166 1804.42 107.891C1804.42 108.664 1804.73 109.273 1805.38 109.754C1806.05 110.258 1807.38 110.817 1809.33 111.417C1810.14 111.668 1810.76 111.867 1811.19 112.009C1811.61 112.149 1812.19 112.369 1812.92 112.662C1813.65 112.957 1814.22 113.24 1814.63 113.5C1815.03 113.759 1815.49 114.111 1816.01 114.547C1816.53 114.994 1816.94 115.462 1817.22 115.937C1817.49 116.408 1817.73 116.983 1817.92 117.644C1818.12 118.309 1818.22 119.042 1818.22 119.822C1818.22 122.345 1817.29 124.377 1815.45 125.862C1813.65 127.32 1811.28 128.067 1808.41 128.083H1794.1L1795.59 122.5L1808.47 122.5C1809.89 122.5 1810.93 122.246 1811.57 121.746C1812.21 121.251 1812.52 120.647 1812.52 119.898C1812.52 119.031 1812.14 118.375 1811.36 117.892C1810.55 117.384 1809.05 116.822 1806.92 116.22C1805.72 115.863 1804.69 115.501 1803.86 115.143C1803.03 114.783 1802.18 114.294 1801.35 113.69C1800.49 113.074 1799.83 112.283 1799.39 111.338C1798.95 110.399 1798.72 109.29 1798.72 108.043C1798.72 105.572 1799.61 103.573 1801.37 102.1C1803.12 100.637 1805.25 99.895 1807.71 99.895C1807.75 99.895 1807.78 99.8957 1807.82 99.8964L1807.92 99.895H1844.56Z" fill="white"/>
<rect x="20" y="225" width="1880" height="835" rx="35" fill="url(#paint2_radial_1_286)"/>
<rect x="20" y="225" width="1880" height="835" rx="35" fill="#05100E"/>
<defs>
<clipPath id="paint0_diamond_1_286_clip_path"><rect width="1920" height="1080"/></clipPath><linearGradient id="paint0_diamond_1_286" x1="0" y1="0" x2="500" y2="500" gradientUnits="userSpaceOnUse">
<stop stop-color="#0B8354"/>
<stop offset="1" stop-color="#05100E"/>
</linearGradient>
<radialGradient id="paint1_radial_1_286" cx="0" cy="0" r="1" gradientTransform="matrix(55.4106 -603.276 3278.67 38.1936 -209.558 487.61)" gradientUnits="userSpaceOnUse">
<stop stop-color="#0B8354"/>
<stop offset="1" stop-color="#05100E"/>
</radialGradient>
<radialGradient id="paint2_radial_1_286" cx="0" cy="0" r="1" gradientTransform="matrix(55.4106 -2722.9 3278.67 172.387 -209.558 2335.56)" gradientUnits="userSpaceOnUse">
<stop stop-color="#0B8354"/>
<stop offset="1" stop-color="#05100E"/>
</radialGradient>
</defs>
</svg>
