<svg width="1920" height="1080" viewBox="0 0 1920 1080" fill="none" xmlns="http://www.w3.org/2000/svg">
<rect width="1920" height="1080" fill="black"/>
<rect width="1920" height="1080" fill="#05100E"/>
<g clip-path="url(#paint0_diamond_1_271_clip_path)" data-figma-skip-parse="true"><g transform="matrix(1.94362 -1.92735 5.41521 1.29501 -301.846 1210.85)"><rect x="0" y="0" width="728.811" height="311.241" fill="url(#paint0_diamond_1_271)" opacity="1" shape-rendering="crispEdges"/><rect x="0" y="0" width="728.811" height="311.241" transform="scale(1 -1)" fill="url(#paint0_diamond_1_271)" opacity="1" shape-rendering="crispEdges"/><rect x="0" y="0" width="728.811" height="311.241" transform="scale(-1 1)" fill="url(#paint0_diamond_1_271)" opacity="1" shape-rendering="crispEdges"/><rect x="0" y="0" width="728.811" height="311.241" transform="scale(-1)" fill="url(#paint0_diamond_1_271)" opacity="1" shape-rendering="crispEdges"/></g></g><rect width="1920" height="1080" data-figma-gradient-fill="{&#34;type&#34;:&#34;GRADIENT_DIAMOND&#34;,&#34;stops&#34;:[{&#34;color&#34;:{&#34;r&#34;:0.043137256056070328,&#34;g&#34;:0.51372551918029785,&#34;b&#34;:0.32941177487373352,&#34;a&#34;:1.0},&#34;position&#34;:0.0},{&#34;color&#34;:{&#34;r&#34;:0.019607843831181526,&#34;g&#34;:0.062745101749897003,&#34;b&#34;:0.054901961237192154,&#34;a&#34;:1.0},&#34;position&#34;:1.0}],&#34;stopsVar&#34;:[{&#34;color&#34;:{&#34;r&#34;:0.043137256056070328,&#34;g&#34;:0.51372551918029785,&#34;b&#34;:0.32941177487373352,&#34;a&#34;:1.0},&#34;position&#34;:0.0},{&#34;color&#34;:{&#34;r&#34;:0.019607843831181526,&#34;g&#34;:0.062745101749897003,&#34;b&#34;:0.054901961237192154,&#34;a&#34;:1.0},&#34;position&#34;:1.0}],&#34;transform&#34;:{&#34;m00&#34;:3887.2478027343750,&#34;m01&#34;:10830.41406250,&#34;m02&#34;:-7660.677246093750,&#34;m10&#34;:-3854.69238281250,&#34;m11&#34;:2590.0280761718750,&#34;m12&#34;:1843.178222656250},&#34;opacity&#34;:1.0,&#34;blendMode&#34;:&#34;NORMAL&#34;,&#34;visible&#34;:true}"/>
<rect x="20" y="20" width="1880" height="1040" rx="35" fill="url(#paint1_radial_1_271)"/>
<rect x="20" y="20" width="1880" height="1040" rx="35" fill="#05100E"/>
<rect x="1671" y="78" width="171.559" height="68" rx="22.34" fill="#0B8354"/>
<path fill-rule="evenodd" clip-rule="evenodd" d="M1711.05 97.9165C1713 97.9165 1714.82 98.6754 1716.2 100.054C1717.57 101.432 1718.33 103.265 1718.33 105.214C1718.33 106.53 1717.98 107.82 1717.31 108.946C1717.08 109.324 1716.82 109.683 1716.53 110.014C1717.13 110.588 1717.64 111.239 1718.07 111.955C1718.93 113.399 1719.38 115.056 1719.38 116.746C1719.38 118.008 1719.14 119.234 1718.65 120.389C1718.18 121.504 1717.51 122.504 1716.65 123.363C1715.79 124.222 1714.8 124.897 1713.68 125.368C1712.53 125.857 1711.31 126.105 1710.05 126.105H1691L1696 107.383H1707.62V107.386H1710.05C1710.13 107.386 1710.22 107.388 1710.32 107.391H1711.03C1712.24 107.391 1713.22 106.405 1713.22 105.194C1713.22 103.983 1712.24 102.998 1711.03 102.998H1697.17L1698.52 97.9165H1711.05ZM1697.66 120.983H1710.05C1712.38 120.983 1714.28 119.082 1714.28 116.745C1714.28 114.461 1712.5 112.603 1710.22 112.511H1699.93L1697.66 120.983Z" fill="white"/>
<path d="M1804.69 126.083H1799.08L1804.5 105.47H1810.12L1804.69 126.083Z" fill="white"/>
<path fill-rule="evenodd" clip-rule="evenodd" d="M1737.78 97.8945C1738.69 97.8949 1741.09 98.0491 1743.57 99.4678C1745.84 100.759 1747.6 102.738 1748.82 105.353C1750.82 102.74 1753.18 100.763 1755.83 99.474C1758.74 98.0573 1761.18 97.9052 1762.09 97.9055C1762.26 97.9059 1762.38 97.9108 1762.45 97.9148C1762.58 97.9138 1762.74 97.9174 1762.95 97.9262C1766.45 98.0874 1769.52 99.5885 1771.59 102.153C1773.63 104.687 1774.52 108.034 1774.1 111.581L1774.1 111.593L1774.1 111.594L1774.04 112.001C1772.91 119.556 1766.19 125.732 1758.75 126.063C1758.55 126.071 1758.38 126.075 1758.25 126.074C1758.15 126.079 1758.02 126.083 1757.89 126.083C1756.97 126.082 1754.58 125.928 1752.09 124.509C1749.83 123.217 1748.06 121.238 1746.84 118.624C1744.84 121.237 1742.49 123.214 1739.84 124.502C1736.93 125.919 1734.49 126.071 1733.57 126.071C1733.44 126.071 1733.31 126.067 1733.21 126.062C1733.05 126.064 1732.85 126.056 1732.72 126.05C1729.19 125.888 1726.11 124.369 1724.04 121.773C1721.97 119.191 1721.11 115.785 1721.59 112.182L1721.6 112.136L1721.62 111.976C1722.75 104.422 1729.47 98.2452 1736.91 97.9141C1737.13 97.905 1737.29 97.9018 1737.41 97.9031C1737.52 97.8977 1737.65 97.8945 1737.78 97.8945ZM1761.4 103.346C1761.22 103.333 1759.65 103.25 1757.58 104.25C1754.81 105.588 1752.47 108.191 1750.63 111.99C1751.34 115.789 1752.9 118.395 1755.27 119.735C1757.04 120.735 1758.64 120.655 1758.81 120.643L1758.94 120.638C1759.07 120.639 1759.2 120.636 1759.32 120.63C1763.89 120.427 1768.01 116.635 1768.71 111.999C1769.4 107.362 1766.41 103.567 1761.9 103.36C1761.78 103.354 1761.65 103.351 1761.52 103.351L1761.4 103.346ZM1740.39 104.242C1738.62 103.239 1737.03 103.321 1736.85 103.334L1736.73 103.339C1736.6 103.338 1736.47 103.341 1736.35 103.347C1731.77 103.55 1727.65 107.341 1726.96 111.978C1726.27 116.615 1729.25 120.41 1733.76 120.617C1733.89 120.623 1734.02 120.626 1734.14 120.626L1734.27 120.631C1734.44 120.644 1736.01 120.728 1738.08 119.727C1740.85 118.389 1743.19 115.786 1745.03 111.987L1745.03 111.987C1744.32 108.188 1742.76 105.582 1740.39 104.242Z" fill="white"/>
<path d="M1822.56 97.8945L1821.09 103.444H1785.91C1785.84 103.442 1785.77 103.441 1785.71 103.441C1784.67 103.441 1783.85 103.675 1783.27 104.136C1782.7 104.592 1782.42 105.166 1782.42 105.89C1782.42 106.663 1782.73 107.273 1783.38 107.754C1784.05 108.257 1785.38 108.817 1787.33 109.417C1788.14 109.667 1788.76 109.867 1789.19 110.009C1789.61 110.149 1790.19 110.368 1790.92 110.662C1791.65 110.957 1792.22 111.239 1792.63 111.5C1793.03 111.758 1793.49 112.11 1794.01 112.547C1794.53 112.994 1794.94 113.461 1795.22 113.937C1795.49 114.407 1795.73 114.982 1795.92 115.644C1796.12 116.309 1796.22 117.041 1796.22 117.821C1796.22 120.344 1795.29 122.377 1793.45 123.862C1791.65 125.319 1789.28 126.066 1786.41 126.083H1772.1L1773.59 120.499L1786.47 120.5C1787.89 120.5 1788.93 120.246 1789.57 119.745C1790.21 119.251 1790.52 118.646 1790.52 117.898C1790.52 117.031 1790.14 116.374 1789.36 115.892C1788.55 115.384 1787.05 114.821 1784.92 114.22C1783.72 113.862 1782.69 113.5 1781.86 113.143C1781.03 112.783 1780.18 112.293 1779.35 111.69C1778.49 111.074 1777.83 110.283 1777.39 109.338C1776.95 108.399 1776.72 107.29 1776.72 106.042C1776.72 103.572 1777.61 101.572 1779.37 100.099C1781.12 98.6362 1783.25 97.8945 1785.71 97.8945C1785.75 97.8945 1785.78 97.8952 1785.82 97.8959L1785.92 97.8945H1822.56Z" fill="white"/>
<defs>
<clipPath id="paint0_diamond_1_271_clip_path"><rect width="1920" height="1080"/></clipPath><linearGradient id="paint0_diamond_1_271" x1="0" y1="0" x2="500" y2="500" gradientUnits="userSpaceOnUse">
<stop stop-color="#0B8354"/>
<stop offset="1" stop-color="#05100E"/>
</linearGradient>
<radialGradient id="paint1_radial_1_271" cx="0" cy="0" r="1" gradientTransform="matrix(55.4106 -3391.39 3278.67 214.71 -209.558 2648.72)" gradientUnits="userSpaceOnUse">
<stop stop-color="#0B8354"/>
<stop offset="1" stop-color="#05100E"/>
</radialGradient>
</defs>
</svg>
