<svg width="1920" height="1080" viewBox="0 0 1920 1080" fill="none" xmlns="http://www.w3.org/2000/svg">
<rect width="1920" height="1080" fill="black"/>
<rect width="1920" height="1080" fill="#05100E"/>
<rect width="1920" height="1080" fill="url(#paint0_radial_1_279)"/>
<rect x="1670" y="80" width="171.559" height="68" rx="22.34" fill="#0B8354"/>
<path fill-rule="evenodd" clip-rule="evenodd" d="M1710.05 99.917C1712 99.917 1713.82 100.676 1715.2 102.054C1716.57 103.432 1717.33 105.265 1717.33 107.215C1717.33 108.53 1716.98 109.821 1716.31 110.946C1716.08 111.325 1715.82 111.683 1715.53 112.014C1716.13 112.588 1716.64 113.24 1717.07 113.955C1717.93 115.4 1718.38 117.056 1718.38 118.746C1718.38 120.009 1718.14 121.235 1717.65 122.389C1717.18 123.504 1716.51 124.505 1715.65 125.364C1714.79 126.222 1713.8 126.897 1712.68 127.369C1711.53 127.857 1710.31 128.105 1709.05 128.105H1690L1695 109.383H1706.62V109.387H1709.05C1709.13 109.387 1709.22 109.388 1709.32 109.391H1710.03C1711.24 109.391 1712.22 108.406 1712.22 107.195C1712.22 105.984 1711.24 104.998 1710.03 104.998H1696.17L1697.52 99.917H1710.05ZM1696.66 122.984H1709.05C1711.38 122.984 1713.28 121.083 1713.28 118.746C1713.28 116.462 1711.5 114.603 1709.22 114.511H1698.93L1696.66 122.984Z" fill="white"/>
<path d="M1803.69 128.083H1798.08L1803.5 107.471H1809.12L1803.69 128.083Z" fill="white"/>
<path fill-rule="evenodd" clip-rule="evenodd" d="M1736.78 99.895C1737.69 99.8954 1740.09 100.05 1742.57 101.468C1744.84 102.76 1746.6 104.738 1747.82 107.353C1749.82 104.74 1752.18 102.763 1754.83 101.474C1757.74 100.058 1760.18 99.9057 1761.09 99.906C1761.26 99.9064 1761.38 99.9112 1761.45 99.9153C1761.58 99.9143 1761.74 99.9179 1761.95 99.9266C1765.45 100.088 1768.52 101.589 1770.59 104.154C1772.63 106.688 1773.52 110.034 1773.1 113.582L1773.1 113.594L1773.1 113.595L1773.04 114.002C1771.91 121.556 1765.19 127.733 1757.75 128.063C1757.55 128.072 1757.38 128.076 1757.25 128.074C1757.15 128.08 1757.02 128.083 1756.89 128.083C1755.97 128.083 1753.58 127.928 1751.09 126.509C1748.83 125.217 1747.06 123.239 1745.84 120.624C1743.84 123.237 1741.49 125.214 1738.84 126.503C1735.93 127.92 1733.49 128.072 1732.57 128.071C1732.44 128.071 1732.31 128.068 1732.21 128.062C1732.05 128.064 1731.85 128.056 1731.72 128.051C1728.19 127.889 1725.11 126.37 1723.04 123.774C1720.97 121.191 1720.11 117.786 1720.59 114.183L1720.6 114.137L1720.62 113.977C1721.75 106.422 1728.47 100.246 1735.91 99.9146C1736.13 99.9055 1736.29 99.9023 1736.41 99.9036C1736.52 99.8982 1736.65 99.895 1736.78 99.895ZM1760.4 105.346C1760.22 105.333 1758.65 105.251 1756.58 106.251C1753.81 107.588 1751.47 110.192 1749.63 113.99C1750.34 117.789 1751.9 120.395 1754.27 121.736C1756.04 122.735 1757.64 122.656 1757.81 122.643L1757.94 122.639C1758.07 122.639 1758.2 122.636 1758.32 122.631C1762.89 122.427 1767.01 118.636 1767.71 113.999C1768.4 109.362 1765.41 105.568 1760.9 105.36C1760.78 105.354 1760.65 105.351 1760.52 105.351L1760.4 105.346ZM1739.39 106.242C1737.62 105.239 1736.03 105.322 1735.85 105.335L1735.73 105.339C1735.6 105.339 1735.47 105.342 1735.35 105.347C1730.77 105.551 1726.65 109.342 1725.96 113.979C1725.27 118.616 1728.25 122.41 1732.76 122.618C1732.89 122.624 1733.02 122.627 1733.14 122.627L1733.27 122.632C1733.44 122.645 1735.01 122.729 1737.08 121.727C1739.85 120.39 1742.19 117.786 1744.03 113.988L1744.03 113.987C1743.32 110.188 1741.76 107.582 1739.39 106.242Z" fill="white"/>
<path d="M1821.56 99.895L1820.09 105.444H1784.91C1784.84 105.442 1784.77 105.442 1784.71 105.442C1783.67 105.442 1782.85 105.675 1782.27 106.137C1781.7 106.592 1781.42 107.166 1781.42 107.891C1781.42 108.664 1781.73 109.273 1782.38 109.754C1783.05 110.258 1784.38 110.817 1786.33 111.417C1787.14 111.668 1787.76 111.867 1788.19 112.009C1788.61 112.149 1789.19 112.369 1789.92 112.662C1790.65 112.957 1791.22 113.24 1791.63 113.5C1792.03 113.759 1792.49 114.111 1793.01 114.547C1793.53 114.994 1793.94 115.462 1794.22 115.937C1794.49 116.408 1794.73 116.983 1794.92 117.644C1795.12 118.309 1795.22 119.042 1795.22 119.822C1795.22 122.345 1794.29 124.377 1792.45 125.862C1790.65 127.32 1788.28 128.067 1785.41 128.083H1771.1L1772.59 122.5L1785.47 122.5C1786.89 122.5 1787.93 122.246 1788.57 121.746C1789.21 121.251 1789.52 120.647 1789.52 119.898C1789.52 119.031 1789.14 118.375 1788.36 117.892C1787.55 117.384 1786.05 116.822 1783.92 116.22C1782.72 115.863 1781.69 115.501 1780.86 115.143C1780.03 114.783 1779.18 114.294 1778.35 113.69C1777.49 113.074 1776.83 112.283 1776.39 111.338C1775.95 110.399 1775.72 109.29 1775.72 108.043C1775.72 105.572 1776.61 103.573 1778.37 102.1C1780.12 100.637 1782.25 99.895 1784.71 99.895C1784.75 99.895 1784.78 99.8957 1784.82 99.8964L1784.92 99.895H1821.56Z" fill="white"/>
<defs>
<radialGradient id="paint0_radial_1_279" cx="0" cy="0" r="1" gradientTransform="matrix(56.5895 -3521.83 3348.43 222.968 -234.442 2729.83)" gradientUnits="userSpaceOnUse">
<stop stop-color="#0B8354"/>
<stop offset="1" stop-color="#05100E"/>
</radialGradient>
</defs>
</svg>
