<svg width="1920" height="1080" viewBox="0 0 1920 1080" fill="none" xmlns="http://www.w3.org/2000/svg">
<rect width="1920" height="1080" fill="black"/>
<rect width="1920" height="1080" fill="#05100E"/>
<rect width="1920" height="1080" fill="url(#paint0_radial_1_279)"/>
<path d="M111.03 149.761C107.476 149.761 104.081 149.381 100.845 148.619C97.6724 147.858 94.7851 146.652 92.1835 145.002C89.6452 143.352 87.5829 141.227 85.9965 138.625C84.4736 136.023 83.617 132.882 83.4266 129.202H94.9438C95.1976 130.979 95.8004 132.47 96.7523 133.675C97.7676 134.881 99.0049 135.865 100.464 136.626C101.987 137.388 103.669 137.927 105.509 138.244C107.349 138.562 109.19 138.72 111.03 138.72C112.553 138.72 114.139 138.625 115.789 138.435C117.502 138.181 119.089 137.705 120.548 137.007C122.071 136.309 123.277 135.325 124.165 134.056C125.117 132.724 125.593 131.01 125.593 128.916C125.593 127.013 125.212 125.458 124.451 124.252C123.753 123.047 122.769 122.127 121.5 121.492C120.231 120.857 118.74 120.413 117.026 120.159C115.376 119.906 113.568 119.779 111.601 119.779H102.463V109.784H108.936C110.839 109.784 112.648 109.626 114.361 109.309C116.074 108.928 117.566 108.388 118.835 107.69C120.167 106.992 121.214 106.072 121.976 104.93C122.737 103.724 123.118 102.297 123.118 100.647C123.118 98.1721 122.452 96.3319 121.119 95.1262C119.85 93.8571 118.232 93.0005 116.265 92.5563C114.298 92.0486 112.331 91.7948 110.363 91.7948C107.952 91.7948 105.731 92.1121 103.701 92.7467C101.67 93.3812 100.02 94.3648 98.7511 95.6973C97.482 97.0299 96.784 98.7115 96.6571 100.742H85.1399C85.2034 97.5693 85.8062 94.8724 86.9484 92.6515C88.0906 90.3671 89.5818 88.4951 91.422 87.0357C93.2622 85.5127 95.3245 84.3071 97.6089 83.4187C99.8933 82.4669 102.241 81.8006 104.652 81.4198C107.064 81.0391 109.316 80.8487 111.41 80.8487C114.329 80.8487 117.153 81.166 119.882 81.8006C122.674 82.4351 125.18 83.4822 127.401 84.9416C129.686 86.3377 131.494 88.2096 132.827 90.5574C134.159 92.9053 134.826 95.7291 134.826 99.0288C134.826 100.679 134.572 102.328 134.064 103.978C133.62 105.628 132.795 107.215 131.589 108.737C130.447 110.26 128.702 111.656 126.354 112.926C130.098 114.004 132.89 116.035 134.73 119.017C136.634 122 137.586 125.426 137.586 129.297C137.522 132.914 136.729 136.023 135.206 138.625C133.747 141.227 131.78 143.352 129.305 145.002C126.83 146.589 124.006 147.794 120.834 148.619C117.724 149.381 114.456 149.761 111.03 149.761ZM140.521 149L166.316 81.7054H180.498L206.197 149H193.348L188.874 136.531H157.844L153.276 149H140.521ZM161.652 125.775H184.972L173.359 93.6985L161.652 125.775ZM214.121 149V81.7054H259.618V92.5563H226.019V149H214.121ZM295.296 149.761C288.379 149.761 282.478 148.302 277.592 145.383C272.769 142.464 269.057 138.403 266.455 133.2C263.917 127.996 262.648 122.063 262.648 115.4C262.648 108.611 263.949 102.646 266.55 97.5058C269.152 92.3025 272.896 88.2413 277.782 85.3224C282.668 82.34 288.569 80.8487 295.486 80.8487C302.403 80.8487 308.272 82.3082 313.095 85.2272C317.981 88.1461 321.725 92.2073 324.327 97.4106C326.928 102.551 328.229 108.484 328.229 115.21C328.229 121.873 326.928 127.806 324.327 133.009C321.788 138.213 318.045 142.305 313.095 145.288C308.209 148.27 302.276 149.761 295.296 149.761ZM295.486 138.72C300.309 138.72 304.243 137.61 307.289 135.389C310.335 133.168 312.556 130.281 313.952 126.727C315.411 123.174 316.141 119.398 316.141 115.4C316.141 112.354 315.728 109.435 314.903 106.643C314.142 103.851 312.905 101.345 311.191 99.1239C309.541 96.903 307.416 95.158 304.814 93.8889C302.212 92.5563 299.103 91.89 295.486 91.89C290.727 91.89 286.793 93.0005 283.683 95.2214C280.637 97.4424 278.385 100.33 276.925 103.883C275.466 107.437 274.736 111.276 274.736 115.4C274.736 119.461 275.466 123.269 276.925 126.822C278.385 130.376 280.637 133.263 283.683 135.484C286.793 137.641 290.727 138.72 295.486 138.72ZM331.647 149.476V138.054C333.677 138.054 335.296 137.673 336.501 136.912C337.77 136.087 338.754 134.976 339.452 133.58C340.213 132.121 340.753 130.503 341.07 128.726C341.451 126.822 341.705 124.887 341.831 122.92C342.022 120.889 342.149 118.89 342.212 116.923C342.339 114.956 342.403 113.179 342.403 111.593L342.783 81.7054H389.518V149H377.716V92.5563H354.11L353.729 110.356C353.666 115.115 353.539 119.652 353.349 123.967C353.222 128.218 352.778 132.057 352.016 135.484C351.255 138.911 349.827 141.766 347.733 144.05C346.02 145.954 343.894 147.318 341.356 148.143C338.881 148.905 335.645 149.349 331.647 149.476ZM433.516 149.761C426.599 149.761 420.698 148.302 415.812 145.383C410.989 142.464 407.277 138.403 404.675 133.2C402.137 127.996 400.868 122.063 400.868 115.4C400.868 108.611 402.169 102.646 404.771 97.5058C407.372 92.3025 411.116 88.2413 416.002 85.3224C420.888 82.34 426.79 80.8487 433.706 80.8487C440.623 80.8487 446.493 82.3082 451.315 85.2272C456.201 88.1461 459.945 92.2073 462.547 97.4106C465.149 102.551 466.449 108.484 466.449 115.21C466.449 121.873 465.149 127.806 462.547 133.009C460.009 138.213 456.265 142.305 451.315 145.288C446.429 148.27 440.496 149.761 433.516 149.761ZM433.706 138.72C438.529 138.72 442.463 137.61 445.509 135.389C448.555 133.168 450.776 130.281 452.172 126.727C453.631 123.174 454.361 119.398 454.361 115.4C454.361 112.354 453.949 109.435 453.124 106.643C452.362 103.851 451.125 101.345 449.412 99.1239C447.762 96.903 445.636 95.158 443.034 93.8889C440.433 92.5563 437.323 91.89 433.706 91.89C428.947 91.89 425.013 93.0005 421.904 95.2214C418.858 97.4424 416.605 100.33 415.146 103.883C413.686 107.437 412.956 111.276 412.956 115.4C412.956 119.461 413.686 123.269 415.146 126.822C416.605 130.376 418.858 133.263 421.904 135.484C425.013 137.641 428.947 138.72 433.706 138.72ZM477.639 149V81.7054H505.242C508.351 81.7054 511.207 81.9909 513.808 82.562C516.473 83.0697 518.758 83.9898 520.662 85.3224C522.629 86.6549 524.152 88.4317 525.23 90.6526C526.309 92.8736 526.848 95.6339 526.848 98.9336C526.848 101.979 526.15 104.771 524.754 107.31C523.358 109.784 521.296 111.656 518.568 112.926C522.248 113.877 525.072 115.749 527.039 118.541C529.006 121.27 529.99 124.823 529.99 129.202C529.99 133.073 529.26 136.309 527.8 138.911C526.404 141.449 524.437 143.479 521.899 145.002C519.424 146.462 516.569 147.509 513.332 148.143C510.096 148.714 506.67 149 503.053 149H477.639ZM489.537 138.149H503.719C505.496 138.149 507.241 138.022 508.954 137.768C510.667 137.515 512.222 137.07 513.618 136.436C515.014 135.801 516.093 134.881 516.854 133.675C517.679 132.406 518.092 130.788 518.092 128.821C518.092 127.044 517.774 125.585 517.14 124.443C516.505 123.301 515.617 122.412 514.475 121.778C513.396 121.08 512.095 120.604 510.572 120.35C509.049 120.033 507.463 119.874 505.813 119.874H489.537V138.149ZM489.537 109.88H502.101C504.068 109.88 505.845 109.689 507.431 109.309C509.017 108.928 510.382 108.357 511.524 107.595C512.666 106.834 513.555 105.882 514.189 104.74C514.824 103.534 515.141 102.106 515.141 100.457C515.141 98.2356 514.633 96.5857 513.618 95.507C512.666 94.3648 511.334 93.6033 509.62 93.2226C507.907 92.7784 506.003 92.5563 503.909 92.5563H489.537V109.88ZM570.342 149.761C563.425 149.761 557.524 148.302 552.638 145.383C547.815 142.464 544.103 138.403 541.502 133.2C538.963 127.996 537.694 122.063 537.694 115.4C537.694 108.611 538.995 102.646 541.597 97.5058C544.198 92.3025 547.942 88.2413 552.828 85.3224C557.714 82.34 563.616 80.8487 570.532 80.8487C577.449 80.8487 583.319 82.3082 588.141 85.2272C593.027 88.1461 596.771 92.2073 599.373 97.4106C601.975 102.551 603.275 108.484 603.275 115.21C603.275 121.873 601.975 127.806 599.373 133.009C596.835 138.213 593.091 142.305 588.141 145.288C583.255 148.27 577.322 149.761 570.342 149.761ZM570.532 138.72C575.355 138.72 579.289 137.61 582.335 135.389C585.381 133.168 587.602 130.281 588.998 126.727C590.457 123.174 591.187 119.398 591.187 115.4C591.187 112.354 590.775 109.435 589.95 106.643C589.188 103.851 587.951 101.345 586.238 99.1239C584.588 96.903 582.462 95.158 579.86 93.8889C577.259 92.5563 574.149 91.89 570.532 91.89C565.773 91.89 561.839 93.0005 558.73 95.2214C555.684 97.4424 553.431 100.33 551.972 103.883C550.512 107.437 549.782 111.276 549.782 115.4C549.782 119.461 550.512 123.269 551.972 126.822C553.431 130.376 555.684 133.263 558.73 135.484C561.839 137.641 565.773 138.72 570.532 138.72ZM614.56 149V81.7054H626.458V110.641H636.167L655.108 81.7054H668.624L646.161 114.639L668.719 149H654.822L636.738 121.492H626.458V149H614.56Z" fill="white"/>
<rect x="1294" y="80" width="171.559" height="68" rx="22.34" fill="#0B8354"/>
<path fill-rule="evenodd" clip-rule="evenodd" d="M1334.05 99.917C1336 99.917 1337.82 100.676 1339.2 102.054C1340.57 103.432 1341.33 105.265 1341.33 107.215C1341.33 108.53 1340.98 109.821 1340.31 110.946C1340.08 111.325 1339.82 111.683 1339.53 112.014C1340.13 112.588 1340.64 113.24 1341.07 113.955C1341.93 115.4 1342.38 117.056 1342.38 118.746C1342.38 120.009 1342.14 121.235 1341.65 122.389C1341.18 123.504 1340.51 124.505 1339.65 125.364C1338.79 126.222 1337.8 126.897 1336.68 127.369C1335.53 127.857 1334.31 128.105 1333.05 128.105H1314L1319 109.383H1330.62V109.387H1333.05C1333.13 109.387 1333.22 109.388 1333.32 109.391H1334.03C1335.24 109.391 1336.22 108.406 1336.22 107.195C1336.22 105.984 1335.24 104.998 1334.03 104.998H1320.17L1321.52 99.917H1334.05ZM1320.66 122.984H1333.05C1335.38 122.984 1337.28 121.083 1337.28 118.746C1337.28 116.462 1335.5 114.603 1333.22 114.511H1322.93L1320.66 122.984Z" fill="white"/>
<path d="M1427.69 128.083H1422.08L1427.5 107.471H1433.12L1427.69 128.083Z" fill="white"/>
<path fill-rule="evenodd" clip-rule="evenodd" d="M1360.78 99.895C1361.69 99.8954 1364.09 100.05 1366.57 101.468C1368.84 102.76 1370.6 104.738 1371.82 107.353C1373.82 104.74 1376.18 102.763 1378.83 101.474C1381.74 100.058 1384.18 99.9057 1385.09 99.906C1385.26 99.9064 1385.38 99.9112 1385.45 99.9153C1385.58 99.9143 1385.74 99.9179 1385.95 99.9266C1389.45 100.088 1392.52 101.589 1394.59 104.154C1396.63 106.688 1397.52 110.034 1397.1 113.582L1397.1 113.594L1397.1 113.595L1397.04 114.002C1395.91 121.556 1389.19 127.733 1381.75 128.063C1381.55 128.072 1381.38 128.076 1381.25 128.074C1381.15 128.08 1381.02 128.083 1380.89 128.083C1379.97 128.083 1377.58 127.928 1375.09 126.509C1372.83 125.217 1371.06 123.239 1369.84 120.624C1367.84 123.237 1365.49 125.214 1362.84 126.503C1359.93 127.92 1357.49 128.072 1356.57 128.071C1356.44 128.071 1356.31 128.068 1356.21 128.062C1356.05 128.064 1355.85 128.056 1355.72 128.051C1352.19 127.889 1349.11 126.37 1347.04 123.774C1344.97 121.191 1344.11 117.786 1344.59 114.183L1344.6 114.137L1344.62 113.977C1345.75 106.422 1352.47 100.246 1359.91 99.9146C1360.13 99.9055 1360.29 99.9023 1360.41 99.9036C1360.52 99.8982 1360.65 99.895 1360.78 99.895ZM1384.4 105.346C1384.22 105.333 1382.65 105.251 1380.58 106.251C1377.81 107.588 1375.47 110.192 1373.63 113.99C1374.34 117.789 1375.9 120.395 1378.27 121.736C1380.04 122.735 1381.64 122.656 1381.81 122.643L1381.94 122.639C1382.07 122.639 1382.2 122.636 1382.32 122.631C1386.89 122.427 1391.01 118.636 1391.71 113.999C1392.4 109.362 1389.41 105.568 1384.9 105.36C1384.78 105.354 1384.65 105.351 1384.52 105.351L1384.4 105.346ZM1363.39 106.242C1361.62 105.239 1360.03 105.322 1359.85 105.335L1359.73 105.339C1359.6 105.339 1359.47 105.342 1359.35 105.347C1354.77 105.551 1350.65 109.342 1349.96 113.979C1349.27 118.616 1352.25 122.41 1356.76 122.618C1356.89 122.624 1357.02 122.627 1357.14 122.627L1357.27 122.632C1357.44 122.645 1359.01 122.729 1361.08 121.727C1363.85 120.39 1366.19 117.786 1368.03 113.988L1368.03 113.987C1367.32 110.188 1365.76 107.582 1363.39 106.242Z" fill="white"/>
<path d="M1445.56 99.895L1444.09 105.444H1408.91C1408.84 105.442 1408.77 105.442 1408.71 105.442C1407.67 105.442 1406.85 105.675 1406.27 106.137C1405.7 106.592 1405.42 107.166 1405.42 107.891C1405.42 108.664 1405.73 109.273 1406.38 109.754C1407.05 110.258 1408.38 110.817 1410.33 111.417C1411.14 111.668 1411.76 111.867 1412.19 112.009C1412.61 112.149 1413.19 112.369 1413.92 112.662C1414.65 112.957 1415.22 113.24 1415.63 113.5C1416.03 113.759 1416.49 114.111 1417.01 114.547C1417.53 114.994 1417.94 115.462 1418.22 115.937C1418.49 116.408 1418.73 116.983 1418.92 117.644C1419.12 118.309 1419.22 119.042 1419.22 119.822C1419.22 122.345 1418.29 124.377 1416.45 125.862C1414.65 127.32 1412.28 128.067 1409.41 128.083H1395.1L1396.59 122.5L1409.47 122.5C1410.89 122.5 1411.93 122.246 1412.57 121.746C1413.21 121.251 1413.52 120.647 1413.52 119.898C1413.52 119.031 1413.14 118.375 1412.36 117.892C1411.55 117.384 1410.05 116.822 1407.92 116.22C1406.72 115.863 1405.69 115.501 1404.86 115.143C1404.03 114.783 1403.18 114.294 1402.35 113.69C1401.49 113.074 1400.83 112.283 1400.39 111.338C1399.95 110.399 1399.72 109.29 1399.72 108.043C1399.72 105.572 1400.61 103.573 1402.37 102.1C1404.12 100.637 1406.25 99.895 1408.71 99.895C1408.75 99.895 1408.78 99.8957 1408.82 99.8964L1408.92 99.895H1445.56Z" fill="white"/>
<rect x="1480.56" y="80" width="361" height="68" rx="22.3404" fill="#0B8354"/>
<path d="M1523.46 125.501V116.461H1528.22C1534.13 116.461 1536.88 112.817 1536.88 108.225C1536.88 103.633 1534.13 99.9889 1528.22 99.9889H1519.06V125.501H1523.46ZM1528.22 104.364C1530.83 104.364 1532.48 105.601 1532.48 108.229C1532.48 110.856 1530.83 112.093 1528.22 112.093H1523.46V104.364H1528.22Z" fill="white"/>
<path d="M1551.93 113.009C1551.93 109.325 1548.85 106.882 1544.21 106.882C1541.57 106.882 1538.96 108.16 1537.34 109.799L1540.02 112.571C1541.16 111.294 1542.78 110.675 1544.29 110.675C1546.38 110.675 1547.82 111.551 1547.82 113.009V114.395H1546.53C1543.41 114.395 1535.61 114.688 1535.61 120.376C1535.61 123.731 1538.26 125.844 1542.49 125.844C1544.69 125.844 1546.46 125.077 1547.82 123.803V125.482H1551.93V113.009ZM1547.74 117.384C1547.41 120.409 1545.68 122.417 1543 122.417C1541.09 122.417 1539.58 121.469 1539.58 119.866C1539.58 117.677 1543.07 117.387 1546.16 117.387H1547.74V117.384Z" fill="white"/>
<path d="M1558.48 125.501V116.219C1558.48 112.821 1561.09 110.809 1564 110.809V107.226C1561.82 107.226 1559.93 107.957 1558.48 109.235V107.226H1554.11V125.497H1558.48V125.501Z" fill="white"/>
<path d="M1567.3 110.7V119.374C1567.3 123.637 1570.41 125.497 1575.26 125.497V121.415C1573.07 121.415 1571.68 120.539 1571.68 118.791V110.7H1575.12V107.273H1571.68V102.171H1567.3V107.273H1565.04V110.7H1567.3Z" fill="white"/>
<path d="M1576.19 125.5H1580.58V114.829C1580.58 112.672 1582.26 111.101 1584.46 111.101C1586.66 111.101 1588.34 112.672 1588.34 114.829V125.5H1592.74V114.829C1592.74 110.262 1589.81 107.229 1585.12 107.229C1583.29 107.229 1581.79 107.703 1580.58 108.691V107.229H1576.19V125.5Z" fill="white"/>
<path d="M1602.57 125.844C1605.31 125.844 1608.34 124.751 1609.79 122.891L1606.91 120.449C1605.89 121.505 1604.29 122.273 1602.57 122.273C1599.76 122.273 1598.16 120.304 1597.98 117.387H1611.25V116.001C1611.25 110.57 1607.68 106.886 1602.57 106.886C1597.47 106.886 1593.9 110.57 1593.9 116.001V116.877C1593.9 122.309 1597.47 125.848 1602.57 125.848V125.844ZM1598.16 114.395C1598.63 112.061 1600.09 110.458 1602.57 110.458C1605.05 110.458 1606.51 112.061 1606.98 114.395H1598.16Z" fill="white"/>
<path d="M1617.27 125.501V116.219C1617.27 112.821 1619.91 110.809 1622.86 110.809V107.226C1620.65 107.226 1618.74 107.957 1617.27 109.235V107.226H1612.86V125.497H1617.27V125.501Z" fill="white"/>
<path d="M1630.8 125.728C1635.29 125.728 1638.26 123.373 1638.37 120.076C1638.37 119.823 1638.37 119.57 1638.34 119.316C1638.04 116.02 1634.48 115.147 1631.68 114.496C1629.66 114.026 1627.9 113.483 1627.9 112.14C1627.9 110.87 1629.33 110.146 1630.95 110.146C1632.46 110.146 1634.15 110.762 1635.07 111.887L1637.31 109.314C1635.8 107.682 1633.45 106.886 1630.8 106.886C1626.83 106.886 1623.82 108.988 1623.63 112.068C1623.6 112.321 1623.6 112.575 1623.63 112.828C1623.93 116.233 1627.38 117.033 1630.17 117.72C1632.23 118.191 1633.92 118.697 1633.92 120.04C1633.92 121.563 1632.09 122.179 1630.8 122.179C1629.07 122.179 1627.31 121.6 1625.66 120.112L1623.08 122.794C1624.77 124.751 1628.01 125.728 1630.8 125.728H1630.8Z" fill="white"/>
<path d="M1641.91 109.412L1642.28 99.9889H1638.95L1639.32 109.412H1641.91Z" fill="white"/>
<path d="M1650.21 114.673C1650.21 121.227 1654.8 125.96 1661.73 125.96C1665.69 125.96 1668.85 124.393 1670.9 121.882L1667.42 119.041C1666.13 120.608 1664.22 121.589 1661.73 121.589C1657.4 121.589 1654.61 118.603 1654.61 114.673V110.816C1654.61 106.882 1657.4 103.901 1661.73 103.901C1664.22 103.901 1666.13 104.885 1667.42 106.448L1670.9 103.608C1668.85 101.096 1665.69 99.5293 1661.73 99.5293C1654.8 99.5293 1650.21 104.262 1650.21 110.816V114.673H1650.21Z" fill="white"/>
<path d="M1677 99.9889H1672.63V125.501H1677V99.9889Z" fill="white"/>
<path d="M1691.57 107.229V118.132C1691.57 120.289 1689.88 121.863 1687.69 121.863C1685.49 121.863 1683.81 120.289 1683.81 118.132V107.229H1679.41V118.132C1679.41 122.67 1682.23 125.96 1686.88 125.96C1688.79 125.96 1690.36 125.301 1691.57 124.277V125.522H1695.97V107.229H1691.57Z" fill="white"/>
<path d="M1697.92 125.479H1702.32V123.55C1703.75 125.008 1705.66 125.844 1707.89 125.844C1712.74 125.844 1715.96 122.092 1715.96 116.374C1715.96 110.657 1712.73 106.904 1707.89 106.904C1705.66 106.904 1703.75 107.74 1702.32 109.198V99.9889H1697.92V125.479ZM1711.86 116.378C1711.86 119.508 1710.28 122.132 1707.23 122.132C1704.19 122.132 1702.61 119.508 1702.61 116.378C1702.61 113.248 1704.19 110.624 1707.23 110.624C1710.28 110.624 1711.86 113.248 1711.86 116.378Z" fill="white"/>
<path d="M1742.06 107.342C1742.44 107.342 1742.76 107.466 1743.04 107.713C1743.32 107.961 1743.54 108.338 1743.7 108.844C1743.85 109.347 1743.93 109.986 1743.93 110.761C1743.94 111.944 1743.76 112.822 1743.42 113.395C1743.07 113.964 1742.62 114.249 1742.06 114.249C1741.69 114.249 1741.37 114.123 1741.08 113.871C1740.8 113.617 1740.58 113.231 1740.42 112.714C1740.27 112.197 1740.19 111.546 1740.2 110.761C1740.2 109.602 1740.37 108.743 1740.72 108.185C1741.06 107.623 1741.51 107.342 1742.06 107.342Z" fill="white"/>
<path d="M1762.46 109.799C1762.74 109.799 1762.99 109.86 1763.21 109.983C1763.43 110.101 1763.6 110.267 1763.73 110.48C1763.85 110.693 1763.92 110.936 1763.92 111.208H1760.94C1760.95 110.949 1761.02 110.717 1761.15 110.511C1761.28 110.292 1761.46 110.119 1761.69 109.993C1761.92 109.864 1762.17 109.799 1762.46 109.799Z" fill="white"/>
<path fill-rule="evenodd" clip-rule="evenodd" d="M1784.72 120.635C1778.37 126.48 1763.94 123.495 1750.87 122.127C1740.42 121.033 1727.6 124.573 1722.5 126.48V104.343C1729.86 99.0696 1744.48 99.4924 1750.87 100.363C1767.5 103.945 1780.36 100.363 1784.72 98V120.635ZM1766.72 108.859V110.818H1769.26V116.902H1771.69V110.818H1774.27V108.859H1766.72ZM1731.61 107.44V109.681L1734 108.215H1734.07V116.52H1736.65V105.796H1734.25L1731.61 107.44ZM1742.06 105.236C1741.13 105.236 1740.32 105.453 1739.64 105.886C1738.97 106.315 1738.45 106.942 1738.08 107.766C1737.72 108.586 1737.54 109.584 1737.53 110.761C1737.53 111.937 1737.71 112.945 1738.08 113.782C1738.44 114.617 1738.97 115.257 1739.64 115.704C1740.32 116.147 1741.13 116.369 1742.06 116.369C1743 116.369 1743.81 116.149 1744.48 115.709C1745.16 115.266 1745.68 114.625 1746.05 113.788C1746.42 112.95 1746.6 111.941 1746.6 110.761C1746.6 109.588 1746.42 108.59 1746.05 107.766C1745.69 106.942 1745.16 106.315 1744.48 105.886C1743.81 105.453 1743 105.236 1742.06 105.236ZM1762.41 107.951C1761.6 107.951 1760.89 108.125 1760.3 108.474C1759.7 108.82 1759.24 109.305 1758.91 109.93C1758.58 110.551 1758.41 111.278 1758.41 112.109C1758.41 112.964 1758.58 113.702 1758.9 114.323C1759.23 114.941 1759.7 115.418 1760.31 115.753C1760.92 116.085 1761.64 116.251 1762.48 116.251C1763.19 116.251 1763.8 116.144 1764.34 115.931C1764.87 115.715 1765.3 115.413 1765.63 115.025C1765.96 114.634 1766.18 114.175 1766.28 113.648L1763.93 113.58C1763.86 113.758 1763.76 113.908 1763.63 114.03C1763.49 114.152 1763.33 114.245 1763.15 114.308C1762.96 114.371 1762.76 114.402 1762.53 114.402C1762.2 114.402 1761.92 114.334 1761.68 114.198C1761.45 114.062 1761.26 113.871 1761.13 113.627C1761 113.379 1760.94 113.091 1760.94 112.763V112.695H1766.3V112.056C1766.3 111.396 1766.21 110.812 1766.01 110.302C1765.82 109.789 1765.55 109.357 1765.21 109.008C1764.86 108.659 1764.45 108.396 1763.98 108.218C1763.5 108.04 1762.98 107.951 1762.41 107.951ZM1750.81 111.204C1750.79 111.657 1750.76 112.043 1750.71 112.361C1750.65 112.678 1750.58 112.939 1750.5 113.141C1750.41 113.34 1750.3 113.485 1750.17 113.576C1750.04 113.666 1749.89 113.712 1749.72 113.712H1749.46L1749.48 115.686H1750.23C1750.65 115.686 1751.03 115.616 1751.37 115.477C1751.7 115.337 1751.99 115.119 1752.24 114.822C1752.48 114.525 1752.68 114.138 1752.82 113.659C1752.97 113.178 1753.06 112.596 1753.09 111.916L1753.22 109.601H1754.88V115.686H1757.31V107.643H1750.94L1750.81 111.204Z" fill="white"/>
<path d="M1786.19 110.579C1792.5 109.051 1799.36 109.986 1802.56 110.839L1797.99 118.902L1803.06 127.339L1798.49 126.098C1789.96 123.989 1778.96 128.951 1775.5 129.82C1772.74 130.514 1771.55 129.034 1771.3 128.207L1770.67 125.368C1776.57 125.51 1782.14 124.794 1785.71 121.51L1786.19 121.065V110.579Z" fill="white"/>
<path d="M1784.69 120.407C1781.53 123.322 1776.35 124.041 1770.33 123.86L1769.7 121.012C1770.6 119.688 1774.22 116.099 1781.44 112.327C1782.47 111.785 1783.57 111.345 1784.69 110.994V120.407Z" fill="white"/>
<path d="M1779.69 1000.19C1778.52 1000.19 1777.52 999.976 1776.69 999.544C1775.86 999.096 1775.18 998.488 1774.65 997.72C1774.12 996.952 1773.74 996.08 1773.5 995.104C1773.26 994.112 1773.14 993.08 1773.14 992.008C1773.14 990.76 1773.27 989.584 1773.52 988.48C1773.78 987.376 1774.18 986.4 1774.72 985.552C1775.28 984.704 1776 984.04 1776.86 983.56C1777.74 983.08 1778.79 982.84 1780 982.84C1780.87 982.84 1781.67 982.992 1782.4 983.296C1783.16 983.584 1783.8 984.024 1784.32 984.616C1784.85 985.208 1785.23 985.952 1785.45 986.848H1782.91C1782.65 986.288 1782.25 985.864 1781.71 985.576C1781.16 985.288 1780.58 985.144 1779.96 985.144C1779.27 985.144 1778.68 985.272 1778.18 985.528C1777.7 985.768 1777.29 986.104 1776.96 986.536C1776.62 986.952 1776.35 987.432 1776.14 987.976C1775.93 988.52 1775.78 989.088 1775.68 989.68C1775.59 990.256 1775.54 990.824 1775.54 991.384C1775.92 990.824 1776.36 990.376 1776.84 990.04C1777.33 989.704 1777.86 989.464 1778.42 989.32C1778.98 989.16 1779.53 989.08 1780.08 989.08C1781.21 989.08 1782.19 989.312 1783 989.776C1783.82 990.224 1784.45 990.856 1784.9 991.672C1785.36 992.472 1785.6 993.408 1785.6 994.48C1785.6 995.616 1785.34 996.616 1784.83 997.48C1784.33 998.344 1783.64 999.016 1782.74 999.496C1781.86 999.96 1780.84 1000.19 1779.69 1000.19ZM1779.67 997.888C1780.34 997.888 1780.92 997.744 1781.42 997.456C1781.93 997.168 1782.32 996.784 1782.6 996.304C1782.88 995.808 1783.03 995.264 1783.03 994.672C1783.03 994.048 1782.89 993.488 1782.62 992.992C1782.35 992.496 1781.96 992.104 1781.47 991.816C1780.99 991.512 1780.42 991.36 1779.76 991.36C1779.14 991.36 1778.56 991.504 1778.01 991.792C1777.48 992.064 1777.06 992.448 1776.74 992.944C1776.42 993.424 1776.26 993.992 1776.26 994.648C1776.26 995.24 1776.4 995.784 1776.69 996.28C1776.98 996.76 1777.38 997.152 1777.89 997.456C1778.42 997.744 1779.01 997.888 1779.67 997.888ZM1794.22 1003.98L1801.71 980.872H1804.28L1796.79 1003.98H1794.22ZM1812.36 1000V997.888L1817.13 993.808C1817.53 993.472 1817.97 993.096 1818.45 992.68C1818.95 992.264 1819.42 991.816 1819.87 991.336C1820.33 990.856 1820.71 990.344 1821 989.8C1821.3 989.256 1821.45 988.688 1821.45 988.096C1821.45 987.184 1821.17 986.472 1820.61 985.96C1820.07 985.448 1819.33 985.192 1818.38 985.192C1817.58 985.192 1816.9 985.36 1816.34 985.696C1815.8 986.032 1815.44 986.504 1815.26 987.112H1812.67C1812.81 986.136 1813.17 985.336 1813.75 984.712C1814.33 984.088 1815.03 983.624 1815.86 983.32C1816.69 983 1817.57 982.84 1818.48 982.84C1819.53 982.84 1820.48 983.032 1821.31 983.416C1822.14 983.8 1822.8 984.368 1823.28 985.12C1823.76 985.856 1824 986.76 1824 987.832C1824 988.84 1823.81 989.736 1823.42 990.52C1823.04 991.304 1822.53 992.016 1821.89 992.656C1821.26 993.296 1820.58 993.92 1819.85 994.528L1816.08 997.672H1824.12V1000H1812.36ZM1834.73 1000V996.712H1825.7V994.792L1833.86 983.032H1837.25V994.408H1839.21V996.712H1837.25V1000H1834.73ZM1828.7 994.408H1834.73V985.552L1828.7 994.408Z" fill="white"/>
<defs>
<radialGradient id="paint0_radial_1_279" cx="0" cy="0" r="1" gradientTransform="matrix(56.5895 -3521.83 3348.43 222.968 -234.442 2729.83)" gradientUnits="userSpaceOnUse">
<stop stop-color="#0B8354"/>
<stop offset="1" stop-color="#05100E"/>
</radialGradient>
</defs>
</svg>
