<svg width="1920" height="1080" viewBox="0 0 1920 1080" fill="none" xmlns="http://www.w3.org/2000/svg">
<rect width="1920" height="1080" fill="white"/>
<circle cx="1851.35" cy="82.7709" r="39.0865" stroke="#838383" stroke-width="4"/>
<path d="M1838.92 970.89L1816.16 1002.22C1822.72 999.967 1828.42 995.752 1832.49 990.146C1836.56 984.541 1838.81 977.817 1838.92 970.89Z" fill="#08C5C8"/>
<path d="M1880.36 1005.95C1880.35 1012.92 1882.51 1019.72 1886.54 1025.41L1886.54 986.474C1882.51 992.167 1880.35 998.973 1880.36 1005.95Z" fill="#08C5C8"/>
<path d="M1872.32 1029.85C1867.08 1029.84 1861.91 1031.06 1857.22 1033.41C1852.53 1035.76 1848.46 1039.17 1845.33 1043.38L1882.31 1031.36C1879.08 1030.35 1875.71 1029.84 1872.32 1029.85Z" fill="#08C5C8"/>
<path d="M1816.16 1009.73L1838.92 1041.06C1838.81 1034.13 1836.56 1027.41 1832.49 1021.8C1828.42 1016.2 1822.72 1011.98 1816.16 1009.73Z" fill="#FDB913"/>
<path d="M1872.8 982.542C1876.19 982.545 1879.56 982.038 1882.8 981.038L1845.8 969.013C1848.94 973.215 1853.01 976.627 1857.7 978.976C1862.39 981.325 1867.56 982.546 1872.8 982.542Z" fill="#FDB913"/>
<path d="M1850.98 1005.94C1850.98 1012.05 1848.67 1027.89 1848.67 1027.89L1858.41 1005.94L1848.67 983.986C1848.67 983.986 1850.98 999.833 1850.98 1005.94Z" fill="black"/>
<path d="M1877.19 1021.63L1866.91 1005.94L1877.19 990.253L1858.41 1005.94L1877.19 1021.63Z" fill="black"/>
<path d="M1836.41 1013.83L1836.41 1017.9L1833.15 1017.9L1833.15 1005.83L1836.41 1005.83L1836.41 1009.9L1845.82 1009.9L1845.82 1013.83L1836.41 1013.83Z" fill="black"/>
<path d="M1842.56 1001.08L1842.56 994.283L1845.82 994.283L1845.82 1005.03L1833.15 1005.03L1833.15 1001.08L1842.56 1001.08Z" fill="black"/>
<path d="M1836.14 943.608L1836.14 951.653L1829.75 951.653L1829.75 927.778L1836.14 927.778L1836.14 935.822L1854.56 935.822L1854.56 943.608L1836.14 943.608Z" fill="black"/>
<path d="M1845.7 909.16L1846.76 909.264L1846.76 922.949C1847.92 922.926 1848.78 922.667 1849.32 922.171C1849.86 921.663 1850.13 920.873 1850.13 919.8C1850.13 919.212 1850.01 918.687 1849.75 918.226C1849.5 917.765 1849.22 917.459 1848.92 917.309L1848.54 917.102L1848.54 909.558C1848.83 909.558 1849.24 909.662 1849.79 909.87C1850.78 910.262 1851.65 910.856 1852.4 911.652C1852.93 912.205 1853.37 912.828 1853.71 913.52C1854.06 914.201 1854.34 915.066 1854.56 916.115C1854.79 917.246 1854.91 918.474 1854.91 919.8C1854.91 923.03 1854.14 925.608 1852.59 927.534C1851.04 929.46 1848.75 930.423 1845.7 930.423C1842.68 930.423 1840.39 929.46 1838.84 927.534C1837.28 925.619 1836.5 923.036 1836.5 919.783C1836.5 916.542 1837.28 913.964 1838.84 912.05C1840.39 910.124 1842.68 909.16 1845.7 909.16ZM1841.1 919.8C1841.1 920.7 1841.34 921.415 1841.83 921.946C1842.31 922.476 1842.9 922.742 1843.58 922.742L1843.58 916.963C1842.93 916.963 1842.35 917.217 1841.85 917.724C1841.35 918.22 1841.1 918.912 1841.1 919.8Z" fill="black"/>
<path d="M1852.57 905.041C1851.02 906.968 1848.73 907.931 1845.7 907.931C1842.68 907.931 1840.39 906.968 1838.84 905.041C1837.28 903.115 1836.5 900.538 1836.5 897.308C1836.5 894.275 1837.16 891.76 1838.49 889.765C1839.83 887.77 1841.76 886.772 1844.29 886.772L1844.29 894.471C1843.22 894.84 1842.69 895.786 1842.69 897.308C1842.69 898.277 1842.97 899.05 1843.52 899.626C1844.08 900.203 1844.8 900.491 1845.7 900.491C1846.6 900.491 1847.33 900.203 1847.88 899.626C1848.44 899.05 1848.71 898.277 1848.71 897.308C1848.71 895.786 1848.18 894.84 1847.12 894.471L1847.12 886.772C1849.64 886.772 1851.56 887.77 1852.9 889.765C1854.24 891.783 1854.91 894.298 1854.91 897.308C1854.91 900.538 1854.13 903.115 1852.57 905.041Z" fill="black"/>
<path d="M1854.56 863.76L1854.56 870.836L1846.02 870.836C1845.01 870.836 1844.21 871.136 1843.61 871.736C1843 872.336 1842.69 873.161 1842.69 874.21C1842.69 875.283 1842.99 876.113 1843.59 876.701C1844.18 877.278 1844.99 877.566 1846.02 877.566L1854.56 877.566L1854.56 884.66L1829.75 884.66L1829.75 877.566L1840.03 877.566L1840.03 877.22C1839.75 877.14 1839.34 876.874 1838.78 876.425C1838.4 876.113 1838.05 875.733 1837.73 875.283C1837.39 874.787 1837.11 874.141 1836.86 873.345C1836.62 872.549 1836.5 871.713 1836.5 870.836C1836.5 868.645 1837.12 866.915 1838.35 865.646C1839.6 864.389 1841.46 863.76 1843.94 863.76L1854.56 863.76Z" fill="black"/>
<path d="M1848.18 852.773L1848.18 839.313L1854.56 839.313L1854.56 860.576L1829.75 860.576L1829.75 852.773L1848.18 852.773Z" fill="black"/>
<path d="M1845.7 818.776L1846.76 818.879L1846.76 832.564C1847.92 832.541 1848.78 832.282 1849.32 831.786C1849.86 831.278 1850.13 830.488 1850.13 829.416C1850.13 828.827 1850.01 828.303 1849.75 827.841C1849.5 827.38 1849.22 827.074 1848.92 826.924L1848.54 826.717L1848.54 819.174C1848.83 819.174 1849.24 819.277 1849.79 819.485C1850.78 819.877 1851.65 820.471 1852.4 821.267C1852.93 821.821 1853.37 822.443 1853.71 823.135C1854.06 823.816 1854.34 824.681 1854.56 825.731C1854.79 826.861 1854.91 828.089 1854.91 829.416C1854.91 832.645 1854.14 835.223 1852.59 837.149C1851.04 839.075 1848.75 840.038 1845.7 840.038C1842.68 840.038 1840.39 839.075 1838.84 837.149C1837.28 835.234 1836.5 832.651 1836.5 829.398C1836.5 826.157 1837.28 823.579 1838.84 821.665C1840.39 819.739 1842.68 818.776 1845.7 818.776ZM1841.1 829.416C1841.1 830.315 1841.34 831.03 1841.83 831.561C1842.31 832.091 1842.9 832.357 1843.58 832.357L1843.58 826.578C1842.93 826.578 1842.35 826.832 1841.85 827.34C1841.35 827.835 1841.1 828.528 1841.1 829.416Z" fill="black"/>
<path d="M1849.42 817.373C1847.55 817.373 1846.17 816.652 1845.27 815.21C1844.38 813.769 1843.94 811.889 1843.94 809.57C1843.94 808.405 1844.04 807.367 1844.23 806.456C1844.42 805.58 1844.63 805.003 1844.86 804.726L1845.13 804.328L1842.87 804.328C1842.34 804.328 1841.94 804.501 1841.67 804.847C1841.41 805.182 1841.27 805.776 1841.27 806.629C1841.27 808.186 1841.81 808.965 1842.87 808.965L1842.87 816.421C1840.78 816.421 1839.2 815.585 1838.13 813.913C1837.04 812.229 1836.5 809.801 1836.5 806.629C1836.5 803.446 1837.01 801.087 1838.04 799.553C1839.07 798.019 1840.67 797.252 1842.87 797.252L1847.3 797.252C1847.85 797.252 1848.24 797.189 1848.45 797.062C1848.67 796.923 1848.78 796.687 1848.78 796.352L1848.71 795.833L1854.56 795.833C1854.79 796.364 1854.91 797.304 1854.91 798.653C1854.91 800.13 1854.58 801.277 1853.92 802.096C1853.39 802.777 1852.87 803.25 1852.36 803.515L1852.09 803.619L1852.09 803.982C1852.39 804.097 1852.72 804.311 1853.07 804.622C1853.41 804.922 1853.7 805.28 1853.94 805.695C1854.2 806.145 1854.43 806.785 1854.61 807.615C1854.81 808.434 1854.91 809.322 1854.91 810.28C1854.91 812.344 1854.45 814.045 1853.52 815.383C1852.61 816.71 1851.25 817.373 1849.42 817.373ZM1848.92 810.28C1849.68 810.28 1850.06 809.288 1850.06 807.304C1850.06 805.32 1849.68 804.328 1848.92 804.328C1848.17 804.328 1847.8 805.32 1847.8 807.304C1847.8 809.288 1848.17 810.28 1848.92 810.28Z" fill="black"/>
<path d="M1854.91 786.593C1854.91 788.866 1854.11 790.763 1852.52 792.285C1850.93 793.808 1848.66 794.569 1845.7 794.569C1842.75 794.569 1840.48 793.808 1838.89 792.285C1837.3 790.763 1836.5 788.866 1836.5 786.593C1836.5 785.348 1836.67 784.229 1837.02 783.237C1837.39 782.257 1837.75 781.593 1838.09 781.247L1838.61 780.711L1838.61 780.4L1829.75 780.4L1829.75 773.306L1854.56 773.306L1854.56 780.4L1851.38 780.4L1851.38 780.746C1851.78 780.93 1852.19 781.184 1852.61 781.507C1853.03 781.865 1853.39 782.228 1853.66 782.597C1854.01 783.047 1854.3 783.635 1854.54 784.362C1854.79 785.077 1854.91 785.821 1854.91 786.593ZM1843.51 786.247C1844.05 786.836 1844.78 787.13 1845.7 787.13C1846.63 787.13 1847.36 786.841 1847.9 786.265C1848.44 785.688 1848.71 784.852 1848.71 783.756C1848.71 782.683 1848.45 781.859 1847.92 781.282C1847.38 780.694 1846.64 780.4 1845.7 780.4C1844.76 780.4 1844.02 780.694 1843.49 781.282C1842.96 781.87 1842.69 782.695 1842.69 783.756C1842.69 784.84 1842.96 785.671 1843.51 786.247Z" fill="black"/>
<path d="M1881.8 946.376C1879.43 948.602 1876.38 949.715 1872.63 949.715C1868.89 949.715 1865.84 948.602 1863.46 946.376C1861.07 944.161 1859.88 941.197 1859.88 937.483C1859.88 935.43 1860.26 933.591 1861.02 931.964C1861.8 930.326 1862.75 929.087 1863.86 928.245C1864.95 927.414 1866.03 926.78 1867.09 926.342C1868.14 925.903 1869.08 925.684 1869.91 925.684L1869.91 928.02C1869.19 928.02 1868.15 928.4 1866.8 929.162C1866 929.623 1865.26 930.177 1864.58 930.822C1863.91 931.48 1863.33 932.391 1862.82 933.556C1862.32 934.721 1862.08 936.03 1862.08 937.483C1862.08 940.517 1863.07 942.904 1865.05 944.646C1867.05 946.41 1869.57 947.293 1872.63 947.293C1875.69 947.293 1878.21 946.41 1880.21 944.646C1882.2 942.893 1883.2 940.505 1883.2 937.483C1883.2 936.053 1882.95 934.744 1882.44 933.556C1881.93 932.391 1881.34 931.48 1880.67 930.822C1880 930.177 1879.27 929.623 1878.46 929.162C1877.11 928.4 1876.08 928.02 1875.36 928.02L1875.36 925.684C1876.19 925.684 1877.14 925.903 1878.2 926.342C1879.25 926.78 1880.32 927.414 1881.4 928.245C1882.51 929.098 1883.45 930.338 1884.22 931.964C1884.99 933.579 1885.38 935.419 1885.38 937.483C1885.38 941.197 1884.19 944.161 1881.8 946.376Z" fill="black"/>
<path d="M1882.87 919.852C1881.19 921.606 1879.01 922.482 1876.35 922.482C1873.68 922.482 1871.51 921.606 1869.83 919.852C1868.15 918.111 1867.32 915.89 1867.32 913.192C1867.32 910.493 1868.15 908.272 1869.83 906.531C1871.5 904.789 1873.67 903.918 1876.35 903.918C1879.02 903.918 1881.2 904.789 1882.87 906.531C1884.54 908.272 1885.38 910.493 1885.38 913.192C1885.38 915.89 1884.54 918.111 1882.87 919.852ZM1883.27 913.192C1883.27 911.104 1882.61 909.414 1881.28 908.122C1879.95 906.831 1878.31 906.185 1876.35 906.185C1874.39 906.185 1872.74 906.831 1871.42 908.122C1870.1 909.414 1869.45 911.104 1869.45 913.192C1869.45 915.268 1870.1 916.957 1871.42 918.261C1872.76 919.564 1874.4 920.216 1876.35 920.216C1878.3 920.216 1879.94 919.564 1881.28 918.261C1882.61 916.969 1883.27 915.279 1883.27 913.192Z" fill="black"/>
<path d="M1885.03 883.346L1885.03 885.544L1875.74 885.544C1873.54 885.544 1871.93 886.103 1870.92 887.222C1869.89 888.352 1869.38 889.84 1869.38 891.685C1869.38 893.669 1869.97 895.186 1871.16 896.235C1872.35 897.285 1873.9 897.81 1875.83 897.81L1885.03 897.81L1885.03 900.007L1867.66 900.007L1867.66 897.81L1870.4 897.81L1870.4 897.671C1870.14 897.556 1869.79 897.262 1869.32 896.789C1868.97 896.42 1868.66 896.016 1868.39 895.578C1868.09 895.082 1867.84 894.43 1867.63 893.623C1867.42 892.816 1867.32 891.979 1867.32 891.114C1867.32 888.865 1867.98 887.008 1869.31 885.544C1870.63 884.079 1872.64 883.346 1875.33 883.346L1885.03 883.346Z" fill="black"/>
<path d="M1866.78 875.854L1867.66 875.854L1867.66 870.214L1869.72 870.214L1869.72 875.854L1885.03 875.854L1885.03 878.051L1869.72 878.051L1869.72 881.061L1867.66 881.061L1867.66 878.051L1866.61 878.051C1864.34 878.051 1862.65 877.491 1861.54 876.373C1860.43 875.265 1859.88 873.818 1859.88 872.03C1859.88 871.419 1859.94 870.813 1860.05 870.214C1860.17 869.614 1860.3 869.164 1860.45 868.864L1860.66 868.484L1862.78 868.484C1862.22 869.256 1861.94 870.375 1861.94 871.84C1861.93 873.178 1862.33 874.181 1863.15 874.85C1863.96 875.519 1865.17 875.854 1866.78 875.854Z" fill="black"/>
<path d="M1885.22 848.74L1885.22 861.142L1882.52 861.142C1881.89 861.142 1881.33 860.995 1880.84 860.7C1880.35 860.406 1879.95 860.009 1879.65 859.508C1879.14 858.651 1878.69 857.537 1878.32 856.166C1878.21 855.772 1878.11 855.44 1878.03 855.171C1877.95 854.895 1877.84 854.607 1877.7 854.307C1877.57 854 1877.44 853.756 1877.3 853.575C1877.16 853.393 1877 853.243 1876.8 853.124C1876.61 853.005 1876.4 852.946 1876.17 852.946C1875.37 852.946 1874.96 853.546 1874.96 854.748C1874.96 855.956 1875.5 856.56 1876.56 856.56L1877.27 856.56L1877.27 860.794L1876.56 860.794C1874.82 860.794 1873.55 860.3 1872.75 859.311C1871.96 858.328 1871.56 856.81 1871.56 854.758C1871.56 852.723 1871.94 851.209 1872.7 850.214C1873.46 849.218 1874.62 848.721 1876.17 848.721C1877.04 848.721 1877.81 848.978 1878.47 849.491C1879.13 849.998 1879.64 850.627 1879.99 851.378C1880.31 852.079 1880.6 852.811 1880.85 853.575C1881.06 854.219 1881.25 854.845 1881.44 855.452C1881.61 855.972 1881.78 856.232 1881.95 856.232L1881.95 848.74L1885.22 848.74Z" fill="#08C5C8"/>
<path d="M1873.42 836.144C1874.67 834.974 1876.36 834.389 1878.48 834.389C1880.62 834.389 1882.3 834.974 1883.53 836.144C1884.78 837.315 1885.4 838.942 1885.4 841.026C1885.4 843.104 1884.78 844.728 1883.53 845.899C1882.29 847.075 1880.61 847.664 1878.48 847.664C1876.36 847.664 1874.68 847.075 1873.42 845.899C1872.18 844.722 1871.56 843.098 1871.56 841.026C1871.56 838.942 1872.18 837.315 1873.42 836.144ZM1875.16 841.026C1875.16 842.503 1876.27 843.242 1878.48 843.242C1880.71 843.242 1881.82 842.503 1881.82 841.026C1881.82 839.555 1880.71 838.82 1878.48 838.82C1876.27 838.82 1875.16 839.555 1875.16 841.026Z" fill="#08C5C8"/>
<path d="M1885.22 821.033L1885.22 833.435L1882.52 833.435C1881.89 833.435 1881.33 833.288 1880.84 832.994C1880.35 832.7 1879.95 832.302 1879.65 831.801C1879.14 830.944 1878.69 829.83 1878.32 828.459C1878.21 828.065 1878.11 827.733 1878.03 827.464C1877.95 827.189 1877.84 826.901 1877.7 826.6C1877.57 826.294 1877.44 826.049 1877.3 825.868C1877.16 825.686 1877 825.536 1876.8 825.417C1876.61 825.298 1876.4 825.239 1876.17 825.239C1875.37 825.239 1874.96 825.84 1874.96 827.042C1874.96 828.249 1875.5 828.853 1876.56 828.853L1877.27 828.853L1877.27 833.088L1876.56 833.088C1874.82 833.088 1873.55 832.593 1872.75 831.604C1871.96 830.622 1871.56 829.104 1871.56 827.051C1871.56 825.017 1871.94 823.502 1872.7 822.507C1873.46 821.512 1874.62 821.014 1876.17 821.014C1877.04 821.014 1877.81 821.271 1878.47 821.784C1879.13 822.291 1879.64 822.92 1879.99 823.671C1880.31 824.372 1880.6 825.104 1880.85 825.868C1881.06 826.513 1881.25 827.139 1881.44 827.746C1881.61 828.265 1881.78 828.525 1881.95 828.525L1881.95 821.033L1885.22 821.033Z" fill="#08C5C8"/>
<path d="M1885.22 809.386L1885.22 813.611L1882.72 813.611L1882.72 821.018L1879.45 821.018L1871.75 814.963L1871.75 809.386L1879.45 809.386L1879.45 807.649L1882.72 807.649L1882.72 809.386L1885.22 809.386ZM1874.26 813.329L1875.84 814.155L1879.41 817.056L1879.51 817.056L1879.51 813.554L1875.84 813.554L1874.26 812.907L1874.26 813.329Z" fill="#08C5C8"/>
</svg>
